<?xml version="1.0" encoding="UTF-8" standalone="no"?>
<svg
   version="1.1"
   id="Layer_1"
   x="0px"
   y="0px"
   width="100%"
   viewBox="0 0 560 752"
   xml:space="preserve"
   sodipodi:docname="spell.svg"
   inkscape:version="1.2.2 (b0a8486541, 2022-12-01)"
   xmlns:inkscape="http://www.inkscape.org/namespaces/inkscape"
   xmlns:sodipodi="http://sodipodi.sourceforge.net/DTD/sodipodi-0.dtd"
   xmlns="http://www.w3.org/2000/svg"
   xmlns:svg="http://www.w3.org/2000/svg"><defs
   id="defs12597"></defs><sodipodi:namedview
   id="namedview12595"
   pagecolor="#ffffff"
   bordercolor="#000000"
   borderopacity="0.25"
   inkscape:showpageshadow="2"
   inkscape:pageopacity="0.0"
   inkscape:pagecheckerboard="0"
   inkscape:deskcolor="#d1d1d1"
   showgrid="false"
   inkscape:zoom="1.0492021"
   inkscape:cx="280.68948"
   inkscape:cy="566.62104"
   inkscape:window-width="1920"
   inkscape:window-height="1011"
   inkscape:window-x="0"
   inkscape:window-y="0"
   inkscape:window-maximized="1"
   inkscape:current-layer="Layer_1" />
<path
   id="path13664"
   class="UnoptimicedTransforms"
   inkscape:path-effect="#path-effect13662"
   inkscape:original-d="M 0,0"
   d="m 561,727.5625 c -4.71075,0.61017 -8.79315,0.98535 -13.16809,-3.0199 -3.79846,-3.47729 -9.9928,-0.29834 -15.6626,-0.0131 1.52429,3.39465 5.08631,4.96808 3.32898,8.51984 5.04444,1.91931 10.27148,-0.34998 14.54871,2.60827 -0.0769,2.95648 -2.38031,3.16931 -4.2118,3.34729 -13.59167,1.32068 -27.20501,2.35205 -40.87771,2.23114 -0.33304,-0.003 -0.73862,0.0941 -0.98837,-0.0571 -9.21027,-5.57434 -19.14728,-0.7229 -28.68671,-1.93756 -5.15988,-0.65698 -10.29096,-0.70843 -14.68317,-3.99078 -1.80786,-1.35113 -4.10058,-1.77765 -6.18417,-1.70905 -9.69495,0.31928 -19.13098,-2.23211 -28.76401,-2.38147 -14.31,-0.22192 -28.64194,0.79346 -42.92731,-0.9569 -2.90115,-0.35547 -5.88311,-0.0514 -9.15548,-0.0514 1.35772,2.65125 4.6683,0.8252 5.57504,3.65485 -1.40213,2.45837 -4.01691,1.8476 -6.09921,1.7309 -11.50833,-0.64521 -22.57047,-3.3006 -33.66986,-6.50422 -7.16684,-2.06854 -15.21241,-2.26251 -22.73307,-1.65991 -11.15808,0.89392 -22.30597,-0.2384 -33.42315,0.8089 -4.47217,0.42121 -8.96616,0.68103 -13.45612,0.81287 -2.18832,0.0642 -4.6438,-0.19391 -4.65698,-3.22974 -0.0124,-2.85901 2.22516,-3.46069 4.50375,-3.60193 2.8245,-0.17511 5.65979,-0.20428 8.49109,-0.23333 2.36902,-0.0244 4.5889,-0.0188 6.03244,-2.54029 1.02991,-1.79907 3.14893,-1.79822 4.96668,-1.67657 11.79751,0.78937 23.83557,-0.0864 35.36136,1.56549 12.27233,1.75897 23.16952,-2.42944 34.70626,-3.55969 5.50757,-0.53955 11.00016,0.67987 16.44233,0.0909 16.76187,-1.81397 33.54428,0.23193 50.29901,-0.54932 6.55328,-0.3056 16.47424,-11.12726 15.35815,-17.40112 -0.52216,-2.93518 -1.77502,-6.53882 -4.58511,-8.45239 -8.38529,-5.71009 -17.48352,-10.16584 -26.86609,-13.9538 -4.37613,-1.76672 -8.62821,-0.85278 -11.95956,2.92938 -4.88425,-3.56854 -5.98481,-7.96063 -4.18378,-13.41937 3.3248,-10.07703 6.22253,-20.30188 12.80923,-28.95789 2.97138,-3.90478 4.11728,-8.61175 5.32331,-13.33123 2.62039,-10.2547 7.77374,-19.45691 12.82125,-28.64734 5.04587,-9.18738 11.16013,-17.87055 15.36976,-27.40863 3.35931,-7.61151 8.52114,-14.33258 10.12551,-22.94446 1.62503,-8.72284 -2.73492,-15.10858 -6.0137,-22.06671 -1.07913,-2.29016 -1.83819,-4.28192 -1.78201,-6.99225 0.067,-3.233 -0.51773,-6.3396 -5.4661,-7.24558 -3.90853,-0.71554 -6.45108,-5.33429 -7.33349,-9.22302 -0.56555,-2.49249 -1.23868,-5.77115 -0.28418,-8.29248 3.46643,-9.15686 -1.00086,-17.3869 -4.17859,-24.83783 -3.74707,-8.78586 -6.13709,-18.06286 -10.45011,-26.70624 -3.94928,-7.91449 -7.41049,-15.92782 -13.22601,-22.69412 -0.64612,-0.75168 -1.19146,-1.61325 -1.647,-2.49441 -0.19272,-0.37281 -0.0321,-0.92829 -0.0321,-1.31583 0.55674,-0.76227 1.24634,-0.71216 1.83618,-0.37692 9.48984,5.39334 15.38843,13.71954 18.2367,23.98294 1.28287,4.62256 3.32889,8.66668 5.81528,12.56094 4.68606,7.3396 5.19189,16.48117 10.43527,23.56983 3.78351,5.11499 5.42969,11.39855 8.74985,16.74273 2.82641,4.54941 5.82904,8.68827 6.9133,14.30716 0.92971,4.81787 6.65271,7.0788 9.05453,11.57617 1.55023,2.90278 1.87116,6.9823 6.29929,8.10773 0.33023,-0.25262 1.16647,-0.55505 1.28268,-1.03265 1.40357,-5.76819 3.86148,-11.19937 5.59232,-16.79978 2.7575,-8.92248 7.3717,-13.69003 15.96408,-13.54342 7.4241,0.1267 13.39566,5.62606 14.08426,14.20474 0.50036,6.23276 1.21164,12.56802 0.21066,18.8569 -0.36603,2.29969 -0.49442,5.0398 -2.50336,6.34052 -4.00058,2.59015 -3.59909,5.51788 -1.44125,8.85315 1.44717,2.23681 1.56183,4.48578 1.19052,7.12243 -1.19037,8.45313 1.99951,16.40961 3.47583,24.52185 3.00394,16.50611 3.28879,33.02216 0.84168,49.51868 -0.56611,3.81604 -1.16449,8.1098 -4.50425,11.37567 -2.0972,2.05091 -1.00525,5.3747 -0.35046,8.1424 3.10925,13.1427 3.05975,26.66089 5.13281,39.77105 -1.7392,0.95679 -2.30417,-0.82031 -3.44668,-0.79663 -0.76947,4.82184 -0.76947,4.82184 7.42642,7.01209 -6.94406,2.73474 -11.0918,6.75476 -11.16101,14.52417 -2.63913,-2.54663 -2.18695,-6.05188 -5.45655,-4.81824 -1.76999,0.66772 -4.406,0.15057 -4.82638,2.73816 -0.35812,2.20465 1.19876,3.65265 3.0144,4.74957 4.23621,2.55945 8.61591,4.06647 13.75135,3.33551 3.59597,-0.5119 7.30725,-0.34033 10.96215,-0.25775 1.76801,0.0399 3.67652,0.30335 4.49793,2.1886 -0.62073,3.23627 -4.11853,1.81677 -5.74957,4.08447 5.26153,1.14734 10.16375,1.59131 15.29803,0.66101 3.56726,-0.64642 7.37262,-0.0167 10.92163,-0.71692 5.24182,-1.03424 8.79505,1.18329 11.35529,5.16877 1.93115,3.00604 4.42785,3.63592 7.98114,3.4237 C 561,723.04169 561,725.08331 561,727.5625 Z" /><path
   fill="#000000"
   opacity="1.000000"
   stroke="none"
   d=" M561.000000,727.562500   C556.289246,728.172668 552.206848,728.547852 547.831909,724.542603   C544.033447,721.065308 537.839111,724.244263 532.169312,724.529480   C533.693604,727.924133 537.255615,729.497559 535.498291,733.049316   C540.542725,734.968628 545.769775,732.699341 550.046997,735.657593   C549.970154,738.614075 547.666687,738.826904 545.835205,739.004883   C532.243530,740.325562 518.630188,741.356934 504.957489,741.236023   C504.624451,741.233093 504.218872,741.330078 503.969116,741.178955   C494.758850,735.604614 484.821838,740.456055 475.282410,739.241394   C470.122528,738.584412 464.991455,738.532959 460.599243,735.250610   C458.791382,733.899475 456.498657,733.472961 454.415070,733.541565   C444.720123,733.860840 435.284088,731.309448 425.651062,731.160095   C411.341064,730.938171 397.009125,731.953552 382.723755,730.203186   C379.822601,729.847717 376.840637,730.151794 373.568268,730.151794   C374.925995,732.803040 378.236572,730.976990 379.143311,733.806641   C377.741180,736.265015 375.126404,735.654236 373.044098,735.537537   C361.535767,734.892334 350.473633,732.236938 339.374237,729.033325   C332.207397,726.964783 324.161835,726.770813 316.641174,727.373413   C305.483093,728.267334 294.335205,727.135010 283.218018,728.182312   C278.745850,728.603516 274.251862,728.863342 269.761902,728.995178   C267.573578,729.059387 265.118103,728.801270 265.104919,725.765442   C265.092499,722.906433 267.330078,722.304749 269.608673,722.163513   C272.433167,721.988403 275.268463,721.959229 278.099762,721.930176   C280.468781,721.905823 282.688660,721.911377 284.132202,719.389893   C285.162109,717.590820 287.281128,717.591675 289.098877,717.713318   C300.896393,718.502686 312.934448,717.626892 324.460236,719.278809   C336.732574,721.037781 347.629761,716.849365 359.166504,715.719116   C364.674072,715.179565 370.166656,716.398987 375.608826,715.810059   C392.370697,713.996094 409.153107,716.041992 425.907837,715.260742   C432.461121,714.955139 442.382080,704.133484 441.265991,697.859619   C440.743835,694.924438 439.490967,691.320801 436.680878,689.407227   C428.295593,683.697144 419.197357,679.241394 409.814789,675.453430   C405.438660,673.686707 401.186584,674.600647 397.855225,678.382812   C392.970978,674.814270 391.870422,670.422180 393.671448,664.963440   C396.996246,654.886414 399.893982,644.661560 406.480682,636.005554   C409.452057,632.100769 410.597961,627.393799 411.803986,622.674316   C414.424377,612.419617 419.577728,603.217407 424.625244,594.026978   C429.671112,584.839600 435.785370,576.156433 439.994995,566.618347   C443.354309,559.006836 448.516144,552.285767 450.120514,543.673889   C451.745544,534.951050 447.385590,528.565308 444.106812,521.607178   C443.027679,519.317017 442.268616,517.325256 442.324799,514.614929   C442.391846,511.381927 441.807068,508.275330 436.858704,507.369354   C432.950165,506.653809 430.407623,502.035065 429.525208,498.146332   C428.959656,495.653839 428.286530,492.375183 429.241028,489.853851   C432.707458,480.696991 428.240173,472.466949 425.062439,465.016022   C421.315369,456.230164 418.925354,446.953156 414.612335,438.309784   C410.663055,430.395294 407.201843,422.381958 401.386322,415.615662   C400.740204,414.863983 400.194855,414.002411 399.739319,413.121246   C399.546600,412.748444 399.707184,412.192963 399.707184,411.805420   C400.263916,411.043152 400.953522,411.093262 401.543365,411.428497   C411.033203,416.821838 416.931793,425.148041 419.780060,435.411438   C421.062927,440.033997 423.108948,444.078125 425.595337,447.972382   C430.281403,455.311981 430.787231,464.453552 436.030609,471.542206   C439.814117,476.657196 441.460297,482.940765 444.780457,488.284943   C447.606873,492.834351 450.609497,496.973206 451.693756,502.592102   C452.623474,507.409973 458.346466,509.670898 460.748291,514.168274   C462.298523,517.071045 462.619446,521.150574 467.047577,522.276001   C467.377808,522.023376 468.214050,521.720947 468.330261,521.243347   C469.733826,515.475159 472.191742,510.043976 473.922577,504.443573   C476.680084,495.521088 481.294281,490.753540 489.886658,490.900146   C497.310760,491.026855 503.282318,496.526215 503.970917,505.104889   C504.471283,511.337646 505.182556,517.672913 504.181580,523.961792   C503.815552,526.261475 503.687164,529.001587 501.678223,530.302307   C497.677643,532.892456 498.079132,535.820190 500.236969,539.155457   C501.684143,541.392273 501.798798,543.641235 501.427490,546.277893   C500.237122,554.731018 503.427002,562.687500 504.903320,570.799744   C507.907257,587.305847 508.192108,603.821899 505.744995,620.318420   C505.178894,624.134460 504.580505,628.428223 501.240753,631.694092   C499.143555,633.744995 500.235504,637.068787 500.890289,639.836487   C503.999542,652.979187 503.950043,666.497375 506.023102,679.607544   C504.283905,680.564331 503.718933,678.787231 502.576416,678.810913   C501.806946,683.632751 501.806946,683.632751 510.002838,685.822998   C503.058777,688.557739 498.911041,692.577759 498.841827,700.347168   C496.202698,697.800537 496.654877,694.295288 493.385284,695.528931   C491.615295,696.196655 488.979279,695.679504 488.558899,698.267090   C488.200775,700.471741 489.757660,701.919739 491.573303,703.016663   C495.809509,705.576111 500.189209,707.083130 505.324646,706.352173   C508.920624,705.840271 512.631897,706.011841 516.286804,706.094421   C518.054810,706.134338 519.963318,706.397766 520.784729,708.283020   C520.164001,711.519287 516.666199,710.099792 515.035156,712.367493   C520.296692,713.514832 525.198914,713.958801 530.333191,713.028503   C533.900452,712.382080 537.705811,713.011841 541.254822,712.311584   C546.496643,711.277344 550.049866,713.494873 552.610107,717.480347   C554.541260,720.486389 557.037964,721.116272 560.591248,720.904053   C561.000000,723.041687 561.000000,725.083313 561.000000,727.562500  M444.320099,712.932190   C446.036896,711.098816 445.491364,709.551941 443.874817,708.002075   C440.456818,711.414551 440.466156,712.038757 444.320099,712.932190  z"
   id="path12564"
   class="UnoptimicedTransforms" />
<path
   fill="none"
   opacity="1.000000"
   stroke="none"
   d=" M227.208191,284.882874   C233.509583,289.018005 234.272095,295.499939 233.994644,302.091187   C233.778793,307.218964 233.180817,312.433624 231.911865,317.394653   C228.194656,331.927338 233.676941,344.013702 241.980682,355.042358   C246.207153,360.655701 251.237564,365.753113 258.696289,367.900482   C272.032104,371.739899 285.127258,371.893677 298.244659,367.332062   C301.357117,366.249695 304.377411,364.844391 307.550323,364.003601   C321.766266,360.236450 328.702240,350.154877 329.548859,336.398376   C330.392242,322.694824 332.045746,308.886963 330.449310,295.160980   C329.450867,286.576447 330.195679,277.390015 324.927368,269.781128   C318.623352,260.676453 312.143982,251.659653 302.888458,245.164078   C299.963013,243.110977 298.361877,239.864822 295.956970,237.368088   C287.863678,228.965668 282.849579,218.781082 278.526672,208.155151   C277.973145,206.794571 277.265442,205.496719 276.053833,202.970032   C273.422394,210.235794 273.434692,216.359344 275.211670,222.620255   C276.953857,228.758469 280.816711,233.720123 283.976898,239.150055   C278.285370,235.475204 274.939392,229.960678 272.885162,223.772018   C270.639252,217.005951 270.230011,209.902191 273.102875,203.237625   C275.285126,198.175140 273.024567,193.966736 272.082336,188.534882   C268.599304,192.552933 267.410553,196.543839 267.196350,200.842636   C266.531189,214.190765 270.360077,226.113022 278.670929,236.616547   C287.348785,247.583832 295.790070,258.742584 304.642303,269.566071   C310.543579,276.781464 313.532410,285.509644 317.906830,293.505798   C319.264618,295.987732 317.313965,299.160614 317.251160,302.118652   C316.736298,326.362823 307.935272,346.772949 288.576813,362.057739   C285.402985,364.563690 281.813629,366.121948 276.755676,366.775574   C281.651398,363.044495 286.128418,360.262451 289.846985,356.690735   C306.980591,340.233704 315.823029,320.392029 313.784760,296.254456   C313.345398,291.051178 310.891022,287.159576 306.474182,283.751038   C309.828094,281.718475 307.716309,279.691925 306.538635,277.789642   C301.068848,268.954437 293.483734,261.820709 287.045624,253.760956   C279.980774,244.916550 272.526703,236.333450 267.320404,226.180710   C260.942261,213.742706 261.309570,201.298355 267.631073,188.903488   C269.400024,185.435043 270.025818,181.528488 271.148468,177.921936   C272.683228,172.991272 276.187012,168.123932 280.914307,165.016922   C290.675964,158.601028 301.755249,154.588394 311.667389,148.446442   C314.612640,146.621429 317.060791,149.018036 319.767242,148.723801   C330.640961,147.541672 341.694702,149.084641 352.486786,146.453506   C356.347290,145.512314 360.106232,146.152817 363.300537,148.708038   C357.644897,148.021973 352.154694,147.668854 345.154602,148.874603   C350.675049,151.442383 354.985168,152.930344 359.465759,153.582138   C362.182159,153.977280 365.134552,153.728638 367.007660,151.010696   C370.679718,152.622131 373.852539,150.269791 377.149139,149.529480   C395.154846,145.486038 412.925873,140.427200 431.663330,137.264404   C427.278107,134.205109 422.834412,135.331726 418.571777,134.804077   C445.286957,132.159927 472.540741,137.314484 499.682495,128.011429   C498.196075,131.703049 495.993073,132.789337 493.816895,133.604904   C491.249207,134.567215 490.015503,136.107742 490.305756,138.844849   C490.859344,144.064789 488.633789,148.319626 485.293579,151.973526   C482.995941,154.486969 481.885254,157.172775 482.102814,160.539200   C482.517242,166.952209 480.141846,173.458267 482.762909,179.815353   C483.013367,180.422745 482.592499,181.106201 481.220490,181.650421   C477.264923,178.211517 474.297211,173.698334 473.221527,168.349243   C472.234070,163.438705 470.372650,162.871567 466.123596,164.941284   C461.687012,167.102310 456.902344,168.548706 451.650970,170.542465   C459.036316,175.969345 459.903503,184.567902 464.194092,191.243362   C472.541351,204.230347 481.113586,206.910049 494.977753,200.075958   C504.098145,195.580215 511.238495,188.605728 518.230164,181.445282   C519.330383,180.318573 519.868286,178.547775 522.731201,177.803406   C521.344421,182.453339 519.321960,185.908997 516.115173,188.291122   C511.001984,192.089523 506.736450,196.782013 501.926514,200.859451   C494.363892,207.270325 485.607910,210.416504 475.533356,208.056961   C465.679321,205.749054 461.845642,197.584106 458.012329,189.591843   C456.365448,186.158188 455.456573,182.378296 454.036591,178.825974   C452.514069,175.016922 449.570099,173.143967 445.448456,173.207855   C435.142914,173.367523 426.109863,177.727829 417.074524,181.968399   C414.999725,182.942184 415.115875,185.285385 415.131836,187.307068   C415.207855,196.922714 418.440918,205.902832 420.778046,215.058929   C421.338684,217.255325 422.592072,219.285828 422.303223,222.966858   C417.289825,215.869034 414.134796,209.042404 411.659241,201.925613   C410.164948,197.629791 409.282990,193.120102 408.154327,188.699265   C408.036469,188.237717 407.893433,187.516174 408.130341,187.270645   C411.389282,183.893219 410.146820,179.007507 412.285950,175.208893   C414.814056,170.719543 416.418365,170.305450 419.229980,174.445877   C420.725311,176.647888 421.914886,176.821533 424.093353,175.575714   C427.579102,173.582321 431.452301,172.432007 435.376953,171.710403   C450.449707,168.939056 463.753296,162.117035 475.869598,153.164169   C479.671570,150.354828 483.786041,147.182693 486.227509,142.760391   C487.117035,141.149109 487.261230,139.261490 486.375427,137.025513   C482.036682,136.420761 477.747009,138.097473 473.376953,138.475281   C462.890961,139.381851 452.429413,139.630203 441.961121,138.560364   C435.127899,137.862061 428.751495,140.193481 422.325958,141.646347   C406.741730,145.170059 391.300720,149.327911 375.807404,153.251556   C374.406097,153.606430 372.796082,153.688950 371.808929,156.021942   C377.362396,158.624619 383.188416,159.040985 389.052917,158.527725   C393.180298,158.166504 397.252686,157.149872 401.340881,156.379486   C403.276550,156.014755 404.478546,156.174576 402.803497,158.641388   C401.868469,158.624039 401.342163,158.322556 400.909637,158.423355   C393.233154,160.212326 385.542908,160.890137 377.734039,159.212524   C375.935272,158.826111 374.021332,158.950546 372.738251,160.863983   C370.939636,159.219467 369.608215,157.586151 368.760132,154.909302   C365.041321,158.862717 359.470215,155.710770 355.661102,159.427963   C357.791473,164.392075 362.918091,163.549179 366.601837,165.149124   C370.184784,166.705261 372.759277,165.298203 373.274536,161.214890   C374.555542,164.188278 376.522705,165.211609 379.371429,164.797424   C386.418182,163.772903 393.467834,162.768051 400.520813,161.787506   C402.207153,161.553055 403.452271,161.044891 402.961456,158.973801   C409.212646,160.104431 413.934998,158.222565 416.960785,153.330627   C414.961121,150.895050 410.780243,153.615265 409.174011,150.107437   C409.875275,147.787567 411.861755,147.985718 413.629456,147.906281   C416.125885,147.794083 418.646698,147.950348 420.682556,146.033981   C421.131012,145.611801 422.043457,145.105774 422.439148,145.289856   C429.713928,148.674347 437.571045,145.086639 444.945160,147.234604   C447.496063,147.977646 450.839844,148.095154 450.658020,151.582794   C450.478516,155.026001 447.376801,155.304123 444.575653,155.221130   C441.246399,155.122498 437.914825,155.015442 434.592651,154.788712   C430.685760,154.522079 426.375671,153.209686 425.428680,159.175507   C425.350922,159.665634 424.555206,160.339615 424.020172,160.415680   C411.551208,162.188919 399.431824,165.871292 386.886902,167.209869   C384.596924,167.454224 382.246246,167.416916 379.821930,169.080765   C382.117401,171.705551 385.261475,174.702789 379.119904,176.395660   C378.092133,176.678955 377.869446,177.781494 377.911896,178.887085   C378.139313,184.808060 381.833893,189.097229 388.394714,190.706772   C389.846008,185.551773 386.828766,179.291809 392.217560,173.638763   C392.606049,178.607849 390.343384,182.093353 391.402069,185.552551   C392.240936,188.293365 389.957642,194.072449 396.771606,191.933060   C395.234619,198.021393 395.234619,198.021393 404.286407,202.568619   C401.713379,204.751602 399.220490,201.960938 396.663666,202.464279   C393.889862,215.334732 403.365082,222.249695 410.889771,230.769623   C401.022400,226.122955 393.775909,216.302307 392.264557,205.548187   C391.789062,202.164642 390.523560,199.984039 387.676422,197.898605   C379.192902,191.684738 372.275055,183.768082 365.490753,175.795395   C362.769409,172.597336 360.145691,169.628433 355.885193,168.273041   C352.517914,167.201813 349.794006,165.109772 353.518860,160.117935   C343.285187,160.767044 334.586426,164.372971 325.579559,166.147888   C325.460052,165.691589 325.340515,165.235291 325.221008,164.778992   C332.721222,162.519943 340.221436,160.260880 348.132446,157.878098   C337.724945,153.195480 328.546875,153.972885 319.206390,159.849655   C306.137451,168.072311 294.159454,177.446304 283.799591,188.892532   C279.753571,193.362808 277.480438,197.833405 280.675262,204.096161   C286.054840,214.641724 290.475922,225.943237 299.345245,234.012909   C305.722961,239.815613 310.891205,246.643539 317.238708,252.428665   C329.811890,263.887817 334.869354,278.772461 335.218842,295.413208   C335.376312,302.911926 336.215607,310.287750 337.053955,317.730957   C338.215118,328.039886 336.223907,338.364899 332.997131,348.305786   C332.391205,350.172485 331.390869,351.911163 330.648834,353.541382   C331.392944,355.275696 332.986633,353.068268 333.752136,354.696747   C328.581970,363.424011 320.168579,368.540283 311.272217,372.010895   C296.612793,377.729828 281.101349,379.841034 265.410980,377.258301   C256.470428,375.786652 247.464005,376.956512 238.554916,375.491943   C229.404129,373.987671 223.217117,368.764313 222.223785,359.611877   C221.582336,353.701660 221.006256,347.532928 223.095505,340.318390   C224.775528,344.120972 225.221390,346.754059 225.106567,349.592194   C224.992386,352.415344 225.050369,355.261200 225.266312,358.079193   C226.050415,368.310974 237.075272,374.798981 247.066559,370.890869   C246.692413,368.515930 244.677597,367.404785 243.147522,365.992554   C229.630478,353.516602 224.058533,338.444916 227.567474,320.121857   C228.718994,314.108887 230.820953,308.302795 230.945190,302.037750   C231.060898,296.203217 230.323090,290.763245 227.028885,285.427185   C227.017914,285.016846 227.208191,284.882874 227.208191,284.882874  M319.884155,157.552673   C321.056824,156.651260 322.830994,156.335556 323.294067,154.346344   C304.581787,154.488937 289.442749,160.916702 278.375427,176.196381   C274.321167,181.793732 274.804138,186.998413 277.360474,193.438309   C288.896362,178.060547 303.618225,167.410263 319.884155,157.552673  M370.490509,169.261871   C368.586273,168.822540 366.656433,168.181686 364.761902,170.126175   C368.077240,173.779388 369.615906,178.956192 375.193390,181.370972   C374.672394,176.724579 373.658142,172.888382 370.490509,169.261871  M477.243530,170.369446   C480.225983,167.058960 478.278839,163.448059 478.373901,159.762787   C474.278290,161.160736 473.838776,161.612900 474.598480,164.432648   C475.109436,166.329117 476.060638,168.106949 477.243530,170.369446  z"
   id="path12566"
   style="fill:#00ff00" />
<path
   fill="none"
   opacity="1.000000"
   stroke="black"
   d=" M156.907883,279.084747   C156.892685,280.577240 156.967758,282.077301 156.843796,283.560699   C156.572159,286.810730 160.018906,287.875122 160.924942,287.018402   C164.725403,283.424561 166.889893,288.119904 169.887527,287.613831   C170.036804,288.094879 170.186066,288.575897 170.335342,289.056915   C158.408920,295.657532 146.482498,302.258118 133.638321,309.366669   C134.098038,305.073639 136.453827,303.639038 138.408539,302.170532   C142.394974,299.175629 146.638870,296.525909 150.694351,293.619080   C152.218262,292.526794 154.634033,291.386871 152.703995,288.957611   C150.819183,286.585297 149.751541,289.009491 148.345657,289.985504   C146.583786,291.208649 144.622192,292.168732 142.674744,293.089996   C141.628067,293.585083 140.021500,293.968140 139.647598,292.567200   C139.140945,290.668976 138.257767,289.882324 136.532440,290.579987   C134.793503,291.283142 135.211136,293.052002 135.132370,294.509644   C135.073242,295.603638 135.783447,296.793610 134.687363,297.830170   C132.897232,297.288513 132.600769,295.445953 132.575302,294.257294   C132.457733,288.769989 128.667694,286.441772 124.716164,283.879547   C120.419426,281.093475 116.092453,278.244446 113.511803,273.478638   C112.473694,271.561493 110.722923,270.385834 108.365746,269.913055   C104.725082,269.182800 102.597794,267.041168 102.670929,262.927277   C102.741692,258.946869 102.587021,255.017487 98.673119,252.255463   C97.070549,251.124557 97.457108,248.728424 98.934502,247.349823   C101.233978,245.204132 103.569366,242.893250 106.313095,241.467422   C113.177238,237.900375 116.763184,232.826904 117.328056,224.848206   C117.544853,221.786163 118.854599,218.548477 118.831512,215.245697   C118.808388,211.937927 119.151489,208.565582 117.117287,204.997284   C111.829529,205.796417 107.495384,203.656357 102.944458,200.284210   C99.509468,197.738937 93.962502,198.751785 88.778015,195.343506   C86.618317,212.596863 74.991348,223.662109 66.855110,236.760605   C67.758965,231.026993 70.282745,225.881226 72.705109,220.771011   C77.690964,210.252838 83.769974,200.136948 82.924545,187.818039   C82.843323,186.634644 83.292870,185.488663 84.586739,185.006866   C85.966400,184.493134 87.166611,184.696548 88.178482,185.879105   C89.137047,186.999374 89.867279,188.397095 91.449936,188.833710   C98.425903,184.795853 115.386322,187.579514 118.347031,193.549408   C120.825256,193.004807 123.373253,192.289551 125.970268,191.906723   C131.249069,191.128601 134.018906,194.299255 132.516479,199.351959   C129.855194,208.301987 133.008392,216.016876 137.866333,223.168106   C139.608505,225.732697 142.367889,227.641357 146.024551,226.945847   C146.789429,226.800354 147.803284,226.859894 148.429367,227.256241   C156.365356,232.279984 165.891678,230.842972 174.380203,233.657257   C176.318130,234.299759 178.650711,233.751877 181.078400,233.751877   C181.713577,235.361359 182.397964,237.095535 183.195786,239.117126   C179.933487,240.404205 177.657013,242.257111 180.050095,246.464294   C184.840546,245.125076 187.533035,239.589691 193.183426,239.893845   C195.110321,242.957748 193.557373,244.889343 191.113174,246.885132   C187.597092,249.756134 182.927261,251.377441 180.555161,256.263092   C195.101181,263.377686 204.996628,275.682983 216.417801,286.374115   C212.900864,285.235779 210.579529,280.801056 206.451950,283.576996   C200.068970,273.891937 191.287979,267.460480 181.980804,261.680817   C177.562561,258.937103 175.126587,259.627563 172.668320,264.327240   C169.451385,270.477325 163.774612,273.939697 158.380402,277.721497   C158.658707,275.122620 160.376541,273.870850 162.228470,272.664886   C163.758789,271.668396 166.382980,270.019409 165.924667,268.963440   C164.032700,264.604309 168.097366,262.488922 169.083633,259.398651   C167.879852,258.317139 166.642838,258.625610 165.539368,258.688446   C151.500565,259.487610 140.924759,267.613312 136.359772,281.019958   C135.624832,283.178375 133.997238,285.734680 136.486618,287.335693   C139.124008,289.031891 142.338516,289.961609 145.372772,287.664673   C146.300049,286.962708 147.300018,286.299438 148.050186,285.431335   C150.502502,282.593506 153.612579,280.720642 156.907883,279.084747  M160.947067,244.521149   C156.871124,245.531036 152.795197,246.540924 148.432449,247.621872   C150.836777,249.588150 154.104294,249.440125 156.204178,252.527420   C152.634979,252.838242 149.945114,251.984161 147.323318,250.596176   C145.869186,249.826309 144.237610,248.432083 142.869781,248.624649   C136.919281,249.462341 136.725708,245.369873 136.432449,241.504395   C136.013870,235.987152 134.666931,235.106400 130.072983,238.209274   C126.191406,240.831024 123.060303,244.255356 120.653046,248.363571   C119.626610,250.115295 118.235245,253.185928 115.988953,251.948914   C109.956589,248.626953 111.484627,253.404175 111.197693,256.038177   C110.965195,258.172455 111.346436,260.366730 111.223183,262.521118   C110.913956,267.926056 113.041252,272.601746 117.898178,274.231110   C122.362038,275.728668 127.440979,275.011078 130.642944,270.212921   C131.577911,268.811829 133.040878,267.595917 134.857819,268.109192   C137.420578,268.833160 138.436569,267.036377 139.786652,265.625458   C145.856720,259.282013 152.968918,255.102417 161.996231,254.730179   C171.716721,254.329346 171.718933,254.281082 170.793839,244.367874   C170.734482,243.731827 170.534332,243.108932 170.334045,242.173355   C165.347244,243.275909 160.836670,238.841721 155.427063,240.988892   C157.005310,243.618774 159.070450,242.649826 160.733124,243.039062   C161.331863,243.179230 162.892334,242.909897 160.947067,244.521149  M125.652802,282.024078   C127.102127,282.929138 128.162369,284.823334 130.335709,283.952271   C130.755554,279.221771 129.386047,278.227692 123.207428,278.847107   C123.348381,280.153839 124.380959,280.791290 125.652802,282.024078  z"
   id="path12568"
   style="fill:#00ff00" />
<path
   fill="none"
   opacity="1.000000"
   stroke="black"
   d=" M141.797058,173.309509   C136.327972,175.970245 133.414413,174.280426 132.244644,168.798920   C131.616470,165.855331 127.868874,164.798813 127.801254,161.272964   C127.753883,158.803619 126.801048,156.409897 128.904510,154.258148   C129.880035,153.260223 129.853806,151.754776 129.644363,150.440826   C127.582870,137.506973 128.676819,124.612877 130.054550,111.719666   C130.107239,111.226509 130.061722,110.395493 130.299606,110.297226   C136.749466,107.632942 133.817749,99.619576 138.821762,95.786270   C143.461914,92.231705 148.227386,88.952240 153.158997,85.867157   C158.566620,82.484276 158.937744,80.730309 155.118073,75.640869   C152.058975,71.564865 149.767654,67.214828 148.598206,61.123653   C156.157608,66.574142 159.889374,73.466866 161.209351,80.582947   C162.070084,85.223167 160.065399,91.018250 157.371445,95.757256   C156.281723,97.674202 155.203140,99.684425 157.928192,101.217957   C156.246170,103.834183 153.698853,104.310364 151.448288,105.227982   C147.856247,106.692551 144.615128,108.739395 141.811401,111.363785   C139.668732,113.369415 137.230820,115.425995 138.774963,119.051590   C139.477310,120.700691 137.975098,121.846367 137.277649,123.073074   C136.362183,124.683250 134.927444,126.100204 136.900757,127.837524   C138.783234,129.494873 141.292358,129.089325 142.262970,127.500374   C145.981720,121.412430 152.864227,121.987854 158.208969,119.462212   C164.178986,116.641106 170.962463,115.791656 176.775940,112.397423   C177.903427,111.739143 179.904099,111.013985 180.470703,112.175156   C183.376495,118.130127 190.320145,121.941643 189.823441,129.694641   C189.745285,130.914581 189.604584,132.372604 188.584579,132.810471   C182.576096,135.389908 179.834641,141.216339 175.574432,145.519928   C175.415329,145.680664 174.987686,145.575577 174.253067,145.621170   C175.461121,142.940125 176.806976,140.515778 177.640793,137.926544   C178.320221,135.816711 177.661163,133.428009 176.677368,131.631058   C175.447891,129.385361 174.392090,127.519699 176.834854,125.253937   C172.731277,123.114197 169.750519,125.223557 166.482498,126.209526   C167.424744,128.565674 170.158218,127.135536 171.331329,129.466110   C167.879517,132.035309 166.877579,136.049713 165.711548,140.197586   C164.327530,145.120880 157.487076,146.228088 153.954041,142.433136   C152.951645,141.356430 152.220169,140.011673 151.448776,138.738754   C149.294617,135.183960 147.114578,135.172806 145.021896,138.896225   C144.016541,140.685028 142.807510,142.148087 141.139557,143.347610   C133.752487,148.660110 134.102921,157.404205 141.855240,162.293884   C144.203232,163.774872 146.811020,164.923264 149.119781,167.775146   C145.138641,168.170929 147.663147,174.959488 141.797058,173.309509  M147.632462,102.113388   C154.654556,98.571571 157.195419,94.613365 156.700043,87.987762   C143.948227,93.366356 137.352325,100.118088 139.122986,106.305138   C142.259247,106.092499 144.097107,103.120636 147.632462,102.113388  z"
   id="path12570"
   />
<path
   fill="none"
   opacity="1.000000"
   stroke="black"
   d=" M212.119080,168.784943   C208.036819,165.838547 207.138245,162.390717 208.917862,158.067535   C209.801102,155.921875 210.439148,153.659439 209.056778,150.446228   C203.515884,158.254074 208.098785,167.875137 202.754974,175.916702   C198.113129,166.512039 202.495743,158.077011 203.763382,149.316116   C199.778671,148.864197 197.386185,153.887070 193.429520,151.526962   C193.730850,144.243790 204.824310,133.055954 212.370712,132.757614   C213.700974,132.705032 215.072311,132.935806 216.359833,132.692535   C221.254440,131.767731 222.534729,134.024979 222.258362,138.535141   C221.935013,143.811829 223.096954,144.453690 228.503067,143.238235   C233.729568,142.063202 238.999939,141.083252 244.417664,139.983780   C244.686691,143.579895 242.283066,144.285583 240.732788,145.591782   C235.924835,149.642807 231.699387,153.440338 231.785583,160.957489   C231.868240,168.164612 229.868637,175.335007 230.322601,182.777634   C230.610886,187.504349 224.863007,190.240738 223.911621,194.894302   C222.899200,199.846451 219.921921,202.367538 215.233978,203.662033   C214.032898,203.993683 213.082977,205.679443 212.275894,206.912155   C209.559418,211.061249 206.546021,214.228622 200.870850,212.415161   C198.180069,211.555328 196.688736,213.288330 196.495697,215.790955   C196.269989,218.716995 196.442947,221.673782 196.442947,224.637527   C193.655151,225.014252 192.452774,223.340790 191.248047,221.789108   C187.317886,216.727020 187.005600,210.291626 190.332687,204.787292   C191.107056,203.506180 191.797592,202.174225 192.520828,200.862427   C195.015182,196.338165 199.431015,194.646057 204.295837,196.575897   C206.941437,197.625381 209.515610,198.722504 212.432404,198.740402   C215.779602,198.760941 217.769852,197.463928 218.039154,193.861252   C218.409744,188.903793 222.191132,184.714523 221.365326,179.069580   C217.627350,178.883453 214.797195,177.702652 215.299103,172.873505   C215.418167,171.727814 213.371597,170.357056 212.119080,168.784943  z"
   id="path12572"
   style="fill:#00ff00" />
<path
   fill="none"
   opacity="1.000000"
   stroke="black"
   stroke-width="0.4"
   d=" M186.460236,174.161301   C188.006134,173.163818 189.158936,172.187286 190.454742,171.468582   C191.780899,170.733047 192.974030,170.973618 193.797791,172.462280   C195.104263,174.823334 195.006241,185.030899 193.482727,188.137329   C183.812454,186.725784 177.194931,191.925766 171.861038,199.091537   C168.807129,203.194229 173.304291,205.529938 175.089813,208.806137   C173.801682,210.491898 172.125305,212.055801 172.565613,215.036804   C173.017227,218.094330 170.552307,218.974625 167.854767,217.913666   C166.658691,217.443237 165.503616,216.553604 164.653320,215.573654   C161.015427,211.381119 156.637558,208.237625 151.894867,205.378235   C147.845474,202.936798 148.296600,201.082474 152.543442,198.989883   C156.010605,197.281464 159.010910,194.943130 159.124161,190.565796   C159.189362,188.045746 160.522232,186.926178 162.839005,186.831451   C169.231552,186.570099 173.616455,182.869965 177.209137,178.154739   C179.568878,175.057693 182.217743,173.421234 186.460236,174.161301  z"
   id="path12574"
    />
<path
   opacity="1.000000"
   stroke="black"
   d=" M110.218704,138.887726   C113.758308,136.747803 113.124138,133.707718 112.705864,130.723373   C112.044235,126.002663 111.355354,121.280243 112.221382,116.727135   C113.957878,115.978539 114.956718,116.608391 115.772842,117.467026   C120.614967,122.561409 122.858528,138.312225 119.681091,144.635117   C118.360153,147.263702 102.562622,161.960678 99.319199,163.457245   C99.366234,160.806320 102.613068,160.151840 102.697220,157.749100   C97.445068,156.850189 93.572975,162.975815 87.617645,160.424850   C94.072777,155.141190 98.287704,147.901154 105.962379,144.462967   C108.138596,143.488037 109.787888,141.785645 110.218704,138.887726  z"
   id="path12576"
    />
<path
   opacity="1.000000"
   stroke="black"
   d=" M263.075775,75.570290   C263.464966,73.369522 263.812561,71.598495 264.308380,69.072395   C266.873535,72.075653 266.387024,75.164268 266.484589,77.864510   C266.923920,90.024406 267.205505,102.211456 261.734772,113.603874   C261.158051,114.804871 260.733002,116.112213 259.978851,117.188988   C255.713715,123.278824 250.290237,128.768295 250.820831,136.536118   C246.952866,138.689041 244.457626,134.844528 241.453384,136.589020   C241.029358,133.428787 243.621140,132.448090 244.250015,130.382828   C245.557175,126.089905 246.296158,121.985954 245.202957,117.374779   C244.057907,112.544861 244.896103,107.678200 248.460266,103.043877   C251.152725,106.458893 247.684448,109.810966 250.008347,112.731796   C252.802429,109.058098 251.687012,104.069916 254.587875,100.480675   C255.196442,107.439041 255.797333,114.319679 253.605148,121.173439   C258.619446,114.027824 262.487885,106.429016 262.778198,97.491180   C263.010773,90.332245 262.959503,83.164093 263.075775,75.570290  z"
   id="path12578"
    />
<path
   fill="none"
   opacity="1.000000"
   stroke="black"
   d=" M392.825012,698.785950   C400.739624,698.912476 406.660461,702.914307 413.152527,705.885986   C411.721008,708.520264 409.676392,708.052490 407.990662,708.084595   C402.500305,708.189331 397.023804,708.197632 391.537140,707.439331   C385.322296,706.580383 379.077087,705.849487 372.751099,707.057068   C370.737274,707.441467 367.783752,707.178284 367.477020,704.525330   C367.164459,701.822205 370.024933,701.259705 372.072723,700.885132   C378.771423,699.659973 385.457458,698.128296 392.825012,698.785950  z"
   id="path12580"
   class="UnoptimicedTransforms" />
<path
   fill="none"
   opacity="1.000000"
   stroke="black"
   stroke-width="0.4"
   d=" M74.291611,276.696381   C72.243546,273.054016 70.292458,269.775421 68.553558,266.387878   C67.375893,264.093658 67.624413,261.770660 69.741608,260.095642   C72.291656,258.078186 73.706734,260.432678 75.072037,261.911743   C79.461365,266.666748 81.653770,272.861053 85.546265,278.016388   C89.894974,283.775909 93.376846,290.189911 96.682541,296.825623   C87.933144,291.673462 80.536118,285.106293 74.291611,276.696381  z"
   id="path12582"
   />
<path
   fill="none"
   opacity="1.000000"
   stroke="black"
   d=" M97.686310,261.378265   C100.208153,270.320404 102.984314,278.754822 107.359238,288.019592   C101.313087,285.296661 100.474770,280.242706 97.039459,276.155365   C98.446327,281.454468 99.981308,286.001801 98.407822,291.721436   C93.288292,285.363800 91.671448,278.273560 90.941101,271.283081   C90.201942,264.208344 92.750099,257.145752 92.516808,249.778122   C96.719307,252.642090 95.951653,257.331085 97.686310,261.378265  z"
   id="path12584"
   />
<path
   fill="none"
   opacity="1.000000"
   stroke="black"
   d=" M57.738434,161.326767   C59.092411,166.639282 56.854408,171.771057 59.830021,177.688126   C47.675491,169.917084 42.427265,155.560562 26.673323,154.269531   C33.214752,151.912399 38.475105,152.395554 42.834648,155.799805   C45.175209,157.627502 47.228313,158.747375 50.410393,158.108658   C53.058640,157.577103 55.548237,159.041565 57.738434,161.326767  z"
   id="path12586"
   style="fill:#00ff00" />
<path
   fill="none"
   opacity="1.000000"
   stroke="black"
   d=" M58.698528,184.178894   C59.423634,182.005417 60.521488,180.830688 62.512981,181.604874   C64.455498,182.360001 64.937149,184.239914 65.154366,186.067581   C66.117310,194.170151 63.362625,201.258713 58.695293,207.959534   C59.710270,200.109848 56.221470,192.399353 58.698528,184.178894  z"
   id="path12588"
   style="fill:#00ff00" />
<path
   fill="none"
   opacity="1.000000"
   stroke="black"
   d=" M276.029480,263.985657   C272.671631,261.084229 267.943634,261.226257 264.165497,256.806488   C273.490234,259.662048 280.004578,264.624603 287.040955,268.604370   C286.857025,268.967529 286.673096,269.330688 286.489166,269.693848   C283.109863,267.850830 279.730530,266.007782 276.029480,263.985657  z"
   id="path12590"
   style="fill:#00ff00" />
<path
   fill="none"
   opacity="1.000000"
   stroke="black"
   d=" M226.925583,285.087646   C224.414825,284.136902 221.581879,283.593842 220.722641,279.542419   C223.955582,280.646545 227.073425,280.543854 227.332550,284.688477   C227.208191,284.882874 227.017914,285.016846 226.925583,285.087646  z"
   id="path12592"
   style="fill:#00ff00" />
</svg>
