<?xml version="1.0" encoding="UTF-8" standalone="no"?>
<svg
   version="1.0"
   width="1380.000000pt"
   height="1380.000000pt"
   viewBox="0 0 1380.000000 1380.000000"
   preserveAspectRatio="xMidYMid meet"
   id="svg34"
   sodipodi:docname="butterfly (copy).svg"
   inkscape:version="1.3.2 (091e20ef0f, 2023-11-25, custom)"
   xmlns:inkscape="http://www.inkscape.org/namespaces/inkscape"
   xmlns:sodipodi="http://sodipodi.sourceforge.net/DTD/sodipodi-0.dtd"
   xmlns="http://www.w3.org/2000/svg"
   xmlns:svg="http://www.w3.org/2000/svg">
  <defs
     id="defs34" />
  <sodipodi:namedview
     id="namedview34"
     pagecolor="#ffffff"
     bordercolor="#000000"
     borderopacity="0.25"
     inkscape:showpageshadow="2"
     inkscape:pageopacity="0.0"
     inkscape:pagecheckerboard="0"
     inkscape:deskcolor="#d1d1d1"
     inkscape:document-units="pt"
     inkscape:zoom="0.90232974"
     inkscape:cx="944.22245"
     inkscape:cy="980.79445"
     inkscape:window-width="2560"
     inkscape:window-height="1371"
     inkscape:window-x="0"
     inkscape:window-y="32"
     inkscape:window-maximized="1"
     inkscape:current-layer="layer1" />
  <g
     transform="translate(0.000000,1380.000000) scale(0.100000,-0.100000)"
     fill="#000000"
     stroke="none"
     id="g34">
    <path
       d="M4245 11696 c-119 -30 -231 -121 -283 -233 -24 -52 -27 -69 -27 -168 0 -104 2 -114 33 -177 42 -86 129 -168 209 -198 123 -47 238 -36 294 27 17 19 29 36 27 38 -2 2 -34 -3 -72 -10 -211 -40 -400 106 -400 310 0 122 63 223 177 282 46 25 63 28 142 27 118 0 185 -26 261 -99 81 -80 99 -126 99 -255 -1 -82 -8 -135 -33 -245 -82 -351 -38 -542 181 -772 39 -40 72 -71 75 -69 2 3 -25 58 -60 123 -81 149 -115 234 -135 337 -21 109 -13 204 32 396 33 137 36 167 33 256 -3 93 -6 107 -42 178 -99 201 -306 303 -511 252z"
       id="path1" />
    <path
       d="M9311 11695 c-158 -45 -275 -162 -317 -320 -22 -82 -17 -184 17 -327 57 -245 57 -377 -1 -550 -35 -105 -64 -163 -142 -287 -32 -51 -57 -95 -55 -98 8 -8 127 109 173 170 124 166 176 348 153 544 -5 48 -23 143 -40 212 -51 206 -41 311 39 416 154 205 471 187 579 -33 24 -49 28 -69 28 -142 0 -72 -4 -92 -27 -136 -32 -60 -94 -119 -157 -147 -35 -16 -72 -22 -159 -25 l-114 -4 28 -29 c64 -66 220 -64 337 4 57 34 129 112 163 178 36 70 45 197 20 282 -35 120 -138 232 -255 277 -74 28 -198 35 -270 15z"
       id="path2" />
    <path
       d="M5890 11604 c-132 -28 -326 -153 -490 -314 -193 -190 -305 -398 -354 -659 -9 -46 -16 -102 -16 -124 0 -59 -15 -36 -39 63 -45 185 -51 351 -16 480 23 89 90 210 156 283 33 37 57 67 52 67 -23 -1 -124 -84 -173 -142 -164 -196 -219 -405 -175 -674 47 -288 163 -486 496 -842 230 -247 288 -313 396 -457 148 -197 498 -728 561 -850 24 -48 85 -265 77 -273 -9 -10 -21 15 -61 128 -47 130 -149 333 -234 465 -255 394 -670 767 -1295 1165 -298 190 -566 292 -877 334 -137 19 -463 36 -678 36 -248 0 -384 31 -597 136 -124 61 -193 116 -247 198 -58 88 -54 93 25 26 189 -158 456 -268 729 -299 119 -13 234 -22 229 -17 -2 2 -62 18 -134 36 -316 78 -576 213 -800 414 -42 37 -74 70 -73 72 2 2 118 -34 258 -81 357 -117 442 -142 810 -244 714 -197 1059 -314 1423 -483 60 -28 111 -47 114 -44 16 16 -169 172 -321 271 -351 228 -1077 500 -1711 639 -496 110 -911 145 -1139 98 -54 -12 -100 -23 -102 -25 -3 -2 18 -64 44 -138 75 -206 133 -385 237 -739 143 -484 230 -763 274 -882 107 -287 208 -444 440 -681 127 -131 217 -204 388 -319 262 -177 420 -320 610 -553 166 -203 281 -288 479 -355 137 -47 266 -64 424 -57 148 7 247 26 566 106 358 90 494 114 609 108 112 -7 192 -28 284 -77 64 -34 184 -138 223 -192 l21 -31 -65 5 c-56 3 -74 10 -129 45 -72 47 -135 67 -259 84 -136 18 -297 1 -530 -55 -332 -80 -691 -105 -1030 -71 -173 17 -240 34 -332 82 -90 47 -128 85 -272 273 -195 253 -362 411 -511 481 -116 56 -235 30 -354 -77 -94 -85 -134 -169 -167 -358 -9 -50 -20 -95 -24 -99 -16 -17 -34 101 -34 213 0 125 17 207 58 288 59 116 130 161 272 172 52 4 96 9 99 12 3 3 -29 13 -71 23 -197 46 -381 -26 -467 -182 -72 -133 -98 -379 -58 -548 42 -177 160 -369 271 -444 92 -61 167 -72 303 -46 101 19 161 19 203 -1 99 -47 124 -190 43 -238 l-32 -19 -29 32 c-15 17 -28 42 -28 56 0 32 -25 23 -45 -16 -30 -56 -11 -118 48 -163 70 -54 150 -22 202 79 43 85 42 165 -3 258 -53 107 -109 137 -258 137 -66 0 -86 4 -107 20 -35 28 -51 81 -43 143 17 125 102 199 211 182 96 -14 232 -153 297 -305 32 -72 33 -80 33 -205 -1 -112 -4 -138 -24 -188 -30 -76 -97 -174 -220 -324 -112 -136 -112 -138 4 -108 73 19 168 62 232 106 27 18 140 123 253 234 212 209 291 271 408 318 91 37 164 50 282 49 58 -1 173 3 255 9 145 9 232 21 570 73 341 54 556 54 787 1 70 -17 142 -26 197 -27 l86 0 -45 -21 c-62 -28 -176 -33 -340 -13 -357 44 -658 28 -1055 -55 -278 -59 -461 -117 -615 -195 -110 -56 -133 -72 -203 -141 -146 -145 -214 -354 -178 -545 16 -81 69 -190 123 -252 84 -97 229 -166 347 -166 101 1 168 48 218 156 36 80 50 88 148 88 51 1 89 -4 96 -11 17 -17 -159 -206 -228 -245 -219 -123 -487 -52 -716 191 -145 154 -174 312 -102 550 14 47 25 86 25 88 0 11 -373 -251 -417 -294 -116 -112 -183 -360 -154 -576 51 -379 246 -678 572 -875 75 -45 139 -72 139 -59 0 2 -64 69 -142 148 -279 282 -401 511 -423 794 -8 95 12 243 44 327 28 72 94 163 152 208 l44 35 -23 -35 c-197 -305 -213 -578 -52 -902 105 -211 213 -351 453 -589 162 -161 198 -202 138 -160 -39 28 -164 77 -247 97 -94 23 -259 24 -299 2 l-30 -16 40 -6 c90 -14 205 -46 276 -75 231 -96 453 -326 540 -559 29 -78 32 -99 33 -197 1 -144 -27 -232 -109 -339 -57 -75 -30 -68 44 10 204 218 334 625 277 867 -18 76 -54 154 -98 209 -27 35 -140 118 -159 118 -5 0 11 -25 35 -55 127 -156 174 -368 121 -545 -20 -64 -19 -65 -74 89 -83 231 -183 387 -413 638 -167 183 -254 290 -345 426 -171 255 -220 431 -178 629 13 62 67 202 85 222 9 9 22 -31 42 -126 11 -54 11 -58 -20 -120 -82 -166 -68 -300 49 -478 82 -125 237 -330 255 -337 29 -11 26 7 -7 44 -45 50 -147 185 -186 248 -102 161 -141 372 -88 475 10 19 19 37 21 39 5 5 153 -125 176 -155 31 -39 46 -99 53 -208 12 -209 87 -369 246 -522 84 -80 126 -109 364 -254 187 -114 243 -160 283 -235 27 -49 27 -53 26 -235 0 -172 -2 -191 -27 -273 -74 -240 -233 -447 -462 -603 -136 -93 -204 -124 -292 -134 -158 -17 -263 58 -263 189 0 52 2 57 46 97 l45 43 -30 15 c-54 28 -99 19 -153 -32 -66 -62 -77 -227 -23 -338 64 -131 171 -196 325 -197 139 -1 271 57 456 199 146 111 350 342 428 485 100 182 113 265 125 764 9 362 11 399 36 512 54 254 138 490 265 739 97 191 160 282 285 413 98 102 162 152 600 475 88 64 175 129 194 144 l34 27 -16 -32 c-17 -32 -171 -214 -366 -433 -257 -288 -457 -618 -556 -918 -15 -46 -29 -81 -32 -79 -6 7 43 223 75 327 28 91 125 356 144 393 5 9 7 17 4 17 -7 0 -89 -143 -142 -250 -63 -126 -108 -251 -137 -380 -20 -87 -21 -120 -19 -392 1 -163 -2 -299 -7 -302 -8 -5 -22 69 -37 198 -9 74 -31 75 -38 4 -5 -47 -23 -396 -28 -535 -2 -66 -14 -68 -24 -6 -21 134 -4 418 37 622 10 51 19 99 19 107 0 75 -89 -175 -115 -321 -24 -138 -34 -268 -36 -457 -1 -134 -4 -168 -13 -152 -7 13 -11 98 -11 264 0 281 11 358 96 703 49 197 57 247 40 247 -13 0 -34 -51 -69 -160 -53 -167 -86 -373 -104 -657 -20 -321 3 -566 112 -1178 62 -353 70 -417 70 -590 0 -286 -49 -434 -161 -491 l-49 -24 -40 82 c-46 97 -72 118 -149 118 -44 0 -56 -5 -88 -33 -31 -29 -37 -41 -41 -90 -6 -72 1 -99 39 -141 70 -80 201 -96 315 -38 130 66 185 150 309 475 70 184 125 292 195 382 54 70 198 208 340 326 390 325 557 632 611 1124 14 133 6 425 -15 573 -9 56 -29 173 -46 260 -60 314 -78 516 -60 685 22 219 84 385 181 491 l46 50 22 -41 c11 -23 26 -45 32 -49 12 -7 48 27 76 72 34 53 -10 -42 -50 -108 -56 -91 -71 -127 -91 -216 -51 -223 -36 -484 40 -727 27 -86 193 -515 204 -528 9 -10 175 398 218 533 44 140 62 256 62 410 0 240 -35 393 -119 523 -45 71 -85 147 -76 147 2 0 23 -27 45 -60 22 -33 42 -60 44 -60 2 0 19 25 37 55 18 30 36 55 40 55 4 0 12 -14 19 -30 7 -17 41 -78 75 -136 58 -97 65 -114 83 -217 64 -345 62 -551 -9 -894 -104 -508 -99 -848 18 -1193 96 -284 251 -495 538 -728 315 -257 477 -481 584 -808 98 -298 247 -433 434 -394 107 22 167 85 167 177 0 113 -48 159 -164 154 -38 -1 -101 -65 -115 -117 -6 -22 -17 -48 -25 -59 -13 -19 -14 -19 -55 0 -36 16 -47 29 -76 89 -52 109 -66 180 -72 377 -6 203 0 273 62 719 66 466 105 830 105 975 0 105 -57 589 -80 677 -26 100 -57 182 -79 210 -18 22 -18 21 -5 -47 7 -39 36 -189 63 -334 73 -381 83 -518 54 -771 l-7 -65 -7 50 c-4 28 -8 104 -8 170 -1 66 -8 178 -16 248 -21 177 -81 477 -100 496 -13 14 -15 12 -15 -17 0 -18 14 -172 31 -343 16 -171 29 -318 27 -327 -2 -10 -14 9 -26 42 -17 44 -25 94 -32 205 -10 151 -25 247 -41 257 -5 3 -10 -20 -10 -53 -1 -32 -5 -71 -9 -88 -5 -17 -8 87 -7 235 1 222 -2 278 -17 345 -46 205 -134 416 -239 572 -86 127 -91 113 -14 -45 82 -166 156 -375 187 -527 11 -54 19 -100 17 -102 -2 -2 -14 34 -26 79 -29 109 -168 391 -269 543 -124 190 -217 299 -555 656 -118 126 -184 206 -175 214 4 4 529 -376 637 -462 126 -100 266 -237 342 -336 152 -196 307 -529 377 -812 61 -241 66 -299 64 -645 -5 -637 30 -738 386 -1119 186 -199 314 -296 464 -348 59 -21 92 -26 173 -27 89 0 107 3 160 27 33 16 81 49 107 74 161 158 136 464 -40 481 -41 3 -53 0 -77 -21 l-29 -24 37 -12 c48 -16 70 -50 69 -106 -2 -82 -59 -158 -139 -187 -60 -21 -188 -15 -256 11 -98 38 -233 137 -352 256 -136 136 -203 223 -260 340 -67 139 -80 202 -80 390 0 155 1 162 28 221 16 34 45 78 65 97 20 20 129 93 242 162 113 70 228 144 256 166 140 108 269 289 319 449 10 32 20 110 24 187 8 152 -1 137 141 257 108 92 106 91 124 64 44 -68 37 -226 -16 -377 -73 -206 -189 -393 -405 -653 -223 -267 -320 -428 -399 -663 -21 -63 -42 -115 -45 -115 -12 0 -31 116 -36 225 -9 179 23 281 123 386 63 65 61 74 -7 31 -99 -64 -176 -174 -204 -294 -61 -257 74 -660 298 -895 33 -35 64 -63 69 -63 5 0 -14 33 -41 73 -88 129 -117 222 -108 351 11 171 115 375 272 532 148 149 327 241 544 279 123 22 125 33 6 45 -162 16 -334 -22 -479 -105 -44 -25 -81 -44 -82 -42 -2 1 56 65 127 142 225 243 326 395 400 604 55 157 72 252 67 377 -3 101 -5 106 -50 194 l-47 90 14 53 c7 28 19 65 25 82 l11 30 31 -50 c169 -270 99 -752 -161 -1105 -14 -19 -56 -72 -94 -117 -37 -46 -63 -83 -58 -83 23 0 126 52 204 103 277 180 432 412 483 723 19 118 14 338 -10 424 -39 140 -138 272 -252 339 -102 59 -157 96 -243 165 -45 37 -85 66 -86 64 -2 -2 12 -49 31 -105 81 -236 49 -394 -113 -564 -157 -164 -349 -250 -532 -237 -114 8 -168 40 -298 176 -128 133 -128 134 -2 136 71 1 81 -1 102 -24 13 -14 32 -47 41 -73 37 -99 107 -147 217 -147 202 1 418 180 475 394 31 115 7 273 -62 416 -28 57 -57 95 -120 157 -71 71 -97 89 -196 137 -446 215 -1078 311 -1668 252 -191 -19 -295 -18 -342 4 -47 22 -32 30 57 30 52 0 135 10 208 25 167 34 362 46 534 35 167 -11 219 -18 523 -72 217 -38 251 -41 442 -43 223 -3 276 -11 375 -56 112 -50 176 -100 363 -289 241 -241 347 -314 539 -369 41 -11 76 -19 78 -18 1 2 -51 72 -116 156 -168 216 -211 315 -211 481 0 140 45 264 137 381 77 98 161 144 253 137 70 -5 111 -32 141 -95 47 -97 32 -203 -35 -245 -27 -16 -42 -18 -117 -13 -98 8 -143 -5 -196 -57 -77 -75 -99 -229 -48 -334 62 -127 203 -142 251 -28 17 41 18 88 3 117 -25 47 -49 43 -49 -8 0 -62 -67 -86 -110 -40 -33 35 -35 130 -4 171 54 73 116 86 268 59 196 -35 308 12 435 183 168 230 215 452 151 721 -51 211 -168 319 -356 329 -81 4 -154 -6 -209 -29 -28 -12 -21 -14 75 -19 78 -5 115 -12 145 -27 161 -85 236 -329 175 -569 -26 -102 -40 -115 -40 -38 -1 153 -63 309 -162 408 -74 74 -141 109 -219 114 -78 6 -142 -17 -251 -90 -130 -87 -248 -205 -399 -400 -240 -308 -247 -312 -624 -369 -59 -9 -178 -14 -345 -14 -280 1 -352 9 -625 70 -238 53 -332 67 -460 68 -210 0 -328 -29 -419 -102 -35 -28 -45 -31 -110 -31 l-70 0 54 56 c79 79 177 158 235 186 86 43 141 53 275 52 151 -1 251 -19 625 -114 298 -76 437 -100 572 -100 209 0 450 68 611 173 98 64 162 126 243 235 108 146 267 296 509 481 528 404 690 567 829 832 95 181 324 856 481 1414 66 234 124 403 171 497 16 32 29 64 29 72 0 17 -63 41 -150 57 -264 48 -923 -43 -1489 -206 -555 -160 -1049 -360 -1317 -533 -80 -52 -230 -169 -324 -253 l-35 -31 33 6 c18 3 100 37 182 75 345 162 547 229 1535 511 402 115 760 220 798 234 37 14 71 26 75 26 15 0 -189 -171 -273 -227 -134 -91 -364 -186 -670 -277 l-50 -15 65 6 c357 28 659 132 885 303 63 48 66 49 48 20 -65 -102 -140 -163 -298 -242 -207 -104 -334 -127 -765 -134 -454 -7 -643 -35 -895 -129 -227 -85 -509 -251 -865 -509 -595 -432 -948 -865 -1145 -1409 -15 -42 -30 -76 -32 -73 -9 8 41 195 72 267 18 43 61 121 97 175 36 55 102 162 148 239 170 284 240 376 605 785 262 293 315 357 387 464 155 231 228 468 215 691 -13 200 -77 351 -212 494 -45 48 -163 141 -179 141 -3 0 35 -55 84 -121 149 -200 174 -266 174 -459 0 -69 -6 -152 -13 -185 -15 -73 -42 -158 -47 -152 -2 2 -9 42 -15 88 -20 161 -110 383 -220 539 -143 203 -439 428 -619 471 -115 27 -294 9 -357 -36 -27 -19 -30 -61 -5 -73 9 -5 46 -12 82 -16 267 -27 483 -120 682 -293 209 -181 321 -408 335 -680 12 -222 -56 -429 -207 -631 -35 -48 -206 -231 -380 -407 -382 -387 -517 -547 -618 -735 -77 -143 -132 -343 -132 -479 0 -68 -21 -143 -62 -226 -30 -60 -102 -145 -124 -145 -6 0 -17 27 -24 60 -12 57 -11 64 16 142 24 72 28 98 28 193 -1 117 -22 225 -51 257 -9 10 -34 23 -55 29 -30 8 -38 14 -34 27 3 9 18 64 35 122 70 245 169 504 243 640 67 122 87 148 125 161 137 45 217 284 144 428 -36 69 -46 67 -43 -9 5 -102 -25 -152 -141 -229 -57 -39 -71 -68 -62 -137 6 -49 3 -57 -89 -245 -87 -178 -147 -323 -206 -502 -12 -38 -24 -67 -26 -64 -5 5 72 452 101 582 88 390 216 664 425 912 79 95 166 165 265 214 139 69 241 63 322 -17 55 -56 76 -121 63 -202 -20 -123 -99 -105 -101 23 -1 102 -14 110 -29 17 -15 -98 -10 -144 21 -207 79 -158 251 -141 336 32 66 137 6 321 -133 410 -106 68 -275 87 -402 45 -228 -74 -463 -319 -628 -656 -116 -236 -178 -462 -274 -991 -39 -211 -51 -257 -65 -244 -2 3 -27 140 -55 305 -94 558 -182 840 -345 1104 -206 333 -497 529 -748 505 -174 -16 -298 -98 -353 -233 -56 -137 -7 -304 107 -362 76 -40 163 -14 216 63 27 38 28 47 31 174 3 81 0 133 -6 133 -5 0 -12 -29 -14 -64 -4 -42 -13 -77 -28 -101 l-22 -36 -24 22 c-74 70 -34 222 78 296 60 40 161 45 245 11 149 -60 329 -219 442 -388 152 -228 273 -562 335 -925 16 -94 66 -432 66 -443 -1 -19 -25 43 -88 233 -74 222 -128 353 -194 474 -35 62 -41 83 -39 125 2 67 -20 101 -99 157 -86 60 -102 92 -98 196 3 76 2 81 -14 66 -55 -49 -71 -224 -29 -317 30 -70 66 -113 110 -136 21 -10 53 -34 70 -51 85 -85 264 -541 334 -851 l15 -68 -29 0 c-37 0 -72 -17 -88 -42 -16 -25 -40 -191 -40 -273 0 -56 7 -82 55 -206 16 -41 16 -53 5 -103 -7 -31 -16 -56 -20 -56 -14 0 -104 96 -128 138 -39 66 -54 127 -63 262 -5 69 -16 156 -25 194 -63 268 -266 552 -689 961 -398 386 -527 558 -588 785 -19 72 -22 110 -22 245 0 175 11 240 64 370 45 114 103 197 203 291 212 199 448 314 711 345 115 13 138 22 134 51 -5 34 -75 75 -149 87 -83 14 -139 13 -219 -5z m229 -58 c-6 -5 -253 -34 -258 -30 -10 9 10 13 129 26 115 13 140 14 129 4z m1774 -16 c22 -6 37 -13 35 -15 -5 -6 -222 25 -228 32 -8 9 152 -5 193 -17z m-5733 -1057 c0 -556 131 -943 493 -1458 109 -155 373 -519 455 -628 41 -54 72 -100 70 -102 -9 -9 -178 128 -240 193 -76 81 -121 152 -356 562 -226 395 -369 675 -415 815 -77 239 -112 472 -88 598 11 63 58 177 72 177 5 0 9 -71 9 -157z m9515 61 c58 -186 56 -305 -10 -535 -75 -259 -187 -504 -389 -849 -59 -102 -149 -255 -199 -340 -138 -236 -218 -334 -357 -439 -102 -78 -109 -82 -86 -46 37 56 229 320 352 483 203 267 319 453 430 688 142 298 187 470 204 779 6 105 10 222 10 260 -2 87 -2 85 9 85 5 0 21 -39 36 -86z m-9256 -608 c42 -125 47 -146 30 -130 -66 59 -145 307 -163 509 -6 68 -6 66 38 -80 25 -82 68 -217 95 -299z m9091 337 c-29 -189 -103 -391 -175 -478 -20 -25 -12 7 51 190 42 121 88 255 102 297 14 43 28 76 30 74 2 -3 -2 -40 -8 -83z m-820 -97 c80 -9 219 -20 310 -24 l165 -8 -105 -7 c-58 -4 -161 -11 -230 -15 l-125 -8 60 -28 c151 -70 183 -87 223 -122 42 -36 92 -117 92 -150 0 -12 -10 -7 -38 18 -175 158 -430 246 -805 277 -215 18 -502 9 -632 -19 -38 -8 -55 -6 -43 5 22 22 301 83 453 99 89 9 538 -3 675 -18z m-6749 -2 c97 -16 250 -62 297 -90 27 -15 27 -15 2 -9 -225 55 -679 57 -929 5 -234 -48 -435 -136 -530 -230 -57 -58 -61 -60 -61 -35 0 40 35 99 82 139 23 20 101 67 173 104 l130 67 -202 3 c-112 1 -203 6 -203 10 0 5 134 16 298 25 163 10 315 19 337 21 22 1 146 3 276 4 175 2 260 -2 330 -14z m276 -189 c125 -33 196 -63 331 -141 474 -271 873 -572 1188 -895 210 -217 343 -409 489 -706 52 -106 129 -247 171 -314 78 -125 113 -194 95 -188 -23 8 -98 75 -141 126 -25 29 -101 149 -170 266 -69 116 -150 248 -179 292 -89 133 -232 304 -357 425 -210 204 -372 317 -627 440 -89 43 -290 151 -447 240 -462 264 -523 290 -687 290 -64 0 -103 4 -111 12 -19 19 -14 56 11 72 20 13 31 13 97 0 113 -24 147 -40 411 -191 272 -156 340 -192 481 -252 94 -40 128 -49 128 -33 0 4 -194 126 -430 271 -450 277 -449 276 -385 301 29 12 31 12 132 -15z m5495 -3 c19 -18 41 -3 -664 -446 -154 -97 -203 -136 -169 -136 29 0 406 195 586 302 116 69 225 133 243 142 52 27 198 76 226 76 61 0 99 -38 77 -77 -8 -16 -25 -18 -128 -18 l-118 0 -135 -67 c-74 -37 -227 -119 -340 -184 -113 -64 -321 -177 -464 -250 -370 -191 -492 -278 -706 -500 -132 -137 -255 -302 -491 -654 -138 -207 -202 -294 -260 -352 -43 -43 -82 -78 -88 -78 -19 0 18 81 55 122 58 65 111 153 194 325 171 352 334 578 611 848 399 389 1069 843 1389 942 110 34 151 35 182 5z m-6314 -148 c84 -17 263 -85 337 -129 57 -33 77 -74 69 -137 -4 -29 -1 -56 10 -82 15 -37 17 -38 53 -32 125 20 113 22 183 -33 45 -35 81 -54 117 -62 l52 -12 -30 -38 c-39 -49 -76 -133 -84 -189 l-6 -45 -64 62 c-117 112 -280 171 -440 159 -103 -8 -143 -19 -201 -59 -73 -49 -106 -110 -112 -206 -5 -84 2 -116 49 -216 15 -33 26 -61 24 -64 -2 -2 -20 7 -39 19 -117 72 -204 271 -176 403 21 104 90 164 225 196 85 20 105 31 105 58 0 55 -66 130 -135 153 -37 12 -113 10 -147 -5 -24 -10 -23 10 2 45 31 44 96 65 159 51 122 -26 205 -101 235 -211 26 -100 12 -89 192 -139 131 -37 186 -39 214 -11 21 21 28 70 9 70 -5 0 -27 -10 -48 -22 -35 -20 -42 -21 -82 -9 -55 17 -102 65 -154 160 -75 138 -195 228 -352 266 -226 54 -422 -59 -465 -268 -7 -31 -16 -56 -22 -54 -19 6 -38 82 -33 133 9 94 60 160 165 213 101 51 246 65 390 35z m7355 -13 c121 -48 198 -139 199 -239 0 -58 -16 -119 -40 -149 -17 -22 -17 -21 -18 46 -2 169 -138 298 -326 309 -97 6 -168 -9 -266 -54 -94 -43 -162 -100 -223 -188 -57 -82 -176 -205 -198 -207 -28 -2 -46 3 -62 17 -8 8 -25 14 -37 14 -36 0 -29 -46 10 -66 41 -21 95 -15 253 29 l120 33 13 45 c43 147 124 231 246 259 81 18 151 -2 204 -57 24 -25 42 -47 39 -49 -2 -2 -33 3 -67 12 -74 19 -131 14 -189 -16 -69 -35 -123 -130 -89 -157 7 -6 42 -19 77 -28 137 -35 208 -93 237 -191 31 -106 -12 -235 -114 -345 -45 -49 -96 -89 -115 -89 -1 0 17 41 42 91 44 88 46 96 46 178 0 76 -3 91 -28 134 -58 99 -155 142 -317 141 -176 -1 -298 -46 -413 -154 l-65 -60 -7 37 c-9 51 -40 109 -86 165 -42 50 -46 58 -26 58 25 1 129 49 190 89 58 38 67 40 130 39 91 -1 107 13 107 97 0 84 24 120 110 162 75 38 219 87 311 108 97 22 278 15 352 -14z m-937 -140 c43 -20 60 -50 40 -74 -6 -8 -38 -24 -71 -37 -33 -13 -130 -58 -215 -100 -85 -43 -178 -85 -206 -94 -68 -22 -454 -85 -454 -74 0 14 719 366 780 382 72 19 78 19 126 -3z m-5589 -55 c76 -35 253 -121 393 -190 l255 -126 -102 5 c-211 11 -417 67 -618 170 -204 104 -241 137 -209 184 13 18 25 21 79 21 58 0 78 -6 202 -64z m-1539 -239 c16 -23 81 -129 146 -235 109 -178 236 -365 529 -782 63 -90 113 -168 111 -172 -11 -18 -182 204 -653 845 -148 202 -231 334 -231 369 0 23 30 39 52 27 9 -5 30 -28 46 -52z m8488 27 c15 -59 -56 -168 -458 -705 -369 -492 -428 -563 -428 -519 0 5 88 135 197 287 548 775 522 736 579 856 48 102 96 137 110 81z m-8790 -281 c139 -229 268 -417 373 -542 66 -79 17 -46 -71 47 -82 88 -169 210 -245 347 -61 109 -145 275 -139 275 2 0 39 -57 82 -127z m2090 85 c3 -4 -9 -26 -29 -50 -61 -76 -80 -124 -80 -205 1 -125 68 -229 182 -282 28 -14 51 -29 51 -35 0 -6 -14 -60 -32 -120 l-32 -109 -34 39 c-52 60 -139 194 -168 260 -35 79 -72 228 -80 322 -11 138 36 196 153 190 34 -2 65 -7 69 -10z m4957 1 c40 -21 77 -62 83 -94 7 -39 -18 -187 -46 -275 -34 -105 -105 -238 -177 -335 -38 -49 -72 -90 -77 -90 -7 0 -65 189 -66 216 0 3 23 16 52 30 128 59 195 149 205 273 8 90 -15 153 -78 216 -43 44 -47 50 -31 59 23 14 108 14 135 0z m1982 -106 c-26 -48 -63 -117 -83 -153 -79 -146 -203 -307 -284 -371 -40 -32 -38 -28 47 96 50 72 151 219 225 327 74 108 136 195 138 193 2 -2 -18 -43 -43 -92z m-6485 41 c98 -23 192 -73 330 -177 382 -288 584 -507 940 -1017 85 -121 188 -228 279 -289 72 -49 75 -48 85 35 11 96 38 128 83 98 17 -11 22 -21 18 -32 -58 -140 -85 -227 -85 -274 l-1 -53 -31 64 c-24 51 -64 99 -177 216 -80 83 -194 213 -253 290 -143 187 -292 351 -438 482 -245 218 -363 262 -502 186 -88 -48 -158 -160 -158 -252 0 -51 37 -117 85 -152 41 -30 126 -52 163 -42 18 4 14 10 -31 47 -43 35 -53 48 -55 78 -8 99 114 103 164 5 33 -64 -20 -149 -112 -181 -94 -32 -190 -13 -266 53 -57 50 -72 54 -102 30 -21 -16 -26 -29 -26 -64 0 -123 191 -233 355 -204 159 28 284 154 285 285 0 66 -18 107 -80 185 -27 34 -50 70 -50 80 0 30 47 35 94 10 53 -27 424 -394 498 -491 58 -76 128 -187 128 -202 0 -11 -112 65 -141 95 -12 12 -32 38 -44 58 -29 44 -81 78 -132 86 l-38 6 53 -51 c47 -46 80 -98 68 -109 -2 -2 -39 0 -81 6 -118 17 -212 13 -444 -16 -181 -22 -225 -25 -277 -16 -242 42 -390 257 -341 496 20 99 54 156 123 211 120 94 264 147 399 147 44 0 86 3 92 7 20 13 -36 92 -93 134 -249 181 -574 171 -574 -18 0 -64 63 -117 119 -99 27 8 26 24 -4 65 -14 19 -25 41 -25 50 0 38 71 69 125 56 32 -8 59 -65 50 -106 -11 -48 -88 -108 -158 -121 -132 -24 -252 76 -251 211 1 31 8 69 17 87 21 39 84 93 128 109 48 18 212 17 289 -2z m4199 1 c97 -34 145 -99 145 -195 0 -95 -54 -169 -148 -205 -58 -22 -114 -14 -184 26 -68 39 -90 81 -68 133 8 19 24 40 36 46 33 18 98 15 120 -5 34 -31 24 -60 -32 -100 l-22 -15 24 -25 c34 -36 71 -33 109 10 56 64 35 162 -43 199 -85 40 -244 30 -361 -23 -70 -32 -178 -116 -218 -169 l-28 -37 63 -7 c220 -26 318 -64 425 -165 103 -97 142 -221 114 -365 -27 -138 -102 -248 -204 -298 -88 -43 -158 -46 -407 -21 -240 25 -333 29 -412 18 -56 -8 -58 -8 -58 15 0 26 18 57 64 107 l31 34 -40 -6 c-51 -8 -82 -31 -125 -95 -19 -28 -46 -60 -60 -70 -33 -25 -130 -71 -130 -62 0 15 124 197 173 255 96 112 362 372 417 408 41 27 62 34 83 30 43 -9 35 -44 -24 -109 -28 -31 -58 -73 -66 -93 -51 -119 20 -259 169 -338 48 -25 63 -28 153 -28 113 0 161 16 230 76 69 61 88 135 47 182 -22 25 -40 21 -107 -23 -127 -85 -247 -92 -330 -19 -47 42 -62 93 -42 142 17 39 68 77 105 77 36 0 64 -35 60 -78 -2 -30 -12 -43 -55 -77 -28 -22 -52 -43 -52 -47 -2 -14 89 -8 127 8 184 77 171 343 -22 441 -65 33 -151 35 -216 6 -153 -69 -516 -418 -709 -683 -115 -158 -136 -181 -263 -291 -122 -107 -167 -157 -186 -208 -7 -21 -10 -16 -16 33 -4 40 -21 85 -54 148 l-47 90 24 19 c48 39 91 12 91 -60 0 -111 25 -117 139 -31 105 79 152 134 264 304 145 219 257 356 447 547 187 188 282 271 480 420 127 96 220 146 320 173 73 19 216 20 269 1z m-5364 -36 c33 -12 77 -41 112 -72 72 -66 275 -288 269 -295 -3 -2 -40 24 -83 58 -103 82 -186 130 -312 181 -91 36 -111 41 -166 37 -49 -3 -70 -10 -99 -31 l-36 -28 0 26 c0 50 47 113 100 134 45 18 155 13 215 -10z m6481 0 c46 -22 84 -82 84 -132 l0 -27 -46 33 c-43 30 -51 32 -127 31 -139 -2 -289 -71 -450 -208 -63 -53 -87 -66 -87 -47 0 10 272 276 321 314 53 40 105 56 188 56 56 1 85 -4 117 -20z m-6364 -354 c35 -21 91 -60 126 -86 66 -49 353 -311 348 -317 -2 -2 -95 55 -207 126 -269 170 -294 183 -414 202 -72 12 -110 42 -92 72 36 60 143 61 239 3z m6217 34 c36 -13 55 -41 46 -69 -7 -21 -12 -23 -119 -40 -137 -22 -233 -70 -451 -224 -160 -113 -185 -129 -192 -122 -3 3 4 13 15 23 180 154 442 373 467 391 67 48 164 65 234 41z m-6935 -312 c110 -131 203 -243 204 -248 2 -5 -1 -9 -6 -9 -16 0 -451 523 -445 534 4 5 15 -2 26 -15 10 -13 110 -131 221 -262z m7689 251 c-70 -94 -313 -384 -349 -418 -26 -25 -43 -38 -38 -30 38 55 377 460 386 460 7 0 7 -4 1 -12z m-7023 -215 c49 -16 431 -267 571 -375 48 -37 118 -101 155 -143 38 -42 89 -91 113 -110 l44 -35 -59 -26 c-32 -14 -122 -47 -199 -72 -123 -40 -137 -46 -115 -55 42 -17 147 -11 370 22 269 39 360 49 360 41 0 -12 -191 -97 -266 -119 -252 -74 -537 -61 -692 32 -114 68 -161 189 -113 292 46 100 159 132 270 76 43 -23 75 -76 86 -149 11 -67 60 -77 117 -25 55 52 44 124 -32 201 -65 67 -135 95 -250 100 -112 5 -180 -16 -248 -73 -211 -181 -37 -515 314 -605 154 -40 341 -36 529 11 44 11 166 49 270 84 265 89 461 124 625 112 91 -7 118 3 71 28 -44 22 -35 27 27 15 121 -23 289 -107 356 -179 35 -37 33 -38 -24 -10 -76 37 -148 58 -238 70 -161 21 -289 2 -857 -131 -209 -49 -418 -94 -464 -101 -179 -25 -356 10 -492 99 -177 116 -294 315 -346 588 -22 115 -23 135 -12 160 19 38 59 65 107 71 55 7 85 -2 126 -37 18 -17 48 -33 65 -36 29 -6 31 -5 31 23 0 32 -43 80 -97 107 -85 43 -198 24 -278 -46 -24 -21 -46 -35 -48 -31 -3 5 -8 44 -11 88 -8 94 2 121 54 148 39 20 99 16 180 -10z m6309 0 c41 -31 55 -80 42 -144 -17 -82 -24 -88 -55 -52 -54 64 -161 91 -247 61 -52 -17 -126 -69 -139 -96 -12 -27 -5 -62 13 -62 7 0 43 21 81 45 80 52 135 59 191 25 48 -30 59 -66 52 -168 -7 -110 -46 -242 -102 -352 -146 -281 -399 -414 -725 -380 -64 7 -239 44 -450 95 -190 46 -391 93 -447 105 -280 56 -480 47 -681 -29 l-77 -30 45 40 c55 49 150 103 225 130 61 21 187 50 194 44 2 -2 -15 -12 -38 -21 -23 -9 -40 -19 -37 -22 3 -2 81 -5 173 -7 209 -2 291 -19 601 -120 282 -92 368 -109 537 -109 102 0 149 5 220 23 181 46 336 156 393 279 51 110 25 240 -63 321 -142 131 -403 111 -540 -41 -26 -29 -47 -64 -51 -83 -11 -62 41 -125 107 -128 32 -2 34 0 42 38 19 87 39 126 76 150 82 54 193 57 252 7 66 -54 88 -165 50 -241 -74 -143 -374 -247 -581 -200 -74 16 -494 150 -504 160 -22 21 12 19 191 -10 325 -53 498 -66 553 -44 21 9 -2 19 -185 78 l-210 67 130 127 c72 69 184 167 251 218 128 97 380 266 452 302 102 52 210 62 261 24z m-3393 -308 c-4 -14 -9 -45 -13 -70 -3 -25 -10 -45 -15 -45 -9 0 -4 80 8 123 8 27 27 20 20 -8z m314 -42 c-1 -53 -2 -56 -15 -39 -18 23 -19 50 -5 77 17 30 20 23 20 -38z m-165 -108 c9 -102 24 -110 50 -27 16 53 18 55 27 32 17 -45 2 -121 -42 -214 l-43 -90 -38 76 c-45 90 -61 150 -51 198 l8 34 21 -52 c12 -29 27 -52 32 -52 7 0 11 35 11 96 0 117 16 116 25 -1z m-3710 -130 c202 -105 370 -286 541 -584 61 -106 69 -172 33 -278 l-24 -68 -6 95 c-9 154 -59 271 -174 412 -73 88 -190 187 -261 219 -75 34 -179 52 -250 43 -29 -3 -71 -3 -93 1 -39 6 -41 8 -41 43 0 50 28 102 69 129 53 36 123 32 206 -12z m7638 7 c55 -32 88 -132 53 -161 -11 -9 -44 -10 -119 -5 -127 8 -182 -3 -292 -60 -154 -79 -309 -266 -372 -450 -23 -67 -28 -98 -28 -182 0 -56 -3 -100 -7 -98 -17 10 -48 140 -48 198 0 74 15 107 108 255 161 253 310 409 469 490 87 44 176 49 236 13z m-7658 -327 c98 -26 173 -73 265 -165 89 -89 135 -157 178 -262 32 -80 42 -222 19 -283 l-16 -40 0 43 c-1 64 -29 189 -58 257 -61 146 -205 310 -325 369 -164 83 -291 45 -376 -111 l-31 -58 -1 35 c0 45 39 127 78 164 35 33 120 65 172 66 20 0 62 -7 95 -15z m7693 -17 c71 -34 105 -91 116 -194 l7 -59 -29 60 c-59 123 -132 175 -247 175 -103 0 -163 -28 -262 -123 -98 -94 -164 -189 -205 -295 -32 -81 -58 -199 -58 -265 l-1 -42 -16 30 c-9 17 -18 62 -21 105 -5 89 15 174 61 269 55 111 231 279 343 328 106 46 230 50 312 11z m-3776 -116 c19 -49 22 -75 23 -196 l0 -138 72 78 c101 110 92 67 -12 -61 -61 -76 -107 -171 -160 -328 -54 -163 -100 -267 -118 -267 -17 0 -94 172 -132 295 -34 114 -90 225 -150 298 -25 31 -53 74 -61 94 -13 34 -7 30 65 -47 77 -82 80 -84 73 -50 -4 19 -7 89 -7 155 0 108 3 126 26 175 l26 55 0 -160 c1 -195 20 -331 78 -563 68 -265 79 -278 124 -140 87 273 115 435 116 675 0 105 3 189 7 187 4 -2 17 -30 30 -62z m-135 -352 c-4 -93 -40 -250 -58 -250 -15 0 -50 135 -56 216 -6 83 11 214 28 214 5 0 9 -7 9 -15 0 -7 5 -38 11 -67 9 -42 13 -49 20 -33 4 11 8 36 8 56 1 20 4 52 8 70 6 32 7 31 21 -31 8 -40 12 -101 9 -160z m-612 -161 c-203 -148 -565 -269 -807 -269 -136 0 -252 -34 -300 -87 -43 -48 -59 -139 -39 -225 11 -48 -1 -49 -58 -8 -143 104 -175 357 -59 467 49 46 85 60 220 87 212 42 322 50 538 40 324 -15 415 -11 485 19 91 39 97 32 20 -24z m1106 27 c62 -35 155 -48 264 -36 263 28 339 32 493 20 448 -32 586 -101 599 -300 6 -75 -18 -150 -67 -219 -28 -38 -103 -101 -121 -101 -4 0 -5 30 -2 68 7 84 -8 141 -50 189 -51 58 -97 73 -244 78 -216 9 -392 47 -618 136 -107 41 -244 120 -284 163 -30 32 -25 33 30 2z m-747 -108 c47 -100 43 -178 -14 -241 l-29 -32 -1 163 c0 93 4 162 9 162 5 0 21 -24 35 -52z m416 -110 l-1 -163 -24 28 c-36 40 -49 98 -35 160 11 52 45 137 54 137 3 0 6 -73 6 -162z m-2167 46 c-25 -53 -28 -69 -28 -169 1 -91 5 -120 24 -168 30 -76 109 -157 221 -225 90 -55 86 -67 -13 -33 -82 29 -138 64 -199 129 -79 83 -111 155 -116 262 -5 108 18 171 86 230 25 22 47 39 49 37 2 -2 -9 -31 -24 -63z m4003 -46 c8 -15 19 -50 25 -77 41 -192 -174 -465 -383 -488 l-53 -5 80 51 c101 64 176 129 216 188 67 97 87 237 48 343 -35 97 -35 98 10 55 24 -22 49 -52 57 -67z m-4241 -6 c-14 -29 -30 -82 -37 -120 -27 -163 72 -389 205 -466 60 -35 118 -49 227 -56 l95 -5 -69 -23 c-87 -28 -129 -28 -301 3 -234 43 -402 65 -484 65 -104 0 -170 -32 -214 -102 -30 -48 -31 -49 -40 -26 -5 13 -10 51 -10 85 -1 84 36 145 112 185 48 25 63 28 155 28 120 0 163 10 198 47 42 43 50 79 49 204 0 76 4 122 12 133 12 17 120 105 124 101 2 -1 -8 -25 -22 -53z m4459 -16 c43 -40 47 -47 41 -78 -4 -18 -7 -79 -8 -135 -2 -88 1 -105 19 -129 45 -61 65 -68 203 -74 115 -5 132 -9 174 -33 84 -50 118 -130 97 -231 -6 -31 -13 -56 -14 -56 -2 0 -15 18 -29 39 -66 99 -153 127 -325 106 -129 -16 -265 -39 -389 -65 -51 -11 -123 -20 -161 -20 -62 0 -154 21 -175 40 -5 4 43 9 105 12 141 5 211 33 287 112 54 58 122 189 141 275 15 64 8 177 -14 239 -8 23 -11 42 -7 42 5 0 29 -20 55 -44z m-2864 8 c0 -7 -258 -130 -390 -186 -52 -22 -156 -61 -230 -86 -119 -40 -145 -46 -223 -46 -80 0 -90 2 -112 25 l-25 25 98 -4 c111 -5 207 15 348 69 43 17 129 48 189 69 61 21 162 61 225 89 133 57 120 53 120 45z m1399 -95 c84 -32 345 -114 496 -154 85 -23 113 -27 188 -22 48 3 87 2 87 -3 0 -5 -12 -18 -26 -29 -54 -42 -216 -24 -388 43 -203 79 -570 238 -586 253 -8 8 23 -2 70 -22 47 -20 118 -50 159 -66z m-3276 -37 c25 -22 22 -80 -5 -109 -15 -16 -33 -23 -60 -23 -47 0 -71 31 -66 87 3 32 8 41 38 55 37 19 63 16 93 -10z m5055 -9 c44 -49 6 -123 -63 -123 -57 0 -97 76 -62 121 35 45 86 46 125 2z m-1747 -89 c370 -167 513 -214 654 -216 41 0 75 -2 75 -5 0 -20 -35 -63 -59 -73 -26 -10 -43 -9 -113 10 -155 42 -245 81 -464 201 -120 66 -223 125 -228 130 -21 19 14 7 135 -47z m-1615 37 c-11 -18 -282 -175 -381 -222 -124 -58 -272 -109 -314 -109 -23 0 -42 9 -64 32 l-32 32 35 7 c19 4 66 12 105 19 109 18 264 73 465 164 213 97 193 88 186 77z m1448 -216 c212 -280 520 -739 573 -854 78 -170 110 -351 99 -570 -12 -268 -53 -387 -175 -511 -90 -92 -149 -104 -220 -44 -61 51 -66 151 -10 198 52 44 102 46 149 8 31 -25 21 -61 -22 -86 -46 -28 -21 -31 46 -6 61 23 86 50 86 93 0 98 -125 183 -254 175 -83 -5 -136 -40 -180 -118 -27 -48 -31 -64 -31 -130 1 -82 27 -156 78 -216 37 -44 134 -93 204 -102 35 -5 80 -20 109 -37 101 -59 237 -212 285 -320 11 -26 19 -48 17 -50 -1 -1 -17 -9 -33 -18 l-30 -15 -98 118 c-133 161 -182 197 -362 266 -198 76 -272 191 -290 449 -12 164 34 368 140 620 79 190 145 285 198 285 75 0 175 -189 223 -423 19 -90 28 -107 55 -107 34 0 49 28 49 91 0 163 -99 435 -262 723 -49 87 -274 432 -428 656 -71 105 -71 105 -20 50 28 -30 75 -86 104 -125z m-1230 153 c-5 -7 -62 -98 -129 -203 -307 -481 -414 -682 -494 -927 -38 -116 -49 -167 -60 -276 -9 -82 -8 -88 14 -114 l23 -27 20 22 c11 12 37 78 57 147 60 202 94 288 130 325 65 69 107 37 204 -153 141 -279 203 -554 168 -747 -26 -144 -58 -245 -91 -289 -39 -51 -113 -101 -177 -121 -163 -48 -325 -180 -444 -362 -15 -24 -30 -43 -32 -43 -13 0 -63 43 -63 54 0 6 22 48 49 91 105 170 239 283 367 309 128 26 203 82 253 186 21 44 26 70 26 130 0 65 -4 82 -31 130 -44 78 -97 113 -180 118 -107 7 -193 -37 -236 -121 -16 -33 -19 -53 -15 -100 6 -68 12 -78 32 -51 14 19 15 19 56 -4 23 -12 45 -20 47 -17 3 3 -9 20 -26 38 -18 18 -32 40 -32 48 0 26 37 51 82 56 74 8 138 -50 138 -127 0 -69 -69 -140 -138 -140 -109 0 -239 164 -278 350 -20 97 -14 411 11 545 37 200 110 373 241 565 106 156 473 681 492 703 18 20 27 23 16 5z m616 -313 c0 -17 -60 -85 -75 -85 -18 0 -43 37 -51 77 -5 25 0 37 26 67 l32 36 34 -42 c19 -24 34 -48 34 -53z m1442 -94 c504 -218 562 -252 617 -362 50 -99 43 -210 -29 -450 -47 -158 -41 -257 25 -394 54 -111 44 -145 -40 -145 -27 0 -44 8 -65 28 -36 36 -48 81 -60 217 -15 170 -20 204 -46 287 -66 210 -193 412 -390 619 -105 110 -103 111 17 12 105 -86 239 -230 286 -305 40 -66 104 -138 121 -138 6 0 20 16 32 36 60 97 -37 295 -209 426 -64 49 -251 144 -438 224 -83 35 -112 54 -83 54 5 0 123 -49 262 -109z m1897 33 c102 -115 151 -257 151 -441 0 -157 -34 -303 -104 -443 -34 -69 -83 -150 -91 -150 -2 0 16 42 40 93 25 50 57 137 72 192 24 89 27 118 26 265 0 139 -3 178 -22 245 -27 102 -71 195 -123 263 -52 70 -19 53 51 -24z m-4689 58 c0 -5 -71 -41 -157 -81 -87 -40 -189 -91 -227 -113 -94 -56 -215 -173 -255 -248 -47 -87 -73 -169 -65 -205 7 -33 50 -85 71 -85 7 0 25 19 39 43 139 220 217 307 439 490 38 32 28 17 -46 -63 -263 -288 -407 -553 -439 -807 -26 -211 -52 -302 -100 -353 -31 -33 -64 -38 -98 -14 -29 20 -28 53 3 114 36 72 55 153 55 240 0 74 -11 129 -65 325 -51 186 -31 292 75 394 53 51 73 61 550 280 193 89 220 99 220 83z m702 -186 c-12 -94 -17 -114 -25 -95 -5 13 -6 43 -3 67 6 47 36 155 41 150 2 -2 -4 -57 -13 -122z m501 66 c20 -32 37 -63 37 -68 0 -5 -14 -26 -30 -47 l-29 -39 -14 29 c-8 15 -18 43 -22 61 -7 36 2 122 13 122 4 0 24 -26 45 -58z m211 26 c11 -41 6 -103 -10 -153 l-17 -48 -18 24 c-10 13 -26 38 -35 56 l-18 31 39 56 c21 31 42 56 45 56 4 0 10 -10 14 -22z m485 -167 c1 -30 -2 -52 -5 -49 -6 6 -45 215 -43 232 3 33 48 -138 48 -183z m-3061 45 c32 -17 52 -54 52 -96 0 -91 -168 -125 -239 -49 -43 47 -11 149 52 162 34 8 104 -1 135 -17z m5024 14 c46 -13 68 -43 68 -93 0 -71 -45 -107 -137 -107 -79 0 -123 36 -123 102 0 82 87 127 192 98z m-2554 -123 c18 -29 12 -51 -21 -71 -12 -8 -21 -7 -33 5 -13 14 -14 22 -3 58 14 48 32 50 57 8z m-177 -22 c19 -43 19 -47 3 -80 -27 -58 -34 -50 -34 39 0 47 3 86 6 86 3 0 14 -20 25 -45z m329 -47 l-1 -93 -19 35 c-11 19 -19 45 -20 57 0 20 29 93 37 93 2 0 3 -42 3 -92z m-853 -80 c25 -20 55 -127 112 -410 95 -471 104 -539 98 -752 -6 -197 -18 -269 -72 -433 -85 -255 -225 -446 -425 -580 -100 -67 -349 -213 -362 -213 -14 0 -3 134 16 206 33 126 120 236 314 397 81 67 98 77 132 77 l40 0 0 -47 c0 -56 -43 -141 -82 -161 -22 -12 -24 -18 -20 -75 2 -34 6 -64 8 -66 2 -2 28 12 57 32 235 156 405 625 367 1016 -21 224 -65 376 -199 699 -64 153 -81 204 -81 243 0 77 45 108 97 67z m1443 2 c44 -44 26 -125 -102 -465 -102 -270 -141 -413 -159 -571 -30 -276 40 -573 183 -781 78 -115 202 -240 240 -243 3 0 8 31 10 70 3 63 1 70 -19 79 -30 14 -80 85 -95 133 -13 46 1 88 30 88 11 0 59 -30 108 -67 232 -173 314 -275 359 -448 15 -59 23 -181 12 -192 -8 -7 -214 114 -342 201 -107 73 -235 196 -295 285 -143 213 -220 480 -220 763 0 156 18 291 76 563 24 116 57 283 74 372 28 159 47 216 72 226 26 11 49 6 68 -13z m-820 -55 c0 -13 -48 -61 -54 -54 -16 18 -14 49 6 74 20 26 22 26 35 9 7 -10 13 -23 13 -29z m160 25 c8 -15 7 -28 -6 -52 l-17 -32 -18 23 c-22 27 -24 52 -7 69 18 18 36 15 48 -8z m-92 -112 c17 -17 14 -49 -7 -77 l-18 -23 -21 30 -22 30 21 26 c23 29 30 31 47 14z m-2479 -74 c62 -18 129 -75 169 -143 23 -39 27 -58 27 -122 0 -67 -4 -81 -30 -124 -16 -26 -46 -60 -64 -74 -36 -27 -35 -19 7 36 56 75 63 173 17 263 -28 55 -47 73 -105 99 -124 57 -252 -9 -237 -122 11 -83 112 -158 191 -143 20 4 52 20 70 36 19 17 36 30 40 30 12 0 6 -82 -9 -110 -33 -65 -91 -85 -160 -55 -84 34 -195 175 -195 245 0 84 54 161 129 184 61 19 87 19 150 0z m5116 -10 c20 -9 48 -33 63 -52 57 -75 22 -217 -76 -303 -62 -54 -98 -72 -149 -73 -35 -1 -48 5 -73 30 -33 32 -53 93 -44 130 5 21 7 21 56 -12 67 -45 127 -47 185 -5 127 92 76 251 -81 251 -132 0 -238 -120 -223 -251 8 -63 36 -117 86 -162 47 -42 46 -45 -8 -17 -77 39 -123 118 -123 210 0 122 74 216 210 267 45 16 128 11 177 -13z m-2545 -86 l0 -61 -25 23 c-14 13 -25 28 -25 33 0 10 39 67 46 67 2 0 4 -28 4 -62z m-180 6 c0 -13 -9 -28 -20 -34 -18 -10 -20 -8 -20 19 0 16 3 37 6 45 9 23 34 1 34 -30z m130 -145 c0 -3 -25 -7 -55 -8 -30 -1 -55 1 -55 4 0 3 10 25 21 48 l22 41 33 -39 c19 -22 34 -43 34 -46z m-20 -96 c-1 -5 -9 -24 -20 -43 l-19 -35 -15 37 c-21 49 -21 48 19 48 19 0 35 -3 35 -7z m-1409 -636 c36 -146 111 -259 204 -308 25 -13 45 -26 45 -29 0 -3 -24 -18 -53 -34 -28 -16 -88 -66 -132 -110 -64 -64 -91 -101 -132 -181 l-51 -99 -11 39 c-32 121 -48 283 -34 344 l8 33 53 -61 c56 -64 59 -66 81 -52 11 7 4 21 -34 67 -64 78 -85 126 -85 196 0 97 9 97 52 1 48 -111 87 -160 133 -169 65 -12 72 1 27 50 -87 95 -139 250 -128 380 8 85 18 103 29 51 5 -22 17 -75 28 -118z m2818 43 c1 -123 -50 -271 -123 -357 -20 -22 -36 -43 -36 -46 0 -11 55 -14 82 -5 23 8 38 29 77 112 26 55 53 112 58 126 10 24 11 24 22 -18 7 -24 9 -58 6 -75 -7 -33 -48 -119 -92 -194 l-25 -43 25 0 c26 0 69 42 90 87 44 98 28 -202 -19 -347 -3 -9 -17 8 -37 45 -73 136 -175 245 -280 300 -31 17 -57 32 -57 35 0 3 20 16 45 29 60 32 131 109 161 176 14 30 36 100 50 157 14 57 28 110 31 118 9 25 21 -28 22 -100z"
       id="path3" />
    <path
       d="M5382 6870 c-143 -38 -214 -81 -259 -158 -23 -38 -28 -59 -28 -112 0 -36 5 -74 12 -85 10 -17 12 -15 22 25 29 113 88 193 175 237 28 14 117 42 198 63 81 20 151 40 155 43 15 16 -204 5 -275 -13z"
       id="path10" />
    <path
       d="M5538 6791 c-80 -14 -150 -30 -155 -35 -4 -5 35 -6 92 -4 95 5 214 34 240 59 13 13 -11 10 -177 -20z"
       id="path12" />
    <path
       d="M8112 6889 c3 -9 54 -24 139 -41 272 -56 369 -116 414 -261 27 -87 26 -84 35 -62 17 41 11 128 -14 180 -56 121 -171 166 -490 191 -73 5 -88 4 -84 -7z"
       id="path13" />
    <path
       d="M8070 6811 c52 -37 311 -84 333 -62 12 12 3 14 -163 41 -69 11 -138 23 -155 26 -23 4 -26 3 -15 -5z"
       id="path15" />
    <path
       d="M7757 4929 c-90 -21 -172 -90 -198 -165 -16 -48 -16 -139 1 -179 l12 -30 23 73 c27 87 60 132 123 169 40 24 58 28 122 28 86 0 125 -15 194 -76 24 -21 47 -39 51 -39 10 0 -6 92 -21 122 -41 80 -186 126 -307 97z"
       id="path17" />
    <path
       d="M5885 4933 c-110 -24 -184 -101 -185 -192 l0 -33 40 35 c157 142 373 102 440 -81 37 -102 36 -101 50 -67 19 49 15 139 -10 190 -52 106 -209 176 -335 148z"
       id="path19" />
    <path
       d="M7660 11259 c-52 -9 -188 -65 -179 -73 2 -3 40 5 84 16 117 30 367 30 479 0 69 -19 218 -81 158 -66 -307 77 -568 68 -862 -27 -61 -20 -97 -39 -74 -39 5 0 61 13 124 29 149 38 247 51 377 51 176 0 409 -42 530 -95 66 -30 173 -104 202 -141 26 -34 27 -24 1 26 -64 125 -244 241 -459 297 -109 28 -290 38 -381 22z"
       id="path24" />
    <path
       d="M5781 11249 c-207 -27 -397 -135 -489 -277 -18 -30 -32 -55 -30 -57 2 -2 33 19 68 47 84 65 133 89 255 127 155 47 215 55 400 55 175 -1 164 1 505 -69 50 -11 -65 36 -149 60 -211 61 -417 70 -671 29 -63 -10 -10 12 83 35 147 36 298 38 467 6 14 -3 -1 4 -33 15 -107 36 -265 47 -406 29z"
       id="path25" />
    <path
       d="M8690 3368 c0 -8 23 -25 50 -37 78 -35 188 -119 395 -300 334 -293 441 -378 559 -449 177 -107 394 -164 609 -161 105 2 107 1 -133 48 -319 62 -512 173 -795 456 -77 77 -170 165 -205 196 -128 111 -280 201 -396 235 -32 9 -65 19 -71 21 -7 3 -13 -1 -13 -9z"
       id="path31" />
    <path
       d="M4944 3335 c-176 -73 -275 -147 -519 -391 -93 -94 -210 -200 -260 -237 -179 -132 -389 -221 -603 -254 -144 -22 -156 -37 -22 -29 188 13 315 45 475 121 171 82 310 186 550 415 196 185 310 281 420 352 104 68 89 76 -41 23z"
       id="path32" />
    <path
       d="M4968 3141 c-168 -85 -358 -259 -450 -412 -102 -169 -116 -403 -32 -574 23 -47 24 -48 19 -15 -45 279 -11 430 140 632 102 136 300 310 368 323 78 15 102 36 75 63 -19 19 -59 14 -120 -17z"
       id="path33" />
    <path
       d="M8680 3155 c-21 -26 -3 -43 65 -63 73 -22 152 -80 289 -211 214 -207 291 -427 242 -698 -7 -40 -12 -73 -10 -73 9 0 46 87 64 151 23 83 26 203 9 277 -18 74 -84 208 -140 283 -86 117 -232 235 -385 313 -77 39 -114 45 -134 21z"
       id="path34" />
  </g>
  <path
     style="fill:#000000;fill-opacity:1;stroke-width:0.75"
     d="m 492.83255,364.66447 3.13886,2.37251 4.59185,2.45635 2.5735,0.16467 -1.30203,-1.87744 -2.55128,-0.58757 -4.74574,-3.484 -4.78636,-5.56252 z"
     id="path35" />
  <path
     style="fill:#000000;fill-opacity:1;stroke-width:0.75"
     d="m 489.1211,356.71131 5.70521,5.0116 5.53223,4.94695 2.08478,1.00253 -1.08605,1.21909 -12.83456,-9.29877 z"
     id="path36" />
  <path
     style="fill:#000000;fill-opacity:1;stroke-width:0.75"
     d="m 530.18418,281.36903 -4.28645,4.37155 -2.4203,3.37137 -0.98308,2.61251 0.0825,0.78786 4.00151,-4.34951 z"
     id="path37" />
  <path
     style="fill:#000000;fill-opacity:1;stroke-width:0.75"
     d="m 485.32679,349.97144 8.32976,10.75349 -3.90212,-0.62943 z"
     id="path38" />
  <path
     style="fill:#000000;fill-opacity:1;stroke-width:0.75"
     d="m 474.18641,1057.4815 20.07425,-15.848 13.94438,-11.5016 7.12814,-4.947 0.70889,3.7928 -2.96105,6.448 -8.07991,8.5581 z"
     id="path39" />
  <path
     style="fill:#000000;fill-opacity:1;stroke-width:0.75"
     d="m 513.03778,1035.4688 2.51621,-2.0325 0.79442,-1.4218 0.42173,-2.531 -0.91384,-2.3832 -4.12907,5.4172 z"
     id="path40" />
  <path
     style="fill:#000000;fill-opacity:1;stroke-width:0.75"
     d="m 503.44195,1063.3899 9.62059,-2.728 11.13013,-1.5863 0.7756,6.8497 -20.59843,3.7044 z"
     id="path41" />
  <path
     style="fill:#000000;fill-opacity:1;stroke-width:0.75"
     d="m 509.67763,723.54833 0.18228,7.56061 0.65254,8.24527 0.98206,3.41769 1.47905,1.00228 -0.7176,-6.76932 0.41856,-10.11193 z"
     id="path47" />
  <path
     style="fill:#000000;fill-opacity:1;stroke-width:0.75"
     d="m 527.23825,704.10067 6.3246,0.67725 6.24126,0.007 4.0542,-1.89782 -5.16029,-0.13458 -7.37227,-0.14298 -3.17447,-1.19286 z"
     id="path48" />
  <path
     style="fill:#000000;fill-opacity:1;stroke-width:0.75"
     d="m 510.14582,723.70231 -0.81132,5.61514 -0.42757,4.11912 0.11855,6.99445 3.07761,2.65527 -1.02432,-7.62412 z"
     id="path49" />
  <path
     style="fill:#000000;fill-opacity:1;stroke-width:0.75"
     d="m 508.90129,732.11089 -0.17512,-7.02627 0.36387,-7.59967 0.87379,-3.64644 c 0,0 3.34401,5.24717 3.34401,5.5951 0,0.34794 -2.05707,10.58628 -2.05707,10.58628 z"
     id="path50" />
  <path
     style="fill:#000000;fill-opacity:1;stroke-width:0.75"
     d="m 508.91522,732.04318 -0.0291,1.2701 0.0234,0.30256 0.56873,-1.33583 -0.38138,-0.53933 z"
     id="path51" />
  <g
     inkscape:groupmode="layer"
     id="layer1"
     inkscape:label="Layer 1">
    <path
       style="fill:#000000;fill-opacity:1;stroke-width:0.75"
       d="m 876.31364,1064.3435 -9.62059,-2.728 -11.13013,-1.5863 -0.7756,6.8497 20.59843,3.7044 z"
       id="path41-5" />
    <path
       style="fill:#000000;fill-opacity:1;stroke-width:0.75"
       d="m 857.37187,1042.7517 19.1934,5.1054 -3.38722,-3.6267 -3.24698,-2.0237 -6.00434,-1.4468 -7.86428,-1.7914 z"
       id="path52" />
    <path
       style="fill:#000000;fill-opacity:1;stroke-width:0.75"
       d="m 838.65735,703.44965 7.4532,-0.40081 6.09705,-0.83914 2.139,2.26385 -6.70537,1.07661 -9.7578,0.12473 z"
       id="path53" />
    <path
       style="fill:#000000;fill-opacity:1;stroke-width:0.75"
       d="m 868.9482,728.53907 0.78412,10.78572 4.40085,-2.41482 -1.54312,-1.23121 -0.0412,-5.69813 -1.75072,-11.90469 z"
       id="path54" />
    <path
       style="fill:#000000;fill-opacity:1;stroke-width:0.75"
       d="m 870.225,376.55708 14.75587,-10.43794 1.40618,-4.43153 0.32985,-2.96816 -15.53745,14.32726 z"
       id="path55" />
    <path
       style="fill:#000000;fill-opacity:1;stroke-width:0.75"
       d="m 886.49812,358.9238 1.55453,-1.99701 0.11512,1.67948 -1.5375,1.15099 z"
       id="path56" />
    <path
       style="fill:#000000;fill-opacity:1;stroke-width:0.75"
       d="m 870.45285,376.28493 -1.18417,1.26652 0.23497,-1.33246 0.9327,-0.64261 z"
       id="path57" />
    <path
       style="fill:#000000;fill-opacity:1;stroke-width:0.75"
       d="m 851.62125,290.47666 4.49392,4.85403 3.3444,4.83635 -4.21297,-11.53419 -2.72093,-1.86805 -7.77307,-8.09806 -2.6379,0.72271 7.93372,7.59123 z"
       id="path58" />
  </g>
</svg>
