<?xml version="1.0" encoding="UTF-8" standalone="no"?>
<svg
   version="1.0"
   width="1098.738pt"
   height="1072.5483pt"
   viewBox="0 0 1098.738 1072.5483"
   preserveAspectRatio="xMidYMid"
   id="svg32"
   sodipodi:docname="bfly_2.svg"
   inkscape:version="1.3.2 (091e20ef0f, 2023-11-25, custom)"
   xmlns:inkscape="http://www.inkscape.org/namespaces/inkscape"
   xmlns:sodipodi="http://sodipodi.sourceforge.net/DTD/sodipodi-0.dtd"
   xmlns="http://www.w3.org/2000/svg"
   xmlns:svg="http://www.w3.org/2000/svg">
  <defs
     id="defs32" />
  <sodipodi:namedview
     id="namedview32"
     pagecolor="#ffffff"
     bordercolor="#000000"
     borderopacity="0.25"
     inkscape:showpageshadow="2"
     inkscape:pageopacity="0.0"
     inkscape:pagecheckerboard="0"
     inkscape:deskcolor="#d1d1d1"
     inkscape:document-units="pt"
     inkscape:zoom="0.31281789"
     inkscape:cx="906.27809"
     inkscape:cy="895.08947"
     inkscape:window-width="1920"
     inkscape:window-height="1011"
     inkscape:window-x="0"
     inkscape:window-y="0"
     inkscape:window-maximized="1"
     inkscape:current-layer="svg32" />
  <path
     d="m 323.12408,1.1 c -10.1,2.4 -22.1,10.3 -29.9,19.9 -7.7,9.4 -13.7,26.2 -13.7,38.2 0,6.2 2.6,17.1 5.4,23.3 5.1,11.2 17.5,20.5 27.4,20.5 5.9,0 5.1,-1.8 -2.3,-4.8 -8.4,-3.4 -13.8,-7.4 -17.5,-13.2 -4.8,-7.4 -7,-15.7 -7,-25.9 0,-16 4.8,-27.6 16.4,-39.8 18.7,-19.8 41.7,-20.2 68.8,-1.2 17.3,12.2 32.4,26 49.6,45.6 6.8,7.8 6.8,10.3 0,5.1 -19.7,-15 -47.1,-13.7 -66,3.2 l -5.7,5.1 -5.4,-4 c -2.9,-2.2 -7.3,-4.8 -9.8,-5.6 -10.7,-3.9 -22.4,2.9 -23.5,13.6 l -0.5,4.4 2.8,-5.5 c 3.9,-7.5 6.9,-9.5 14.6,-9.5 6.7,0 10.8,1.6 16.6,6.4 l 3.4,2.8 -2.2,3.1 c -5.2,7.3 -6.5,17.6 -3.2,24.7 4.4,9.4 15.8,18.5 23.4,18.5 2.1,0 5.4,-0.8 7.5,-1.7 l 3.7,-1.7 -8.5,-0.6 c -11.1,-0.8 -15.3,-3.1 -20.5,-11.2 -1.6,-2.7 -1.6,-2.8 0.1,-3.4 5.8,-1.7 12.6,-5.7 13.5,-7.8 1.8,-3.8 0.2,-9 -4.3,-14.7 l -4.1,-5.3 4.7,-4.2 c 18.9,-16.6 45.7,-16.4 64.8,0.6 4.9,4.4 15.8,18.8 15.8,20.9 0,0.4 -2.6,1.8 -5.7,3.1 -7.6,3.1 -17.1,12.5 -19.7,19.5 -1.5,4 -2,8.7 -2.3,23 -0.6,18.6 -1.4,22.4 -6,27.7 -0.9,0.9 -1,1.8 -0.5,2.2 1.4,0.8 7.1,-6.5 8.3,-10.6 0.5,-1.8 1.4,-10.3 1.8,-18.9 1,-18 2,-21.9 7,-28.5 4.2,-5.5 9.8,-8.7 15.5,-8.8 3.5,-0.1 4.1,0.2 4.7,2.4 6.3,21.6 7.2,23.3 30.9,57.5 29.6,42.9 38.8,57.5 48,76.8 13.8,28.7 21.4,62.7 16.6,74 -1.1,2.7 -10.7,12.7 -12.1,12.7 -0.3,0 -0.5,-0.6 -0.5,-1.4 0,-0.7 -1.7,-3.3 -3.8,-5.6 -3.3,-3.7 -4.3,-4.3 -8,-4.3 -5.4,0 -8.8,2.4 -10.3,7.2 -3.3,11.1 6.1,20.1 16.5,15.7 2.1,-0.9 4,-1.6 4.3,-1.6 0.2,0 -1,2 -2.7,4.4 -1.6,2.5 -3,4.9 -3,5.4 0,0.6 1.7,4.5 3.8,8.8 3.6,7.8 3.7,8.1 3.6,19.4 -0.1,7.5 -0.8,14.6 -2.2,20.5 -4.4,19.9 -3.8,28.9 2.9,43.7 2.2,4.7 4.6,11.7 5.4,15.5 4.1,19.4 -0.8,62.2 -10.5,91.4 -2.1,6.4 -6.7,17.4 -10.3,24.5 -15.1,30.3 -22,53.6 -24.8,83.9 -2.5,28.4 2.9,61.9 15,92.4 5.1,12.6 7.8,18.1 9.1,18.1 1.9,0 1,-7 -2.5,-18.2 -5.9,-18.9 -11.2,-40.6 -13,-53.3 -2.7,-18.8 -2.4,-48.5 0.5,-48.5 2.5,0 10.4,21.6 14.3,39 4.2,18.8 8.5,45.7 9.2,58 0.8,12.2 -0.6,32.1 -3.1,44.9 -0.7,4.1 -1.2,7.6 -1,7.9 0.9,0.8 5.6,-7.6 7.6,-13.8 5.2,-15.6 6.5,-35.5 3.6,-54.1 -0.9,-5.2 -3.1,-22.5 -5.1,-38.4 -4.8,-39.6 -8.3,-59.2 -13.4,-75.5 -2.6,-8.2 -2.7,-13.1 -0.2,-16.1 l 1.9,-2.4 1.4,3.5 c 1.8,4.3 19,73.6 21.8,88 3.4,17 4.9,28.6 7,53.2 3.7,42.2 6.8,66.8 9.2,74 1.3,3.7 2.8,6.8 3.3,6.9 2.4,0.4 4.6,-8 7.4,-28.8 4.1,-30.2 5.7,-43.9 7.6,-64.8 2,-22.4 4.1,-34.8 10.4,-61.2 11,-46.3 15.6,-63.4 17.7,-66.1 l 2.2,-2.7 1.2,4.5 c 1.1,4 0.9,5.3 -1.4,13 -1.5,4.7 -4,16.8 -5.6,27 -2.6,17.1 -4,26.2 -10.2,69 -3.2,22.3 -3.2,54.6 0,67.2 2.3,9.4 6.5,18.8 8.3,18.8 0.8,0 0.9,-1.1 0.5,-3.3 -3.8,-17.3 -4.8,-42.2 -2.6,-60.3 5,-41 11.4,-66.1 20.4,-80.3 4.5,-7 5.1,-4.8 5,17.2 0,25.8 -2.6,39.8 -12.8,71.3 -6.2,19.4 -7.3,23.9 -5.7,24.9 1.6,0.9 11.1,-19.3 16,-34 8.7,-26.4 12.3,-52 10.3,-74.1 -2.6,-27.9 -8.3,-46.2 -27.3,-87 -15.5,-33.5 -15.9,-35.1 -20.5,-72.9 -3,-25.6 -2.9,-38 0.6,-48.5 1.7,-5.1 2.1,-8.2 1.8,-14.5 -0.4,-7.3 -0.9,-9.1 -6.6,-21 -3.4,-7.2 -8.1,-17.7 -10.5,-23.4 -2.3,-5.8 -4.7,-10.6 -5.2,-10.8 -0.6,-0.1 -6.4,10.9 -13,24.6 -6.6,13.7 -12.1,24.8 -12.3,24.6 -0.6,-0.6 6.2,-28.6 11,-44.9 l 5.1,-17.1 0.1,-17 c 0.1,-16.7 0.2,-17.1 2.9,-21.7 2.8,-4.9 5.9,-6.7 8.1,-4.9 0.7,0.6 2.6,3.7 4.2,6.8 2.8,5.6 2.9,6.4 3.1,20.3 0.1,15.8 0.2,16 9.8,55.4 7.1,28.9 8.2,31.3 10.5,21.7 1,-4.3 0.7,-7.4 -2.5,-26.7 -4.4,-26.2 -4.5,-34.6 -0.2,-43.4 1.4,-3 3.2,-6.3 3.9,-7.2 1,-1.3 0.7,-2.7 -1.4,-7.6 l -2.6,-6 3.2,1.9 c 8.2,5 18.6,-1.4 18.6,-11.5 0,-5.1 -5.4,-10.6 -10.4,-10.6 -7,0 -13.5,5.7 -13.7,12 0,2.3 -0.1,2.3 -0.9,0.5 -0.4,-1.1 -2.2,-3.4 -4,-5 -4.7,-4.3 -8,-11.9 -8,-18.3 0,-11.1 6.3,-36.2 13.7,-54.7 10.8,-27 25.2,-50.5 56,-91.3 17.9,-23.7 24.2,-35.6 25.9,-48.2 0.9,-6.5 3.3,-9.3 7.2,-8.4 9.3,2 17.4,9.8 20.7,19.8 0.9,2.8 2.1,10.9 2.5,18.1 1.3,18.7 3.3,24 10.1,26.4 l 3.1,1.1 -3.6,-4.1 c -2,-2.2 -4.2,-5.2 -4.8,-6.7 -0.5,-1.5 -1.3,-9.9 -1.7,-18.7 -0.6,-15.1 -0.9,-16.4 -3.7,-22.6 -1.7,-3.6 -4.6,-8.2 -6.4,-10.3 -3.4,-3.8 -11.5,-8.6 -14.7,-8.6 -4.5,-0.1 -4.7,-1.5 -1.2,-8 4.1,-7.7 12.7,-16.6 20.1,-20.8 6.6,-3.8 19,-7.2 26.4,-7.2 10.4,0 24.8,6.6 32.8,14.9 l 2.8,3 -3.5,3.1 c -9,7.9 -6.6,17.9 5.7,22.8 l 4,1.6 -5.5,4.9 c -6.3,5.8 -12,8.6 -17,8.7 -2,0 -5.1,0.3 -6.9,0.6 l -3.2,0.7 2.3,1.3 c 4,2.2 11.9,1.7 17.7,-1.2 6.7,-3.3 11.5,-8.9 16.4,-19.1 4.7,-9.6 4.6,-12.2 -0.3,-19.7 -3.1,-4.6 -3.1,-4.7 -1.3,-6.8 4.1,-4.6 10.6,-7.8 15.8,-7.8 7.5,0 13,3.9 17.9,12.4 l 1.7,3.1 v -3.3 c 0,-8.5 -9,-16.2 -18.7,-16.2 -4.6,0 -12.7,3.6 -17.5,7.9 -2,1.7 -3.9,3.1 -4.3,3.1 -0.4,0 -3.2,-2.2 -6.2,-5 -9.6,-8.5 -23.4,-14 -35.2,-14 -6.5,0 -18.6,3.2 -26,6.9 -3.3,1.7 -6.3,3.1 -6.6,3.1 -1.5,0 12.5,-15.7 24.1,-27.1 15.4,-15 26.5,-23.5 38.8,-29.4 24,-11.7 42.4,-9.5 58.5,7 11.3,11.4 16.6,24.7 16.5,41.5 -0.1,12.6 -2.2,19.2 -8.6,26.5 -4.9,5.6 -9.4,8.6 -18.3,12.1 -7.2,2.9 -7.2,4.4 0.1,4.4 8.8,0 22.1,-9.7 27.3,-19.8 5.4,-10.5 6.5,-29 2.5,-42.2 -4.1,-13.9 -13.8,-26.7 -25.5,-33.7 -6.3,-3.8 -19,-7.3 -26.4,-7.3 -18,0 -38.8,11.2 -65.2,35 -21.9,19.8 -36,36.6 -44.9,53.3 -2.5,4.9 -5.1,9 -5.8,9.2 -17.5,5 -26.3,10.1 -36.7,21.2 -8.4,8.9 -17.9,23.4 -25.7,38.8 -13.5,27.1 -21,51.9 -32.8,108.5 -2.5,12.4 -4.8,22.7 -5,22.9 -0.9,1 -1.7,-2.1 -7,-29 -6.5,-33.6 -10.2,-49.4 -14.9,-64.6 -9.9,-31.5 -26.2,-61.1 -43.5,-78.4 -9.6,-9.7 -17.1,-14.4 -28,-17.5 l -7.5,-2.2 -4.2,-8.2 c -6,-11.8 -13,-20.3 -31,-38.1 -35,-34.6 -49,-45.3 -64.3,-49.4 -6,-1.6 -20.3,-1.8 -26.4,-0.4 z m 143.4,108.2 c 4.6,2.2 9.1,5.7 15.1,11.7 22.4,22.3 40.5,62.2 52.3,115.5 3.2,14.4 7.7,42.7 7.5,47.2 0,1 -2,-3.9 -4.4,-10.9 -12.9,-37 -20.9,-51.2 -64.6,-114.8 -13.3,-19.2 -24.1,-39.3 -24.1,-44.7 0,-1.8 0.8,-4.5 1.7,-5.9 1.5,-2.4 2.1,-2.6 5.8,-2 2.3,0.4 7.1,2.1 10.7,3.9 z m 185,-0.6 c 2.8,3.6 2.2,7.3 -3.5,18.8 -4.9,10.1 -10,17.7 -32.7,49.2 -8.6,12 -18.4,26.3 -21.9,31.7 -13.3,21.2 -24.1,44.7 -31.4,67.8 -2,6.5 -4.1,11.8 -4.6,11.8 -1.2,0 -1.4,1.7 2.6,-19.7 11.8,-62.6 22.2,-94.3 41.5,-125.7 13.8,-22.7 30.1,-36.3 43.7,-36.5 3.4,-0.1 4.6,0.4 6.3,2.6 z m -97.4,308.8 c 0.9,1.3 3.1,6.5 4.9,11.4 l 3.4,9.1 -2.9,8.6 c -3.5,10.4 -5.3,12.6 -9.4,12.2 -10.9,-1.1 -12.9,-31.5 -2.7,-41.7 2.8,-2.8 4.7,-2.7 6.7,0.4 z m 0.2,53 c 1.3,1 3,4.3 4.4,8.8 2.2,6.9 2.3,8.7 2.3,39.2 0,25.2 -0.4,35 -1.8,46 -2.1,16.2 -5.1,32.6 -7.4,40.5 -1.4,5 -1.6,5.3 -2.4,3.1 -1.3,-3.4 -5.5,-26.8 -6.9,-38.1 -2,-16.7 -2.8,-43.9 -1.8,-64.5 1,-22.5 2.5,-30.9 6.4,-34.3 3,-2.6 4.2,-2.7 7.2,-0.7 z m -16.4,127.7 c 6,26.6 11.2,48.9 11.6,49.6 0.4,0.8 1.2,-1.1 1.9,-4.5 0.7,-3.2 5.8,-24.6 11.2,-47.5 5.4,-22.9 9.9,-42.4 9.9,-43.2 0,-0.9 0.4,-1.6 0.9,-1.6 1.6,0 2.1,6.5 1,14 -0.6,4.2 -0.9,8.9 -0.7,10.5 0.3,2.8 0.5,2.7 3,-2.8 1.5,-3.1 2.9,-5.7 3.2,-5.7 0.3,0 1.2,1.3 2.1,3 2,3.9 1.9,9.6 -0.4,14.5 -1.9,4.1 -2,4 -3.6,-1 -1.5,-5 -5.9,3.5 -8.9,17.6 -3.8,17.7 -5.4,30.4 -7,56.4 -1.9,28.7 -1.6,25.7 -6.7,82.4 -2.2,25 -4.4,46.1 -4.8,46.9 -0.7,1.2 -1,0.8 -1.5,-1.4 -1,-4.8 -2.5,-23.4 -4.1,-51.4 -2.8,-48.4 -5.6,-85.4 -7.1,-95.4 -2,-13.8 -7,-41.4 -9.2,-51.6 l -1.9,-8.5 -2.4,4.7 c -1.2,2.7 -2.6,4.8 -2.9,4.8 -0.9,0 -3.7,-6.7 -4.5,-10.6 -0.4,-2 0,-4.6 1,-7 1.8,-4.2 1.5,-4.4 6,3.1 l 2.4,4 -0.6,-13.8 c -0.4,-8 -0.2,-13.7 0.3,-13.7 0.5,0 5.8,21.7 11.8,48.2 z m -22,-15.5 c 0.3,1 1.4,7.2 2.6,13.8 1.2,6.6 2.4,13 2.7,14.2 0.3,1.5 0.1,2.3 -0.8,2.3 -2,0 -8.9,-20.4 -8.9,-26.1 0,-2.5 0.3,-4.9 0.7,-5.2 1.2,-1.3 3.2,-0.7 3.7,1 z m 73.4,2.7 c 0.4,4.6 -1.6,11.7 -6.3,22.1 l -3.6,8 0.6,-6 c 2.1,-19.9 8.3,-36 9.3,-24.1 z m -86.4,36.1 c 2.6,2.6 3.6,8.5 3.6,21.3 0,14.9 -1.1,15.5 -5.3,3.2 -3.3,-9.6 -4.7,-22.1 -2.7,-24.5 1.6,-1.9 2.5,-1.9 4.4,0 z m 101.2,3.6 c 1.8,3.5 1.3,10 -1.3,18.4 -3.8,12.1 -9.7,19.4 -8.7,10.7 0.3,-2 1.1,-9.2 1.8,-16 1,-9 1.8,-12.8 3.1,-14.2 2.4,-2.7 3.2,-2.5 5.1,1.1 z"
     id="path1"
     style="fill:#000000;stroke:none;stroke-width:0.1" />
  <path
     d="m 44.524083,47.3 c -14.5,3.3 -24,13.7 -28.6,31.7 -2.4,9.5 -1.5,34.6 1.9,49 5.7,24.4 13.3,39.2 44.6,88 19.7,30.6 38.199997,62.3 37.1,63.4 -0.7,0.7 -1.6,0.2 -2.7,-1.4 -3.8,-5.9 -14.3,-14.7 -21.4,-18.2 -19,-9.3 -37.7,-9.2 -51.5,0.3 -12,8.2 -21.3000002,22.7 -23.40000024,36.2 -2.29999996,14.6 3.20000004,27.2 12.00000024,27.9 l 3.5,0.3 0.5,-10 c 0.4,-7.5 0.7,-9.2 1.2,-6.7 0.8,3.6 5.8,9.2 8.1,9.2 1,0 2.5,-2.7 4.2,-7 5.8,-15.3 15.3,-25 28.3,-29 11,-3.4 22.2,-2 33,4.1 7.5,4.3 21.499997,18.1 33.699997,32.9 24.7,30.2 49.5,48.5 80.5,59.2 4.1,1.5 14.7,4.7 23.5,7.1 20.3,5.7 32.6,10.2 49.1,18.1 14.3,6.9 20,10.3 34.5,20.7 19.8,14.2 44.1,22.6 74.9,25.9 6.6,0.7 26.1,1 53.6,0.8 23.8,-0.2 43.6,0.1 44,0.5 1.5,1.5 -1.2,4.2 -6.2,6.2 -4.7,1.9 -7.2,2 -51.4,2 -47.1,0 -54.4,-0.4 -70.8,-4.1 -19.1,-4.4 -39.1,-13.2 -52.7,-23.3 -18.1,-13.5 -29.1,-18.7 -37.9,-17.8 -4.1,0.4 -5.5,1.1 -8.3,4.1 -3.8,4.2 -4.3,8.1 -1.3,11.8 2.4,3.1 3.5,3.6 25.5,9.9 9.9,2.8 25.3,8 34.3,11.6 36.2,14.3 58,18.3 101,18.3 12.8,0 20.2,0.4 20.2,1 0,0.6 -3.1,1 -7.2,1.1 -4,0 -25.1,0.6 -46.8,1.3 -43.3,1.4 -44.5,1.3 -47.3,-4.1 -1.2,-2.2 -4.1,-4 -13.9,-8.2 -6.7,-3 -15.4,-6.6 -19.3,-8 -21.6,-7.8 -43,2.8 -43,21.4 0,10.9 6.6,18.4 19.7,22.2 6.3,1.9 5.4,2.5 -7,5.4 -23,5.3 -39.9,-0.6 -47.8,-16.7 -4.4,-9 -3.3,-22.3 2,-24 1.1,-0.4 3.6,-0.8 5.4,-1 3.9,-0.3 5.8,-1.7 7.8,-5.6 1.9,-3.6 1.1,-6.1 -2.1,-7.6 -1.4,-0.7 -3,-2.3 -3.5,-3.7 -1.2,-3.3 -3.2,-3.2 -8.6,0.6 -17.4,11.9 -22.4,30.2 -13.4,48.5 6.7,13.7 19.8,24 33.7,26.6 10.7,2 17.9,0.1 72.3,-19.2 39.5,-13.9 79.1,-21.5 118.5,-22.7 15.9,-0.5 20.3,-0.3 26.8,1.2 9.9,2.2 11.2,3.8 9.3,11.2 -2,7.7 -2.4,7.9 -6.1,4.3 -1.8,-1.7 -5,-3.6 -7.1,-4.1 -6.2,-1.4 -17.1,-1.1 -21.2,0.7 -11.1,4.6 -16.6,18.3 -11.1,27.4 3.4,5.6 29.4,31.4 30.8,30.6 0.8,-0.5 0,-2.3 -2.5,-5.7 -7.2,-9.8 -9.2,-20.6 -5.9,-31.6 2.6,-8.6 9.7,-12.7 15.3,-8.7 4.1,2.9 8.2,11.3 8.2,17.1 0,9 -0.9,9.7 -7.8,6.1 l -4.3,-2.3 -2,2.4 c -1.9,2.3 -2.5,6.7 -1.1,8.7 1.8,2.6 6,4.4 10.3,4.4 9,0 15.7,-4.9 17.9,-13.2 1.4,-5 0.7,-8 -3.1,-13.7 -1.6,-2.5 -3.4,-6.3 -4,-8.5 -5.2,-19.4 18.9,-42.3 34.5,-32.7 2,1.3 3.5,2.8 3.3,3.5 -0.2,0.6 -2.7,1.4 -5.5,1.7 -8.1,1 -9.9,1.7 -13.8,5.1 -4.3,3.8 -6.4,8.2 -6.4,13.6 0,4.9 2.5,7.3 8.4,7.9 8.7,1 12.6,-1.4 12.6,-7.8 0,-7.4 -6.5,-11 -13.4,-7.4 -3.5,1.8 -3.6,1.8 -3.6,0.1 0,-0.8 1.3,-2.8 2.9,-4.5 3.6,-3.9 9.3,-4.3 13.5,-1 3.7,2.9 4.7,6 4.7,14 0.1,10.4 -3.6,15.3 -13.1,17.9 -3.5,0.9 -3.6,1.2 -4.7,7.5 -1.2,7.1 -5.4,16.9 -10.3,24 -1.7,2.5 -8.2,10.1 -14.3,16.8 -6.2,6.7 -12.5,13.7 -14,15.5 l -2.7,3.3 -0.9,-2.3 c -0.6,-1.3 -2.4,-5.6 -4.1,-9.7 -7.5,-18.1 -20.8,-32.1 -30.5,-32.1 -5,0 -8.1,2.6 -7,6 0.4,1.1 4.9,7.8 10.2,14.8 5.2,7 10.4,14.5 11.4,16.7 3.4,7.3 2.1,15.3 -3.5,21.3 -2,2.3 -7.5,5.7 -8,5 -0.2,-0.2 -1.1,-3.2 -2.1,-6.8 -2.2,-8.2 -5.7,-16 -8.9,-20.3 -6.7,-8.8 -27.3,-13.8 -42.8,-10.6 -12.5,2.6 -25.8,11.9 -31.2,21.9 -8.4,15.4 -0.5,36.7 15.3,41.4 19.9,5.9 37.1,-4.1 37.1,-21.7 0,-11.7 -8.5,-21.6 -19.4,-22.5 -7,-0.6 -11.8,1.1 -15.6,5.4 -2.4,2.8 -3,4.3 -3,8.3 0,5.4 2.2,9 7.4,12.2 l 3.1,1.9 h -4 c -5.1,0 -7.9,-2 -10.7,-7.3 -4.6,-8.9 -2.2,-19.5 6.3,-27.1 19.7,-17.9 47.1,-8.4 48.7,16.8 0.2,4 -0.3,11.5 -1.2,17.2 -0.9,5.6 -1.6,10.7 -1.6,11.3 0,1.3 10.6,-3.9 20.8,-10.1 19.5,-11.9 40.6,-31 64.5,-58.3 7.7,-8.8 14.4,-16.4 14.9,-17 1.7,-1.9 -2.3,8.1 -6.3,15.4 -7.7,14.3 -13.3,21.6 -27.4,35.6 -20.5,20.5 -43.6,37.7 -70,52.4 -14.2,7.9 -21.6,10.3 -32.5,10.3 -19,0.2 -33.8,-7.2 -39.6,-19.7 -4.5,-9.5 -2.6,-21 6.1,-37.5 2.4,-4.6 4.3,-8.5 4.2,-8.6 -0.1,-0.2 -2,0.1 -4.2,0.6 -5.5,1.3 -13,1.2 -17.6,-0.2 -5.4,-1.6 -11.2,-6.8 -13.3,-12 -3.6,-8.7 -4,-9.3 -7.4,-9.6 -5.5,-0.5 -11.7,3.8 -15.1,10.6 -5.4,10.8 -6.4,21.7 -3.2,34.4 3.4,13.3 10.5,24.3 22.2,34.3 13.1,11.2 23.6,16.3 49.2,24 19.1,5.8 27.5,6.7 37.3,3.7 9.5,-2.9 14.6,-6.4 28.3,-19.5 13.5,-12.8 24.9,-22.9 23.6,-20.7 -0.5,0.8 -7.9,9.5 -16.3,19.4 -25.2,29.2 -36.6,44.5 -44.3,59.6 -2.2,4.4 -3.4,5.9 -3.7,4.7 -0.8,-3.6 3,-18.2 7.3,-27.9 4,-9.1 4.2,-9.8 2.2,-9.2 -17.3,5.3 -24.8,13.1 -29.6,30.4 -2.3,8.2 -7.5,40.9 -6.9,43.7 0.5,2.5 28,-25.1 39.2,-39.2 4.8,-6.1 16.9,-22.7 26.9,-37 10,-14.3 22,-31.2 26.8,-37.5 11.3,-14.9 39.9,-49.3 40.6,-48.6 0.3,0.3 -2.4,5.8 -5.9,12.3 -16.4,30 -23.2,54.9 -23.3,84.8 0,23.1 3.8,33.9 21.9,61.2 13,19.8 13.6,19.1 3.1,-3.7 -7.5,-16.1 -10.5,-24.5 -13.3,-36.5 -3.4,-14.6 -4.5,-29.6 -3.2,-43.1 2.7,-27.5 10.5,-45.5 36.1,-84 33.2,-49.9 39.9,-90.5 22.3,-135.4 -5.1,-13 -5.5,-20.6 -2,-40.7 2.9,-17.3 3.3,-26.7 1.1,-33.9 -2.6,-9 -10.2,-18.2 -13.8,-16.9 -5,2 -6.2,13.4 -2.2,20.9 1.4,2.6 2.5,4.9 2.5,5.1 0,0.2 -1.6,0.7 -3.6,1.1 -2.5,0.4 -4.7,0.2 -7,-1 -10,-4.7 -9.9,-20.1 0.2,-28.4 3.4,-2.8 3.5,-3 1.5,-3.7 -3.7,-1.1 -8.2,-5.7 -15.3,-15.2 -12.1,-16.5 -20.2,-24.6 -48.5,-49 -47.4,-40.7 -54.8,-46.3 -111,-84 -52.3,-35 -68.2,-44.2 -94.5,-54.7 -21.5,-8.6 -37.9,-12.5 -61.3,-14.7 -21.8,-2 -52.9,0.2 -66.399997,4.7 -10,3.4 -15,6.5 -24.3,15.2 -7.8,7.2 -8,7.4 -9.5,5.3 -1.9,-2.8 -2.7,-8.1 -1.8,-12.7 1.5,-8.3 17.6,-19.5 33.6,-23.4 11.299997,-2.7 34.199997,-3.6 52.899997,-2.1 56.1,4.7 101.8,22.3 164.9,63.8 43,28.2 79.9,58.4 122.1,99.8 31.9,31.3 39.9,38.7 41,38 0.6,-0.3 1,-1 1,-1.4 0,-1.3 -17.5,-24.7 -25.9,-34.6 -16.6,-19.6 -49,-51.1 -74.1,-72.1 -31.3,-26.1 -82.4,-60.6 -110.6,-74.7 -18.8,-9.4 -46.1,-19.9 -94.3,-36.3 -7.1,-2.4 16.5,0.5 33.9,4.1 36.1,7.7 60.1,16.9 89,34.3 54,32.5 100.9,72 145.6,122.7 18.2,20.6 29.8,37.2 39.4,56.2 6.7,13.3 9.8,17.4 8.6,11.3 -2.7,-13.5 -6.9,-21.2 -21.8,-40.3 -35.5,-45.7 -76.4,-87.9 -120.1,-124.2 -36.9,-30.6 -71.9,-50.6 -113.4,-64.8 -16,-5.5 -22.6,-7.2 -65.6,-17.2 -36.5,-8.5 -52.5,-13.1 -73.699997,-21.1 -28.5,-10.7 -37.8,-12.6 -49,-10.1 z m 32.9,23.2 c 9.5,3.1 15.6,6.6 24.799997,14.5 7.6,6.5 9.4,9.4 7.2,11.5 -0.8,0.8 -6.6,2.3 -12.899997,3.5 -20.8,3.8 -32.2,8.6 -44.2,18.5 l -6.6,5.5 -2.1,-5.8 c -7.4,-20.1 -6.7,-38.9 1.7,-46.5 5.8,-5.3 17.8,-5.7 32.1,-1.2 z M 207.72408,147 c 17.3,5.8 36.4,15.4 47.8,24.1 40.9,31.1 62.4,45.5 94,62.9 12.5,6.8 23.8,14.4 34.1,22.7 16.6,13.4 44.2,42.7 65.1,69.4 10.8,13.7 14,18.9 11.5,18.9 -0.6,0 -11.1,-10 -23.2,-22.3 -25.9,-26.2 -56.7,-55.2 -60.8,-57.3 -4.4,-2.3 -12.1,-3.2 -17.9,-2.1 -2.9,0.5 -7.5,1.2 -10.3,1.6 -4.4,0.5 -5.2,1 -6.8,4.1 -2.2,4.3 -1.7,11.6 1.7,25.3 4.8,18.9 11.4,31.1 26.3,48.7 30.7,36.2 64.6,58.9 101.8,68 5.3,1.2 10.2,3.1 11.9,4.5 l 2.9,2.3 -4.4,1.2 c -13.4,3.7 -41.3,-6.2 -67.1,-23.6 -35.2,-23.7 -59,-47.8 -74.6,-75 -4.6,-8.1 -7.2,-13.8 -16,-35.2 -5.6,-13.4 -14.8,-25.7 -33,-43.9 -9.2,-9.3 -22.1,-23.5 -28.7,-31.6 l -12,-14.8 -0.5,7.8 c -0.5,7.5 -0.5,7.6 -1.3,3.4 -1.3,-7.6 -6.4,-16.8 -13.4,-24.2 -3.6,-3.8 -6.9,-6.9 -7.3,-6.9 -0.4,0 -0.4,1.7 0.1,3.7 0.5,2.1 1.6,9 2.4,15.3 0.9,6.3 2.5,15.2 3.5,19.7 1.9,7.9 6.8,19.5 8.9,20.8 1.4,0.8 3.8,-3.2 5.6,-9.5 l 1.5,-5.5 -0.5,5.7 c -0.3,3.2 -1.4,8.1 -2.5,10.9 -1.2,2.8 -1.8,6 -1.5,7 1.5,4.6 23.7,16.9 47.5,26.4 14.7,5.9 25.7,11.2 24.8,12 -0.2,0.1 -4.8,-0.3 -10.3,-1.1 -24.1,-3.3 -43.4,-12.5 -59.4,-28.2 -4.1,-4 -7.5,-7.1 -7.6,-7 -0.2,0.2 -1.3,1.9 -2.5,3.8 -2.3,3.6 -2.3,3.4 -0.4,-3.7 0.4,-1.6 -0.1,-2.6 -2,-3.8 -3.2,-2.1 -7,-1.3 -9,1.8 -2.9,4.4 -6.7,20.1 -7.3,29.7 -1.5,26.8 9.9,45.4 44.7,73.3 12.4,9.9 17.6,11.6 45.1,14.7 27.5,3.1 42.8,6.6 61.4,14 16,6.3 26.1,12.7 58.8,37.2 6.5,4.9 13.5,9.7 15.5,10.7 10.2,5.2 22.2,6.4 34.8,3.5 6.1,-1.5 7.4,-1.5 10,-0.3 2.4,1.2 2.9,2.1 3.2,5.6 0.3,3.6 -0.1,4.4 -2.2,5.9 -3.3,2.1 -8.1,1.4 -23.1,-3.1 -26.9,-8.2 -53.8,-19.6 -86.1,-36.7 -24.1,-12.8 -29.8,-15.4 -42.4,-19.2 -15.3,-4.5 -28,-6.9 -48.6,-9.1 -45.3,-4.6 -52.6,-7.7 -75.9,-31.6 -22.8,-23.4 -30.5,-36.6 -30.5,-52.2 0,-5.9 0,-5.9 -2.6,-5.3 -5.3,1.4 -9.9,4.2 -11.2,6.8 -1,2.3 -1,3.8 0.2,9.2 4.5,19.4 13.1,31.7 37.1,53.5 l 8,7.3 -6.5,-4.3 c -8.2,-5.4 -19.9,-16.6 -25.6,-24.6 -5.8,-7.9 -11.6,-20.7 -14.4,-31.1 -1.5,-5.3 -2.9,-8.6 -4.1,-9.2 -1.9,-1.1 -7.2,-1.3 -8.1,-0.4 -0.4,0.3 0.7,5.4 2.3,11.2 1.6,5.9 2.9,11.4 2.9,12.2 0,2.5 -15.9,-14.1 -21.6,-22.6 -12.4,-18.6 -18.7,-43.9 -16.3,-65.7 2.2,-19.7 8.4,-28.8 21.2,-31.1 3.1,-0.6 4.1,-0.3 6.2,1.8 2.1,2.1 2.5,3.5 2.5,8 0,4.7 0.4,6.1 2.9,8.8 5.9,6.6 20.7,4.4 28.6,-4.4 6,-6.6 7,-12.1 3.4,-19.4 -3.6,-7.6 -12.6,-10.8 -18.1,-6.4 l -2.5,1.9 -9.1,-6.1 c -5,-3.4 -8.9,-6.5 -8.6,-7 1.2,-1.9 12.4,-4.2 20.4,-4.2 13.4,0 22.3,5.1 27.7,16.2 2.6,5.3 2.8,6.6 2.8,17.7 0,15 -1.7,20 -12.1,35.2 -12.2,17.9 -19.8,34 -19.2,41.2 l 0.3,4.1 7.7,-4.5 c 19.4,-11.4 32.3,-29.4 37.3,-52 3.1,-14.6 2.7,-13.4 3.5,-10 2.2,9.2 0.5,20.1 -7.6,46.5 -3.1,10.4 -4.2,25.6 -2.5,35.6 2.5,13.9 9.7,26.8 21.8,38.8 8.6,8.6 12.5,11.3 26.4,18.1 10.2,5 15.9,6.7 15.9,4.7 0,-0.4 -2.9,-2.2 -6.5,-4 -11.2,-5.8 -24.7,-15.4 -31.5,-22.2 -12.8,-12.9 -18,-26.2 -18,-45.4 0,-11.3 0.8,-15.9 7.9,-47.6 5.6,-25.2 6,-42.5 1.1,-58.2 -7.3,-23.8 -30.8,-37.3 -54.5,-31.3 -9.8,2.5 -25.8,10.9 -29.9,15.7 -2,2.3 -3.4,4.3 -3.2,4.5 0.2,0.3 4.6,-1.4 9.7,-3.5 11.5,-4.9 16.2,-6.2 21.4,-6.1 3.5,0.1 2.9,0.4 -3.9,2 -25.9,6.3 -44.5,25 -49.2,49.6 -4.6,24.2 -2.1,51.7 6.6,72.6 9.8,23.6 36.3,50.7 65.5,67.1 13.2,7.4 24.7,11.4 52,18.2 33.1,8.3 48.2,12.7 73.6,21.3 35.8,12.3 73.4,28 105.8,44.3 l 17.6,8.8 -7,-0.5 c -23.1,-1.8 -48.7,-7.3 -66.1,-14.3 -5.4,-2.2 -19.6,-8.7 -31.5,-14.5 -35.4,-17.3 -45.2,-21.1 -79.3,-30.8 -55.1,-15.6 -72.1,-23.4 -92,-42 -25.8,-24.2 -42.9,-55.2 -57.1,-103.3 -5.399997,-18.2 -6.199997,-24.1 -4.599997,-31.6 4.399997,-20.7 28.699997,-45.3 55.199997,-55.9 21.4,-8.6 32.6,-9 53.1,-2.1 z m -99.5,0 c 2.3,0 7.3,5.2 8.2,8.6 1.8,6.3 0.4,8.4 -25.099997,38.7 -2.5,3.1 -2.7,3.1 -4.6,1.4 -3.1,-2.8 -7.4,-13.4 -7.9,-19.7 -1.4,-14.6 6.3,-25.5 20.4,-28.9 2.099997,-0.5 4.699997,-0.8 5.799997,-0.5 1.1,0.2 2.5,0.4 3.2,0.4 z m 98.5,33.8 c 1.9,5 2.2,7.5 2.2,19.2 -0.1,11.7 -0.4,14.7 -2.8,22.3 -2.8,9.5 -6.2,16.8 -9.5,20.7 -1.3,1.6 -0.6,-0.5 1.9,-5.7 10.5,-21.7 12.4,-41.5 5.5,-58.5 -1.6,-3.9 -1.9,-5.6 -1,-4.8 0.8,0.6 2.4,3.7 3.7,6.8 z M 68.524083,270 c 0,0.6 -4.2,1 -10.5,1 -6.3,0 -10.5,-0.4 -10.5,-1 0,-0.6 4.2,-1 10.5,-1 6.3,0 10.5,0.4 10.5,1 z m 304.399997,2.4 c 4.3,1.8 6.6,5.1 6.6,9.4 0,4.4 -6.4,11.2 -10.4,11.2 -3.4,0 -7.6,-4.1 -7.6,-7.5 0,-3.4 -3.3,-6.5 -7,-6.5 -3.8,0 -3.8,-1.3 -0.1,-3.9 6,-4.3 12.5,-5.2 18.5,-2.7 z m -113.3,13.3 c 7.6,4.3 13.9,8.1 13.9,8.5 0,0.3 -1.2,1 -2.7,1.6 -1.6,0.5 -5.8,2.1 -9.4,3.5 l -6.7,2.5 -3.6,-2.6 -3.6,-2.6 -3.5,3.4 c -2.9,2.8 -3.6,3.1 -5,2 -3,-2.5 -4.8,-7.4 -4.9,-13.1 -0.1,-4.8 0.3,-6.2 2.3,-8.3 4.1,-4.3 7.5,-3.6 23.2,5.1 z m 137.7,12.6 c 1.6,1.3 20,23.4 45.3,54.2 14.5,17.7 29.1,37.1 31.8,42.2 0.9,1.8 0.9,2.3 0,2.3 -3.3,0 -30.8,-17.8 -44.4,-28.7 -12.6,-10.2 -32.4,-30.5 -39.2,-40.4 -8.4,-12.2 -11.4,-22.6 -7.9,-27.1 3.4,-4.5 10.6,-5.7 14.4,-2.5 z m -102.6,3.7 c 3.5,1 9.1,3.6 12.6,5.7 6.3,3.9 18.2,13.8 18.2,15.2 0,0.4 -2.4,0.4 -5.2,-0.1 -5.7,-0.9 -21,0.3 -33.7,2.7 -9.6,1.9 -14.5,0.9 -18.8,-3.9 -5.7,-6.2 -4,-15.6 3.5,-19.5 5,-2.7 15,-2.7 23.4,-0.1 z m 23,30.1 c 2.9,0.6 7.9,2.3 11,3.9 5.7,2.8 28.4,17.5 29.3,19 0.3,0.4 -6.6,-2.8 -15.3,-7.1 -17.1,-8.6 -26,-11.5 -32.7,-10.4 -6.6,0.9 -11.5,6.5 -13,14.8 -0.4,2 -1.1,3.7 -1.6,3.7 -2.4,0 -11.9,-5.1 -12.8,-6.8 -2.8,-5.2 0.4,-11.4 7.8,-15.2 5.3,-2.7 18.7,-3.7 27.3,-1.9 z m 160.1,34.2 c 3.1,4.8 11.8,13.5 14.6,14.7 2.3,0.9 3.8,0.9 6.5,0 2.9,-0.9 4.2,-2.4 7.7,-8.7 4.4,-8 5.2,-8.1 6.4,-1.1 0.9,5 -0.9,10.2 -4.6,13.3 -5.5,4.6 -16.6,2.8 -25.6,-4.1 -4.1,-3.1 -4.3,-3 -3.2,0.8 1.3,4.8 1.1,5.6 -1.1,3 -2.6,-3.1 -4,-8.5 -4,-15 0,-5.7 0.9,-6.5 3.3,-2.9 z m 24.7,42 v 5.8 l -3.1,-0.3 c -2.7,-0.3 -3.7,-1.3 -7,-6.7 l -3.9,-6.5 3.3,-2.7 3.2,-2.7 3.8,3.6 c 3.4,3.4 3.7,4 3.7,9.5 z m 1.2,17.2 c 10.1,13.1 16.1,28 17.5,43.3 0.6,5.9 0.4,6.5 -0.9,5.5 -0.8,-0.7 -2,-3.7 -2.7,-6.7 -1.8,-7.9 -9,-21.6 -22.4,-42.3 -10.6,-16.5 -13.8,-22.1 -13.7,-24.1 0.1,-1.2 15.9,16.1 22.2,24.3 z m -39.3,13 c 0.1,0.2 0,0.8 -0.3,1.3 -0.8,1.3 -14.6,-4.8 -14.6,-6.4 0,-0.9 2.4,-0.3 7.3,1.8 3.9,1.6 7.4,3.2 7.6,3.3 z m -156.7,29.4 c 6.3,2 13.1,7.2 15.6,12.1 l 2.2,4.4 -2.6,1.4 c -4.2,2.2 -28.6,8.2 -33.4,8.2 -5.4,0 -8.2,-1.7 -10.4,-6.4 -3.8,-8 -1.2,-17 5.8,-20.2 3.5,-1.6 16.7,-1.3 22.8,0.5 z m 65.8,127.6 c 0.9,1.1 0.8,2 -0.6,4.5 -2.2,3.6 -2.7,3.7 -4.4,0.5 -1.2,-2.2 -1.1,-2.7 0.5,-4.5 2.2,-2.4 2.9,-2.5 4.5,-0.5 z"
     id="path2"
     style="fill:#000000;stroke:none;stroke-width:0.1" />
  <path
     d="m 232.82408,164.1 c 2.6,3 8.7,10.3 13.5,16.3 20.2,25.3 29.5,36 45.7,52.6 19.2,19.7 22.3,23.6 28.9,36.9 2.6,5.1 4.9,9.1 5.1,8.9 0.3,-0.2 1.4,-5.5 2.6,-11.6 3.8,-20 10.1,-25 23.9,-18.7 l 5.5,2.5 -5.6,-5.2 c -3.8,-3.7 -10.4,-7.9 -21.2,-13.6 -24.9,-13.2 -40.1,-23.9 -61.7,-43.7 -12.4,-11.3 -27.6,-22.8 -35.3,-26.7 l -6.2,-3.1 z"
     id="path3"
     style="fill:#000000;stroke:none;stroke-width:0.1" />
  <path
     d="m 145.52408,223.1 c -1.4,5.2 0,12.1 4.1,20.3 4.6,9.1 14.4,20.6 17.4,20.6 0.2,0 1.2,-2.4 2.1,-5.4 1.3,-4.2 1.5,-6 0.6,-8.4 -1.1,-3.2 -21.2,-31.1 -22.4,-31.2 -0.4,0 -1.2,1.8 -1.8,4.1 z"
     id="path4"
     style="fill:#000000;stroke:none;stroke-width:0.1" />
  <path
     d="m 147.52408,263.9 c -2,3.9 -1.1,7.1 3.6,12.1 5.7,6.1 8.1,7 10.6,4 2.3,-2.8 2.2,-5.4 -0.1,-10.7 -3,-6.5 -11.7,-9.8 -14.1,-5.4 z"
     id="path5"
     style="fill:#000000;stroke:none;stroke-width:0.1" />
  <path
     d="m 1039.0241,47.4 c -11.8,2 -19,4.1 -36.9,10.7 -20.20002,7.6 -43.40002,14.6 -64.10002,19.4 -60.5,13.9 -87.9,23 -118.3,39 -23.3,12.4 -55.5,34.4 -77.3,53 -48.3,41.1 -105.7,101.8 -121.3,128.4 -4,6.9 -8,17.6 -9.1,24.1 -0.6,4.1 -0.5,4.3 0.7,2.5 0.8,-1.1 5.6,-9.7 10.8,-19 11.3,-20.6 12.9,-23.1 24.5,-37 32.2,-38.6 64.9,-68.7 108.5,-99.8 48,-34.3 65.6,-44.3 94,-53.6 37.6,-12.3 77.3,-22.2 79.7,-19.7 0.3,0.3 0.4,0.8 0.2,0.9 -0.2,0.2 -12.8,4.8 -27.9,10.2 -36.3,12.8 -46.2,16.9 -66.5,27.4 -56.9,29.4 -104.5,62.9 -152.9,107.6 -27.9,25.7 -66.1,73.5 -58.7,73.5 0.6,0 6.9,-5.9 13.9,-13.2 39.1,-40.7 73.1,-70.5 108.7,-95.5 13.5,-9.4 62.5,-41.5 75.3,-49.2 54.3,-32.7 114.8,-48.2 168.7,-43.1 19.40002,1.9 30.40002,6 40.10002,15.2 6,5.6 8.4,10 8.4,15.3 0,4.4 -2.5,9.5 -4.7,9.5 -0.8,0 -4.3,-2.9 -7.5,-6.5 -14.9,-16.2 -36.70002,-22.3 -75.80002,-21.2 -43.2,1.3 -77.8,11.7 -116.5,35 -5.5,3.3 -26.9,17.3 -47.6,31.1 -20.7,13.8 -43.9,29 -51.6,33.8 -42.2,26.3 -83.6,63.2 -115.4,102.5 -14.7,18.2 -13.9,16.5 -9,21.8 6.6,7.1 7.7,12.4 4.2,20.2 -2.3,5 -6.2,7.3 -12.5,7.3 -4.1,0 -4.4,-0.2 -3.8,-2.3 0.3,-1.2 1.2,-3.2 2,-4.4 5.7,-8.9 1.6,-22.9 -6.1,-20.9 -2.7,0.6 -6.8,6.7 -11.1,16.4 -2.6,5.8 -2.8,7.1 -2.3,15.5 0.2,5.1 1.4,14.8 2.7,21.7 3.5,19.2 2.6,26.7 -5.3,47.6 -0.9,2.3 -2.3,9.2 -3.3,15.5 -2.1,14.6 -1.5,38.3 1.5,50.9 3.6,15.7 10.9,33 19.1,45 26.7,39.4 34.6,53.4 41.4,72.8 5.5,15.8 6.9,25.3 6.3,41.2 -0.9,23.1 -6.6,43.9 -18.2,67.1 -3.6,7.2 -6,12.9 -5.3,12.7 2.1,-0.6 18.2,-25.3 23.7,-36.3 6.2,-12.4 8.1,-21.2 8.1,-37.8 0,-25 -6,-46.5 -21.7,-77.7 -8.5,-16.8 -9.9,-18 17.1,13.5 43.7,51 48.7,57.2 57.1,72 3.2,5.5 9,14.5 13,20 7.7,10.6 27.1,32.5 32.7,36.8 l 3.3,2.7 0.3,-3 c 0.4,-4.1 -2.5,-26 -4.8,-35.9 -4.1,-17.1 -13,-29.9 -23.4,-33.4 -7.6,-2.6 -8,-2.3 -4.7,3.5 3.9,7 6.9,16.6 7.7,24.4 0.4,3.5 0.5,6.4 0.2,6.4 -0.3,0 -3.7,-5.5 -7.6,-12.3 -9.4,-16.2 -12.1,-19.7 -32.5,-41.5 -27.8,-29.8 -27.6,-29.9 3.8,-3.4 13.5,11.4 20.6,15.2 28.4,15.2 5.8,0 25.6,-4.8 42.1,-10.1 31.6,-10.2 50.9,-27.1 58.5,-51.1 4.7,-15 4.3,-26.6 -1.6,-38.6 -3.5,-7.2 -6.8,-9.5 -13.2,-9 -4.1,0.3 -4.3,0.5 -7.2,6.5 -5.9,12.1 -11.2,15.4 -25.8,16.1 -5.4,0.3 -9.6,0.7 -9.4,1.1 4.6,8.5 10,21.3 10.7,25.6 2.5,15.4 -5.6,28.1 -21.5,33.5 -8.4,2.9 -25.1,4.5 -32.8,3.1 -9.9,-1.7 -24.4,-9.4 -47.2,-24.9 -14.9,-10.2 -23.2,-16.9 -35.4,-28.7 -12.2,-11.9 -23.6,-25.7 -31.3,-38.1 -5.9,-9.6 -11.2,-19.4 -10.3,-19.4 0.4,0 5.7,5.5 11,11.5 14.4,16.4 28.1,30.3 28.9,29.5 0.6,-0.6 -1.3,-3.4 -5,-7.6 -24.4,-27.5 -31.2,-38 -32.3,-49.5 l -0.6,-6.2 -5,-1.2 c -6.1,-1.6 -9.9,-5.7 -11.6,-12.7 -1.8,-7.6 -0.7,-12.7 3.5,-16.5 2.9,-2.7 4.4,-3.3 8,-3.3 4,0 4.8,0.4 7.2,3.5 1.5,2 2.5,3.8 2.2,4 -0.2,0.3 -3,-0.1 -6.2,-0.7 -5.8,-1.2 -5.8,-1.2 -8.2,1.5 -3.1,3.6 -3,6.8 0.2,10.6 2.2,2.7 3.2,3.1 7.6,3.1 6.2,0 8.3,-1.1 9.7,-5.1 2.4,-6.8 0.7,-12.5 -4.9,-17.2 -3,-2.6 -5,-3.2 -14,-4.1 -2.5,-0.3 -4.6,-0.5 -4.7,-0.5 -1.3,-0.3 0.2,-3.4 2.3,-5 2,-1.6 4.1,-2.1 8.4,-2.1 14.1,0 28.3,13.3 28.3,26.5 0,4.1 -0.7,6.4 -2.9,10 -1.6,2.6 -3.9,6.3 -5.1,8.3 -2.9,4.8 -2.9,10.5 0,16.2 2.9,5.7 6.4,8.2 12.4,8.7 11.6,1.2 19.2,-7.6 11.9,-13.6 -1.4,-1.2 -2.4,-1.1 -6.7,0.9 -4.3,2.1 -5.2,2.2 -6,1 -1.3,-2.2 -1.1,-4.1 1.2,-11.6 3.6,-11.6 11.4,-16.8 16.6,-11.2 5.5,6.1 7.3,15.3 4.9,24.9 -1.5,5.6 -2.8,8.3 -7.5,15.8 -1.5,2.3 -1.5,2.4 0.7,1.2 3.4,-1.8 20.1,-15.9 25.4,-21.5 5.8,-6.1 8.3,-12 7.5,-17.8 -1.3,-10 -12.4,-18.4 -24.1,-18.2 -6.2,0.1 -14.2,2.8 -17.8,6.1 -2.2,2 -1.9,2.3 -4.7,-5.6 l -2.3,-6.5 2,-1.7 c 7.7,-6.2 47.8,-5.4 88.2,1.6 29.2,5.2 53.8,12.2 85.7,24.6 32,12.3 38.5,13.9 50.3,12 18.9,-3.1 36.5,-20.1 38.9,-37.5 1,-7.5 -0.3,-16.5 -3.4,-23.1 -3.1,-6.4 -11.1,-14 -16.5,-15.6 -3.6,-1.1 -4,-1 -8.1,2.2 -2.4,1.9 -4.7,3.8 -5.1,4.4 -1.6,2.1 -0.7,5.8 2.2,8.6 2.5,2.6 3.5,2.9 6.4,2.4 1.9,-0.4 4.3,-0.4 5.4,-0.1 3,1 5.4,7.1 5.5,14 0.1,11.1 -6.5,19.9 -19.3,26 -6.2,3 -7.1,3.1 -19,3.1 -10.9,0 -13.1,-0.3 -17.5,-2.4 l -5,-2.3 6,-2.7 c 18.5,-8.5 21.8,-28.9 6.4,-40 -8.4,-6.1 -24.6,-6.9 -38.6,-2 -14.3,5.1 -27.9,11.8 -29.4,14.5 -0.7,1.3 -2.5,3.2 -4,4.2 -2.9,1.8 -14.1,1.8 -70.9,-0.4 l -21.5,-0.8 11.5,-0.8 c 6.3,-0.4 18.9,-1.3 27.9,-1.8 26.5,-1.8 43.3,-5.4 69.1,-14.9 16,-5.8 41.3,-13.9 56,-17.7 12.5,-3.3 15.5,-5.6 14.7,-10.9 -1.2,-7.3 -5.8,-10.5 -15.3,-10.5 -6.5,0 -14.2,3.8 -32.4,15.9 -20.6,13.8 -31.5,18.5 -54.2,23.5 -33.6,7.5 -75.2,9.2 -112.7,4.5 -12.2,-1.5 -20.6,-6.5 -13.8,-8.3 1.2,-0.3 22.4,-0.6 47,-0.6 44.2,0 56.9,-0.7 71.7,-3.7 17.4,-3.5 37.4,-11.6 50,-20.2 21.8,-15 29.6,-19.9 39.4,-24.8 14.2,-7.1 29.6,-13 46.6,-17.7 23.5,-6.5 35.9,-10.8 47.9,-16.7 21.5,-10.5 32.9,-20.2 55.6,-47.5 25.9,-31 40.10002,-40.4 59.30002,-39.2 10.7,0.7 17.9,3.7 25.3,10.5 6.9,6.4 9.8,11 12.9,20.5 2.4,7.4 3.5,8.1 7.7,4.8 1.4,-1.1 3,-2 3.4,-2 0.5,0 0.9,2.4 0.9,5.4 0,6 1.3,7.8 5.1,6.9 2.9,-0.7 5.1,-3.2 8.6,-9.8 2.2,-4.2 2.6,-6.3 2.5,-13 0,-14.6 -6.1,-27.8 -17.7,-38.3 -6.7,-6.1 -11.1,-8.6 -19.2,-10.7 -15.6,-4.1 -32.4,1 -49.8,15 -4.4,3.5 -8.1,6.2 -8.3,6.1 -0.8,-0.9 3.8,-8.7 28.4,-48.1 28.4,-45.7 33.7,-54.7 39,-66.2 12.5,-27.3 18,-57.4 14,-76.3 -2.2,-10.2 -7.5,-21 -13.6,-27.4 -8.5,-9 -17.7,-11.6 -32.5,-9.2 z m 7.8,20.7 c 5.3,1.4 11.2,7.1 13.4,12.7 3,7.8 2.4,21.4 -1.6,33.4 l -3.2,9.8 -6.6,-5.5 c -12.8,-10.5 -29.3,-17 -49.50002,-19.5 -4.8,-0.6 -9.5,-1.3 -10.3,-1.6 -2.3,-0.9 -1.8,-3.7 1.3,-7.6 12.50002,-15.7 40.00002,-26.3 56.50002,-21.7 z m -114.70002,77.5 c 21.3,6.1 40.3,18.1 52.3,32.9 10.8,13.3 16.90002,29.4 15.5,40.8 -0.8,6.8 -10.9,36.9 -17.4,52.2 -13.7,32 -31.8,58.5 -50,72.8 -17.9,14.2 -28.4,18.8 -70.4,31.3 -46.6,13.9 -64.9,21 -96.1,37.4 -24.2,12.6 -43.5,19.9 -66.6,24.9 -11.9,2.5 -31.6,5.2 -33.5,4.4 -1.8,-0.7 9.4,-5.9 60.8,-28.3 68.2,-29.9 71.1,-30.9 138.8,-49.1 22.1,-5.9 37.4,-11.7 50.2,-19 35.1,-20.1 61.8,-55.4 68.4,-90.5 2.1,-11.3 1.5,-38.6 -1,-47.9 -4.8,-17.6 -14.9,-30.7 -30.8,-40.4 -2.1,-1.2 -3.8,-2.4 -3.8,-2.6 0,-0.2 2.6,0.7 5.8,2 3.1,1.3 5.8,2.2 6,2 0.9,-0.9 -2.3,-4.6 -7.1,-8.2 -18.2,-13.8 -38.6,-17.3 -55,-9.5 -5.2,2.5 -10.2,7 -31.3,27.8 -13.8,13.7 -28.7,29.4 -33.1,34.9 -4.4,5.5 -16.3,18 -26.4,27.9 -21.8,21.1 -26,26 -30,34.6 -1.7,3.6 -5,10.5 -7.4,15.5 -2.4,4.9 -7,14.6 -10.3,21.5 -14,29.6 -36.7,56.5 -64.1,76 -19.2,13.6 -44.4,26.2 -59.2,29.4 -8.4,1.9 -21,1.8 -21.6,-0.1 -0.6,-1.7 7.5,-5.3 23.6,-10.4 28.4,-9 52,-24.4 77.1,-50.5 25.7,-26.7 36,-47.7 37.7,-76.9 0.8,-14.3 -1.8,-19.9 -7.6,-16.3 -1.5,0.9 -2.8,0.9 -5.9,0 -6.1,-1.8 -14,-1.5 -18.7,0.8 -7.6,3.7 -50.7,45.5 -70.4,68.2 -7.8,9.1 -11.7,12.5 -12.9,11.4 -1.1,-1.2 2,-5.8 15.7,-23 38,-47.5 63.2,-71 93,-86.6 28.9,-15.2 58.5,-34.5 87.6,-57.2 19.6,-15.3 32.2,-22.4 50.3,-28.5 21.3,-7.1 33,-8 47.8,-3.7 z m 73.00002,3.2 c 5.7,2.9 10.4,8 13.2,14.1 2.1,4.5 2.4,6.4 2,12.5 -0.5,7.6 -3.1,14.8 -7.2,19.7 l -2.5,2.9 -11.60002,-13.6 c -17.4,-20.3 -19.4,-24 -16.8,-30.5 2,-5.2 7.4,-8.1 13.9,-7.5 2.8,0.2 6.90002,1.3 9.00002,2.4 z m -64.80002,11.7 c 2.4,1 4.1,1.9 3.9,2.1 -0.6,0.6 -21.7,-3.3 -22.5,-4.1 -1.3,-1.4 14.2,0.3 18.6,2 z m 117.20002,-1.8 c 0,1.2 -37.5,62.3 -38.2,62.3 -0.5,0 -0.8,-0.4 -0.8,-1 0,-0.5 8.4,-14.7 18.6,-31.5 16.2,-26.6 20.4,-32.7 20.4,-29.8 z m -114.10002,7.9 c 3.4,0.9 5.9,2 5.6,2.4 -0.3,0.4 -4.6,3.6 -9.6,7 l -9.1,6.2 -2.9,-2.1 c -8.1,-6 -19.9,2.1 -19.9,13.7 0,5.1 1.7,8.6 6.2,12.8 6.5,6.1 15.4,9 22.5,7.3 6.3,-1.6 8.6,-4.7 9.4,-12.6 0.8,-7.6 2.2,-9.3 7.8,-9.3 6.5,0 10.8,1.9 14.5,6.2 4.5,5.2 6.5,11.4 7.6,23 2.4,25.4 -5.4,53 -20.9,73.5 -6,7.9 -17.8,19.9 -18.7,19 -0.3,-0.2 1.1,-6.6 2.9,-14.1 l 3.5,-13.6 h -5.7 -5.7 l -1.7,9 c -3.7,19.9 -14.4,38.7 -28,49.1 -2.3,1.8 -3.5,2.4 -2.6,1.4 0.9,-1.1 5.3,-6.5 9.8,-12 9.7,-11.7 16.4,-24.5 18.8,-35.6 2.3,-10.9 1.7,-12.2 -6.5,-15.3 -3.7,-1.4 -7.1,-2.6 -7.5,-2.6 -0.4,0 -0.7,2.6 -0.7,5.7 -0.1,16.4 -7.2,29.4 -29.9,54.2 -17,18.5 -27.7,23 -67.2,28.6 -44.9,6.2 -52.9,8.5 -79.9,22.4 -30.6,15.8 -43.6,22 -58.9,28.2 -20.4,8.4 -53.3,19 -60.7,19.6 -5.9,0.5 -6.3,0.4 -8,-2.1 -2.1,-3.4 -1.1,-7 2.8,-9.9 2.6,-2 2.9,-2 13.5,-0.3 13.8,2.1 18.1,2 24,-0.2 5.2,-2 27.1,-16.4 39.8,-26.1 31.5,-24.3 57.3,-34.4 98.5,-38.5 8.5,-0.9 18.8,-2.5 22.9,-3.6 26.7,-7.4 48.3,-26.1 61.6,-53.2 9.5,-19.4 8.4,-35.3 -3.9,-56.1 -2.2,-3.7 -4.6,-6.7 -5.3,-6.7 -0.7,0 -6,4.5 -11.7,9.9 -15,14.5 -25.5,20.8 -43.9,26.6 -9.3,3 -26.2,5.6 -29,4.6 -1.4,-0.5 0.5,-1.8 7.9,-5.1 5.5,-2.4 13.5,-5.6 17.9,-7.2 12.6,-4.5 29.4,-13.1 40.8,-20.8 l 10.3,-7 -1.8,-7.2 c -2.5,-9.6 -2,-24.5 1.2,-33.6 2.9,-8.1 3.8,-7.4 1.2,1 -2.6,8.3 -3.4,22.8 -1.3,22.8 0.4,0 1.9,-2 3.2,-4.5 1.3,-2.5 2.6,-4.5 2.9,-4.5 0.3,0 1.2,1.9 2,4.2 0.8,2.3 2.1,4.3 2.8,4.6 2.7,0.9 6,-9.8 8.7,-28.3 3,-21.2 3.6,-23.9 3,-13 -0.7,10.9 1.2,28.2 4.1,38.4 7.1,24.5 25.4,47.6 42.3,53.6 l 4.4,1.5 -0.7,-5.7 c -0.8,-7.3 -5.9,-17.9 -16.1,-33.3 -9.3,-14.2 -12.2,-20.2 -14.2,-29.3 -5.5,-26.2 10.4,-46.8 34.9,-45.3 3.7,0.3 9.4,1.2 12.7,2.2 z m -54.6,45.1 c 0.3,4.9 1.5,11.5 2.6,14.8 2.5,7.6 2,8.4 -0.8,1.1 -3.2,-8.7 -5.3,-24.6 -3.2,-24.6 0.4,0 1.1,3.9 1.4,8.7 z m -150.5,61.2 c 3.4,1.7 8.3,6.1 6.9,6.1 -0.3,0 -1.8,-0.5 -3.3,-1 -3.8,-1.5 -7,0.9 -8.5,6.2 -1.5,5.7 -4.4,8.8 -8.4,8.8 -7,0 -12.3,-8.6 -9.1,-14.7 3.3,-6.4 14.9,-9.2 22.4,-5.4 z m 121.8,7.2 c 2,2.2 2.5,8.9 1.1,14.1 -0.8,2.9 -6.3,9.8 -7.7,9.8 -0.5,0 -1.5,-1.2 -2.2,-2.8 -1.4,-2.8 -3.1,-3.1 -9.1,-1.6 -3.2,0.7 -18.4,-4.3 -17,-5.7 0.4,-0.4 6.6,-4.2 13.7,-8.3 14.1,-8.2 17.8,-9.2 21.2,-5.5 z m -147.9,19.1 c 5.4,5 4.8,14.3 -1.4,23.8 -13.5,20.5 -35.7,42.4 -58.5,57.8 -13.3,8.9 -24.9,15.5 -25.8,14.6 -0.9,-0.9 22.5,-35.1 35.5,-52 11.5,-15 37.4,-45 39.7,-46.2 3.1,-1.5 7.7,-0.6 10.5,2 z m 116.6,4.4 c 5.8,4.1 7.9,9.8 5.4,14.9 -1.9,3.9 -6.5,7.2 -11.5,8.1 -1.8,0.4 -11.8,-0.6 -22.2,-2 -12.5,-1.8 -20.4,-2.5 -23.4,-2.1 -2.9,0.5 -4.6,0.4 -4.6,-0.3 0,-2 12.2,-12.1 19,-15.6 9.5,-5 16,-6.6 25.3,-6.3 6.7,0.3 8.4,0.8 12,3.3 z m -29.7,28.5 c 4.3,0.6 9,1.7 10.5,2.5 6.3,3.2 8.9,10.8 5.2,15.3 -1,1.2 -3.9,2.8 -6.6,3.6 l -4.7,1.4 -2.9,-6.4 c -3.8,-8.2 -7.2,-10.5 -15.7,-10.5 -7.5,0 -13.3,2 -29.4,9.9 -13.2,6.5 -13.1,5.7 0.5,-4.1 9.3,-6.6 15.5,-9.7 22.9,-11.3 7.7,-1.7 10.6,-1.8 20.2,-0.4 z m -173.1,42.4 c -0.3,3.3 -1.1,7.8 -1.6,10 -1.3,5.2 -6.1,18.6 -6.5,18.2 -0.2,-0.1 0.6,-4.5 1.6,-9.7 3.1,-15 3.4,-14.5 -5.7,-10.3 -9.3,4.3 -17,5.4 -20.8,2.9 -5.7,-3.7 -8.3,-12.6 -5,-17 1.4,-1.9 1.5,-1.9 3.6,0 1.2,1 3.2,3.8 4.5,6.1 1.5,2.4 3.9,4.8 6.1,5.8 6.7,3.2 12.5,-0.2 19.8,-11.7 2.8,-4.4 3,-4.6 3.8,-2.5 0.5,1.2 0.6,4.9 0.2,8.2 z m -18.5,24.7 c 1.7,1.2 3,2.6 3,3.1 0,0.5 -2.3,3.6 -5.1,6.8 l -5.1,5.9 -2.4,-2.9 c -2.6,-3.2 -3,-6 -1.3,-9.4 3.2,-6.1 6.1,-7.1 10.9,-3.5 z m 7.5,8.7 c 0.9,1.5 -7.3,15.6 -14.9,25.6 -8.9,11.8 -13.9,20.5 -16.9,29.4 -1.4,3.9 -2.8,7.5 -3.2,7.9 -1.5,1.3 0.4,-14.3 2.4,-20.8 2.9,-9.1 8,-17.4 19.5,-31.1 9.2,-11.2 11.7,-13.2 13.1,-11 z m 37.5,25 c 0,0.8 -13.2,7.1 -15,7.1 -2.9,0 -0.2,-2.1 6.3,-4.8 7.9,-3.4 8.7,-3.6 8.7,-2.3 z m 162.7,35.1 c 3.6,2.2 6.3,6.6 6.3,10.5 0,1.4 -1.3,5.4 -2.9,9 -2.3,5 -3.5,6.6 -5.6,7.1 -2.7,0.7 -32.4,-6.4 -37.2,-8.8 -6.1,-3 1.4,-12 14.4,-17.4 7.7,-3.1 20.2,-3.4 25,-0.4 z"
     id="path6"
     style="fill:#000000;stroke:none;stroke-width:0.1" />
  <path
     d="m 861.42408,162.2 c -5.7,3.9 -16.5,12.3 -23.9,18.7 -33.3,28.6 -54.2,43.3 -79.7,55.9 -9.7,4.8 -20.3,11.8 -20.3,13.4 0,1.1 0.3,1.1 6,-1.2 2.8,-1.1 7.1,-2 9.6,-2 10.3,0 14.5,6.1 15.2,22.7 0.3,5.7 0.7,10.3 1.1,10.3 0.3,0 1.9,-2.6 3.6,-5.8 4.7,-9.1 16.2,-23.5 31.2,-39.2 15.6,-16.4 29.8,-32.3 52.4,-58.5 14.6,-16.9 18,-21.5 16,-21.5 -0.4,0 -5.5,3.2 -11.2,7.2 z"
     id="path7"
     style="fill:#000000;stroke:none;stroke-width:0.1" />
  <path
     d="m 945.42408,226.7 c -3.5,4.3 -8.3,10 -10.8,12.8 -6.2,7 -8.1,10.4 -8.1,14.7 0,3.9 2.7,10.8 4.3,10.8 2.2,0 13.5,-13 16.9,-19.5 6.1,-11.7 8.5,-22.9 5.4,-25.4 -1,-0.9 -2.6,0.5 -7.7,6.6 z"
     id="path8"
     style="fill:#000000;stroke:none;stroke-width:0.1" />
  <path
     d="m 869.92408,230.4 c -3.2,3.2 -3.6,4.1 -3.1,7.4 0.2,2 2.4,8.1 4.7,13.6 10.7,25 10.6,50.3 -0.3,68.8 -6.4,11 -16.1,19.1 -35.5,29.8 -6.2,3.4 -11.1,6.4 -10.8,6.7 0.8,0.8 10.5,-1.7 17,-4.4 17.8,-7.4 32.2,-21.8 41.5,-41.4 7.4,-15.5 8.6,-24.3 5,-38.2 -2.7,-11 -13,-44 -14,-45.1 -0.4,-0.5 -2.4,0.7 -4.5,2.8 z"
     id="path9"
     style="fill:#000000;stroke:none;stroke-width:0.1" />
  <path
     d="m 938.02408,265.3 c -4.8,4.7 -6.3,9.5 -4.6,14 1.5,3.8 4.8,3.5 9.9,-0.9 5.2,-4.4 6.5,-6.8 6.4,-11.2 -0.3,-7.5 -5.3,-8.3 -11.7,-1.9 z"
     id="path10"
     style="fill:#000000;stroke:none;stroke-width:0.1" />
  <path
     d="m 498.52408,295.1 c -5.3,3.1 -7.3,6.5 -7.8,13.2 -0.3,3.2 0,6.3 0.5,6.8 0.6,0.6 2.8,0 6,-1.6 10.2,-5.3 17.6,-4.3 24.4,3.3 3.9,4.5 4,4.5 3.4,1.7 -3.6,-16.3 -5.2,-19.7 -10.5,-23.2 -4.3,-3 -11.2,-3 -16,-0.2 z m 13.5,10.9 c 1.8,2 1.7,2 -2.3,2 -5.6,0 -7.6,-0.8 -6.1,-2.6 1.7,-2 6.3,-1.7 8.4,0.6 z"
     id="path11"
     style="fill:#000000;stroke:none;stroke-width:0.1" />
  <path
     d="m 584.92408,294.8 c -6.5,4.1 -10.4,12.7 -10.4,22.6 l 0.1,6.1 2.1,-4 c 3.6,-7 5.5,-8.5 11.2,-8.5 2.8,0 8.1,0.9 11.8,1.9 3.6,1.1 6.9,1.7 7.2,1.3 0.3,-0.3 0.6,-2.6 0.6,-5.2 0,-8.3 -6.3,-15 -14.7,-15.7 -3.6,-0.3 -5.6,0.1 -7.9,1.5 z m 10.2,10.6 c 2.7,2 1.7,2.5 -4.5,1.8 -5.1,-0.5 -5.3,-0.5 -3,-1.8 3.1,-1.7 5.1,-1.7 7.5,0 z"
     id="path12"
     style="fill:#000000;stroke:none;stroke-width:0.1" />
  <path
     d="m 61.024083,300.8 c -5.4,2.6 -12.7,10.2 -16.4,17.2 -10.9,20.4 -6.8,43.7 10.4,59.9 6.3,5.8 14.5,10.6 27.7,16.1 l 7.8,3.2 -6,3.9 c -6.6,4.4 -11.7,10.7 -15.7,19.5 -2.2,4.8 -2.8,7.7 -3.1,15.6 -0.5,10.9 1,17.1 6,25.1 3.8,5.9 6.3,7.7 10.8,7.7 5.9,0 6.2,-0.7 4.3,-9.1 -2.4,-10.6 -2.4,-31.7 0,-38.4 2.6,-7.3 7.9,-14 13.899997,-17.5 5.2,-2.9 15.5,-6.6 16.4,-5.8 0.2,0.3 -2.9,2.6 -7,5.1 -12.999997,8.3 -18.999997,16.7 -20.199997,28.5 -1.2,11 4.5,25.2 10.099997,25.2 3.2,0 3.8,-2.5 2.7,-11.3 -1.7,-14 1.5,-23.4 11,-32.2 15.4,-14.3 47.7,-23.5 77.3,-22.1 15.6,0.7 27.6,3.1 44.7,9 7,2.4 12.5,4 12.2,3.5 -0.7,-1.2 -12.7,-7.2 -19.4,-9.9 -2.7,-1.1 -9.3,-2.9 -14.7,-4.1 -8.9,-1.9 -14.1,-2.2 -55.8,-2.9 -42.4,-0.7 -46.7,-0.9 -54.3,-2.9 -18.399997,-4.7 -34.499997,-14.6 -42.399997,-25.9 -2.7,-3.9 -6.3,-11.2 -5.5,-11.2 0.2,0 1.8,2.2 3.5,4.9 5.3,8.2 16.2,17.5 25.4,22 15.299997,7.2 28.499997,9.1 66.699997,9.4 22.3,0.2 37.1,-0.6 35.8,-2 -0.3,-0.3 -5.4,-1.3 -11.4,-2.3 -23.6,-4.1 -45.8,-11.8 -62.2,-21.5 -9,-5.4 -18.099997,-12.6 -19.499997,-15.5 -1.3,-2.8 0.1,-6.5 2.9,-7.8 2.5,-1.2 3.099997,-0.8 11.399997,7.2 4.8,4.6 12,10.5 16,13.1 10.2,6.6 27.7,14.8 40.4,19 12.3,4 32.6,8 34,6.6 1.2,-1.2 0.6,-1.4 -10.8,-4.5 -47.9,-12.9 -73.5,-27.5 -86.3,-49.1 -4.399997,-7.6 -6.999997,-9.8 -14.599997,-12.3 -3.8,-1.3 -5.7,-2.7 -8.1,-6.1 -5.7,-8.3 -11.2,-10.5 -18,-7.3 z m 9.3,8.2 c 2.5,2.4 2.7,4.5 0.7,8 -1.9,3.3 -1.9,6.6 0.1,7.4 2.8,1.1 7.1,0.6 8.4,-0.9 1.6,-1.9 4.1,-1.9 8.5,-0.1 4.2,1.8 4.5,4.1 1.5,11 -2,4.4 -2,4.8 -0.4,8.1 4.6,9.8 33.799997,26.9 57.699997,33.9 10.1,2.9 6.1,3.4 -8,0.9 -20.7,-3.6 -31.7,-6.8 -43.299997,-12.5 -9.2,-4.5 -11.7,-6.4 -20.1,-14.7 -10.6,-10.6 -15.2,-18.4 -16.5,-27.9 l -0.7,-5.4 -2.1,2.1 c -1.9,1.9 -2.1,3.3 -2.1,12.2 0,8.7 -0.2,9.7 -1.2,7.2 -0.7,-1.5 -1.2,-6.4 -1.2,-10.8 -0.1,-8.7 1.8,-14.5 6,-18.4 3.1,-2.8 9.7,-2.9 12.7,-0.1 z"
     id="path13"
     style="fill:#000000;stroke:none;stroke-width:0.1" />
  <path
     d="m 1027.0241,300.9 c -1.7,1 -5,4.1 -7.3,6.9 -3.5,4.1 -5.3,5.4 -9.6,6.6 -6.6,1.9 -9.2,4.4 -14.30002,13.2 -7.1,12.1 -18.3,21.4 -36.8,30.6 -11.8,6 -20.1,8.9 -43.4,15.3 -10.6,3 -19.5,5.6 -19.8,5.9 -1.2,1.2 40.5,3.6 62.3,3.6 25.6,0 42.30002,-2.9 56.90002,-10 9.1,-4.4 19.7,-12.7 23.9,-18.8 3.5,-5.1 4.5,-4.8 1.7,0.5 -4.7,9.4 -21.2,21.4 -35.7,26.1 -14.50002,4.7 -23.90002,5.6 -57.40002,5.4 -43.8,-0.2 -60.6,1.4 -79.5,7.5 -9.6,3.1 -22.5,9 -22.5,10.3 0,1.6 1.5,1.2 11.1,-2.6 11.2,-4.3 24.7,-7.9 35.8,-9.5 12.2,-1.7 41.1,-0.6 52.6,2 28.8,6.7 44.9,15.9 51.7,29.9 3.1,6.3 3.30002,7.3 3.60002,19.9 0.4,11.9 0.6,13.3 2.2,13.3 5.6,0 11.2,-10.4 11.2,-21 0.1,-12.7 -5.6,-23 -16.80002,-30.4 -10.8,-7.1 -10.4,-6.7 -6,-6.2 5.2,0.7 14.00002,6.8 18.20002,12.6 8.1,11 9.4,21.9 5.5,43.3 -1.2,6.5 -1.9,12.2 -1.6,12.8 0.4,0.5 2.4,0.9 4.5,0.9 3.1,0 4.6,-0.7 7.4,-3.4 11.5,-11.6 13.3,-32.9 4.1,-50.7 -2.5,-4.7 -11.2,-13.7 -16.4,-16.7 l -4.4,-2.6 7.4,-1.8 c 24.7,-6 41.9,-23.3 45.1,-45.4 2.8,-19.1 -6.2,-39.8 -20.4,-46.8 -6.1,-3.1 -9.2,-3.2 -13.3,-0.7 z m 13.5,6.6 c 4,2.1 7.1,8.5 7.7,15.9 0.7,8 -0.9,6.4 -3.2,-3.2 -1.4,-6 -2,-7.1 -3.1,-6.1 -0.8,0.6 -1.4,2.3 -1.4,3.6 0,4 -2.9,14.2 -5.5,19.2 -7.4,14.5 -21.3,24.5 -44.60002,31.9 -10.9,3.5 -40.9,11.2 -43.6,11.2 -3.4,0 0.3,-2 9.3,-5.1 12.6,-4.3 33.8,-14.8 41,-20.2 7.70002,-5.8 13.40002,-12.1 13.40002,-14.7 0,-1 -0.9,-4.1 -1.9,-6.8 -3.1,-7.9 -1.6,-10.2 7.1,-10.2 2,0 4,0.4 4.3,1 0.3,0.5 2.2,1 4.1,1 2.7,0 3.7,-0.5 4.6,-2.5 0.9,-2 0.8,-2.8 -0.5,-4.3 -3.5,-3.8 -1.5,-8.7 4.3,-11.1 3.5,-1.4 4.7,-1.3 8,0.4 z m -36.6,28.7 c 2.2,3.2 2,4.2 -1.6,8.4 -7.30002,8.3 -27.10002,19.3 -45.80002,25.4 -10.7,3.6 -35.8,9.5 -36.6,8.7 -0.2,-0.2 5.1,-2.5 11.9,-5.2 17.8,-7.1 34.9,-14.9 40.9,-18.8 2.9,-1.9 9.8,-7.3 15.3,-12.1 10.6,-9.1 13.30002,-10.2 15.90002,-6.4 z"
     id="path14"
     style="fill:#000000;stroke:none;stroke-width:0.1" />
  <path
     d="m 155.92408,406 c -11.2,2.3 -26.9,11.3 -35,20.3 -9.1,10.1 -12.6,22.5 -8.5,30.6 1.2,2.3 2.7,4.1 3.4,3.8 0.7,-0.2 1.8,-3.7 2.4,-7.8 2.4,-14.4 7.3,-22.1 16.8,-26.5 12,-5.7 35.5,0.3 47.8,12.1 7.1,6.7 10.1,13.9 10.3,24.3 0.1,4.6 0.5,8.7 0.9,9 1,1 9.1,-8.1 16.7,-18.9 14.6,-20.5 24.9,-30.5 39.3,-38.2 l 8,-4.2 -13.5,-0.7 c -7.4,-0.4 -27.9,-0.9 -45.5,-1 l -32,-0.3 -8,2.6 c -4.4,1.4 -12.5,4.3 -17.9,6.3 -11.2,4 -10.6,3.9 -10.6,2.8 0,-0.5 6.6,-3.7 14.8,-7.2 13.4,-5.8 18.2,-8.2 15.7,-7.9 -0.6,0.1 -2.8,0.5 -5.1,0.9 z m 36.7,8.5 c 7.8,5.5 10.8,15.8 8.4,28.9 -0.7,3.7 -2.5,4 -2.5,0.5 0,-3.1 -4.5,-11.1 -8.2,-14.6 -3.5,-3.4 -13.3,-8.2 -21.1,-10.3 -2.6,-0.7 -4.6,-1.8 -4.4,-2.4 0.1,-0.6 2.3,-2.1 4.7,-3.4 3.7,-1.9 5.7,-2.3 11.7,-2 6.1,0.3 7.8,0.8 11.4,3.3 z"
     id="path15"
     style="fill:#000000;stroke:none;stroke-width:0.1" />
  <path
     d="m 937.62408,405.4 c 0.2,0.2 7.7,3.4 16.7,7.1 8.9,3.7 16.2,7.1 16.2,7.6 0,1.5 -1.3,1.1 -13.9,-3.5 -23.6,-8.8 -32.6,-10.1 -60.6,-8.6 -11,0.6 -28.3,1.4 -38.5,1.8 l -18.5,0.7 6,2.2 c 11.5,4.3 18.9,11.4 45.1,42.9 7.6,9 14.2,16.3 14.8,16.1 0.6,-0.2 1.3,-4.4 1.7,-9.8 0.6,-11.4 3.3,-17.2 11.6,-25 11.3,-10.7 32.2,-15.9 45.7,-11.3 9.7,3.3 18.6,15.8 18.6,26.2 0,4.4 0.9,8.2 2,8.2 0.4,0 2.2,-1.3 3.9,-2.9 2.7,-2.5 3.1,-3.6 3.1,-8 0,-2.7 -1,-7.6 -2.1,-10.8 -4.6,-12.2 -23.1,-26 -41.9,-31.2 -6.9,-2 -10.9,-2.6 -9.9,-1.7 z m -8.1,7.9 c 2.4,1.3 4.5,2.8 4.7,3.4 0.2,0.5 -2.5,1.8 -5.9,2.8 -15.9,4.4 -22.6,10.3 -27.3,24 -1.2,3.3 -3.3,-3.9 -3.4,-11.3 -0.1,-9.2 3.5,-15.4 11.4,-19.5 4.7,-2.5 15.2,-2.2 20.5,0.6 z"
     id="path16"
     style="fill:#000000;stroke:none;stroke-width:0.1" />
  <path
     d="m 941.92408,428.5 c -24.5,5.4 -35.6,23.6 -26.5,43.1 1.7,3.6 7.5,12.3 12.9,19.2 10.7,13.8 21.8,29.9 21,30.7 -0.2,0.3 -3,-3.3 -6.2,-8 -10.3,-15.1 -25.9,-27 -37.1,-28.3 -4,-0.4 -8.5,1 -8.5,2.6 0,0.4 4.6,4.3 10.1,8.6 20.8,16.3 28,26 29.8,40.3 1.9,15.1 -2.2,28 -10.6,33.3 -5.4,3.5 -13.7,5.4 -19,4.4 -8.8,-1.6 -18.3,-8.9 -31.8,-24.7 -11.3,-13.2 -26.5,-22.3 -50.5,-30.1 -7.4,-2.4 -15.1,-4.7 -17,-5.1 l -3.5,-0.7 2,2 c 1.1,1.1 9.7,7.3 19,13.8 24.3,16.7 36.5,26.4 48.5,38.5 12.2,12.4 18.9,17.6 28.2,21.9 12.4,5.8 23.1,5.6 35.7,-0.6 10.3,-5.1 18.1,-12.9 22.7,-22.8 1.9,-4.1 3.8,-7.7 4.3,-8 3.7,-2.4 7.1,6.2 7.1,18 0,7.3 -0.4,8.9 -3.3,14.6 -3.9,7.6 -9.9,12.1 -18.5,13.9 -11.8,2.5 -36.6,-2 -52.6,-9.5 -10.5,-4.9 -17.5,-10.3 -36.6,-28.1 -9.4,-8.8 -17.9,-16.4 -18.7,-16.8 -1.7,-1.1 -0.2,2.1 5.8,12 9.6,15.6 16,30.8 20.3,48.1 4,15.6 4.9,24.9 4.3,41.6 -0.7,18.5 -3.2,29 -11.1,45.1 -9,18.5 -23.4,35.9 -53.2,64 -28,26.4 -31,29.6 -34.6,37.1 -1.8,3.7 -3.8,6.9 -4.4,7.1 -0.7,0.2 -1.4,-1.5 -1.9,-4.3 -2.9,-19.8 -15.5,-40.7 -34.3,-56.9 -8.3,-7.2 -9.1,-8.2 -21.5,-29.2 -21.2,-36 -33.1,-52.3 -36,-49.4 -0.4,0.4 2.8,8.4 7.3,17.7 7.6,16.2 9.1,21.1 7.1,24.3 -0.9,1.4 -19,3.6 -20.1,2.4 -0.5,-0.5 -0.1,-0.7 6.5,-4.5 5,-2.9 5.3,-5.1 2.1,-14.6 -2.8,-8.2 -25.2,-51.2 -26.7,-51.2 -1.3,0 -1.3,0 3.5,13.3 7.2,19.9 9.1,33.5 6.5,45.8 -3,14 -16,40.4 -37.2,75.7 -24.3,40.5 -28.3,50.1 -29.4,71.9 -0.7,12.8 0.7,23.4 4.3,33.4 3.8,10.5 7.2,15.9 15.3,23.9 6.1,6 9.7,8.6 18.1,12.9 5.8,3 11.3,6 12.3,6.9 2.8,2.4 2,6.2 -3.1,15.2 -9.4,16.5 -12,21.6 -16.5,31.6 -9,20.1 -15.3,40.9 -18.1,60.4 -2,13.5 -3.3,42.9 -1.8,41.5 0.5,-0.6 8.1,-11.4 16.7,-24 23.1,-33.8 34.5,-48.6 47.4,-61.9 16.5,-16.9 42.1,-37.9 43.9,-36.1 0.8,0.8 0.9,16.3 0.2,48 -0.5,20.7 -0.4,22.4 1.7,29 5.8,18.4 18.5,28.8 33.2,27.1 16,-1.9 27,-14.8 25.8,-30.3 -1.3,-16.5 -16.6,-26.7 -33.2,-22.2 -4.6,1.3 -11.9,8.2 -12.9,12.4 -1.1,4.1 0.1,4.2 4.2,0.3 4.9,-4.7 7.2,-5.8 12.2,-5.8 7.1,0 13.7,5 16,12.3 1.6,5.1 0.5,10 -3,14.1 -4,4.5 -7.8,5.9 -14.5,5.4 -14.3,-1.2 -19,-16.5 -17.4,-55.8 1,-23.1 6.2,-46 14.5,-63.4 l 2.4,-5.1 -0.5,4.2 c -3.9,32 -4.3,41.8 -2.4,52.9 0.6,3.4 1.7,7.1 2.5,8.1 1.2,1.6 1.3,0.4 1.4,-8.8 0.1,-29.3 4.5,-46.2 14.9,-56.3 7.5,-7.3 17.8,-5.3 21.1,4.2 1.3,3.9 1.3,4.3 -0.6,6.8 -1.1,1.5 -3,3.1 -4.2,3.5 -2.3,0.9 -3.5,0.1 -8.1,-5.6 -1.5,-1.9 -2.7,-1.1 -3.6,2.6 -0.5,2.1 0,3.4 2.5,6.3 2.7,3 3.8,3.6 7.4,3.6 8.4,0 14.6,-7.5 14.6,-17.6 -0.1,-12.7 -9.3,-22.4 -21.5,-22.4 -6.8,0 -11.8,2.3 -16.8,7.9 -2,2.3 -3.7,3.9 -3.7,3.7 0,-1 14.2,-29.7 19.9,-40.1 8.1,-15 12.3,-24.9 14.6,-34.5 6.9,-29.3 11.8,-37.1 36.8,-59.2 39.7,-35.1 67.7,-71.5 81,-105.3 5.9,-15 7.2,-21.7 5.9,-29.7 -0.7,-3.8 -1.2,-8.1 -1.2,-9.6 0,-6.1 7.3,-13.2 13.5,-13.2 1.7,0 7.3,1.1 12.5,2.4 13.3,3.4 17.8,3.9 24.5,2.7 16.4,-3 27.6,-13.8 32,-30.8 3.1,-11.7 1.3,-24.9 -5.1,-37.5 -7.2,-14.4 -36.2,-61.1 -46.3,-74.8 -12.8,-17.2 -13.3,-26.2 -2.3,-38.1 6.8,-7.4 12.2,-9.5 23.1,-9.1 2.5,0.2 4.4,1.3 7.9,4.7 4.3,4.3 4.4,4.7 4,9.4 -0.9,8.7 -5.3,12.6 -9.5,8.2 -1,-1 -2.8,-2.4 -4.1,-3 -2,-1.1 -2.6,-1 -3.7,0.6 -3.6,4.8 -1.9,11.8 3.7,15.3 10.2,6.2 22.8,-3.1 22.8,-16.8 0,-16.6 -15.8,-27 -34.6,-22.7 z m -60,169.6 c 3.2,7.7 5.6,14.3 5.2,14.6 -0.3,0.3 -1.3,-1.1 -2.2,-3.3 -0.9,-2.1 -3.6,-8.4 -6,-13.9 -4.5,-10.2 -4.9,-11.5 -3.6,-11.5 0.4,0 3.3,6.4 6.6,14.1 z m -204.5,122.8 c 5.9,4.9 11.1,8.1 13.3,8.1 1,0 3.2,-2.2 5,-5 1.8,-2.7 3.6,-5 3.9,-5 0.4,0 2.6,2.9 4.9,6.5 4.1,6.3 4.3,6.5 5.7,4.5 1.3,-1.9 1.6,-1.9 4.3,-0.5 3.7,1.9 5,4.3 5,9.4 v 4.1 h -9.8 c -5.4,0 -12.3,0.7 -15.5,1.5 -12.7,3.3 -28.6,13.5 -43.6,28 -16.5,15.9 -24.9,28 -39.9,57 l -10.3,20 0.7,-7.5 c 1.8,-20.3 11.7,-41 30,-62.7 19,-22.4 26.8,-33.8 36.5,-53.6 2.4,-4.8 4.5,-8.7 4.7,-8.7 0.2,0 2.5,1.7 5.1,3.9 z m 47.1,44 c 9.8,3.7 16.4,12.6 16.3,21.9 0,6.6 -0.9,7.5 -3.6,3.7 -5.4,-7.6 -17.3,-18.7 -23.2,-21.5 -4.7,-2.3 -16.5,-5.5 -16.5,-4.5 0,0.1 3.4,2.8 7.6,6.1 7.2,5.6 14.8,14.1 22.1,24.7 4,5.7 7.2,7.2 13.3,6 5.3,-1 8.5,-5 9.6,-11.9 0.3,-2.4 1,-4.4 1.4,-4.4 0.8,0 4.2,8.1 6,14.5 0.7,2.2 1.4,11 1.7,19.5 0.8,23.5 -2.5,39.1 -13.9,65.8 -11.2,26.1 -19.6,37.2 -42.3,56.1 -8.3,6.8 -21.8,19.2 -30,27.5 -13.9,13.9 -20.7,21.6 -42.9,48.9 -11.3,13.8 -12.4,13.3 -4.6,-2.4 9.9,-19.8 25.4,-39.5 49.6,-62.8 15.7,-15.1 47.5,-42.7 51,-44.3 2.6,-1.2 3,-2.8 1.3,-4.5 -0.9,-0.9 -1.9,-0.8 -4.2,0.3 -8,4.2 -21.7,10.2 -21.7,9.6 0,-0.9 10.8,-7.5 19.7,-12.2 11.6,-6 18.1,-15.4 24.8,-35.3 4.5,-13.4 5.9,-22.9 5.2,-34.7 -1.2,-18.6 -5.3,-25.8 -16.2,-27.9 -11.5,-2.3 -14,-3.7 -26.4,-15.6 -12.7,-12 -16.5,-14.2 -22.9,-13 -7.8,1.4 -19.5,11.1 -22.7,18.9 -2.2,5.3 -2.1,14.5 0.3,19.8 4,9 16.2,16.8 26.5,16.8 7.8,0 10.7,-1.4 21.2,-10.4 10.1,-8.5 13.8,-10.6 18.7,-10.6 12.8,0.2 13.2,21.7 0.7,38.1 -4.1,5.5 -5.9,8.9 -4.5,8.9 0.2,0 3.6,-1.4 7.6,-3 4,-1.7 7.4,-3 7.5,-3 0.2,0 0.6,1.1 0.9,2.5 1,3.7 -2.2,17.1 -5.9,25.2 -3.4,7.4 -9.1,16.3 -10.3,16.3 -0.4,0 -1.5,-1.8 -2.5,-4 -1,-2.2 -5.3,-9 -9.4,-15.2 -10.2,-15 -13,-20 -16.4,-28.3 -2.5,-6.4 -3,-7 -5.6,-7 -1.5,0.1 -2.7,0.5 -2.5,1 0.1,0.6 1.7,5 3.4,10 3.1,8.5 3.3,9.8 3.3,23 0,11.9 -0.3,15.1 -2.4,21.5 -4.5,14.6 -14,32.9 -24.4,47.5 -7.1,9.9 -16.8,21.7 -17.4,21.1 -0.3,-0.2 4.1,-6.9 9.6,-14.8 19,-26.9 27.1,-47.4 27.1,-68.4 0,-5.7 -0.5,-12.7 -1.1,-15.6 -2.6,-12.5 -12.3,-26.4 -21.5,-30.9 -10,-4.8 -24.9,-1.8 -32,6.5 -9.5,11.1 -7.7,29.7 3.6,35.3 8.3,4.3 15.4,2.6 18,-4.2 1.3,-3.4 2.8,-3.1 3.8,0.7 2.5,9.7 -4.3,16.8 -16,16.8 -10.5,0 -21.7,-8.4 -25.2,-18.7 -2.6,-7.6 -2.1,-21.8 1,-31.1 8.5,-25.4 24.2,-47.8 43.6,-62.3 9.1,-6.7 16.2,-10.3 26.1,-13 9.7,-2.6 27.5,-2.1 35.7,1 z m -27.1,20.9 c 9.4,6.9 9.3,19.4 -0.1,25.2 -6.4,3.9 -14.1,2 -20.1,-5 -6,-7 -4.9,-12.8 3.1,-16.9 1.8,-1 2.7,-1 4,0.1 4.5,3.5 5.2,6.5 2.8,12.3 l -1.5,3.5 h 2.9 c 3.3,0 6,-2.3 6,-5.2 0,-4.2 -3.3,-9.1 -7.2,-10.7 -2.1,-0.9 -3.8,-2.1 -3.8,-2.8 0,-3.6 9.2,-4 13.9,-0.5 z m -32.6,54.7 c 12.1,5 17.5,22.6 11.7,38 -3,7.7 -12.3,17.4 -20.7,21.3 -4.8,2.2 -7.2,2.7 -13.8,2.7 -7.2,0 -8.6,-0.3 -14.3,-3.4 -10.6,-5.8 -14.3,-12 -11.3,-19.4 0.6,-1.5 0.9,-1.3 2.3,1.6 1.8,3.9 9.2,9.1 15.2,10.9 6.3,1.9 16.3,1.5 21.7,-0.9 9.5,-4.2 15.8,-13.5 15.9,-23.1 0,-15.1 -12,-24.3 -24,-18.2 -4.2,2.2 -5.5,3.9 -7.5,10.4 l -1.2,4.1 -1.2,-2.8 c -0.6,-1.6 -1.1,-5.1 -1.1,-7.8 0,-4.4 0.5,-5.5 3.8,-9 6.3,-6.7 15.1,-8.3 24.5,-4.4 z m 3.9,80.7 c -3.8,7.3 -15.4,26.8 -25.7,43.3 -10.3,16.5 -20.3,32.7 -22.2,36 -3.7,6.5 -3.5,4.6 0.4,-5 6,-14.2 12.8,-26 32.3,-56 6.4,-9.9 13.5,-21 15.6,-24.8 2.1,-3.7 4.4,-6.7 5.2,-6.7 0.9,0 -1.1,4.8 -5.6,13.2 z"
     id="path17"
     style="fill:#000000;stroke:none;stroke-width:0.1" />
  <path
     d="m 137.72408,430.6 c -10,5 -16,17.3 -13.3,26.6 1.5,4.9 7.5,11.4 11.4,12.3 10,2.6 20.2,-8.2 15.2,-15.9 -2.1,-3.2 -3.2,-3.2 -7.4,-0.2 -3.2,2.4 -3.5,2.4 -5.9,0.8 -3.1,-2 -5.3,-7.1 -4.5,-10.3 3.4,-13.7 23.7,-14.5 35.1,-1.4 5.2,5.9 6.6,9.4 6.7,16.6 0,8.4 -2.6,13.7 -15.8,31.6 -19.2,26.1 -31.1,46.8 -39.6,68.8 -5.2,13.3 -6.5,19.4 -5.8,27.4 0.7,9.6 3.9,17.1 10.2,23.9 11.1,12 22,14.4 44.1,9.7 11.3,-2.4 13.4,-2.6 17.4,-1.6 5.5,1.5 7.8,3.4 10.2,8.8 1.9,4.4 1.5,7.7 -1.6,10.2 -3.5,2.9 -3,7.3 2.4,23.3 5.9,17.5 11.4,29.5 19.5,42.3 16.2,25.6 37.5,48.9 71.1,77.7 19.4,16.6 24.6,24.8 28.9,45 3.7,17.5 5.4,21.7 21.4,52.7 8,15.7 14.8,28.9 15,29.5 0.2,0.6 -1.6,-0.8 -4,-3.1 -5.4,-5.2 -10.3,-7.3 -16.9,-7.3 -11.7,0 -20.3,9 -20.4,21.5 -0.1,10.6 6.1,18.5 14.6,18.5 3.2,0 4.7,-0.7 7.4,-3.4 3.1,-3.1 3.3,-3.7 2.3,-6 l -1.2,-2.5 -4.4,2.6 c -3.6,2.1 -4.8,2.4 -6.8,1.5 -1.3,-0.6 -2.6,-2 -3,-3.1 -1,-3.3 1.3,-9.8 4.6,-12.5 5.3,-4.5 10.4,-3.1 17.8,4.9 8.8,9.5 12.5,22.1 14,47.8 0.8,13.7 1.3,16.8 2.6,15.6 0.2,-0.3 0.9,-4.7 1.6,-9.9 1.5,-12.2 0.5,-33.7 -2,-45.5 -1.1,-5 -1.8,-9.1 -1.6,-9.3 0.5,-0.5 6.5,13.1 9.5,21.6 6.6,18.5 9.5,42.9 7.9,66.2 -1.4,19.5 -6,30.4 -14.4,34.1 -10.6,4.7 -22.5,-3.7 -22.5,-15.9 0,-7.6 7.8,-15.2 15.6,-15.2 6.1,0 9.3,1.5 14.1,6.8 l 4.3,4.7 v -3.6 c 0,-5.1 -3.6,-9.8 -9.9,-13.1 -13.1,-6.9 -30.6,-0.6 -35.7,12.9 -2.2,5.7 -1.5,16.2 1.5,22 2.7,5.3 7.9,10.6 13.4,13.5 6,3.2 18.2,3.1 25,-0.1 11.4,-5.5 17.9,-19 20.9,-43.1 0.9,-7.2 0.9,-13.7 0,-28 -1.5,-22.5 -1.5,-29.7 -0.2,-30.5 1.7,-1 23,17.4 41.1,35.5 17.7,17.7 26.7,28.9 51.5,64.5 l 13.9,20 0.3,-12 c 0.3,-13 -1.1,-30.6 -3.4,-42.5 -3.4,-17.2 -8,-27.7 -28.6,-65.7 -8.7,-16.1 -10.9,-20.9 -10.6,-23.5 0.3,-3.6 0.1,-3.4 15.1,-10.2 22.4,-10.2 36.6,-30.8 38.4,-55.7 1.9,-27.4 -9.6,-58.3 -38.4,-102.4 -6.1,-9.4 -12.7,-20.3 -14.7,-24.3 -14.1,-28 -15.3,-57.8 -3.6,-86.1 3.2,-7.9 3.6,-10.1 1.9,-10.1 -1.2,0 -26,50.2 -28.4,57.7 -1.6,4.8 -1.6,5.5 -0.2,7.7 1,1.4 3.9,3.2 6.9,4.3 l 5.3,1.8 -8.3,0.3 c -16.8,0.6 -17.5,-2 -6.8,-24.9 7.4,-15.7 8.5,-18.9 6.7,-18.9 -2.5,0 -11.3,12.6 -27.8,39.8 -13.9,22.6 -18.3,30.7 -18.3,33.2 0,3.1 -0.1,3.2 -3.1,2.6 -3.5,-0.7 -5.7,0.6 -15.6,9.2 -13.4,11.6 -22,26.3 -26.6,45 -1.4,5.7 -2.7,10.6 -3,10.9 -1.1,1.1 -2.6,-0.9 -4.2,-5.7 -2.7,-8.2 -9.1,-15.6 -29.6,-34.1 -46.6,-42.3 -61.6,-63 -67.8,-93.8 -4.1,-19.9 -1.3,-53.6 6.3,-75.9 4.8,-14.1 15,-31.9 25.3,-44 2.4,-2.8 3.1,-4.2 2.1,-4.2 -1.9,0 -6.1,3.4 -20.9,16.7 -20.2,18.2 -26.7,23.1 -38.4,28.9 -12.1,5.9 -22,8.8 -35.9,10.5 -17,2.1 -27.7,-1 -33.5,-9.8 -3.9,-5.9 -4.5,-9 -3.9,-22.4 0.4,-9.4 0.7,-11.3 2.5,-13.1 1.2,-1.1 2.6,-1.7 3.2,-1.3 0.7,0.4 2.9,4.4 5,8.8 5.1,11.1 11.3,17.7 20.9,22.4 6.7,3.4 8.6,3.8 16.3,4.1 17,0.7 28.6,-5.8 53.4,-29.9 12.9,-12.5 23,-20.7 39.5,-31.9 22.5,-15.3 24.8,-17 22.4,-17 -3.9,0 -30.6,8 -38,11.4 -11.5,5.4 -15.8,8.8 -33.4,26.5 -17.8,18 -22.3,21.1 -31.6,21.9 -6.6,0.6 -11.7,-1.1 -16.6,-5.6 -5,-4.5 -7.3,-9.1 -8.8,-17.2 -2,-11 1.1,-24.4 8,-34.8 3.8,-5.7 12.9,-15 24.5,-24.9 l 6,-5.1 -2.8,-1.1 c -6.5,-2.5 -12.4,-0.7 -22.9,7.1 -8.3,6.1 -15.7,14.1 -20.3,22 -3.7,6.3 -7.4,16.2 -7.6,20 0,1.3 -0.3,1.7 -0.6,1 -0.9,-2.2 1.8,-11.4 5.5,-18.7 1.9,-3.9 9.3,-14.8 16.4,-24.4 16.2,-21.9 17.2,-23.7 17.2,-32.1 0,-8.4 -2.6,-14.3 -9.3,-21 -7.5,-7.5 -16.3,-11.3 -27.1,-11.8 -7.7,-0.3 -9,-0.1 -13.8,2.4 z m 300.2,305.9 c 4.2,8.9 10.4,17.9 22.5,32.9 22.3,27.5 28.8,37.7 34,53.2 3.4,10 5.3,24 3.2,23.3 -0.7,-0.3 -3.6,-6 -6.6,-12.7 -16,-36.7 -42.1,-66.4 -72.8,-82.7 -10.3,-5.5 -17.9,-7.5 -28.4,-7.5 -9.4,0 -9.7,-0.4 -5.7,-6.5 4.6,-6.9 6.7,-8.7 14.4,-12.2 l 7.5,-3.5 2.8,3.6 c 1.6,2 3.6,3.6 4.4,3.6 1.7,0 8.1,-4.3 13.8,-9.3 l 4,-3.5 1.8,7.2 c 0.9,3.9 3.2,10.2 5.1,14.1 z m -28.4,27 c 8.8,2.7 21.1,9.2 30.2,16.1 19.8,14.8 32.6,33.2 40.7,58.6 4,12.7 4.9,21.6 2.7,29 -6.2,21.5 -34.6,30.3 -43,13.4 -1.6,-3.3 -1.7,-4.4 -0.7,-7.7 1.3,-4.2 3.6,-5.2 4.6,-2 0.3,1.1 1.5,3.1 2.6,4.5 1.7,2.1 2.9,2.6 6.8,2.6 11,0 18.5,-8.1 18.4,-19.9 -0.2,-15.2 -11.1,-26.1 -26.4,-26.1 -14,0 -25.9,10.3 -31.6,27.3 -2.4,7.3 -2.7,9.7 -2.7,22.2 -0.1,12 0.2,15.1 2.2,21.5 3.3,10.5 7.9,20 14.6,30.4 3.1,4.8 5.5,9 5.3,9.2 -0.7,0.7 -13.7,-17.2 -18.1,-24.9 -2.4,-4.3 -5.8,-12.1 -7.6,-17.5 -5.4,-16 -5.4,-37.1 0.1,-53.1 2.4,-7 2.4,-7.1 -1.1,-7.1 -2,0 -3,0.5 -3,1.5 0,3.7 -6,15.6 -13.9,27.8 -4.8,7.2 -10.2,15.8 -12,18.9 -1.8,3.2 -3.6,5.8 -4.1,5.8 -1.3,0 -7.7,-9.1 -10.9,-15.6 -3.4,-6.9 -5.8,-15 -6.4,-21.6 -0.6,-6.8 0.3,-7.5 5.1,-4.3 2.7,1.8 5,2.5 7.1,2.3 l 3,-0.3 -6,-10.5 c -7.7,-13.6 -8.6,-16.6 -7.1,-23.7 1.3,-6.3 3.2,-9 7.8,-10.9 5.5,-2.3 9.8,-0.3 22.9,11 9.5,8.1 14,10 22.4,9.4 7.5,-0.6 11.4,-2.3 17.3,-7.6 8.5,-7.7 11.1,-19.7 6.4,-29.7 -2.6,-5.7 -11.8,-14.9 -17.1,-17 -9.2,-3.9 -14.8,-1.4 -28.3,12.4 -5.9,6.1 -12,11.5 -13.7,12.1 -1.6,0.7 -5.8,1.6 -9.3,2.1 -11.7,1.7 -15,5 -18.4,18.1 -1.7,6.9 -2,10.2 -1.5,20.3 0.6,14.5 3.2,23.7 11.4,39.7 6.3,12.4 11.8,18.2 21,21.8 3.2,1.3 8.1,3.8 10.8,5.6 4.7,3 11.5,8.9 11.5,10 0,0.3 -2.6,-1.3 -5.7,-3.4 -3.2,-2.2 -7.6,-4.8 -9.8,-5.9 -4.1,-2.1 -11.6,-4.5 -12.2,-3.9 -0.5,0.4 8.7,9.2 30.2,28.8 30.4,27.8 48.7,47.6 61.2,66.3 12.9,19.3 15.5,28.7 4.6,16.4 -13.4,-14.9 -66.8,-69.1 -78.5,-79.6 -14.7,-13.1 -17.2,-16 -26.3,-30.3 -16.2,-25.5 -23.9,-47.9 -25.2,-73 -0.7,-15 0.7,-27.3 4.5,-38.4 2.7,-7.9 5.2,-11 5.2,-6.4 0,1.2 1.7,4.5 3.8,7.3 7.1,9.4 12.7,7 27.4,-11.2 5.4,-6.8 12,-13.9 14.6,-15.9 l 4.7,-3.7 -4.8,0.7 c -2.7,0.3 -6.9,1.5 -9.3,2.6 -5.4,2.3 -15.9,12.2 -21,19.6 -2.1,3 -4.1,5.4 -4.5,5.4 -2.2,0 -2.6,-10.4 -0.6,-15.3 1.9,-4.4 6.3,-9.4 9.9,-11.3 1.6,-0.8 6.2,-2.4 10.1,-3.5 8.5,-2.3 20.8,-2 29.7,0.6 z m 7.6,23 c 5.7,4.3 8.8,9.8 8.1,14.2 -1.2,7.1 -12.3,14.6 -19.1,12.9 -4.4,-1.1 -9.2,-6.2 -10.6,-11.1 -1.1,-3.9 -1,-5.1 0.4,-8.9 3.8,-10 13.2,-13.2 21.2,-7.1 z m 37.5,54.6 c 6.2,3.1 9.6,10.5 7.9,17.1 -1.5,5.3 -2.7,5.5 -4.1,0.7 -1.8,-5.8 -5.9,-9.6 -11.3,-10.4 -11.1,-1.7 -19.7,7 -19.7,19.9 0,12 7.3,20.4 21.1,24.3 10.8,3 22.9,-0.6 31.7,-9.4 2.5,-2.4 4.9,-4.1 5.4,-3.6 1.9,1.9 -1.3,9.2 -6.1,13.7 -7.8,7.3 -12.1,9.1 -22,9.1 -7.3,0 -9.3,-0.4 -14.5,-2.9 -8.5,-4.2 -17.5,-13.5 -20.5,-21.1 -6.6,-17 0.7,-35 15.7,-39.1 5.5,-1.5 11.3,-0.9 16.4,1.7 z m -22.4,80 c 3.3,5.3 11,16.6 17,25 6.1,8.5 13.3,19 16.1,23.5 5.5,8.8 12.6,22.4 12,23 -0.2,0.2 -2,-2.5 -4,-5.9 -2,-3.4 -10.8,-16.3 -19.7,-28.7 -9.7,-13.7 -18.4,-27.1 -22.1,-34.1 -3.3,-6.4 -6,-12 -6,-12.5 0,-1 0,-1.1 6.7,9.7 z"
     id="path18"
     style="fill:#000000;stroke:none;stroke-width:0.1" />
  <path
     d="m 407.62408,792.5 c -4,4.6 -4.2,9.5 -0.5,12.4 2,1.6 3.1,1.8 4.5,1 2.3,-1.2 2.4,-1.7 0.2,-4.1 -1.8,-2 -2,-7.7 -0.3,-10.8 1.7,-3.2 -0.5,-2.3 -3.9,1.5 z"
     id="path19"
     style="fill:#000000;stroke:none;stroke-width:0.1" />
  <path
     d="m 377.52408,495.4 c -19.5,5.6 -40.7,11.9 -47,13.9 -22.5,7.3 -38.6,17 -52.6,31.9 -9.2,9.7 -14,17.7 -21,35.2 l -2.3,5.8 3.1,-0.6 c 5.6,-1.1 7.5,-3.1 9.8,-10.3 6.6,-20.7 21.9,-38.4 41.9,-48.7 11,-5.6 20.5,-8.5 30.1,-9.1 l 7.5,-0.5 -7,2 c -21.4,6.4 -39.7,19.3 -49.9,35.3 -4,6.2 -4.5,8.1 -1.8,7.3 3.7,-1.1 14.3,-2.7 18.4,-2.7 2.4,-0.1 6.9,0.9 10.1,2.1 5.7,2.1 6.8,3.7 4.8,6.9 -0.7,1.1 -1.1,1 -2,-0.7 -1,-1.8 -7.3,-6.2 -8.9,-6.2 -1.3,0 -4.2,5.7 -4.2,8 0,9.4 12.4,16.1 23.8,13 5.3,-1.4 10.6,-6 17.4,-15.3 2.9,-4 9.8,-12.8 15.3,-19.7 5.5,-6.9 14.2,-18 19.3,-24.7 10.4,-13.7 19.1,-22.3 28.1,-27.7 6.1,-3.7 7.6,-5.7 4.4,-5.5 -1,0 -17.8,4.7 -37.3,10.3 z m -24.4,24.7 c 2.7,3 2.5,12 -0.3,17.4 -7.8,14.7 -25.5,19.9 -34.2,10 -5.6,-6.5 -3.5,-12.3 6.9,-19.1 8.2,-5.2 19.4,-10.3 23.1,-10.4 1.4,0 3.4,0.9 4.5,2.1 z"
     id="path20"
     style="fill:#000000;stroke:none;stroke-width:0.1" />
  <path
     d="m 689.02408,490.1 c 9.1,6.1 17.8,15.9 29.6,33.4 7.7,11.6 14,19.6 19.5,25.2 4.5,4.5 10,10.8 12.2,14.1 4.4,6.3 9.4,11.2 14.5,13.9 4.8,2.6 16.7,2.5 20.3,-0.3 4.4,-3.2 6.6,-6.8 7.1,-11.7 0.4,-3.6 0.1,-4.9 -1.6,-6.6 -2,-2 -2.3,-2 -5.9,-0.6 -2,0.8 -4.7,2.6 -5.9,4 -1.2,1.4 -2.5,2.5 -2.8,2.5 -1.3,0 -0.3,-2.2 2.6,-5.4 4.7,-5.4 8.2,-5.9 20.8,-3 5.8,1.3 11.6,2.6 12.9,2.9 9.3,2.2 -13.1,-24.3 -28.4,-33.4 -7.5,-4.4 -16.6,-8.3 -24.7,-10.7 l -5.2,-1.4 6.5,0.5 c 9.1,0.7 19.9,3.9 30.5,8.9 20.2,9.7 32.8,23.2 41.1,44.4 1.9,4.7 4.1,9.6 5,11 1.4,2.2 8.1,5.8 9,4.9 0.7,-0.6 -3.1,-10.8 -6.6,-17.7 -14,-27.7 -37.2,-45.7 -75.3,-58.4 -10.6,-3.5 -26.2,-7.5 -57.2,-14.5 -9.9,-2.3 -19.1,-4.4 -20.5,-4.7 -1.7,-0.5 -0.9,0.4 2.5,2.7 z m 74,32.9 c 16.7,8 21.8,13.6 19.6,21.2 -3,9.8 -18.3,11.2 -29.9,2.8 -5.7,-4.1 -10.2,-12.1 -10.2,-18.2 0,-6.2 0.7,-7.8 4.3,-9.3 3.6,-1.5 7.3,-0.7 16.2,3.5 z"
     id="path21"
     style="fill:#000000;stroke:none;stroke-width:0.1" />
  <path
     d="m 412.52408,498.2 c -4.5,1.7 -7.5,4 -16,12.7 -11.2,11.3 -43.4,49.1 -42.6,49.9 0.3,0.3 2.9,-0.6 5.8,-1.8 10.4,-4.6 27.3,-3.8 39.7,1.6 3,1.4 5.6,2.2 5.9,1.9 0.2,-0.2 -0.6,-6.8 -1.8,-14.7 -4.1,-26.2 -1.3,-36.1 13.7,-47.5 1.8,-1.4 3,-2.9 2.7,-3.4 -0.7,-1.2 -1,-1.1 -7.4,1.3 z"
     id="path22"
     style="fill:#000000;stroke:none;stroke-width:0.1" />
  <path
     d="m 684.92408,503.9 c 9.3,9.7 12.1,16 12,27.1 -0.1,7.8 -1.1,13.1 -6,30.8 l -0.7,2.3 3.9,-1.7 c 11.7,-5.1 18.7,-6.6 28.9,-6.2 8.8,0.3 10.8,0.7 16.8,3.5 5.9,2.8 6.9,3 7.4,1.6 0.4,-0.9 -0.1,-1.9 -1.3,-2.5 -2.9,-1.5 -21.4,-20.9 -31.2,-32.8 -4.8,-5.8 -11.1,-12.8 -14,-15.7 -6.8,-6.7 -16.7,-13.3 -20,-13.3 -2.3,0 -2,0.6 4.2,6.9 z"
     id="path23"
     style="fill:#000000;stroke:none;stroke-width:0.1" />
  <path
     d="m 671.02408,536.4 c -1.6,0.7 -6,4.5 -9.7,8.4 -5.4,5.7 -7.9,9.6 -13.2,20.6 -3.6,7.4 -6.6,14.6 -6.6,16 0,3.4 0.8,4 25.5,21.1 18.2,12.7 27.9,18.4 29.1,17.2 0.2,-0.2 0,-3.7 -0.6,-7.8 -1.3,-10.4 -1.2,-25.7 0.4,-30 2,-5.6 6.1,-10.3 11.8,-13.5 9.8,-5.4 23.2,-3.3 34.4,5.2 4.9,3.8 9.4,11.8 9.4,16.9 0,10.1 -5.6,18.5 -12.3,18.5 -5,0 -5.3,-1.4 -0.6,-3.4 5.5,-2.5 7.5,-6.5 5.9,-12.1 -2,-7.2 -9.4,-12.5 -17.5,-12.5 -5.5,0 -13.6,4.9 -16.8,10.1 -10.8,17.7 3.5,37.4 25.8,35.7 16.4,-1.4 26.9,-12.6 27,-28.8 0,-6.4 -0.4,-8.2 -2.9,-12.8 -9.3,-16.6 -30.5,-26.2 -52.2,-23.4 -10.2,1.4 -15.6,3.6 -20.7,8.8 -4.9,4.9 -6.8,8.6 -10.2,19.9 -1.5,4.9 -2.9,9.3 -3.2,9.7 -0.6,1.1 -5.4,-1.6 -8.5,-4.9 -5.7,-6 -7.3,-14.5 -3.9,-21.8 1,-2.2 6.1,-9.8 11.5,-17 7.5,-10.1 9.6,-13.6 9.6,-16.2 0,-5 -5,-6.8 -11.5,-3.9 z m 59.5,59.6 c 2,2 2,2.1 0.3,4.5 -2.3,3.2 -2.8,3.1 -4.6,-0.7 -1.1,-2.3 -1.3,-3.6 -0.5,-4.5 1.4,-1.8 2.5,-1.6 4.8,0.7 z"
     id="path24"
     style="fill:#000000;stroke:none;stroke-width:0.1" />
  <path
     d="m 257.62408,590.6 c -3,4.6 -3.1,5 -3.1,16.4 0,29.2 14,54.3 41.7,75.2 5.2,3.8 10.1,8.1 11,9.4 1,1.6 1.8,6.2 2.3,13.7 0.9,12.1 2.3,17.4 7.7,28.2 3.5,6.9 16.9,27.5 17.9,27.5 0.3,0 1.8,-0.7 3.4,-1.5 3.9,-2 4.6,-4.8 2.2,-8.8 -1.1,-1.8 -3.7,-6.1 -5.9,-9.7 -8.4,-13.9 -15.3,-34.3 -15.3,-45.8 0,-13.5 9.8,-23.5 24.4,-24.9 7.6,-0.7 8.9,-2.3 1.8,-2.3 -7.2,0 -20.1,-1.8 -28.7,-4 -31.5,-8.1 -50.2,-32.4 -53.3,-69.4 -0.4,-4.4 -1.2,-8.1 -1.8,-8.3 -0.6,-0.2 -2.6,1.7 -4.3,4.3 z"
     id="path27"
     style="fill:#000000;stroke:none;stroke-width:0.1" />
  <path
     d="m 838.12408,588.2 c -0.2,0.7 -1.5,6.5 -2.9,12.9 -1.4,6.4 -3.6,14.3 -4.9,17.6 -3.4,8.4 -10.6,18.9 -19.5,28.3 -6.4,6.9 -9,8.8 -16.7,12.5 -10.3,5 -18.1,7 -31.1,8 -4.9,0.4 -9.8,1.1 -11,1.5 -1.7,0.6 -1.3,0.9 2,1.5 11.6,2.2 18.4,6.6 22.1,14.2 2.5,4.9 2.6,6.1 2.2,14.6 -0.6,10.3 -2,14.3 -14.5,40.6 -3.4,7.4 -6.3,14.2 -6.3,15.1 0,0.9 1.1,2.6 2.4,3.9 1.9,1.8 2.7,2 4.7,1.1 3.8,-1.7 14.5,-19.3 20.7,-33.9 3.3,-8 3.6,-9.4 3.9,-20.4 0.1,-7.7 0.7,-12.4 1.6,-13.7 0.7,-1 4.9,-4.4 9.2,-7.5 21.1,-15 35.9,-35.4 42.1,-58.1 2,-7.6 3.1,-32.2 1.5,-35.2 -1.5,-2.9 -5,-4.8 -5.5,-3 z"
     id="path28"
     style="fill:#000000;stroke:none;stroke-width:0.1" />
  <path
     d="m 244.32408,630.5 c -1,15.7 1.2,37.2 5.3,52.4 8.1,29.3 23.2,48.4 66,83.7 l 13.5,11.2 2.7,-4.3 c 1.5,-2.3 2.7,-4.7 2.7,-5.4 0,-0.6 -3.3,-5 -7.4,-9.7 -12.9,-15 -17.5,-24.3 -25.1,-50.6 -2,-7.3 -5.4,-11.3 -12.1,-14.5 -6.5,-3.1 -20.4,-17.1 -27,-27.3 -7.6,-11.7 -10.4,-18.7 -17.3,-42 -0.5,-1.7 -1,0.3 -1.3,6.5 z"
     id="path29"
     style="fill:#000000;stroke:none;stroke-width:0.1" />
  <path
     d="m 847.12408,642.2 c -4.3,9.8 -10.2,21.6 -12.9,26.1 -6.4,10.4 -17.2,21.2 -26,26.1 -7.3,4.1 -9.1,6.2 -10.2,11.6 -1.3,6.9 -6.9,22.7 -10.8,30.5 -5,10.2 -10.7,18.6 -17.1,25.3 l -5,5.4 2.9,5.5 c 1.7,3 3.3,5.7 3.7,5.9 0.8,0.5 40.9,-36.7 48.6,-45.1 15,-16.4 24.8,-35.5 30.7,-59.5 2.9,-12.3 4.7,-29 4.3,-40.6 l -0.3,-9.1 z"
     id="path30"
     style="fill:#000000;stroke:none;stroke-width:0.1" />
</svg>
