<?xml version="1.0" standalone="no"?>
<!DOCTYPE svg PUBLIC "-//W3C//DTD SVG 20010904//EN"
 "http://www.w3.org/TR/2001/REC-SVG-20010904/DTD/svg10.dtd">
<svg version="1.0" xmlns="http://www.w3.org/2000/svg"
 width="1380.000000pt" height="1380.000000pt" viewBox="0 0 1380.000000 1380.000000"
 preserveAspectRatio="xMidYMid meet">

<g transform="translate(0.000000,1380.000000) scale(0.100000,-0.100000)"
fill="#000000" stroke="none">
<path d="M4636 12259 c-101 -24 -221 -103 -299 -199 -77 -94 -137 -262 -137
-382 0 -62 26 -171 54 -233 51 -112 175 -205 274 -205 59 0 51 18 -23 48 -84
34 -138 74 -175 132 -48 74 -70 157 -70 259 0 160 48 276 164 398 187 198 417
202 688 12 173 -122 324 -260 496 -456 68 -78 68 -103 0 -51 -197 150 -471
137 -660 -32 l-57 -51 -54 40 c-29 22 -73 48 -98 56 -107 39 -224 -29 -235
-136 l-5 -44 28 55 c39 75 69 95 146 95 67 0 108 -16 166 -64 l34 -28 -22 -31
c-52 -73 -65 -176 -32 -247 44 -94 158 -185 234 -185 21 0 54 8 75 17 l37 17
-85 6 c-111 8 -153 31 -205 112 -16 27 -16 28 1 34 58 17 126 57 135 78 18 38
2 90 -43 147 l-41 53 47 42 c189 166 457 164 648 -6 49 -44 158 -188 158 -209
0 -4 -26 -18 -57 -31 -76 -31 -171 -125 -197 -195 -15 -40 -20 -87 -23 -230
-6 -186 -14 -224 -60 -277 -9 -9 -10 -18 -5 -22 14 -8 71 65 83 106 5 18 14
103 18 189 10 180 20 219 70 285 42 55 98 87 155 88 35 1 41 -2 47 -24 63
-216 72 -233 309 -575 296 -429 388 -575 480 -768 138 -287 214 -627 166 -740
-11 -27 -107 -127 -121 -127 -3 0 -5 6 -5 14 0 7 -17 33 -38 56 -33 37 -43 43
-80 43 -54 0 -88 -24 -103 -72 -33 -111 61 -201 165 -157 21 9 40 16 43 16 2
0 -10 -20 -27 -44 -16 -25 -30 -49 -30 -54 0 -6 17 -45 38 -88 36 -78 37 -81
36 -194 -1 -75 -8 -146 -22 -205 -44 -199 -38 -289 29 -437 22 -47 46 -117 54
-155 41 -194 -8 -622 -105 -914 -21 -64 -67 -174 -103 -245 -151 -303 -220
-536 -248 -839 -25 -284 29 -619 150 -924 51 -126 78 -181 91 -181 19 0 10 70
-25 182 -59 189 -112 406 -130 533 -27 188 -24 485 5 485 25 0 104 -216 143
-390 42 -188 85 -457 92 -580 8 -122 -6 -321 -31 -449 -7 -41 -12 -76 -10 -79
9 -8 56 76 76 138 52 156 65 355 36 541 -9 52 -31 225 -51 384 -48 396 -83
592 -134 755 -26 82 -27 131 -2 161 l19 24 14 -35 c18 -43 190 -736 218 -880
34 -170 49 -286 70 -532 37 -422 68 -668 92 -740 13 -37 28 -68 33 -69 24 -4
46 80 74 288 41 302 57 439 76 648 20 224 41 348 104 612 110 463 156 634 177
661 l22 27 12 -45 c11 -40 9 -53 -14 -130 -15 -47 -40 -168 -56 -270 -26 -171
-40 -262 -102 -690 -32 -223 -32 -546 0 -672 23 -94 65 -188 83 -188 8 0 9 11
5 33 -38 173 -48 422 -26 603 50 410 114 661 204 803 45 70 51 48 50 -172 0
-258 -26 -398 -128 -713 -62 -194 -73 -239 -57 -249 16 -9 111 193 160 340 87
264 123 520 103 741 -26 279 -83 462 -273 870 -155 335 -159 351 -205 729 -30
256 -29 380 6 485 17 51 21 82 18 145 -4 73 -9 91 -66 210 -34 72 -81 177
-105 234 -23 58 -47 106 -52 108 -6 1 -64 -109 -130 -246 -66 -137 -121 -248
-123 -246 -6 6 62 286 110 449 l51 171 1 170 c1 167 2 171 29 217 28 49 59 67
81 49 7 -6 26 -37 42 -68 28 -56 29 -64 31 -203 1 -158 2 -160 98 -554 71
-289 82 -313 105 -217 10 43 7 74 -25 267 -44 262 -45 346 -2 434 14 30 32 63
39 72 10 13 7 27 -14 76 l-26 60 32 -19 c82 -50 186 14 186 115 0 51 -54 106
-104 106 -70 0 -135 -57 -137 -120 0 -23 -1 -23 -9 -5 -4 11 -22 34 -40 50
-47 43 -80 119 -80 183 0 111 63 362 137 547 108 270 252 505 560 913 179 237
242 356 259 482 9 65 33 93 72 84 93 -20 174 -98 207 -198 9 -28 21 -109 25
-181 13 -187 33 -240 101 -264 l31 -11 -36 41 c-20 22 -42 52 -48 67 -5 15
-13 99 -17 187 -6 151 -9 164 -37 226 -17 36 -46 82 -64 103 -34 38 -115 86
-147 86 -45 1 -47 15 -12 80 41 77 127 166 201 208 66 38 190 72 264 72 104 0
248 -66 328 -149 l28 -30 -35 -31 c-90 -79 -66 -179 57 -228 l40 -16 -55 -49
c-63 -58 -120 -86 -170 -87 -20 0 -51 -3 -69 -6 l-32 -7 23 -13 c40 -22 119
-17 177 12 67 33 115 89 164 191 47 96 46 122 -3 197 -31 46 -31 47 -13 68 41
46 106 78 158 78 75 0 130 -39 179 -124 l17 -31 0 33 c0 85 -90 162 -187 162
-46 0 -127 -36 -175 -79 -20 -17 -39 -31 -43 -31 -4 0 -32 22 -62 50 -96 85
-234 140 -352 140 -65 0 -186 -32 -260 -69 -33 -17 -63 -31 -66 -31 -15 0 125
157 241 271 154 150 265 235 388 294 240 117 424 95 585 -70 113 -114 166
-247 165 -415 -1 -126 -22 -192 -86 -265 -49 -56 -94 -86 -183 -121 -72 -29
-72 -44 1 -44 88 0 221 97 273 198 54 105 65 290 25 422 -41 139 -138 267
-255 337 -63 38 -190 73 -264 73 -180 0 -388 -112 -652 -350 -219 -198 -360
-366 -449 -533 -25 -49 -51 -90 -58 -92 -175 -50 -263 -101 -367 -212 -84 -89
-179 -234 -257 -388 -135 -271 -210 -519 -328 -1085 -25 -124 -48 -227 -50
-229 -9 -10 -17 21 -70 290 -65 336 -102 494 -149 646 -99 315 -262 611 -435
784 -96 97 -171 144 -280 175 l-75 22 -42 82 c-60 118 -130 203 -310 381 -350
346 -490 453 -643 494 -60 16 -203 18 -264 4z m1434 -1082 c46 -22 91 -57 151
-117 224 -223 405 -622 523 -1155 32 -144 77 -427 75 -472 0 -10 -20 39 -44
109 -129 370 -209 512 -646 1148 -133 192 -241 393 -241 447 0 18 8 45 17 59
15 24 21 26 58 20 23 -4 71 -21 107 -39z m1850 6 c28 -36 22 -73 -35 -188 -49
-101 -100 -177 -327 -492 -86 -120 -184 -263 -219 -317 -133 -212 -241 -447
-314 -678 -20 -65 -41 -118 -46 -118 -12 0 -14 -17 26 197 118 626 222 943
415 1257 138 227 301 363 437 365 34 1 46 -4 63 -26z m-974 -3088 c9 -13 31
-65 49 -114 l34 -91 -29 -86 c-35 -104 -53 -126 -94 -122 -109 11 -129 315
-27 417 28 28 47 27 67 -4z m2 -530 c13 -10 30 -43 44 -88 22 -69 23 -87 23
-392 0 -252 -4 -350 -18 -460 -21 -162 -51 -326 -74 -405 -14 -50 -16 -53 -24
-31 -13 34 -55 268 -69 381 -20 167 -28 439 -18 645 10 225 25 309 64 343 30
26 42 27 72 7z m-164 -1277 c60 -266 112 -489 116 -496 4 -8 12 11 19 45 7 32
58 246 112 475 54 229 99 424 99 432 0 9 4 16 9 16 16 0 21 -65 10 -140 -6
-42 -9 -89 -7 -105 3 -28 5 -27 30 28 15 31 29 57 32 57 3 0 12 -13 21 -30 20
-39 19 -96 -4 -145 -19 -41 -20 -40 -36 10 -15 50 -59 -35 -89 -176 -38 -177
-54 -304 -70 -564 -19 -287 -16 -257 -67 -824 -22 -250 -44 -461 -48 -469 -7
-12 -10 -8 -15 14 -10 48 -25 234 -41 514 -28 484 -56 854 -71 954 -20 138
-70 414 -92 516 l-19 85 -24 -47 c-12 -27 -26 -48 -29 -48 -9 0 -37 67 -45
106 -4 20 0 46 10 70 18 42 15 44 60 -31 l24 -40 -6 138 c-4 80 -2 137 3 137
5 0 58 -217 118 -482z m-220 155 c3 -10 14 -72 26 -138 12 -66 24 -130 27
-142 3 -15 1 -23 -8 -23 -20 0 -89 204 -89 261 0 25 3 49 7 52 12 13 32 7 37
-10z m734 -27 c4 -46 -16 -117 -63 -221 l-36 -80 6 60 c21 199 83 360 93 241z
m-864 -361 c26 -26 36 -85 36 -213 0 -149 -11 -155 -53 -32 -33 96 -47 221
-27 245 16 19 25 19 44 0z m1012 -36 c18 -35 13 -100 -13 -184 -38 -121 -97
-194 -87 -107 3 20 11 92 18 160 10 90 18 128 31 142 24 27 32 25 51 -11z"/>
<path d="M1850 11797 c-145 -33 -240 -137 -286 -317 -24 -95 -15 -346 19 -490
57 -244 133 -392 446 -880 197 -306 382 -623 371 -634 -7 -7 -16 -2 -27 14
-38 59 -143 147 -214 182 -190 93 -377 92 -515 -3 -120 -82 -213 -227 -234
-362 -23 -146 32 -272 120 -279 l35 -3 5 100 c4 75 7 92 12 67 8 -36 58 -92
81 -92 10 0 25 27 42 70 58 153 153 250 283 290 110 34 222 20 330 -41 75 -43
215 -181 337 -329 247 -302 495 -485 805 -592 41 -15 147 -47 235 -71 203 -57
326 -102 491 -181 143 -69 200 -103 345 -207 198 -142 441 -226 749 -259 66
-7 261 -10 536 -8 238 2 436 -1 440 -5 15 -15 -12 -42 -62 -62 -47 -19 -72
-20 -514 -20 -471 0 -544 4 -708 41 -191 44 -391 132 -527 233 -181 135 -291
187 -379 178 -41 -4 -55 -11 -83 -41 -38 -42 -43 -81 -13 -118 24 -31 35 -36
255 -99 99 -28 253 -80 343 -116 362 -143 580 -183 1010 -183 128 0 202 -4
202 -10 0 -6 -31 -10 -72 -11 -40 0 -251 -6 -468 -13 -433 -14 -445 -13 -473
41 -12 22 -41 40 -139 82 -67 30 -154 66 -193 80 -216 78 -430 -28 -430 -214
0 -109 66 -184 197 -222 63 -19 54 -25 -70 -54 -230 -53 -399 6 -478 167 -44
90 -33 223 20 240 11 4 36 8 54 10 39 3 58 17 78 56 19 36 11 61 -21 76 -14 7
-30 23 -35 37 -12 33 -32 32 -86 -6 -174 -119 -224 -302 -134 -485 67 -137
198 -240 337 -266 107 -20 179 -1 723 192 395 139 791 215 1185 227 159 5 203
3 268 -12 99 -22 112 -38 93 -112 -20 -77 -24 -79 -61 -43 -18 17 -50 36 -71
41 -62 14 -171 11 -212 -7 -111 -46 -166 -183 -111 -274 34 -56 294 -314 308
-306 8 5 0 23 -25 57 -72 98 -92 206 -59 316 26 86 97 127 153 87 41 -29 82
-113 82 -171 0 -90 -9 -97 -78 -61 l-43 23 -20 -24 c-19 -23 -25 -67 -11 -87
18 -26 60 -44 103 -44 90 0 157 49 179 132 14 50 7 80 -31 137 -16 25 -34 63
-40 85 -52 194 189 423 345 327 20 -13 35 -28 33 -35 -2 -6 -27 -14 -55 -17
-81 -10 -99 -17 -138 -51 -43 -38 -64 -82 -64 -136 0 -49 25 -73 84 -79 87
-10 126 14 126 78 0 74 -65 110 -134 74 -35 -18 -36 -18 -36 -1 0 8 13 28 29
45 36 39 93 43 135 10 37 -29 47 -60 47 -140 1 -104 -36 -153 -131 -179 -35
-9 -36 -12 -47 -75 -12 -71 -54 -169 -103 -240 -17 -25 -82 -101 -143 -168
-62 -67 -125 -137 -140 -155 l-27 -33 -9 23 c-6 13 -24 56 -41 97 -75 181
-208 321 -305 321 -50 0 -81 -26 -70 -60 4 -11 49 -78 102 -148 52 -70 104
-145 114 -167 34 -73 21 -153 -35 -213 -20 -23 -75 -57 -80 -50 -2 2 -11 32
-21 68 -22 82 -57 160 -89 203 -67 88 -273 138 -428 106 -125 -26 -258 -119
-312 -219 -84 -154 -5 -367 153 -414 199 -59 371 41 371 217 0 117 -85 216
-194 225 -70 6 -118 -11 -156 -54 -24 -28 -30 -43 -30 -83 0 -54 22 -90 74
-122 l31 -19 -40 0 c-51 0 -79 20 -107 73 -46 89 -22 195 63 271 197 179 471
84 487 -168 2 -40 -3 -115 -12 -172 -9 -56 -16 -107 -16 -113 0 -13 106 39
208 101 195 119 406 310 645 583 77 88 144 164 149 170 17 19 -23 -81 -63
-154 -77 -143 -133 -216 -274 -356 -205 -205 -436 -377 -700 -524 -142 -79
-216 -103 -325 -103 -190 -2 -338 72 -396 197 -45 95 -26 210 61 375 24 46 43
85 42 86 -1 2 -20 -1 -42 -6 -55 -13 -130 -12 -176 2 -54 16 -112 68 -133 120
-36 87 -40 93 -74 96 -55 5 -117 -38 -151 -106 -54 -108 -64 -217 -32 -344 34
-133 105 -243 222 -343 131 -112 236 -163 492 -240 191 -58 275 -67 373 -37
95 29 146 64 283 195 135 128 249 229 236 207 -5 -8 -79 -95 -163 -194 -252
-292 -366 -445 -443 -596 -22 -44 -34 -59 -37 -47 -8 36 30 182 73 279 40 91
42 98 22 92 -173 -53 -248 -131 -296 -304 -23 -82 -75 -409 -69 -437 5 -25
280 251 392 392 48 61 169 227 269 370 100 143 220 312 268 375 113 149 399
493 406 486 3 -3 -24 -58 -59 -123 -164 -300 -232 -549 -233 -848 0 -231 38
-339 219 -612 130 -198 136 -191 31 37 -75 161 -105 245 -133 365 -34 146 -45
296 -32 431 27 275 105 455 361 840 332 499 399 905 223 1354 -51 130 -55 206
-20 407 29 173 33 267 11 339 -26 90 -102 182 -138 169 -50 -20 -62 -134 -22
-209 14 -26 25 -49 25 -51 0 -2 -16 -7 -36 -11 -25 -4 -47 -2 -70 10 -100 47
-99 201 2 284 34 28 35 30 15 37 -37 11 -82 57 -153 152 -121 165 -202 246
-485 490 -474 407 -548 463 -1110 840 -523 350 -682 442 -945 547 -215 86
-379 125 -613 147 -218 20 -529 -2 -664 -47 -100 -34 -150 -65 -243 -152 -78
-72 -80 -74 -95 -53 -19 28 -27 81 -18 127 15 83 176 195 336 234 113 27 342
36 529 21 561 -47 1018 -223 1649 -638 430 -282 799 -584 1221 -998 319 -313
399 -387 410 -380 6 3 10 10 10 14 0 13 -175 247 -259 346 -166 196 -490 511
-741 721 -313 261 -824 606 -1106 747 -188 94 -461 199 -943 363 -71 24 165
-5 339 -41 361 -77 601 -169 890 -343 540 -325 1009 -720 1456 -1227 182 -206
298 -372 394 -562 67 -133 98 -174 86 -113 -27 135 -69 212 -218 403 -355 457
-764 879 -1201 1242 -369 306 -719 506 -1134 648 -160 55 -226 72 -656 172
-365 85 -525 131 -737 211 -285 107 -378 126 -490 101z m329 -232 c95 -31 156
-66 248 -145 76 -65 94 -94 72 -115 -8 -8 -66 -23 -129 -35 -208 -38 -322 -86
-442 -185 l-66 -55 -21 58 c-74 201 -67 389 17 465 58 53 178 57 321 12z
m1303 -765 c173 -58 364 -154 478 -241 409 -311 624 -455 940 -629 125 -68
238 -144 341 -227 166 -134 442 -427 651 -694 108 -137 140 -189 115 -189 -6
0 -111 100 -232 223 -259 262 -567 552 -608 573 -44 23 -121 32 -179 21 -29
-5 -75 -12 -103 -16 -44 -5 -52 -10 -68 -41 -22 -43 -17 -116 17 -253 48 -189
114 -311 263 -487 307 -362 646 -589 1018 -680 53 -12 102 -31 119 -45 l29
-23 -44 -12 c-134 -37 -413 62 -671 236 -352 237 -590 478 -746 750 -46 81
-72 138 -160 352 -56 134 -148 257 -330 439 -92 93 -221 235 -287 316 l-120
148 -5 -78 c-5 -75 -5 -76 -13 -34 -13 76 -64 168 -134 242 -36 38 -69 69 -73
69 -4 0 -4 -17 1 -37 5 -21 16 -90 24 -153 9 -63 25 -152 35 -197 19 -79 68
-195 89 -208 14 -8 38 32 56 95 l15 55 -5 -57 c-3 -32 -14 -81 -25 -109 -12
-28 -18 -60 -15 -70 15 -46 237 -169 475 -264 147 -59 257 -112 248 -120 -2
-1 -48 3 -103 11 -241 33 -434 125 -594 282 -41 40 -75 71 -76 70 -2 -2 -13
-19 -25 -38 -23 -36 -23 -34 -4 37 4 16 -1 26 -20 38 -32 21 -70 13 -90 -18
-29 -44 -67 -201 -73 -297 -15 -268 99 -454 447 -733 124 -99 176 -116 451
-147 275 -31 428 -66 614 -140 160 -63 261 -127 588 -372 65 -49 135 -97 155
-107 102 -52 222 -64 348 -35 61 15 74 15 100 3 24 -12 29 -21 32 -56 3 -36
-1 -44 -22 -59 -33 -21 -81 -14 -231 31 -269 82 -538 196 -861 367 -241 128
-298 154 -424 192 -153 45 -280 69 -486 91 -453 46 -526 77 -759 316 -228 234
-305 366 -305 522 0 59 0 59 -26 53 -53 -14 -99 -42 -112 -68 -10 -23 -10 -38
2 -92 45 -194 131 -317 371 -535 l80 -73 -65 43 c-82 54 -199 166 -256 246
-58 79 -116 207 -144 311 -15 53 -29 86 -41 92 -19 11 -72 13 -81 4 -4 -3 7
-54 23 -112 16 -59 29 -114 29 -122 0 -25 -159 141 -216 226 -124 186 -187
439 -163 657 22 197 84 288 212 311 31 6 41 3 62 -18 21 -21 25 -35 25 -80 0
-47 4 -61 29 -88 59 -66 207 -44 286 44 60 66 70 121 34 194 -36 76 -126 108
-181 64 l-25 -19 -91 61 c-50 34 -89 65 -86 70 12 19 124 42 204 42 134 0 223
-51 277 -162 26 -53 28 -66 28 -177 0 -150 -17 -200 -121 -352 -122 -179 -198
-340 -192 -412 l3 -41 77 45 c194 114 323 294 373 520 31 146 27 134 35 100
22 -92 5 -201 -76 -465 -31 -104 -42 -256 -25 -356 25 -139 97 -268 218 -388
86 -86 125 -113 264 -181 102 -50 159 -67 159 -47 0 4 -29 22 -65 40 -112 58
-247 154 -315 222 -128 129 -180 262 -180 454 0 113 8 159 79 476 56 252 60
425 11 582 -73 238 -308 373 -545 313 -98 -25 -258 -109 -299 -157 -20 -23
-34 -43 -32 -45 2 -3 46 14 97 35 115 49 162 62 214 61 35 -1 29 -4 -39 -20
-259 -63 -445 -250 -492 -496 -46 -242 -21 -517 66 -726 98 -236 363 -507 655
-671 132 -74 247 -114 520 -182 331 -83 482 -127 736 -213 358 -123 734 -280
1058 -443 l176 -88 -70 5 c-231 18 -487 73 -661 143 -54 22 -196 87 -315 145
-354 173 -452 211 -793 308 -551 156 -721 234 -920 420 -258 242 -429 552
-571 1033 -54 182 -62 241 -46 316 44 207 287 453 552 559 214 86 326 90 531
21z m-995 0 c23 0 73 -52 82 -86 18 -63 4 -84 -251 -387 -25 -31 -27 -31 -46
-14 -31 28 -74 134 -79 197 -14 146 63 255 204 289 21 5 47 8 58 5 11 -2 25
-4 32 -4z m985 -338 c19 -50 22 -75 22 -192 -1 -117 -4 -147 -28 -223 -28 -95
-62 -168 -95 -207 -13 -16 -6 5 19 57 105 217 124 415 55 585 -16 39 -19 56
-10 48 8 -6 24 -37 37 -68z m-1382 -892 c0 -6 -42 -10 -105 -10 -63 0 -105 4
-105 10 0 6 42 10 105 10 63 0 105 -4 105 -10z m3044 -24 c43 -18 66 -51 66
-94 0 -44 -64 -112 -104 -112 -34 0 -76 41 -76 75 0 34 -33 65 -70 65 -38 0
-38 13 -1 39 60 43 125 52 185 27z m-1133 -133 c76 -43 139 -81 139 -85 0 -3
-12 -10 -27 -16 -16 -5 -58 -21 -94 -35 l-67 -25 -36 26 -36 26 -35 -34 c-29
-28 -36 -31 -50 -20 -30 25 -48 74 -49 131 -1 48 3 62 23 83 41 43 75 36 232
-51z m1377 -126 c16 -13 200 -234 453 -542 145 -177 291 -371 318 -422 9 -18
9 -23 0 -23 -33 0 -308 178 -444 287 -126 102 -324 305 -392 404 -84 122 -114
226 -79 271 34 45 106 57 144 25z m-1026 -37 c35 -10 91 -36 126 -57 63 -39
182 -138 182 -152 0 -4 -24 -4 -52 1 -57 9 -210 -3 -337 -27 -96 -19 -145 -9
-188 39 -57 62 -40 156 35 195 50 27 150 27 234 1z m230 -301 c29 -6 79 -23
110 -39 57 -28 284 -175 293 -190 3 -4 -66 28 -153 71 -171 86 -260 115 -327
104 -66 -9 -115 -65 -130 -148 -4 -20 -11 -37 -16 -37 -24 0 -119 51 -128 68
-28 52 4 114 78 152 53 27 187 37 273 19z m1601 -342 c31 -48 118 -135 146
-147 23 -9 38 -9 65 0 29 9 42 24 77 87 44 80 52 81 64 11 9 -50 -9 -102 -46
-133 -55 -46 -166 -28 -256 41 -41 31 -43 30 -32 -8 13 -48 11 -56 -11 -30
-26 31 -40 85 -40 150 0 57 9 65 33 29z m247 -420 l0 -58 -31 3 c-27 3 -37 13
-70 67 l-39 65 33 27 32 27 38 -36 c34 -34 37 -40 37 -95z m12 -172 c101 -131
161 -280 175 -433 6 -59 4 -65 -9 -55 -8 7 -20 37 -27 67 -18 79 -90 216 -224
423 -106 165 -138 221 -137 241 1 12 159 -161 222 -243z m-393 -130 c1 -2 0
-8 -3 -13 -8 -13 -146 48 -146 64 0 9 24 3 73 -18 39 -16 74 -32 76 -33z
m-1567 -294 c63 -20 131 -72 156 -121 l22 -44 -26 -14 c-42 -22 -286 -82 -334
-82 -54 0 -82 17 -104 64 -38 80 -12 170 58 202 35 16 167 13 228 -5z m658
-1276 c9 -11 8 -20 -6 -45 -22 -36 -27 -37 -44 -5 -12 22 -11 27 5 45 22 24
29 25 45 5z"/>
<path d="M3733 10629 c26 -30 87 -103 135 -163 202 -253 295 -360 457 -526
192 -197 223 -236 289 -369 26 -51 49 -91 51 -89 3 2 14 55 26 116 38 200 101
250 239 187 l55 -25 -56 52 c-38 37 -104 79 -212 136 -249 132 -401 239 -617
437 -124 113 -276 228 -353 267 l-62 31 48 -54z"/>
<path d="M2860 10039 c-14 -52 0 -121 41 -203 46 -91 144 -206 174 -206 2 0
12 24 21 54 13 42 15 60 6 84 -11 32 -212 311 -224 312 -4 0 -12 -18 -18 -41z"/>
<path d="M2880 9631 c-20 -39 -11 -71 36 -121 57 -61 81 -70 106 -40 23 28 22
54 -1 107 -30 65 -117 98 -141 54z"/>
<path d="M11795 11796 c-118 -20 -190 -41 -369 -107 -202 -76 -434 -146 -641
-194 -605 -139 -879 -230 -1183 -390 -233 -124 -555 -344 -773 -530 -483 -411
-1057 -1018 -1213 -1284 -40 -69 -80 -176 -91 -241 -6 -41 -5 -43 7 -25 8 11
56 97 108 190 113 206 129 231 245 370 322 386 649 687 1085 998 480 343 656
443 940 536 376 123 773 222 797 197 3 -3 4 -8 2 -9 -2 -2 -128 -48 -279 -102
-363 -128 -462 -169 -665 -274 -569 -294 -1045 -629 -1529 -1076 -279 -257
-661 -735 -587 -735 6 0 69 59 139 132 391 407 731 705 1087 955 135 94 625
415 753 492 543 327 1148 482 1687 431 194 -19 304 -60 401 -152 60 -56 84
-100 84 -153 0 -44 -25 -95 -47 -95 -8 0 -43 29 -75 65 -149 162 -367 223
-758 212 -432 -13 -778 -117 -1165 -350 -55 -33 -269 -173 -476 -311 -207
-138 -439 -290 -516 -338 -422 -263 -836 -632 -1154 -1025 -147 -182 -139
-165 -90 -218 66 -71 77 -124 42 -202 -23 -50 -62 -73 -125 -73 -41 0 -44 2
-38 23 3 12 12 32 20 44 57 89 16 229 -61 209 -27 -6 -68 -67 -111 -164 -26
-58 -28 -71 -23 -155 2 -51 14 -148 27 -217 35 -192 26 -267 -53 -476 -9 -23
-23 -92 -33 -155 -21 -146 -15 -383 15 -509 36 -157 109 -330 191 -450 267
-394 346 -534 414 -728 55 -158 69 -253 63 -412 -9 -231 -66 -439 -182 -671
-36 -72 -60 -129 -53 -127 21 6 182 253 237 363 62 124 81 212 81 378 0 250
-60 465 -217 777 -85 168 -99 180 171 -135 437 -510 487 -572 571 -720 32 -55
90 -145 130 -200 77 -106 271 -325 327 -368 l33 -27 3 30 c4 41 -25 260 -48
359 -41 171 -130 299 -234 334 -76 26 -80 23 -47 -35 39 -70 69 -166 77 -244
4 -35 5 -64 2 -64 -3 0 -37 55 -76 123 -94 162 -121 197 -325 415 -278 298
-276 299 38 34 135 -114 206 -152 284 -152 58 0 256 48 421 101 316 102 509
271 585 511 47 150 43 266 -16 386 -35 72 -68 95 -132 90 -41 -3 -43 -5 -72
-65 -59 -121 -112 -154 -258 -161 -54 -3 -96 -7 -94 -11 46 -85 100 -213 107
-256 25 -154 -56 -281 -215 -335 -84 -29 -251 -45 -328 -31 -99 17 -244 94
-472 249 -149 102 -232 169 -354 287 -122 119 -236 257 -313 381 -59 96 -112
194 -103 194 4 0 57 -55 110 -115 144 -164 281 -303 289 -295 6 6 -13 34 -50
76 -244 275 -312 380 -323 495 l-6 62 -50 12 c-61 16 -99 57 -116 127 -18 76
-7 127 35 165 29 27 44 33 80 33 40 0 48 -4 72 -35 15 -20 25 -38 22 -40 -2
-3 -30 1 -62 7 -58 12 -58 12 -82 -15 -31 -36 -30 -68 2 -106 22 -27 32 -31
76 -31 62 0 83 11 97 51 24 68 7 125 -49 172 -30 26 -50 32 -140 41 -25 3 -46
5 -47 5 -13 3 2 34 23 50 20 16 41 21 84 21 141 0 283 -133 283 -265 0 -41 -7
-64 -29 -100 -16 -26 -39 -63 -51 -83 -29 -48 -29 -105 0 -162 29 -57 64 -82
124 -87 116 -12 192 76 119 136 -14 12 -24 11 -67 -9 -43 -21 -52 -22 -60 -10
-13 22 -11 41 12 116 36 116 114 168 166 112 55 -61 73 -153 49 -249 -15 -56
-28 -83 -75 -158 -15 -23 -15 -24 7 -12 34 18 201 159 254 215 58 61 83 120
75 178 -13 100 -124 184 -241 182 -62 -1 -142 -28 -178 -61 -22 -20 -19 -23
-47 56 l-23 65 20 17 c77 62 478 54 882 -16 292 -52 538 -122 857 -246 320
-123 385 -139 503 -120 189 31 365 201 389 375 10 75 -3 165 -34 231 -31 64
-111 140 -165 156 -36 11 -40 10 -81 -22 -24 -19 -47 -38 -51 -44 -16 -21 -7
-58 22 -86 25 -26 35 -29 64 -24 19 4 43 4 54 1 30 -10 54 -71 55 -140 1 -111
-65 -199 -193 -260 -62 -30 -71 -31 -190 -31 -109 0 -131 3 -175 24 l-50 23
60 27 c185 85 218 289 64 400 -84 61 -246 69 -386 20 -143 -51 -279 -118 -294
-145 -7 -13 -25 -32 -40 -42 -29 -18 -141 -18 -709 4 l-215 8 115 8 c63 4 189
13 279 18 265 18 433 54 691 149 160 58 413 139 560 177 125 33 155 56 147
109 -12 73 -58 105 -153 105 -65 0 -142 -38 -324 -159 -206 -138 -315 -185
-542 -235 -336 -75 -752 -92 -1127 -45 -122 15 -206 65 -138 83 12 3 224 6
470 6 442 0 569 7 717 37 174 35 374 116 500 202 218 150 296 199 394 248 142
71 296 130 466 177 235 65 359 108 479 167 215 105 329 202 556 475 259 310
401 404 593 392 107 -7 179 -37 253 -105 69 -64 98 -110 129 -205 24 -74 35
-81 77 -48 14 11 30 20 34 20 5 0 9 -24 9 -54 0 -60 13 -78 51 -69 29 7 51 32
86 98 22 42 26 63 25 130 0 146 -61 278 -177 383 -67 61 -111 86 -192 107
-156 41 -324 -10 -498 -150 -44 -35 -81 -62 -83 -61 -8 9 38 87 284 481 284
457 337 547 390 662 125 273 180 574 140 763 -22 102 -75 210 -136 274 -85 90
-177 116 -325 92z m78 -207 c53 -14 112 -71 134 -127 30 -78 24 -214 -16 -334
l-32 -98 -66 55 c-128 105 -293 170 -495 195 -48 6 -95 13 -103 16 -23 9 -18
37 13 76 125 157 400 263 565 217z m-1147 -775 c213 -61 403 -181 523 -329
108 -133 169 -294 155 -408 -8 -68 -109 -369 -174 -522 -137 -320 -318 -585
-500 -728 -179 -142 -284 -188 -704 -313 -466 -139 -649 -210 -961 -374 -242
-126 -435 -199 -666 -249 -119 -25 -316 -52 -335 -44 -18 7 94 59 608 283 682
299 711 309 1388 491 221 59 374 117 502 190 351 201 618 554 684 905 21 113
15 386 -10 479 -48 176 -149 307 -308 404 -21 12 -38 24 -38 26 0 2 26 -7 58
-20 31 -13 58 -22 60 -20 9 9 -23 46 -71 82 -182 138 -386 173 -550 95 -52
-25 -102 -70 -313 -278 -138 -137 -287 -294 -331 -349 -44 -55 -163 -180 -264
-279 -218 -211 -260 -260 -300 -346 -17 -36 -50 -105 -74 -155 -24 -49 -70
-146 -103 -215 -140 -296 -367 -565 -641 -760 -192 -136 -444 -262 -592 -294
-84 -19 -210 -18 -216 1 -6 17 75 53 236 104 284 90 520 244 771 505 257 267
360 477 377 769 8 143 -18 199 -76 163 -15 -9 -28 -9 -59 0 -61 18 -140 15
-187 -8 -76 -37 -507 -455 -704 -682 -78 -91 -117 -125 -129 -114 -11 12 20
58 157 230 380 475 632 710 930 866 289 152 585 345 876 572 196 153 322 224
503 285 213 71 330 80 478 37z m730 -32 c57 -29 104 -80 132 -141 21 -45 24
-64 20 -125 -5 -76 -31 -148 -72 -197 l-25 -29 -116 136 c-174 203 -194 240
-168 305 20 52 74 81 139 75 28 -2 69 -13 90 -24z m-648 -117 c24 -10 41 -19
39 -21 -6 -6 -217 33 -225 41 -13 14 142 -3 186 -20z m1172 18 c0 -12 -375
-623 -382 -623 -5 0 -8 4 -8 10 0 5 84 147 186 315 162 266 204 327 204 298z
m-1141 -79 c34 -9 59 -20 56 -24 -3 -4 -46 -36 -96 -70 l-91 -62 -29 21 c-81
60 -199 -21 -199 -137 0 -51 17 -86 62 -128 65 -61 154 -90 225 -73 63 16 86
47 94 126 8 76 22 93 78 93 65 0 108 -19 145 -62 45 -52 65 -114 76 -230 24
-254 -54 -530 -209 -735 -60 -79 -178 -199 -187 -190 -3 2 11 66 29 141 l35
136 -57 0 -57 0 -17 -90 c-37 -199 -144 -387 -280 -491 -23 -18 -35 -24 -26
-14 9 11 53 65 98 120 97 117 164 245 188 356 23 109 17 122 -65 153 -37 14
-71 26 -75 26 -4 0 -7 -26 -7 -57 -1 -164 -72 -294 -299 -542 -170 -185 -277
-230 -672 -286 -449 -62 -529 -85 -799 -224 -306 -158 -436 -220 -589 -282
-204 -84 -533 -190 -607 -196 -59 -5 -63 -4 -80 21 -21 34 -11 70 28 99 26 20
29 20 135 3 138 -21 181 -20 240 2 52 20 271 164 398 261 315 243 573 344 985
385 85 9 188 25 229 36 267 74 483 261 616 532 95 194 84 353 -39 561 -22 37
-46 67 -53 67 -7 0 -60 -45 -117 -99 -150 -145 -255 -208 -439 -266 -93 -30
-262 -56 -290 -46 -14 5 5 18 79 51 55 24 135 56 179 72 126 45 294 131 408
208 l103 70 -18 72 c-25 96 -20 245 12 336 29 81 38 74 12 -10 -26 -83 -34
-228 -13 -228 4 0 19 20 32 45 13 25 26 45 29 45 3 0 12 -19 20 -42 8 -23 21
-43 28 -46 27 -9 60 98 87 283 30 212 36 239 30 130 -7 -109 12 -282 41 -384
71 -245 254 -476 423 -536 l44 -15 -7 57 c-8 73 -59 179 -161 333 -93 142
-122 202 -142 293 -55 262 104 468 349 453 37 -3 94 -12 127 -22z m-546 -451
c3 -49 15 -115 26 -148 25 -76 20 -84 -8 -11 -32 87 -53 246 -32 246 4 0 11
-39 14 -87z m-1505 -612 c34 -17 83 -61 69 -61 -3 0 -18 5 -33 10 -38 15 -70
-9 -85 -62 -15 -57 -44 -88 -84 -88 -70 0 -123 86 -91 147 33 64 149 92 224
54z m1218 -72 c20 -22 25 -89 11 -141 -8 -29 -63 -98 -77 -98 -5 0 -15 12 -22
28 -14 28 -31 31 -91 16 -32 -7 -184 43 -170 57 4 4 66 42 137 83 141 82 178
92 212 55z m-1479 -191 c54 -50 48 -143 -14 -238 -135 -205 -357 -424 -585
-578 -133 -89 -249 -155 -258 -146 -9 9 225 351 355 520 115 150 374 450 397
462 31 15 77 6 105 -20z m1166 -44 c58 -41 79 -98 54 -149 -19 -39 -65 -72
-115 -81 -18 -4 -118 6 -222 20 -125 18 -204 25 -234 21 -29 -5 -46 -4 -46 3
0 20 122 121 190 156 95 50 160 66 253 63 67 -3 84 -8 120 -33z m-297 -285
c43 -6 90 -17 105 -25 63 -32 89 -108 52 -153 -10 -12 -39 -28 -66 -36 l-47
-14 -29 64 c-38 82 -72 105 -157 105 -75 0 -133 -20 -294 -99 -132 -65 -131
-57 5 41 93 66 155 97 229 113 77 17 106 18 202 4z m-1731 -424 c-3 -33 -11
-78 -16 -100 -13 -52 -61 -186 -65 -182 -2 1 6 45 16 97 31 150 34 145 -57
103 -93 -43 -170 -54 -208 -29 -57 37 -83 126 -50 170 14 19 15 19 36 0 12
-10 32 -38 45 -61 15 -24 39 -48 61 -58 67 -32 125 2 198 117 28 44 30 46 38
25 5 -12 6 -49 2 -82z m-185 -247 c17 -12 30 -26 30 -31 0 -5 -23 -36 -51 -68
l-51 -59 -24 29 c-26 32 -30 60 -13 94 32 61 61 71 109 35z m75 -87 c9 -15
-73 -156 -149 -256 -89 -118 -139 -205 -169 -294 -14 -39 -28 -75 -32 -79 -15
-13 4 143 24 208 29 91 80 174 195 311 92 112 117 132 131 110z m375 -250 c0
-8 -132 -71 -150 -71 -29 0 -2 21 63 48 79 34 87 36 87 23z m1627 -351 c36
-22 63 -66 63 -105 0 -14 -13 -54 -29 -90 -23 -50 -35 -66 -56 -71 -27 -7
-324 64 -372 88 -61 30 14 120 144 174 77 31 202 34 250 4z"/>
<path d="M10019 10648 c-57 -39 -165 -123 -239 -187 -333 -286 -542 -433 -797
-559 -97 -48 -203 -118 -203 -134 0 -11 3 -11 60 12 28 11 71 20 96 20 103 0
145 -61 152 -227 3 -57 7 -103 11 -103 3 0 19 26 36 58 47 91 162 235 312 392
156 164 298 323 524 585 146 169 180 215 160 215 -4 0 -55 -32 -112 -72z"/>
<path d="M10859 10003 c-35 -43 -83 -100 -108 -128 -62 -70 -81 -104 -81 -147
0 -39 27 -108 43 -108 22 0 135 130 169 195 61 117 85 229 54 254 -10 9 -26
-5 -77 -66z"/>
<path d="M10104 9966 c-32 -32 -36 -41 -31 -74 2 -20 24 -81 47 -136 107 -250
106 -503 -3 -688 -64 -110 -161 -191 -355 -298 -62 -34 -111 -64 -108 -67 8
-8 105 17 170 44 178 74 322 218 415 414 74 155 86 243 50 382 -27 110 -130
440 -140 451 -4 5 -24 -7 -45 -28z"/>
<path d="M10785 9617 c-48 -47 -63 -95 -46 -140 15 -38 48 -35 99 9 52 44 65
68 64 112 -3 75 -53 83 -117 19z"/>
<path d="M6390 9319 c-53 -31 -73 -65 -78 -132 -3 -32 0 -63 5 -68 6 -6 28 0
60 16 102 53 176 43 244 -33 39 -45 40 -45 34 -17 -36 163 -52 197 -105 232
-43 30 -112 30 -160 2z m135 -109 c18 -20 17 -20 -23 -20 -56 0 -76 8 -61 26
17 20 63 17 84 -6z"/>
<path d="M7254 9322 c-65 -41 -104 -127 -104 -226 l1 -61 21 40 c36 70 55 85
112 85 28 0 81 -9 118 -19 36 -11 69 -17 72 -13 3 3 6 26 6 52 0 83 -63 150
-147 157 -36 3 -56 -1 -79 -15z m102 -106 c27 -20 17 -25 -45 -18 -51 5 -53 5
-30 18 31 17 51 17 75 0z"/>
<path d="M2015 9262 c-54 -26 -127 -102 -164 -172 -109 -204 -68 -437 104
-599 63 -58 145 -106 277 -161 l78 -32 -60 -39 c-66 -44 -117 -107 -157 -195
-22 -48 -28 -77 -31 -156 -5 -109 10 -171 60 -251 38 -59 63 -77 108 -77 59 0
62 7 43 91 -24 106 -24 317 0 384 26 73 79 140 139 175 52 29 155 66 164 58 2
-3 -29 -26 -70 -51 -130 -83 -190 -167 -202 -285 -12 -110 45 -252 101 -252
32 0 38 25 27 113 -17 140 15 234 110 322 154 143 477 235 773 221 156 -7 276
-31 447 -90 70 -24 125 -40 122 -35 -7 12 -127 72 -194 99 -27 11 -93 29 -147
41 -89 19 -141 22 -558 29 -424 7 -467 9 -543 29 -184 47 -345 146 -424 259
-27 39 -63 112 -55 112 2 0 18 -22 35 -49 53 -82 162 -175 254 -220 153 -72
285 -91 667 -94 223 -2 371 6 358 20 -3 3 -54 13 -114 23 -236 41 -458 118
-622 215 -90 54 -181 126 -195 155 -13 28 1 65 29 78 25 12 31 8 114 -72 48
-46 120 -105 160 -131 102 -66 277 -148 404 -190 123 -40 326 -80 340 -66 12
12 6 14 -108 45 -479 129 -735 275 -863 491 -44 76 -70 98 -146 123 -38 13
-57 27 -81 61 -57 83 -112 105 -180 73z m93 -82 c25 -24 27 -45 7 -80 -19 -33
-19 -66 1 -74 28 -11 71 -6 84 9 16 19 41 19 85 1 42 -18 45 -41 15 -110 -20
-44 -20 -48 -4 -81 46 -98 338 -269 577 -339 101 -29 61 -34 -80 -9 -207 36
-317 68 -433 125 -92 45 -117 64 -201 147 -106 106 -152 184 -165 279 l-7 54
-21 -21 c-19 -19 -21 -33 -21 -122 0 -87 -2 -97 -12 -72 -7 15 -12 64 -12 108
-1 87 18 145 60 184 31 28 97 29 127 1z"/>
<path d="M11675 9261 c-17 -10 -50 -41 -73 -69 -35 -41 -53 -54 -96 -66 -66
-19 -92 -44 -143 -132 -71 -121 -183 -214 -368 -306 -118 -60 -201 -89 -434
-153 -106 -30 -195 -56 -198 -59 -12 -12 405 -36 623 -36 256 0 423 29 569
100 91 44 197 127 239 188 35 51 45 48 17 -5 -47 -94 -212 -214 -357 -261
-145 -47 -239 -56 -574 -54 -438 2 -606 -14 -795 -75 -96 -31 -225 -90 -225
-103 0 -16 15 -12 111 26 112 43 247 79 358 95 122 17 411 6 526 -20 288 -67
449 -159 517 -299 31 -63 33 -73 36 -199 4 -119 6 -133 22 -133 56 0 112 104
112 210 1 127 -56 230 -168 304 -108 71 -104 67 -60 62 52 -7 140 -68 182
-126 81 -110 94 -219 55 -433 -12 -65 -19 -122 -16 -128 4 -5 24 -9 45 -9 31
0 46 7 74 34 115 116 133 329 41 507 -25 47 -112 137 -164 167 l-44 26 74 18
c247 60 419 233 451 454 28 191 -62 398 -204 468 -61 31 -92 32 -133 7z m135
-66 c40 -21 71 -85 77 -159 7 -80 -9 -64 -32 32 -14 60 -20 71 -31 61 -8 -6
-14 -23 -14 -36 0 -40 -29 -142 -55 -192 -74 -145 -213 -245 -446 -319 -109
-35 -409 -112 -436 -112 -34 0 3 20 93 51 126 43 338 148 410 202 77 58 134
121 134 147 0 10 -9 41 -19 68 -31 79 -16 102 71 102 20 0 40 -4 43 -10 3 -5
22 -10 41 -10 27 0 37 5 46 25 9 20 8 28 -5 43 -35 38 -15 87 43 111 35 14 47
13 80 -4z m-366 -287 c22 -32 20 -42 -16 -84 -73 -83 -271 -193 -458 -254
-107 -36 -358 -95 -366 -87 -2 2 51 25 119 52 178 71 349 149 409 188 29 19
98 73 153 121 106 91 133 102 159 64z"/>
<path d="M2964 8210 c-112 -23 -269 -113 -350 -203 -91 -101 -126 -225 -85
-306 12 -23 27 -41 34 -38 7 2 18 37 24 78 24 144 73 221 168 265 120 57 355
-3 478 -121 71 -67 101 -139 103 -243 1 -46 5 -87 9 -90 10 -10 91 81 167 189
146 205 249 305 393 382 l80 42 -135 7 c-74 4 -279 9 -455 10 l-320 3 -80 -26
c-44 -14 -125 -43 -179 -63 -112 -40 -106 -39 -106 -28 0 5 66 37 148 72 134
58 182 82 157 79 -6 -1 -28 -5 -51 -9z m367 -85 c78 -55 108 -158 84 -289 -7
-37 -25 -40 -25 -5 0 31 -45 111 -82 146 -35 34 -133 82 -211 103 -26 7 -46
18 -44 24 1 6 23 21 47 34 37 19 57 23 117 20 61 -3 78 -8 114 -33z"/>
<path d="M10781 8216 c2 -2 77 -34 167 -71 89 -37 162 -71 162 -76 0 -15 -13
-11 -139 35 -236 88 -326 101 -606 86 -110 -6 -283 -14 -385 -18 l-185 -7 60
-22 c115 -43 189 -114 451 -429 76 -90 142 -163 148 -161 6 2 13 44 17 98 6
114 33 172 116 250 113 107 322 159 457 113 97 -33 186 -158 186 -262 0 -44 9
-82 20 -82 4 0 22 13 39 29 27 25 31 36 31 80 0 27 -10 76 -21 108 -46 122
-231 260 -419 312 -69 20 -109 26 -99 17z m-81 -79 c24 -13 45 -28 47 -34 2
-5 -25 -18 -59 -28 -159 -44 -226 -103 -273 -240 -12 -33 -33 39 -34 113 -1
92 35 154 114 195 47 25 152 22 205 -6z"/>
<path d="M10824 7985 c-245 -54 -356 -236 -265 -431 17 -36 75 -123 129 -192
107 -138 218 -299 210 -307 -2 -3 -30 33 -62 80 -103 151 -259 270 -371 283
-40 4 -85 -10 -85 -26 0 -4 46 -43 101 -86 208 -163 280 -260 298 -403 19
-151 -22 -280 -106 -333 -54 -35 -137 -54 -190 -44 -88 16 -183 89 -318 247
-113 132 -265 223 -505 301 -74 24 -151 47 -170 51 l-35 7 20 -20 c11 -11 97
-73 190 -138 243 -167 365 -264 485 -385 122 -124 189 -176 282 -219 124 -58
231 -56 357 6 103 51 181 129 227 228 19 41 38 77 43 80 37 24 71 -62 71 -180
0 -73 -4 -89 -33 -146 -39 -76 -99 -121 -185 -139 -118 -25 -366 20 -526 95
-105 49 -175 103 -366 281 -94 88 -179 164 -187 168 -17 11 -2 -21 58 -120 96
-156 160 -308 203 -481 40 -156 49 -249 43 -416 -7 -185 -32 -290 -111 -451
-90 -185 -234 -359 -532 -640 -280 -264 -310 -296 -346 -371 -18 -37 -38 -69
-44 -71 -7 -2 -14 15 -19 43 -29 198 -155 407 -343 569 -83 72 -91 82 -215
292 -212 360 -331 523 -360 494 -4 -4 28 -84 73 -177 76 -162 91 -211 71 -243
-9 -14 -190 -36 -201 -24 -5 5 -1 7 65 45 50 29 53 51 21 146 -28 82 -252 512
-267 512 -13 0 -13 0 35 -133 72 -199 91 -335 65 -458 -30 -140 -160 -404
-372 -757 -243 -405 -283 -501 -294 -719 -7 -128 7 -234 43 -334 38 -105 72
-159 153 -239 61 -60 97 -86 181 -129 58 -30 113 -60 123 -69 28 -24 20 -62
-31 -152 -94 -165 -120 -216 -165 -316 -90 -201 -153 -409 -181 -604 -20 -135
-33 -429 -18 -415 5 6 81 114 167 240 231 338 345 486 474 619 165 169 421
379 439 361 8 -8 9 -163 2 -480 -5 -207 -4 -224 17 -290 58 -184 185 -288 332
-271 160 19 270 148 258 303 -13 165 -166 267 -332 222 -46 -13 -119 -82 -129
-124 -11 -41 1 -42 42 -3 49 47 72 58 122 58 71 0 137 -50 160 -123 16 -51 5
-100 -30 -141 -40 -45 -78 -59 -145 -54 -143 12 -190 165 -174 558 10 231 62
460 145 634 l24 51 -5 -42 c-39 -320 -43 -418 -24 -529 6 -34 17 -71 25 -81
12 -16 13 -4 14 88 1 293 45 462 149 563 75 73 178 53 211 -42 13 -39 13 -43
-6 -68 -11 -15 -30 -31 -42 -35 -23 -9 -35 -1 -81 56 -15 19 -27 11 -36 -26
-5 -21 0 -34 25 -63 27 -30 38 -36 74 -36 84 0 146 75 146 176 -1 127 -93 224
-215 224 -68 0 -118 -23 -168 -79 -20 -23 -37 -39 -37 -37 0 10 142 297 199
401 81 150 123 249 146 345 69 293 118 371 368 592 397 351 677 715 810 1053
59 150 72 217 59 297 -7 38 -12 81 -12 96 0 61 73 132 135 132 17 0 73 -11
125 -24 133 -34 178 -39 245 -27 164 30 276 138 320 308 31 117 13 249 -51
375 -72 144 -362 611 -463 748 -128 172 -133 262 -23 381 68 74 122 95 231 91
25 -2 44 -13 79 -47 43 -43 44 -47 40 -94 -9 -87 -53 -126 -95 -82 -10 10 -28
24 -41 30 -20 11 -26 10 -37 -6 -36 -48 -19 -118 37 -153 102 -62 228 31 228
168 0 166 -158 270 -346 227z m-600 -1696 c32 -77 56 -143 52 -146 -3 -3 -13
11 -22 33 -9 21 -36 84 -60 139 -45 102 -49 115 -36 115 4 0 33 -64 66 -141z
m-2045 -1228 c59 -49 111 -81 133 -81 10 0 32 22 50 50 18 27 36 50 39 50 4 0
26 -29 49 -65 41 -63 43 -65 57 -45 13 19 16 19 43 5 37 -19 50 -43 50 -94 l0
-41 -98 0 c-54 0 -123 -7 -155 -15 -127 -33 -286 -135 -436 -280 -165 -159
-249 -280 -399 -570 l-103 -200 7 75 c18 203 117 410 300 627 190 224 268 338
365 536 24 48 45 87 47 87 2 0 25 -17 51 -39z m471 -440 c98 -37 164 -126 163
-219 0 -66 -9 -75 -36 -37 -54 76 -173 187 -232 215 -47 23 -165 55 -165 45 0
-1 34 -28 76 -61 72 -56 148 -141 221 -247 40 -57 72 -72 133 -60 53 10 85 50
96 119 3 24 10 44 14 44 8 0 42 -81 60 -145 7 -22 14 -110 17 -195 8 -235 -25
-391 -139 -658 -112 -261 -196 -372 -423 -561 -83 -68 -218 -192 -300 -275
-139 -139 -207 -216 -429 -489 -113 -138 -124 -133 -46 24 99 198 254 395 496
628 157 151 475 427 510 443 26 12 30 28 13 45 -9 9 -19 8 -42 -3 -80 -42
-217 -102 -217 -96 0 9 108 75 197 122 116 60 181 154 248 353 45 134 59 229
52 347 -12 186 -53 258 -162 279 -115 23 -140 37 -264 156 -127 120 -165 142
-229 130 -78 -14 -195 -111 -227 -189 -22 -53 -21 -145 3 -198 40 -90 162
-168 265 -168 78 0 107 14 212 104 101 85 138 106 187 106 128 -2 132 -217 7
-381 -41 -55 -59 -89 -45 -89 2 0 36 14 76 30 40 17 74 30 75 30 2 0 6 -11 9
-25 10 -37 -22 -171 -59 -252 -34 -74 -91 -163 -103 -163 -4 0 -15 18 -25 40
-10 22 -53 90 -94 152 -102 150 -130 200 -164 283 -25 64 -30 70 -56 70 -15
-1 -27 -5 -25 -10 1 -6 17 -50 34 -100 31 -85 33 -98 33 -230 0 -119 -3 -151
-24 -215 -45 -146 -140 -329 -244 -475 -71 -99 -168 -217 -174 -211 -3 2 41
69 96 148 190 269 271 474 271 684 0 57 -5 127 -11 156 -26 125 -123 264 -215
309 -100 48 -249 18 -320 -65 -95 -111 -77 -297 36 -353 83 -43 154 -26 180
42 13 34 28 31 38 -7 25 -97 -43 -168 -160 -168 -105 0 -217 84 -252 187 -26
76 -21 218 10 311 85 254 242 478 436 623 91 67 162 103 261 130 97 26 275 21
357 -10z m-271 -209 c94 -69 93 -194 -1 -252 -64 -39 -141 -20 -201 50 -60 70
-49 128 31 169 18 10 27 10 40 -1 45 -35 52 -65 28 -123 l-15 -35 29 0 c33 0
60 23 60 52 0 42 -33 91 -72 107 -21 9 -38 21 -38 28 0 36 92 40 139 5z m-326
-547 c121 -50 175 -226 117 -380 -30 -77 -123 -174 -207 -213 -48 -22 -72 -27
-138 -27 -72 0 -86 3 -143 34 -106 58 -143 120 -113 194 6 15 9 13 23 -16 18
-39 92 -91 152 -109 63 -19 163 -15 217 9 95 42 158 135 159 231 0 151 -120
243 -240 182 -42 -22 -55 -39 -75 -104 l-12 -41 -12 28 c-6 16 -11 51 -11 78
0 44 5 55 38 90 63 67 151 83 245 44z m39 -807 c-38 -73 -154 -268 -257 -433
-103 -165 -203 -327 -222 -360 -37 -65 -35 -46 4 50 60 142 128 260 323 560
64 99 135 210 156 248 21 37 44 67 52 67 9 0 -11 -48 -56 -132z"/>
<path d="M2782 7964 c-100 -50 -160 -173 -133 -266 15 -49 75 -114 114 -123
100 -26 202 82 152 159 -21 32 -32 32 -74 2 -32 -24 -35 -24 -59 -8 -31 20
-53 71 -45 103 34 137 237 145 351 14 52 -59 66 -94 67 -166 0 -84 -26 -137
-158 -316 -192 -261 -311 -468 -396 -688 -52 -133 -65 -194 -58 -274 7 -96 39
-171 102 -239 111 -120 220 -144 441 -97 113 24 134 26 174 16 55 -15 78 -34
102 -88 19 -44 15 -77 -16 -102 -35 -29 -30 -73 24 -233 59 -175 114 -295 195
-423 162 -256 375 -489 711 -777 194 -166 246 -248 289 -450 37 -175 54 -217
214 -527 80 -157 148 -289 150 -295 2 -6 -16 8 -40 31 -54 52 -103 73 -169 73
-117 0 -203 -90 -204 -215 -1 -106 61 -185 146 -185 32 0 47 7 74 34 31 31 33
37 23 60 l-12 25 -44 -26 c-36 -21 -48 -24 -68 -15 -13 6 -26 20 -30 31 -10
33 13 98 46 125 53 45 104 31 178 -49 88 -95 125 -221 140 -478 8 -137 13
-168 26 -156 2 3 9 47 16 99 15 122 5 337 -20 455 -11 50 -18 91 -16 93 5 5
65 -131 95 -216 66 -185 95 -429 79 -662 -14 -195 -60 -304 -144 -341 -106
-47 -225 37 -225 159 0 76 78 152 156 152 61 0 93 -15 141 -68 l43 -47 0 36
c0 51 -36 98 -99 131 -131 69 -306 6 -357 -129 -22 -57 -15 -162 15 -220 27
-53 79 -106 134 -135 60 -32 182 -31 250 1 114 55 179 190 209 431 9 72 9 137
0 280 -15 225 -15 297 -2 305 17 10 230 -174 411 -355 177 -177 267 -289 515
-645 l139 -200 3 120 c3 130 -11 306 -34 425 -34 172 -80 277 -286 657 -87
161 -109 209 -106 235 3 36 1 34 151 102 224 102 366 308 384 557 19 274 -96
583 -384 1024 -61 94 -127 203 -147 243 -141 280 -153 578 -36 861 32 79 36
101 19 101 -12 0 -260 -502 -284 -577 -16 -48 -16 -55 -2 -77 10 -14 39 -32
69 -43 l53 -18 -83 -3 c-168 -6 -175 20 -68 249 74 157 85 189 67 189 -25 0
-113 -126 -278 -398 -139 -226 -183 -307 -183 -332 0 -31 -1 -32 -31 -26 -35
7 -57 -6 -156 -92 -134 -116 -220 -263 -266 -450 -14 -57 -27 -106 -30 -109
-11 -11 -26 9 -42 57 -27 82 -91 156 -296 341 -466 423 -616 630 -678 938 -41
199 -13 536 63 759 48 141 150 319 253 440 24 28 31 42 21 42 -19 0 -61 -34
-209 -167 -202 -182 -267 -231 -384 -289 -121 -59 -220 -88 -359 -105 -170
-21 -277 10 -335 98 -39 59 -45 90 -39 224 4 94 7 113 25 131 12 11 26 17 32
13 7 -4 29 -44 50 -88 51 -111 113 -177 209 -224 67 -34 86 -38 163 -41 170
-7 286 58 534 299 129 125 230 207 395 319 225 153 248 170 224 170 -39 0
-306 -80 -380 -114 -115 -54 -158 -88 -334 -265 -178 -180 -223 -211 -316
-219 -66 -6 -117 11 -166 56 -50 45 -73 91 -88 172 -20 110 11 244 80 348 38
57 129 150 245 249 l60 51 -28 11 c-65 25 -124 7 -229 -71 -83 -61 -157 -141
-203 -220 -37 -63 -74 -162 -76 -200 0 -13 -3 -17 -6 -10 -9 22 18 114 55 187
19 39 93 148 164 244 162 219 172 237 172 321 0 84 -26 143 -93 210 -75 75
-163 113 -271 118 -77 3 -90 1 -138 -24z m3002 -3059 c42 -89 104 -179 225
-329 223 -275 288 -377 340 -532 34 -100 53 -240 32 -233 -7 3 -36 60 -66 127
-160 367 -421 664 -728 827 -103 55 -179 75 -284 75 -94 0 -97 4 -57 65 46 69
67 87 144 122 l75 35 28 -36 c16 -20 36 -36 44 -36 17 0 81 43 138 93 l40 35
18 -72 c9 -39 32 -102 51 -141z m-284 -270 c88 -27 211 -92 302 -161 198 -148
326 -332 407 -586 40 -127 49 -216 27 -290 -62 -215 -346 -303 -430 -134 -16
33 -17 44 -7 77 13 42 36 52 46 20 3 -11 15 -31 26 -45 17 -21 29 -26 68 -26
110 0 185 81 184 199 -2 152 -111 261 -264 261 -140 0 -259 -103 -316 -273
-24 -73 -27 -97 -27 -222 -1 -120 2 -151 22 -215 33 -105 79 -200 146 -304 31
-48 55 -90 53 -92 -7 -7 -137 172 -181 249 -24 43 -58 121 -76 175 -54 160
-54 371 1 531 24 70 24 71 -11 71 -20 0 -30 -5 -30 -15 0 -37 -60 -156 -139
-278 -48 -72 -102 -158 -120 -189 -18 -32 -36 -58 -41 -58 -13 0 -77 91 -109
156 -34 69 -58 150 -64 216 -6 68 3 75 51 43 27 -18 50 -25 71 -23 l30 3 -60
105 c-77 136 -86 166 -71 237 13 63 32 90 78 109 55 23 98 3 229 -110 95 -81
140 -100 224 -94 75 6 114 23 173 76 85 77 111 197 64 297 -26 57 -118 149
-171 170 -92 39 -148 14 -283 -124 -59 -61 -120 -115 -137 -121 -16 -7 -58
-16 -93 -21 -117 -17 -150 -50 -184 -181 -17 -69 -20 -102 -15 -203 6 -145 32
-237 114 -397 63 -124 118 -182 210 -218 32 -13 81 -38 108 -56 47 -30 115
-89 115 -100 0 -3 -26 13 -57 34 -32 22 -76 48 -98 59 -41 21 -116 45 -122 39
-5 -4 87 -92 302 -288 304 -278 487 -476 612 -663 129 -193 155 -287 46 -164
-134 149 -668 691 -785 796 -147 131 -172 160 -263 303 -162 255 -239 479
-252 730 -7 150 7 273 45 384 27 79 52 110 52 64 0 -12 17 -45 38 -73 71 -94
127 -70 274 112 54 68 120 139 146 159 l47 37 -48 -7 c-27 -3 -69 -15 -93 -26
-54 -23 -159 -122 -210 -196 -21 -30 -41 -54 -45 -54 -22 0 -26 104 -6 153 19
44 63 94 99 113 16 8 62 24 101 35 85 23 208 20 297 -6z m76 -230 c57 -43 88
-98 81 -142 -12 -71 -123 -146 -191 -129 -44 11 -92 62 -106 111 -11 39 -10
51 4 89 38 100 132 132 212 71z m375 -546 c62 -31 96 -105 79 -171 -15 -53
-27 -55 -41 -7 -18 58 -59 96 -113 104 -111 17 -197 -70 -197 -199 0 -120 73
-204 211 -243 108 -30 229 6 317 94 25 24 49 41 54 36 19 -19 -13 -92 -61
-137 -78 -73 -121 -91 -220 -91 -73 0 -93 4 -145 29 -85 42 -175 135 -205 211
-66 170 7 350 157 391 55 15 113 9 164 -17z m-224 -800 c33 -53 110 -166 170
-250 61 -85 133 -190 161 -235 55 -88 126 -224 120 -230 -2 -2 -20 25 -40 59
-20 34 -108 163 -197 287 -97 137 -184 271 -221 341 -33 64 -60 120 -60 125 0
10 0 11 67 -97z"/>
<path d="M5481 4345 c-40 -46 -42 -95 -5 -124 20 -16 31 -18 45 -10 23 12 24
17 2 41 -18 20 -20 77 -3 108 17 32 -5 23 -39 -15z"/>
<path d="M5180 7316 c-195 -56 -407 -119 -470 -139 -225 -73 -386 -170 -526
-319 -92 -97 -140 -177 -210 -352 l-23 -58 31 6 c56 11 75 31 98 103 66 207
219 384 419 487 110 56 205 85 301 91 l75 5 -70 -20 c-214 -64 -397 -193 -499
-353 -40 -62 -45 -81 -18 -73 37 11 143 27 184 27 24 1 69 -9 101 -21 57 -21
68 -37 48 -69 -7 -11 -11 -10 -20 7 -10 18 -73 62 -89 62 -13 0 -42 -57 -42
-80 0 -94 124 -161 238 -130 53 14 106 60 174 153 29 40 98 128 153 197 55 69
142 180 193 247 104 137 191 223 281 277 61 37 76 57 44 55 -10 0 -178 -47
-373 -103z m-244 -247 c27 -30 25 -120 -3 -174 -78 -147 -255 -199 -342 -100
-56 65 -35 123 69 191 82 52 194 103 231 104 14 0 34 -9 45 -21z"/>
<path d="M8295 7369 c91 -61 178 -159 296 -334 77 -116 140 -196 195 -252 45
-45 100 -108 122 -141 44 -63 94 -112 145 -139 48 -26 167 -25 203 3 44 32 66
68 71 117 4 36 1 49 -16 66 -20 20 -23 20 -59 6 -20 -8 -47 -26 -59 -40 -12
-14 -25 -25 -28 -25 -13 0 -3 22 26 54 47 54 82 59 208 30 58 -13 116 -26 129
-29 93 -22 -131 243 -284 334 -75 44 -166 83 -247 107 l-52 14 65 -5 c91 -7
199 -39 305 -89 202 -97 328 -232 411 -444 19 -47 41 -96 50 -110 14 -22 81
-58 90 -49 7 6 -31 108 -66 177 -140 277 -372 457 -753 584 -106 35 -262 75
-572 145 -99 23 -191 44 -205 47 -17 5 -9 -4 25 -27z m740 -329 c167 -80 218
-136 196 -212 -30 -98 -183 -112 -299 -28 -57 41 -102 121 -102 182 0 62 7 78
43 93 36 15 73 7 162 -35z"/>
<path d="M5530 7288 c-45 -17 -75 -40 -160 -127 -112 -113 -434 -491 -426
-499 3 -3 29 6 58 18 104 46 273 38 397 -16 30 -14 56 -22 59 -19 2 2 -6 68
-18 147 -41 262 -13 361 137 475 18 14 30 29 27 34 -7 12 -10 11 -74 -13z"/>
<path d="M8254 7231 c93 -97 121 -160 120 -271 -1 -78 -11 -131 -60 -308 l-7
-23 39 17 c117 51 187 66 289 62 88 -3 108 -7 168 -35 59 -28 69 -30 74 -16 4
9 -1 19 -13 25 -29 15 -214 209 -312 328 -48 58 -111 128 -140 157 -68 67
-167 133 -200 133 -23 0 -20 -6 42 -69z"/>
<path d="M8115 6906 c-16 -7 -60 -45 -97 -84 -54 -57 -79 -96 -132 -206 -36
-74 -66 -146 -66 -160 0 -34 8 -40 255 -211 182 -127 279 -184 291 -172 2 2 0
37 -6 78 -13 104 -12 257 4 300 20 56 61 103 118 135 98 54 232 33 344 -52 49
-38 94 -118 94 -169 0 -101 -56 -185 -123 -185 -50 0 -53 14 -6 34 55 25 75
65 59 121 -20 72 -94 125 -175 125 -55 0 -136 -49 -168 -101 -108 -177 35
-374 258 -357 164 14 269 126 270 288 0 64 -4 82 -29 128 -93 166 -305 262
-522 234 -102 -14 -156 -36 -207 -88 -49 -49 -68 -86 -102 -199 -15 -49 -29
-93 -32 -97 -6 -11 -54 16 -85 49 -57 60 -73 145 -39 218 10 22 61 98 115 170
75 101 96 136 96 162 0 50 -50 68 -115 39z m595 -596 c20 -20 20 -21 3 -45
-23 -32 -28 -31 -46 7 -11 23 -13 36 -5 45 14 18 25 16 48 -7z"/>
<path d="M3335 6869 c-44 -39 -52 -67 -30 -110 l18 -33 29 37 c34 43 48 45 94
16 l33 -20 7 25 c24 96 -75 151 -151 85z"/>
<path d="M10375 6889 c-32 -18 -45 -40 -45 -74 0 -42 7 -47 41 -30 44 24 73
19 99 -17 l23 -31 22 25 c27 32 23 77 -10 108 -28 26 -100 36 -130 19z"/>
<path d="M3981 6364 c-30 -46 -31 -50 -31 -164 0 -292 140 -543 417 -752 52
-38 101 -81 110 -94 10 -16 18 -62 23 -137 9 -121 23 -174 77 -282 35 -69 169
-275 179 -275 3 0 18 7 34 15 39 20 46 48 22 88 -11 18 -37 61 -59 97 -84 139
-153 343 -153 458 0 135 98 235 244 249 76 7 89 23 18 23 -72 0 -201 18 -287
40 -315 81 -502 324 -533 694 -4 44 -12 81 -18 83 -6 2 -26 -17 -43 -43z"/>
<path d="M9786 6388 c-2 -7 -15 -65 -29 -129 -14 -64 -36 -143 -49 -176 -34
-84 -106 -189 -195 -283 -64 -69 -90 -88 -167 -125 -103 -50 -181 -70 -311
-80 -49 -4 -98 -11 -110 -15 -17 -6 -13 -9 20 -15 116 -22 184 -66 221 -142
25 -49 26 -61 22 -146 -6 -103 -20 -143 -145 -406 -34 -74 -63 -142 -63 -151
0 -9 11 -26 24 -39 19 -18 27 -20 47 -11 38 17 145 193 207 339 33 80 36 94
39 204 1 77 7 124 16 137 7 10 49 44 92 75 211 150 359 354 421 581 20 76 31
322 15 352 -15 29 -50 48 -55 30z"/>
<path d="M3848 5965 c-10 -157 12 -372 53 -524 81 -293 232 -484 660 -837
l135 -112 27 43 c15 23 27 47 27 54 0 6 -33 50 -74 97 -129 150 -175 243 -251
506 -20 73 -54 113 -121 145 -65 31 -204 171 -270 273 -76 117 -104 187 -173
420 -5 17 -10 -3 -13 -65z"/>
<path d="M9876 5848 c-43 -98 -102 -216 -129 -261 -64 -104 -172 -212 -260
-261 -73 -41 -91 -62 -102 -116 -13 -69 -69 -227 -108 -305 -50 -102 -107
-186 -171 -253 l-50 -54 29 -55 c17 -30 33 -57 37 -59 8 -5 409 367 486 451
150 164 248 355 307 595 29 123 47 290 43 406 l-3 91 -79 -179z"/>
<path d="M4089 4238 c-209 -109 -207 -427 3 -532 100 -50 220 -29 307 52 126
118 127 301 4 426 -90 91 -204 110 -314 54z m238 -97 c76 -55 113 -173 79
-254 -16 -39 -76 -94 -112 -103 -41 -10 -110 2 -142 25 -76 54 -96 194 -39
280 56 85 141 105 214 52z"/>
<path d="M9490 4248 c-185 -92 -232 -336 -92 -481 61 -63 105 -81 197 -82 91
0 136 17 191 72 63 62 79 106 79 213 0 84 -3 101 -27 145 -53 100 -138 154
-243 155 -42 0 -73 -7 -105 -22z m156 -103 c101 -66 111 -243 18 -324 -105
-93 -252 -35 -278 109 -9 53 19 135 62 182 62 65 131 77 198 33z"/>
</g>
</svg>
