<?xml version="1.0" encoding="UTF-8" standalone="no"?>
<svg
   version="1.1"
   id="Layer_1"
   x="0px"
   y="0px"
   width="100%"
   viewBox="0 0 600 578"
   enable-background="new 0 0 600 578"
   xml:space="preserve"
   sodipodi:docname="pf.svg"
   inkscape:version="1.3.2 (091e20ef0f, 2023-11-25, custom)"
   inkscape:export-filename="pf.svg"
   inkscape:export-xdpi="96"
   inkscape:export-ydpi="96"
   xmlns:inkscape="http://www.inkscape.org/namespaces/inkscape"
   xmlns:sodipodi="http://sodipodi.sourceforge.net/DTD/sodipodi-0.dtd"
   xmlns="http://www.w3.org/2000/svg"
   xmlns:svg="http://www.w3.org/2000/svg"><defs
   id="defs62" /><sodipodi:namedview
   id="namedview62"
   pagecolor="#ffffff"
   bordercolor="#000000"
   borderopacity="0.25"
   inkscape:showpageshadow="2"
   inkscape:pageopacity="0.0"
   inkscape:pagecheckerboard="0"
   inkscape:deskcolor="#d1d1d1"
   showgrid="false"
   inkscape:zoom="1.9916433"
   inkscape:cx="398.66576"
   inkscape:cy="343.93709"
   inkscape:window-width="2560"
   inkscape:window-height="1371"
   inkscape:window-x="0"
   inkscape:window-y="32"
   inkscape:window-maximized="1"
   inkscape:current-layer="Layer_1" />
<path
   fill="#000000"
   opacity="1.000000"
   stroke="none"
   d=" M1.000000,215.000000   C1.000000,143.333359 1.000000,72.166710 1.000000,1.000048   C200.999924,1.000032 400.999847,1.000032 600.999817,1.000016   C600.999878,193.666519 600.999878,386.333038 600.999939,578.999634   C401.000183,578.999756 201.000397,578.999756 1.000297,578.999878   C1.000000,457.833344 1.000000,336.666656 1.000000,215.000000  M422.497437,520.850952   C422.663239,520.569824 422.829010,520.288696 423.002441,520.002441   C423.002441,520.002441 423.006897,519.994568 423.610626,519.751770   C425.086395,518.172974 426.562164,516.594238 428.658539,514.752869   C434.383148,509.690918 440.195679,504.724457 445.815033,499.548218   C459.924194,486.551453 473.953033,473.467407 487.999115,460.402283   C492.909790,455.834595 497.692383,451.125977 502.682129,446.647339   C511.390411,438.830994 520.319824,431.259094 528.961731,423.371368   C539.471069,413.779205 549.782288,403.969971 560.172424,394.247467   C565.424927,389.332428 570.548157,384.271332 575.946411,379.522491   C579.668823,376.247955 582.192200,372.973480 580.060059,367.658142   C579.228760,365.585785 579.274475,363.153351 578.973816,360.877869   C577.253967,347.861572 575.580200,334.839142 573.833191,321.826508   C571.870178,307.204590 569.846008,292.590912 567.981689,277.152100   C567.678894,275.089508 567.376099,273.026947 567.015808,270.293793   C566.950439,269.852081 566.885132,269.410370 566.945496,268.118011   C566.943909,267.618530 567.000549,267.110962 566.932434,266.620728   C564.924255,252.161072 562.950806,237.696304 560.860657,223.248444   C560.072449,217.800201 559.009399,212.391754 558.015198,206.295090   C557.951538,205.853363 557.887878,205.411621 557.952759,204.119400   C557.620544,201.395874 557.356445,198.661926 556.942078,195.950958   C556.024780,189.949783 555.031982,183.960144 554.013794,177.294632   C553.948669,176.852509 553.883545,176.410385 553.945007,175.121796   C553.935120,174.292496 554.016113,173.450424 553.901794,172.635773   C551.926880,158.563141 550.001343,144.482925 547.906860,130.427948   C546.632874,121.878532 545.090027,113.369164 543.696960,104.116447   C538.803894,102.653572 533.878662,101.289154 529.024231,99.707802   C518.122498,96.156525 507.263336,92.474762 496.373291,88.887199   C474.269073,81.605270 452.172546,74.299263 430.040497,67.102745   C415.382904,62.336624 400.669037,57.743519 385.507019,52.485832   C384.099884,52.063633 382.685760,51.663311 381.286743,51.215748   C370.864136,47.881428 360.444550,44.537743 349.327148,40.900787   C333.194336,35.942554 317.061493,30.984320 300.555786,25.388470   C282.494934,19.616989 264.393707,13.966625 246.407700,7.970665   C242.859863,6.787926 240.570847,7.489334 238.031830,9.831948   C232.581604,14.860600 227.041855,19.801497 221.372391,24.580957   C214.241150,30.592747 206.943558,36.407230 199.092941,42.654419   C198.161652,43.320442 197.173401,43.920055 196.307632,44.662491   C184.437683,54.841385 172.583618,65.038803 160.727768,75.234123   C151.509399,83.161362 142.294006,91.092049 132.413834,99.258949   C130.870514,100.173004 129.153061,100.883636 127.810829,102.032616   C114.598244,113.342865 101.448006,124.725952 87.639496,136.349380   C76.092224,146.070099 64.544945,155.790817 52.371693,165.642395   C51.636002,166.313004 50.917339,167.003448 50.162056,167.651199   C39.191750,177.059464 28.216537,186.461990 17.053429,196.722946   C17.710045,200.754898 18.281059,204.802994 19.038111,208.816010   C22.307083,226.144379 25.691797,243.451126 28.910328,260.788757   C30.730574,270.594055 32.300266,280.445770 34.001038,290.273407   C36.062397,302.184662 38.142998,314.092590 40.090641,326.676636   C40.144081,327.128448 40.197525,327.580261 40.187733,328.523163   C40.366901,328.826569 40.628914,329.014465 41.009525,329.934570   C42.219021,337.003479 43.364578,344.084015 44.651779,351.138763   C47.079777,364.445862 49.528996,377.749634 52.085083,391.032562   C53.951633,400.732178 56.003544,410.396149 58.008541,420.869690   C58.087345,421.923035 58.166149,422.976379 58.190201,424.520660   C58.369892,424.822601 58.631699,425.009521 59.003914,425.908966   C59.087914,427.283112 59.171909,428.657257 59.196972,430.519012   C59.375561,430.818604 59.635201,431.005737 60.010826,431.910004   C61.438351,440.088928 63.269253,448.223694 64.171051,456.460175   C64.950714,463.581146 68.678444,466.951324 75.319374,468.119019   C77.048424,468.423004 78.653923,469.399384 80.333488,470.020081   C91.888100,474.290039 103.447311,478.547607 115.667526,483.140045   C120.842422,485.107269 125.993469,487.140167 131.196686,489.029388   C146.670792,494.647675 162.150772,500.250458 177.657059,505.779144   C188.405838,509.611542 199.201935,513.311340 210.372803,517.689026   C224.863876,523.122009 239.355286,528.554016 253.845947,533.988098   C275.566040,542.133179 297.231567,550.427612 319.024109,558.373962   C333.728699,563.735779 348.608978,568.616272 363.430969,573.652344   C363.835480,573.789795 364.473083,573.241211 365.636932,572.730774   C366.878815,571.233643 367.962769,569.562500 369.389038,568.268616   C376.889587,561.464600 384.476624,554.755920 392.623505,547.778625   C393.426636,547.101135 394.229767,546.423706 395.510864,545.805481   C395.820984,545.629944 395.976807,545.364014 396.007324,545.007324   C396.007324,545.007324 396.008087,544.978210 396.495636,544.851685   C396.656647,544.570496 396.817688,544.289368 397.007233,544.007507   C397.007233,544.007507 397.007904,543.978943 397.496552,543.850769   C397.661163,543.569580 397.825775,543.288452 398.002808,543.002441   C398.002808,543.002441 398.007172,542.990173 398.491760,542.847290   C398.658447,542.566589 398.825104,542.285828 399.001221,542.002441   C399.001221,542.002441 399.003723,541.992615 399.599976,541.762451   C400.741730,540.514343 401.883453,539.266296 402.998779,538.000000   C402.998779,538.000000 403.014954,538.028015 403.507568,537.869507   C403.683716,537.583679 403.859833,537.297913 404.625488,536.776978   C405.427948,536.100098 406.230408,535.423218 407.510834,534.805481   C407.821045,534.629944 407.976562,534.363892 408.007538,534.007446   C408.007538,534.007446 408.008026,533.977295 408.495667,533.851440   C408.656311,533.570251 408.816956,533.289062 409.007446,533.007690   C409.007446,533.007690 409.007690,532.977783 409.496887,532.850586   C409.664185,532.570068 409.831451,532.289551 410.001221,532.001526   C410.001221,532.001526 410.009247,531.998230 410.492188,531.848633   C410.659760,531.567871 410.827362,531.287170 411.001282,531.002014   C411.001282,531.002014 411.006104,530.994995 411.490295,530.847229   C411.659454,530.566711 411.828644,530.286133 412.001221,530.000000   C412.001221,530.000000 412.006042,529.997437 412.489655,529.847229   C412.658722,529.566589 412.827789,529.285889 413.001221,529.000000   C413.001221,529.000000 413.005280,528.996582 413.490570,528.846741   C413.666534,528.567688 413.842499,528.288635 414.503418,527.872192   C414.673553,527.594177 414.843658,527.316162 415.507660,526.874634   C415.685028,526.587524 415.862396,526.300354 416.628693,525.777771   C417.430084,525.100769 418.231476,524.423767 419.510864,523.805786   C419.821136,523.630310 419.976776,523.364319 420.007660,523.007446   C420.007660,523.007446 420.008514,522.977600 420.495911,522.851685   C420.657013,522.570740 420.818115,522.289856 421.007446,522.007812   C421.007446,522.007812 421.008759,521.979553 421.495911,521.851807   C421.657501,521.570862 421.819122,521.289917 422.007141,521.007263   C422.007141,521.007263 422.008881,520.980774 422.497437,520.850952  z"
   id="path1" />















































<path
   fill="#FDD2D8"
   opacity="1.000000"
   stroke="none"
   d=" M163.965027,107.946632   C168.554382,103.166466 173.143738,98.386299 177.887680,93.309219   C187.481079,84.429848 196.919891,75.847397 206.929993,67.345123   C205.923538,71.561760 204.417282,75.727592 202.735092,79.821136   C201.997345,81.616425 201.331924,83.991936 199.888824,84.847160   C194.881348,87.814766 192.576050,94.646103 195.397507,99.692848   C195.993607,100.759140 196.539337,101.853607 197.298904,103.297462   C195.547043,103.493507 194.445480,103.616783 193.126984,103.764336   C197.298721,109.953354 196.689377,114.572906 191.118393,119.344231   C188.031326,121.988174 187.147812,124.732147 189.186005,128.474335   C193.677521,136.720963 192.797348,135.558899 186.722473,141.750443   C185.572372,142.922638 184.245377,143.921280 182.991180,144.631561   C182.340256,143.601791 181.698135,142.940475 181.056030,142.279160   C180.783737,142.777313 180.511459,143.275467 180.239166,143.773621   C181.159439,144.182419 182.079727,144.591217 182.992706,145.389496   C182.486435,150.516037 180.563904,154.307205 176.129059,156.598648   C175.325333,157.013916 174.255402,158.139053 174.328690,158.827972   C174.807816,163.332764 171.607254,165.628448 169.141586,168.521469   C166.608032,171.494125 167.319504,178.633545 169.971405,178.889114   C174.727753,179.347504 174.359406,181.701096 173.016708,185.085724   C171.494537,188.922745 170.350220,192.908401 168.995667,196.813507   C167.600845,200.834732 166.331818,204.913971 164.665955,208.822128   C163.390228,211.814957 160.605316,214.457291 160.223190,217.474792   C159.515549,223.063004 156.931656,227.279953 152.755814,230.388596   C149.989639,232.447784 150.343307,234.106735 150.800262,237.069427   C151.445969,241.255997 151.236618,245.834198 150.221329,249.956497   C148.687088,256.186005 146.090622,262.149689 144.089706,268.273468   C143.819397,269.100708 144.295532,270.227997 144.578949,271.170349   C145.852264,275.404297 144.130432,278.429352 141.150421,281.370361   C137.898392,284.579773 135.078400,288.232117 132.131836,291.743225   C131.062012,293.018005 130.170364,294.442291 128.476776,296.802795   C128.476776,293.700409 128.476776,292.072815 128.476776,290.153198   C122.771614,293.840515 122.717247,294.864899 128.132614,298.737640   C126.005287,300.698120 123.894547,302.482758 121.981606,304.458862   C120.539070,305.948975 118.781509,307.491882 118.153702,309.346283   C116.228249,315.033661 111.234749,317.186188 106.738945,319.814056   C103.090607,321.946503 99.115433,323.534973 95.231140,325.241638   C93.482590,326.009888 91.602234,326.478149 89.781670,327.082520   C87.759911,316.898193 85.738152,306.713837 83.492310,296.235138   C81.203987,283.244415 79.139740,270.548096 77.025719,257.545593   C92.157295,252.989655 107.068878,248.503876 121.977745,244.009094   C127.850166,242.238647 133.716537,240.448166 139.775116,238.360184   C137.991882,235.269867 136.019180,232.486176 134.354202,229.316452   C135.672745,227.558289 137.052597,226.318420 137.603546,224.781433   C138.338272,222.731812 138.069885,220.308258 138.870209,218.299423   C140.560974,214.055588 142.665756,209.976700 143.750839,207.651367   C142.164398,202.772827 141.047928,199.339493 140.184174,196.683304   C142.590988,195.158035 144.879364,194.501221 145.760025,193.011963   C149.514175,186.663589 155.666351,180.686234 150.294815,172.247803   C149.833954,171.523834 149.815308,170.167938 150.158142,169.340454   C152.167892,164.489563 154.522446,159.776428 156.409332,154.881393   C157.796890,151.281677 160.197235,147.118652 159.441437,143.827881   C157.298874,134.499268 157.251755,133.038101 165.321869,127.367195   C161.941376,123.247017 162.806473,119.165588 165.339462,114.680244   C166.189713,113.174599 164.495972,110.232285 163.965027,107.946632  z"
   id="path49" />
<path
   fill="#F3D2DB"
   opacity="1.000000"
   stroke="none"
   d=" M113.816338,457.766174   C112.903351,456.261230 111.461205,454.855286 111.158363,453.236237   C107.719727,434.852692 104.406837,416.445007 101.191795,398.020844   C100.654671,394.942871 100.744919,391.755432 100.279251,388.307983   C98.699677,380.266205 97.386124,372.535004 96.453873,364.349487   C97.325798,362.431641 97.712044,360.921326 98.339912,359.519257   C98.846916,358.387085 99.404610,356.850830 100.357597,356.421692   C103.815758,354.864563 107.453247,353.707275 111.015846,352.379761   C112.653900,351.769379 114.235970,350.969696 115.913544,350.513947   C118.210800,349.889862 120.599854,349.608063 122.905647,349.010162   C130.666183,346.997742 136.727631,339.470642 145.897003,341.932526   C146.447937,342.080414 147.251907,341.790894 147.776367,341.453430   C152.430283,338.458923 157.047684,335.407654 161.935455,332.202911   C166.721329,335.638031 170.357361,332.458344 173.929321,329.486298   C174.923218,328.659332 175.463226,327.286835 176.658295,325.494415   C174.557617,325.494415 173.516983,325.494415 173.684769,325.494415   C172.218185,321.623138 171.173645,318.300934 169.717209,315.170319   C168.052032,311.590973 167.015823,308.440979 170.982147,305.552765   C174.240784,303.179871 177.214767,300.416077 180.803116,297.417572   C179.862488,296.273407 178.348282,294.948517 177.574387,293.280182   C177.164673,292.396912 178.042236,290.916534 178.338638,289.705688   C179.741623,290.224670 181.144608,290.743622 182.210281,291.137817   C186.277496,289.004456 190.321609,286.779388 194.458664,284.743164   C198.408585,282.799072 199.020157,279.796143 195.947968,276.459930   C195.158722,275.602844 194.308426,274.801941 193.485687,273.975708   C191.449554,271.930908 192.014648,270.683807 194.170776,268.789215   C197.835068,265.569458 201.183441,261.889862 204.086838,257.975037   C204.811905,256.997406 203.715057,254.149460 202.755630,252.592438   C201.855774,251.132111 199.461105,250.509018 198.767227,249.028641   C198.039612,247.476303 197.776703,244.716980 198.683640,243.592285   C200.611130,241.201950 203.283829,239.303909 205.913483,237.611954   C210.781891,234.479584 211.123611,232.233658 206.845886,228.258652   C204.403488,225.989075 204.811768,224.234406 207.779663,223.065735   C213.193268,220.934006 214.271179,218.237717 211.538666,213.299942   C206.911880,204.939178 207.269943,200.893784 213.172836,194.313324   C215.742844,191.448318 216.192215,188.810059 212.298447,186.629227   C211.508423,186.186768 210.867783,185.477600 209.740784,184.546432   C211.443756,183.333633 213.091934,182.643738 214.008804,181.410248   C216.188660,178.477600 218.193192,175.381332 219.950104,172.176575   C221.875778,168.663986 222.947708,164.590942 225.280380,161.414825   C229.093338,156.223114 233.788391,151.684662 237.717270,146.568054   C238.498932,145.550079 237.509766,143.172318 237.337173,141.421600   C236.091675,142.179779 234.669968,142.753296 233.639435,143.736740   C231.813339,145.479385 230.224899,147.471039 228.537003,149.358490   C227.844299,148.918716 227.151581,148.478943 226.458862,148.039169   C227.355682,145.809418 227.968231,143.404739 229.209732,141.387085   C231.635513,137.444763 235.353622,134.041840 236.803589,129.820328   C238.571854,124.672112 241.501495,120.867699 245.160812,117.178139   C246.375549,115.953339 246.670822,113.816612 247.386444,112.096802   C245.779572,112.347755 244.177933,112.650429 242.562195,112.813530   C242.155106,112.854630 241.702911,112.449104 241.547363,112.376900   C242.051361,109.470177 243.507675,106.427071 242.764465,104.080635   C241.695724,100.706406 242.624130,98.883575 244.759781,96.632210   C247.350739,93.900902 250.384888,91.100128 251.649643,87.736252   C252.955521,84.262970 254.458618,82.719971 258.147034,83.360367   C259.875854,91.482674 261.443054,99.243317 263.163452,107.368797   C264.548492,114.038536 265.736908,120.352280 267.019836,126.646759   C271.664307,149.434677 276.340576,172.216125 281.013000,195.414246   C285.016663,216.111038 289.035736,236.388992 292.998077,256.678040   C295.058441,267.228241 297.018707,277.797974 298.793884,288.637573   C290.575775,295.925476 282.443176,302.777588 274.631378,309.977783   C259.962372,323.498230 245.596848,337.348663 230.887970,350.824860   C212.860291,367.341766 194.535507,383.534149 176.483658,400.025024   C165.690323,409.884979 155.253891,420.134735 144.509415,430.049316   C134.378967,439.397278 124.055107,448.535614 113.816338,457.766174  z"
   id="path50"
   style="fill:#fdd2d8;fill-opacity:1" />
<path
   fill="#F9D2DA"
   opacity="1.000000"
   stroke="none"
   d=" M257.985413,82.998703   C254.458618,82.719971 252.955521,84.262970 251.649643,87.736252   C250.384888,91.100128 247.350739,93.900902 244.759781,96.632210   C242.624130,98.883575 241.695724,100.706406 242.764465,104.080635   C243.507675,106.427071 242.051361,109.470177 241.547363,112.376900   C241.702911,112.449104 242.155106,112.854630 242.562195,112.813530   C244.177933,112.650429 245.779572,112.347755 247.386444,112.096802   C246.670822,113.816612 246.375549,115.953339 245.160812,117.178139   C241.501495,120.867699 238.571854,124.672112 236.803589,129.820328   C235.353622,134.041840 231.635513,137.444763 229.209732,141.387085   C227.968231,143.404739 227.355682,145.809418 226.458862,148.039169   C227.151581,148.478943 227.844299,148.918716 228.537003,149.358490   C230.224899,147.471039 231.813339,145.479385 233.639435,143.736740   C234.669968,142.753296 236.091675,142.179779 237.337173,141.421600   C237.509766,143.172318 238.498932,145.550079 237.717270,146.568054   C233.788391,151.684662 229.093338,156.223114 225.280380,161.414825   C222.947708,164.590942 221.875778,168.663986 219.950104,172.176575   C218.193192,175.381332 216.188660,178.477600 214.008804,181.410248   C213.091934,182.643738 211.443756,183.333633 209.740784,184.546432   C210.867783,185.477600 211.508423,186.186768 212.298447,186.629227   C216.192215,188.810059 215.742844,191.448318 213.172836,194.313324   C207.269943,200.893784 206.911880,204.939178 211.538666,213.299942   C214.271179,218.237717 213.193268,220.934006 207.779663,223.065735   C204.811768,224.234406 204.403488,225.989075 206.845886,228.258652   C211.123611,232.233658 210.781891,234.479584 205.913483,237.611954   C203.283829,239.303909 200.611130,241.201950 198.683640,243.592285   C197.776703,244.716980 198.039612,247.476303 198.767227,249.028641   C199.461105,250.509018 201.855774,251.132111 202.755630,252.592438   C203.715057,254.149460 204.811905,256.997406 204.086838,257.975037   C201.183441,261.889862 197.835068,265.569458 194.170776,268.789215   C192.014648,270.683807 191.449554,271.930908 193.485687,273.975708   C194.308426,274.801941 195.158722,275.602844 195.947968,276.459930   C199.020157,279.796143 198.408585,282.799072 194.458664,284.743164   C190.321609,286.779388 186.277496,289.004456 182.210281,291.137817   C181.144608,290.743622 179.741623,290.224670 178.338638,289.705688   C178.042236,290.916534 177.164673,292.396912 177.574387,293.280182   C178.348282,294.948517 179.862488,296.273407 180.803116,297.417572   C177.214767,300.416077 174.240784,303.179871 170.982147,305.552765   C167.015823,308.440979 168.052032,311.590973 169.717209,315.170319   C171.173645,318.300934 172.218185,321.623138 173.684769,325.494415   C173.516983,325.494415 174.557617,325.494415 176.658295,325.494415   C175.463226,327.286835 174.923218,328.659332 173.929321,329.486298   C170.357361,332.458344 166.721329,335.638031 161.935455,332.202911   C157.047684,335.407654 152.430283,338.458923 147.776367,341.453430   C147.251907,341.790894 146.447937,342.080414 145.897003,341.932526   C136.727631,339.470642 130.666183,346.997742 122.905647,349.010162   C120.599854,349.608063 118.210800,349.889862 115.913544,350.513947   C114.235970,350.969696 112.653900,351.769379 111.015846,352.379761   C107.453247,353.707275 103.815758,354.864563 100.357597,356.421692   C99.404610,356.850830 98.846916,358.387085 98.339912,359.519257   C97.712044,360.921326 97.325798,362.431641 96.487259,363.943604   C94.042686,351.974182 91.946037,339.956329 89.815529,327.510529   C91.602234,326.478149 93.482590,326.009888 95.231140,325.241638   C99.115433,323.534973 103.090607,321.946503 106.738945,319.814056   C111.234749,317.186188 116.228249,315.033661 118.153702,309.346283   C118.781509,307.491882 120.539070,305.948975 121.981606,304.458862   C123.894547,302.482758 126.005287,300.698120 128.132614,298.737640   C122.717247,294.864899 122.771614,293.840515 128.476776,290.153198   C128.476776,292.072815 128.476776,293.700409 128.476776,296.802795   C130.170364,294.442291 131.062012,293.018005 132.131836,291.743225   C135.078400,288.232117 137.898392,284.579773 141.150421,281.370361   C144.130432,278.429352 145.852264,275.404297 144.578949,271.170349   C144.295532,270.227997 143.819397,269.100708 144.089706,268.273468   C146.090622,262.149689 148.687088,256.186005 150.221329,249.956497   C151.236618,245.834198 151.445969,241.255997 150.800262,237.069427   C150.343307,234.106735 149.989639,232.447784 152.755814,230.388596   C156.931656,227.279953 159.515549,223.063004 160.223190,217.474792   C160.605316,214.457291 163.390228,211.814957 164.665955,208.822128   C166.331818,204.913971 167.600845,200.834732 168.995667,196.813507   C170.350220,192.908401 171.494537,188.922745 173.016708,185.085724   C174.359406,181.701096 174.727753,179.347504 169.971405,178.889114   C167.319504,178.633545 166.608032,171.494125 169.141586,168.521469   C171.607254,165.628448 174.807816,163.332764 174.328690,158.827972   C174.255402,158.139053 175.325333,157.013916 176.129059,156.598648   C180.563904,154.307205 182.486435,150.516037 182.992706,145.389496   C184.245377,143.921280 185.572372,142.922638 186.722473,141.750443   C192.797348,135.558899 193.677521,136.720963 189.186005,128.474335   C187.147812,124.732147 188.031326,121.988174 191.118393,119.344231   C196.689377,114.572906 197.298721,109.953354 193.126984,103.764336   C194.445480,103.616783 195.547043,103.493507 197.298904,103.297462   C196.539337,101.853607 195.993607,100.759140 195.397507,99.692848   C192.576050,94.646103 194.881348,87.814766 199.888824,84.847160   C201.331924,83.991936 201.997345,81.616425 202.735092,79.821136   C204.417282,75.727592 205.923538,71.561760 207.225677,67.190834   C214.533646,59.501835 222.117218,52.047302 229.846283,44.293388   C235.748596,39.031715 241.505402,34.069427 247.621246,29.486847   C248.325180,32.244877 248.670059,34.623203 249.058075,37.396179   C252.062607,52.860123 255.024017,67.929413 257.985413,82.998703  z"
   id="path51" />
<path
   fill="#FFD2D8"
   opacity="1.000000"
   stroke="none"
   d=" M163.669037,108.104645   C164.495972,110.232285 166.189713,113.174599 165.339462,114.680244   C162.806473,119.165588 161.941376,123.247017 165.321869,127.367195   C157.251755,133.038101 157.298874,134.499268 159.441437,143.827881   C160.197235,147.118652 157.796890,151.281677 156.409332,154.881393   C154.522446,159.776428 152.167892,164.489563 150.158142,169.340454   C149.815308,170.167938 149.833954,171.523834 150.294815,172.247803   C155.666351,180.686234 149.514175,186.663589 145.760025,193.011963   C144.879364,194.501221 142.590988,195.158035 140.184174,196.683304   C141.047928,199.339493 142.164398,202.772827 143.750839,207.651367   C142.665756,209.976700 140.560974,214.055588 138.870209,218.299423   C138.069885,220.308258 138.338272,222.731812 137.603546,224.781433   C137.052597,226.318420 135.672745,227.558289 134.303802,228.973923   C124.321335,216.396149 114.632935,203.822983 105.105766,191.128815   C101.539047,186.376450 98.227234,181.417114 95.095016,176.368591   C94.523758,175.447830 94.868668,173.136703 95.665001,172.321503   C101.228912,166.625839 107.022850,161.154892 112.898376,155.315857   C122.289909,146.221024 131.526199,137.422348 140.927017,128.331726   C143.817963,125.765778 146.613083,123.568497 149.255753,121.201012   C154.009750,116.942047 158.672318,112.581032 163.669037,108.104645  z"
   id="path52" />




<path
   fill="#B38B91"
   opacity="1.000000"
   stroke="none"
   d=" M344.448914,454.539612   C344.415192,454.482758 344.482635,454.596436 344.448914,454.539612  z"
   id="path57" />
<path
   fill="#AD909D"
   opacity="1.000000"
   stroke="none"
   d=" M437.985229,196.981262   C437.885315,197.014725 437.798706,197.063431 437.870972,197.067047   C438.029785,197.021988 437.998566,196.996475 437.985229,196.981262  z"
   id="path58" />
<path
   fill="#F9D2DA"
   opacity="1.000000"
   stroke="none"
   d=" M182.991180,144.631561   C182.079727,144.591217 181.159439,144.182419 180.239166,143.773621   C180.511459,143.275467 180.783737,142.777313 181.056030,142.279160   C181.698135,142.940475 182.340256,143.601791 182.991180,144.631561  z"
   id="path59" />



<path
   style="fill:#998c99;fill-opacity:1;stroke:#000000;stroke-width:0.710074"
   d=""
   id="path78" /><path
   style="fill:#998c99;fill-opacity:1;stroke:#000000;stroke-width:0.710074"
   d=""
   id="path79" /><path
   style="fill:#fdd2d8;fill-opacity:1;stroke-width:0.710074"
   d="m 529.00491,368.61033 c -5.07702,-1.69158 -17.85835,-6.19311 -28.40295,-10.00341 -10.54459,-3.8103 -30.03611,-10.68733 -43.31449,-15.28231 -13.27838,-4.59497 -39.32033,-13.8762 -57.87101,-20.62495 -18.55067,-6.74876 -48.73337,-17.28271 -67.07265,-23.40878 l -33.34416,-11.13832 -1.64176,-9.51731 C 293.92993,258.76343 269.14447,134.05905 260.60722,93.72973 257.99448,81.387341 249.41331,37.851709 248.55425,32.580278 l -0.47642,-2.923408 13.2065,3.812725 c 7.26357,2.096998 15.15076,4.794187 17.52708,5.993751 2.37632,1.199565 8.83622,3.76277 14.35533,5.696012 5.5191,1.933242 14.82773,5.409126 20.68584,7.724189 12.18331,4.814713 34.14249,12.778739 42.56895,15.438648 3.14383,0.992389 7.15396,2.443081 8.91139,3.223758 9.7722,4.340952 54.6041,21.397659 79.0389,30.071067 8.12748,2.88494 15.43282,5.59621 16.2341,6.02503 2.06801,1.10678 1.8537,2.04193 -7.999,34.90314 -9.28887,30.98072 -14.84648,50.85336 -14.84648,53.08739 0,0.77708 0.45111,1.41287 1.00246,1.41287 1.29293,0 29.90486,-6.18413 45.50737,-9.83589 6.63919,-1.55389 12.8591,-2.93218 13.82202,-3.06286 2.03687,-0.27644 1.19959,-3.42562 11.07541,41.65674 8.07141,36.8454 28.23503,128.17492 30.2007,136.79171 1.55783,6.82896 1.50122,9.14529 -0.22265,9.10961 -0.50044,-0.0104 -5.06381,-1.40286 -10.14084,-3.09443 z"
   id="path67" /><path
   style="fill:#fdd2d8;fill-opacity:1;stroke-width:0.710074"
   d="m 279.76904,513.76723 c -21.08919,-6.91353 -41.21978,-13.4379 -44.73464,-14.4986 -3.51487,-1.06069 -23.80522,-7.80173 -45.08968,-14.98008 -21.28446,-7.17835 -44.13108,-14.80975 -50.77027,-16.95867 -13.12189,-4.24717 -24.68282,-8.83728 -24.35118,-9.6683 0.11477,-0.28759 7.39817,-7.02338 16.18533,-14.96843 8.78716,-7.94505 21.90106,-20.05384 29.14199,-26.90842 7.24093,-6.85457 26.09339,-24.15211 41.89435,-38.43898 31.60537,-28.57685 34.29482,-31.04722 57.91472,-53.1971 8.95388,-8.39662 21.47496,-19.84401 27.82462,-25.43863 l 11.54484,-10.17205 13.29735,4.41455 c 20.16172,6.69343 61.39779,20.9697 82.88459,28.69532 10.54459,3.79133 32.27285,11.52077 48.28501,17.17653 16.01216,5.65576 41.57481,14.7031 56.80589,20.1052 15.23109,5.40209 30.16627,10.57058 33.1893,11.48552 3.02304,0.91495 5.49942,1.84721 5.50308,2.0717 0.0293,1.80097 -46.38445,44.43128 -82.00687,75.32202 -12.88784,11.17596 -25.92615,22.91291 -28.97402,26.08213 -3.04788,3.16921 -8.63971,8.22788 -12.42629,11.24148 -3.78659,3.01361 -12.09675,9.89067 -18.46704,15.28235 -6.37028,5.39169 -11.86412,9.62891 -12.20853,9.41605 -0.34441,-0.21286 -3.25999,-4.13386 -6.47906,-8.71334 -17.98079,-25.57961 -31.98726,-44.89512 -32.55529,-44.89512 -0.35596,0 -1.45568,0.71895 -2.44383,1.59766 -1.38557,1.23212 -4.32532,8.74617 -12.8485,32.84091 -6.07852,17.18379 -11.43887,32.24069 -11.91188,33.45981 l -0.86001,2.21655 z"
   id="path68" /><path
   style="fill:#998c99;fill-opacity:1;stroke-width:0.502098"
   d="m 344.43918,566.9125 c -23.30718,-7.96884 -27.03808,-9.33676 -87.36504,-32.03269 -51.12229,-19.23296 -56.97815,-21.39103 -94.39441,-34.78709 -17.9578,-6.42939 -58.66905,-21.48803 -78.327277,-28.97239 -3.59,-1.3668 -7.763669,-2.82769 -9.274818,-3.24642 -7.781328,-2.15619 -9.617439,-4.62443 -11.112236,-14.93789 -0.523805,-3.61403 -1.647609,-10.07309 -2.497342,-14.35347 -0.849733,-4.28039 -1.730376,-8.91224 -1.956984,-10.29301 -0.803267,-4.89448 -1.150236,-6.72612 -4.803186,-25.35595 -5.857589,-29.87335 -11.663375,-61.61955 -17.308883,-94.64546 -6.241613,-36.51309 -7.976746,-46.20675 -13.301334,-74.31049 -6.606489,-34.86976 -6.948536,-36.96822 -6.141651,-37.67896 0.341883,-0.30115 2.881045,-2.58596 5.642584,-5.07735 8.505312,-7.67328 27.665461,-24.1818 36.904198,-31.79692 12.356756,-10.18517 34.668904,-29.01111 53.068219,-44.77645 8.61406,-7.3809 16.40913,-13.80322 17.32238,-14.27182 2.1783,-1.117715 7.42633,-5.500342 39.63001,-33.095017 14.82481,-12.703077 30.5276,-25.920806 34.89509,-29.372729 10.46866,-8.274097 17.9121,-14.496974 26.91152,-22.498635 8.19905,-7.2900272 8.68339,-7.627241 10.95491,-7.627241 0.87493,0 8.85432,2.355973 17.73196,5.235496 28.05981,9.101383 52.23008,16.849924 70.1167,22.478108 37.45605,11.785879 69.56783,22.21977 151.18859,49.124793 25.02333,8.24856 48.9734,16.053225 53.22236,17.343705 4.249,1.29047 7.77353,2.38501 7.83237,2.43229 0.58937,0.47382 10.18606,66.08664 10.18606,69.64239 0,1.1382 0.78127,7.06894 1.73616,13.17942 0.95484,6.11048 1.88236,12.69157 2.06106,14.62465 0.17875,1.93308 1.07082,8.14654 1.98243,13.80769 1.88478,11.70457 6.6397,46.36388 8.26599,60.25176 0.5983,5.10884 2.97468,23.52328 5.28087,40.92098 2.30618,17.39769 4.6689,35.47322 5.25038,40.16783 0.58153,4.69462 1.42586,9.83483 1.87634,11.42269 1.08348,3.81927 0.44542,5.97793 -2.73357,9.2479 -6.87568,7.0724 -48.70013,45.7532 -65.39379,60.47858 -6.76576,5.96804 -14.89975,13.32253 -18.07552,16.34329 -12.47442,11.86556 -48.90961,45.51767 -56.98812,52.63512 -4.69461,4.13609 -10.83212,9.66916 -13.63891,12.29563 -2.80678,2.62648 -8.08015,7.48673 -11.7186,10.80058 -3.63844,3.31385 -9.04326,8.28462 -12.0107,11.04615 -2.96745,2.76154 -10.11197,9.08798 -15.87673,14.05875 -5.76476,4.97077 -12.44598,11.01477 -14.84716,13.43112 -2.44694,2.46238 -4.77291,4.38185 -5.29209,4.36724 -0.50946,-0.0144 -9.06029,-2.80713 -19.00183,-6.20618 z M 325.8278,505.4871 c 7.40542,-20.84912 14.55004,-40.39412 16.03764,-43.87296 0.9436,-2.20667 3.18335,-4.95607 4.03736,-4.95607 0.68649,0 8.16347,10.11437 26.53884,35.9 6.69096,9.38924 12.50429,17.12772 12.91853,17.19661 0.41423,0.0689 3.60093,-2.19051 7.08156,-5.02096 18.22399,-14.81976 29.46195,-24.35871 35.34356,-30.00012 7.15029,-6.85829 14.61103,-13.58013 30.37908,-27.37044 24.30997,-21.26084 47.92999,-42.54857 65.77483,-59.2801 12.10035,-11.34543 15.74413,-15.08143 15.3427,-15.73095 -0.15068,-0.24385 0.0636,-0.57292 0.47624,-0.73127 0.51279,-0.19677 0.75029,-1.00762 0.75029,-2.5618 0,-1.25064 -4.73258,-23.68268 -10.5169,-49.84897 -5.78426,-26.1663 -14.04197,-63.61712 -18.35043,-83.22404 -12.12572,-55.18167 -11.31376,-51.96714 -13.12633,-51.96714 -0.68885,0 -7.6206,1.45297 -15.40388,3.22883 -20.65008,4.71159 -39.8973,8.85555 -42.63899,9.18027 -2.26593,0.26836 -2.39137,0.22026 -2.38986,-0.91643 0.003,-2.33945 4.43807,-18.26426 14.80662,-53.1668 9.76186,-32.86027 9.88562,-33.42307 7.66067,-34.83788 -0.62135,-0.39511 -7.23021,-2.91105 -14.68636,-5.59098 -20.30809,-7.299255 -51.75873,-19.139708 -69.28952,-26.085927 -8.56077,-3.392033 -20.64878,-7.917381 -26.86224,-10.056333 -6.21346,-2.138953 -17.28472,-6.146764 -24.6028,-8.906249 -7.31807,-2.759484 -19.51905,-7.328673 -27.11329,-10.153755 -7.59423,-2.825081 -15.50227,-5.882709 -17.57342,-6.794728 -4.91057,-2.162335 -13.21221,-4.953163 -24.02669,-8.077242 -8.17345,-2.361135 -8.78691,-2.468302 -9.91149,-1.731448 -4.26566,2.794967 -15.43997,12.871434 -27.31777,24.633879 -7.59423,7.52048 -16.62232,16.129196 -20.06242,19.130486 -10.89268,9.503243 -22.82811,20.551943 -25.49467,23.600571 -4.96705,5.678746 -17.64955,17.696966 -28.50236,27.009496 -4.93416,4.23388 -33.53632,31.69525 -43.30594,41.5787 -5.971168,6.04073 -7.154899,7.48473 -7.154899,8.72802 0,2.57546 8.610749,14.7104 29.345029,41.35533 9.05145,11.63171 15.65305,21.44561 14.92032,22.18046 -0.36999,0.37106 -17.67956,5.72571 -43.575246,13.47982 -9.423901,2.82187 -17.441351,5.32039 -17.816553,5.55228 -0.560613,0.34648 -0.200674,3.35624 2.019704,16.88853 1.486039,9.0568 4.145727,23.58415 5.91041,32.283 1.764684,8.69885 4.223663,21.57766 5.464397,28.61958 1.24073,7.04193 2.915131,16.30563 3.720888,20.58602 0.805756,4.28038 1.830131,10.49384 2.276396,13.80769 0.44626,3.31385 1.34024,8.96245 1.986621,12.55245 0.646381,3.59 1.415203,8.89968 1.708503,11.7993 0.29329,2.89962 2.36246,15.43951 4.59815,27.86644 5.68041,31.57412 5.83468,32.31746 7.0859,34.1435 1.38053,2.01475 6.89581,4.66941 17.52189,8.43377 15.20598,5.38682 186.64439,61.9803 188.04212,62.07455 0.29045,0.0196 3.87866,-9.39757 7.97381,-20.92699 z"
   id="path69" /></svg>
