<?xml version="1.0" encoding="UTF-8" standalone="no"?>
<svg
   version="1.1"
   id="Layer_1"
   x="0px"
   y="0px"
   width="100%"
   viewBox="0 0 600 578"
   enable-background="new 0 0 600 578"
   xml:space="preserve"
   sodipodi:docname="pf.svg"
   inkscape:version="1.3.2 (091e20ef0f, 2023-11-25, custom)"
   inkscape:export-filename="pf.svg"
   inkscape:export-xdpi="96"
   inkscape:export-ydpi="96"
   xmlns:inkscape="http://www.inkscape.org/namespaces/inkscape"
   xmlns:sodipodi="http://sodipodi.sourceforge.net/DTD/sodipodi-0.dtd"
   xmlns="http://www.w3.org/2000/svg"
   xmlns:svg="http://www.w3.org/2000/svg"><defs
   id="defs62" /><sodipodi:namedview
   id="namedview62"
   pagecolor="#ffffff"
   bordercolor="#000000"
   borderopacity="0.25"
   inkscape:showpageshadow="2"
   inkscape:pageopacity="0.0"
   inkscape:pagecheckerboard="0"
   inkscape:deskcolor="#d1d1d1"
   showgrid="false"
   inkscape:zoom="1.4083045"
   inkscape:cx="444.15111"
   inkscape:cy="262.72728"
   inkscape:window-width="1920"
   inkscape:window-height="1011"
   inkscape:window-x="0"
   inkscape:window-y="0"
   inkscape:window-maximized="1"
   inkscape:current-layer="Layer_1" />
<path
   fill="#000000"
   opacity="1.000000"
   stroke="none"
   d=" M1.000000,215.000000   C1.000000,143.333359 1.000000,72.166710 1.000000,1.000048   C200.999924,1.000032 400.999847,1.000032 600.999817,1.000016   C600.999878,193.666519 600.999878,386.333038 600.999939,578.999634   C401.000183,578.999756 201.000397,578.999756 1.000297,578.999878   C1.000000,457.833344 1.000000,336.666656 1.000000,215.000000  M422.497437,520.850952   C422.663239,520.569824 422.829010,520.288696 423.002441,520.002441   C423.002441,520.002441 423.006897,519.994568 423.610626,519.751770   C425.086395,518.172974 426.562164,516.594238 428.658539,514.752869   C434.383148,509.690918 440.195679,504.724457 445.815033,499.548218   C459.924194,486.551453 473.953033,473.467407 487.999115,460.402283   C492.909790,455.834595 497.692383,451.125977 502.682129,446.647339   C511.390411,438.830994 520.319824,431.259094 528.961731,423.371368   C539.471069,413.779205 549.782288,403.969971 560.172424,394.247467   C565.424927,389.332428 570.548157,384.271332 575.946411,379.522491   C579.668823,376.247955 582.192200,372.973480 580.060059,367.658142   C579.228760,365.585785 579.274475,363.153351 578.973816,360.877869   C577.253967,347.861572 575.580200,334.839142 573.833191,321.826508   C571.870178,307.204590 569.846008,292.590912 567.981689,277.152100   C567.678894,275.089508 567.376099,273.026947 567.015808,270.293793   C566.950439,269.852081 566.885132,269.410370 566.945496,268.118011   C566.943909,267.618530 567.000549,267.110962 566.932434,266.620728   C564.924255,252.161072 562.950806,237.696304 560.860657,223.248444   C560.072449,217.800201 559.009399,212.391754 558.015198,206.295090   C557.951538,205.853363 557.887878,205.411621 557.952759,204.119400   C557.620544,201.395874 557.356445,198.661926 556.942078,195.950958   C556.024780,189.949783 555.031982,183.960144 554.013794,177.294632   C553.948669,176.852509 553.883545,176.410385 553.945007,175.121796   C553.935120,174.292496 554.016113,173.450424 553.901794,172.635773   C551.926880,158.563141 550.001343,144.482925 547.906860,130.427948   C546.632874,121.878532 545.090027,113.369164 543.696960,104.116447   C538.803894,102.653572 533.878662,101.289154 529.024231,99.707802   C518.122498,96.156525 507.263336,92.474762 496.373291,88.887199   C474.269073,81.605270 452.172546,74.299263 430.040497,67.102745   C415.382904,62.336624 400.669037,57.743519 385.507019,52.485832   C384.099884,52.063633 382.685760,51.663311 381.286743,51.215748   C370.864136,47.881428 360.444550,44.537743 349.327148,40.900787   C333.194336,35.942554 317.061493,30.984320 300.555786,25.388470   C282.494934,19.616989 264.393707,13.966625 246.407700,7.970665   C242.859863,6.787926 240.570847,7.489334 238.031830,9.831948   C232.581604,14.860600 227.041855,19.801497 221.372391,24.580957   C214.241150,30.592747 206.943558,36.407230 199.092941,42.654419   C198.161652,43.320442 197.173401,43.920055 196.307632,44.662491   C184.437683,54.841385 172.583618,65.038803 160.727768,75.234123   C151.509399,83.161362 142.294006,91.092049 132.413834,99.258949   C130.870514,100.173004 129.153061,100.883636 127.810829,102.032616   C114.598244,113.342865 101.448006,124.725952 87.639496,136.349380   C76.092224,146.070099 64.544945,155.790817 52.371693,165.642395   C51.636002,166.313004 50.917339,167.003448 50.162056,167.651199   C39.191750,177.059464 28.216537,186.461990 17.053429,196.722946   C17.710045,200.754898 18.281059,204.802994 19.038111,208.816010   C22.307083,226.144379 25.691797,243.451126 28.910328,260.788757   C30.730574,270.594055 32.300266,280.445770 34.001038,290.273407   C36.062397,302.184662 38.142998,314.092590 40.090641,326.676636   C40.144081,327.128448 40.197525,327.580261 40.187733,328.523163   C40.366901,328.826569 40.628914,329.014465 41.009525,329.934570   C42.219021,337.003479 43.364578,344.084015 44.651779,351.138763   C47.079777,364.445862 49.528996,377.749634 52.085083,391.032562   C53.951633,400.732178 56.003544,410.396149 58.008541,420.869690   C58.087345,421.923035 58.166149,422.976379 58.190201,424.520660   C58.369892,424.822601 58.631699,425.009521 59.003914,425.908966   C59.087914,427.283112 59.171909,428.657257 59.196972,430.519012   C59.375561,430.818604 59.635201,431.005737 60.010826,431.910004   C61.438351,440.088928 63.269253,448.223694 64.171051,456.460175   C64.950714,463.581146 68.678444,466.951324 75.319374,468.119019   C77.048424,468.423004 78.653923,469.399384 80.333488,470.020081   C91.888100,474.290039 103.447311,478.547607 115.667526,483.140045   C120.842422,485.107269 125.993469,487.140167 131.196686,489.029388   C146.670792,494.647675 162.150772,500.250458 177.657059,505.779144   C188.405838,509.611542 199.201935,513.311340 210.372803,517.689026   C224.863876,523.122009 239.355286,528.554016 253.845947,533.988098   C275.566040,542.133179 297.231567,550.427612 319.024109,558.373962   C333.728699,563.735779 348.608978,568.616272 363.430969,573.652344   C363.835480,573.789795 364.473083,573.241211 365.636932,572.730774   C366.878815,571.233643 367.962769,569.562500 369.389038,568.268616   C376.889587,561.464600 384.476624,554.755920 392.623505,547.778625   C393.426636,547.101135 394.229767,546.423706 395.510864,545.805481   C395.820984,545.629944 395.976807,545.364014 396.007324,545.007324   C396.007324,545.007324 396.008087,544.978210 396.495636,544.851685   C396.656647,544.570496 396.817688,544.289368 397.007233,544.007507   C397.007233,544.007507 397.007904,543.978943 397.496552,543.850769   C397.661163,543.569580 397.825775,543.288452 398.002808,543.002441   C398.002808,543.002441 398.007172,542.990173 398.491760,542.847290   C398.658447,542.566589 398.825104,542.285828 399.001221,542.002441   C399.001221,542.002441 399.003723,541.992615 399.599976,541.762451   C400.741730,540.514343 401.883453,539.266296 402.998779,538.000000   C402.998779,538.000000 403.014954,538.028015 403.507568,537.869507   C403.683716,537.583679 403.859833,537.297913 404.625488,536.776978   C405.427948,536.100098 406.230408,535.423218 407.510834,534.805481   C407.821045,534.629944 407.976562,534.363892 408.007538,534.007446   C408.007538,534.007446 408.008026,533.977295 408.495667,533.851440   C408.656311,533.570251 408.816956,533.289062 409.007446,533.007690   C409.007446,533.007690 409.007690,532.977783 409.496887,532.850586   C409.664185,532.570068 409.831451,532.289551 410.001221,532.001526   C410.001221,532.001526 410.009247,531.998230 410.492188,531.848633   C410.659760,531.567871 410.827362,531.287170 411.001282,531.002014   C411.001282,531.002014 411.006104,530.994995 411.490295,530.847229   C411.659454,530.566711 411.828644,530.286133 412.001221,530.000000   C412.001221,530.000000 412.006042,529.997437 412.489655,529.847229   C412.658722,529.566589 412.827789,529.285889 413.001221,529.000000   C413.001221,529.000000 413.005280,528.996582 413.490570,528.846741   C413.666534,528.567688 413.842499,528.288635 414.503418,527.872192   C414.673553,527.594177 414.843658,527.316162 415.507660,526.874634   C415.685028,526.587524 415.862396,526.300354 416.628693,525.777771   C417.430084,525.100769 418.231476,524.423767 419.510864,523.805786   C419.821136,523.630310 419.976776,523.364319 420.007660,523.007446   C420.007660,523.007446 420.008514,522.977600 420.495911,522.851685   C420.657013,522.570740 420.818115,522.289856 421.007446,522.007812   C421.007446,522.007812 421.008759,521.979553 421.495911,521.851807   C421.657501,521.570862 421.819122,521.289917 422.007141,521.007263   C422.007141,521.007263 422.008881,520.980774 422.497437,520.850952  z"
   id="path1" />























































<path
   fill="#B38B91"
   opacity="1.000000"
   stroke="none"
   d=" M344.448914,454.539612   C344.415192,454.482758 344.482635,454.596436 344.448914,454.539612  z"
   id="path57" />
<path
   fill="#AD909D"
   opacity="1.000000"
   stroke="none"
   d=" M437.985229,196.981262   C437.885315,197.014725 437.798706,197.063431 437.870972,197.067047   C438.029785,197.021988 437.998566,196.996475 437.985229,196.981262  z"
   id="path58" />




<path
   style="fill:#998c99;fill-opacity:1;stroke:#000000;stroke-width:0.710074"
   d=""
   id="path78" /><path
   style="fill:#998c99;fill-opacity:1;stroke:#000000;stroke-width:0.710074"
   d=""
   id="path79" /><path
   style="fill:#fdd2d8;fill-opacity:1;stroke-width:0.710074"
   d="m 529.00491,368.61033 c -5.07702,-1.69158 -17.85835,-6.19311 -28.40295,-10.00341 -10.54459,-3.8103 -30.03611,-10.68733 -43.31449,-15.28231 -13.27838,-4.59497 -39.32033,-13.8762 -57.87101,-20.62495 -18.55067,-6.74876 -48.73337,-17.28271 -67.07265,-23.40878 l -33.34416,-11.13832 -1.64176,-9.51731 C 293.92993,258.76343 269.14447,134.05905 260.60722,93.72973 257.99448,81.387341 249.41331,37.851709 248.55425,32.580278 l -0.47642,-2.923408 13.2065,3.812725 c 7.26357,2.096998 15.15076,4.794187 17.52708,5.993751 2.37632,1.199565 8.83622,3.76277 14.35533,5.696012 5.5191,1.933242 14.82773,5.409126 20.68584,7.724189 12.18331,4.814713 34.14249,12.778739 42.56895,15.438648 3.14383,0.992389 7.15396,2.443081 8.91139,3.223758 9.7722,4.340952 54.6041,21.397659 79.0389,30.071067 8.12748,2.88494 15.43282,5.59621 16.2341,6.02503 2.06801,1.10678 1.8537,2.04193 -7.999,34.90314 -9.28887,30.98072 -14.84648,50.85336 -14.84648,53.08739 0,0.77708 0.45111,1.41287 1.00246,1.41287 1.29293,0 29.90486,-6.18413 45.50737,-9.83589 6.63919,-1.55389 12.8591,-2.93218 13.82202,-3.06286 2.03687,-0.27644 1.19959,-3.42562 11.07541,41.65674 8.07141,36.8454 28.23503,128.17492 30.2007,136.79171 1.55783,6.82896 1.50122,9.14529 -0.22265,9.10961 -0.50044,-0.0104 -5.06381,-1.40286 -10.14084,-3.09443 z"
   id="path67" /><path
   style="fill:#fdd2d8;fill-opacity:1;stroke-width:0.710074"
   d="m 279.76904,513.76723 c -21.08919,-6.91353 -41.21978,-13.4379 -44.73464,-14.4986 -3.51487,-1.06069 -23.80522,-7.80173 -45.08968,-14.98008 -21.28446,-7.17835 -44.13108,-14.80975 -50.77027,-16.95867 -13.12189,-4.24717 -24.68282,-8.83728 -24.35118,-9.6683 0.11477,-0.28759 7.39817,-7.02338 16.18533,-14.96843 8.78716,-7.94505 21.90106,-20.05384 29.14199,-26.90842 7.24093,-6.85457 26.09339,-24.15211 41.89435,-38.43898 31.60537,-28.57685 34.29482,-31.04722 57.91472,-53.1971 8.95388,-8.39662 21.47496,-19.84401 27.82462,-25.43863 l 11.54484,-10.17205 13.29735,4.41455 c 20.16172,6.69343 61.39779,20.9697 82.88459,28.69532 10.54459,3.79133 32.27285,11.52077 48.28501,17.17653 16.01216,5.65576 41.57481,14.7031 56.80589,20.1052 15.23109,5.40209 30.16627,10.57058 33.1893,11.48552 3.02304,0.91495 5.49942,1.84721 5.50308,2.0717 0.0293,1.80097 -46.38445,44.43128 -82.00687,75.32202 -12.88784,11.17596 -25.92615,22.91291 -28.97402,26.08213 -3.04788,3.16921 -8.63971,8.22788 -12.42629,11.24148 -3.78659,3.01361 -12.09675,9.89067 -18.46704,15.28235 -6.37028,5.39169 -11.86412,9.62891 -12.20853,9.41605 -0.34441,-0.21286 -3.25999,-4.13386 -6.47906,-8.71334 -17.98079,-25.57961 -31.98726,-44.89512 -32.55529,-44.89512 -0.35596,0 -1.45568,0.71895 -2.44383,1.59766 -1.38557,1.23212 -4.32532,8.74617 -12.8485,32.84091 -6.07852,17.18379 -11.43887,32.24069 -11.91188,33.45981 l -0.86001,2.21655 z"
   id="path68" /><path
   style="fill:#998c99;fill-opacity:1;stroke-width:0.502098"
   d="m 344.43918,566.9125 c -23.30718,-7.96884 -27.03808,-9.33676 -87.36504,-32.03269 -51.12229,-19.23296 -56.97815,-21.39103 -94.39441,-34.78709 -17.9578,-6.42939 -58.66905,-21.48803 -78.327277,-28.97239 -3.59,-1.3668 -7.763669,-2.82769 -9.274818,-3.24642 -7.781328,-2.15619 -9.617439,-4.62443 -11.112236,-14.93789 -0.523805,-3.61403 -1.647609,-10.07309 -2.497342,-14.35347 -0.849733,-4.28039 -1.730376,-8.91224 -1.956984,-10.29301 -0.803267,-4.89448 -1.150236,-6.72612 -4.803186,-25.35595 -5.857589,-29.87335 -11.663375,-61.61955 -17.308883,-94.64546 -6.241613,-36.51309 -7.976746,-46.20675 -13.301334,-74.31049 -6.606489,-34.86976 -6.948536,-36.96822 -6.141651,-37.67896 0.341883,-0.30115 2.881045,-2.58596 5.642584,-5.07735 8.505312,-7.67328 27.665461,-24.1818 36.904198,-31.79692 12.356756,-10.18517 34.668904,-29.01111 53.068219,-44.77645 8.61406,-7.3809 16.40913,-13.80322 17.32238,-14.27182 2.1783,-1.117715 7.42633,-5.500342 39.63001,-33.095017 14.82481,-12.703077 30.5276,-25.920806 34.89509,-29.372729 10.46866,-8.274097 17.9121,-14.496974 26.91152,-22.498635 8.19905,-7.2900272 8.68339,-7.627241 10.95491,-7.627241 0.87493,0 8.85432,2.355973 17.73196,5.235496 28.05981,9.101383 52.23008,16.849924 70.1167,22.478108 37.45605,11.785879 69.56783,22.21977 151.18859,49.124793 25.02333,8.24856 48.9734,16.053225 53.22236,17.343705 4.249,1.29047 7.77353,2.38501 7.83237,2.43229 0.58937,0.47382 10.18606,66.08664 10.18606,69.64239 0,1.1382 0.78127,7.06894 1.73616,13.17942 0.95484,6.11048 1.88236,12.69157 2.06106,14.62465 0.17875,1.93308 1.07082,8.14654 1.98243,13.80769 1.88478,11.70457 6.6397,46.36388 8.26599,60.25176 0.5983,5.10884 2.97468,23.52328 5.28087,40.92098 2.30618,17.39769 4.6689,35.47322 5.25038,40.16783 0.58153,4.69462 1.42586,9.83483 1.87634,11.42269 1.08348,3.81927 0.44542,5.97793 -2.73357,9.2479 -6.87568,7.0724 -48.70013,45.7532 -65.39379,60.47858 -6.76576,5.96804 -14.89975,13.32253 -18.07552,16.34329 -12.47442,11.86556 -48.90961,45.51767 -56.98812,52.63512 -4.69461,4.13609 -10.83212,9.66916 -13.63891,12.29563 -2.80678,2.62648 -8.08015,7.48673 -11.7186,10.80058 -3.63844,3.31385 -9.04326,8.28462 -12.0107,11.04615 -2.96745,2.76154 -10.11197,9.08798 -15.87673,14.05875 -5.76476,4.97077 -12.44598,11.01477 -14.84716,13.43112 -2.44694,2.46238 -4.77291,4.38185 -5.29209,4.36724 -0.50946,-0.0144 -9.06029,-2.80713 -19.00183,-6.20618 z M 325.8278,505.4871 c 7.40542,-20.84912 14.55004,-40.39412 16.03764,-43.87296 0.9436,-2.20667 3.18335,-4.95607 4.03736,-4.95607 0.68649,0 8.16347,10.11437 26.53884,35.9 6.69096,9.38924 12.50429,17.12772 12.91853,17.19661 0.41423,0.0689 3.60093,-2.19051 7.08156,-5.02096 18.22399,-14.81976 29.46195,-24.35871 35.34356,-30.00012 7.15029,-6.85829 14.61103,-13.58013 30.37908,-27.37044 24.30997,-21.26084 47.92999,-42.54857 65.77483,-59.2801 12.10035,-11.34543 15.74413,-15.08143 15.3427,-15.73095 -0.15068,-0.24385 0.0636,-0.57292 0.47624,-0.73127 0.51279,-0.19677 0.75029,-1.00762 0.75029,-2.5618 0,-1.25064 -4.73258,-23.68268 -10.5169,-49.84897 -5.78426,-26.1663 -14.04197,-63.61712 -18.35043,-83.22404 -12.12572,-55.18167 -11.31376,-51.96714 -13.12633,-51.96714 -0.68885,0 -7.6206,1.45297 -15.40388,3.22883 -20.65008,4.71159 -39.8973,8.85555 -42.63899,9.18027 -2.26593,0.26836 -2.39137,0.22026 -2.38986,-0.91643 0.003,-2.33945 4.43807,-18.26426 14.80662,-53.1668 9.76186,-32.86027 9.88562,-33.42307 7.66067,-34.83788 -0.62135,-0.39511 -7.23021,-2.91105 -14.68636,-5.59098 -20.30809,-7.299255 -51.75873,-19.139708 -69.28952,-26.085927 -8.56077,-3.392033 -20.64878,-7.917381 -26.86224,-10.056333 -6.21346,-2.138953 -17.28472,-6.146764 -24.6028,-8.906249 -7.31807,-2.759484 -19.51905,-7.328673 -27.11329,-10.153755 -7.59423,-2.825081 -15.50227,-5.882709 -17.57342,-6.794728 -4.91057,-2.162335 -13.21221,-4.953163 -24.02669,-8.077242 -8.17345,-2.361135 -8.78691,-2.468302 -9.91149,-1.731448 -4.26566,2.794967 -15.43997,12.871434 -27.31777,24.633879 -7.59423,7.52048 -16.62232,16.129196 -20.06242,19.130486 -10.89268,9.503243 -22.82811,20.551943 -25.49467,23.600571 -4.96705,5.678746 -17.64955,17.696966 -28.50236,27.009496 -4.93416,4.23388 -33.53632,31.69525 -43.30594,41.5787 -5.971168,6.04073 -7.154899,7.48473 -7.154899,8.72802 0,2.57546 8.610749,14.7104 29.345029,41.35533 9.05145,11.63171 15.65305,21.44561 14.92032,22.18046 -0.36999,0.37106 -17.67956,5.72571 -43.575246,13.47982 -9.423901,2.82187 -17.441351,5.32039 -17.816553,5.55228 -0.560613,0.34648 -0.200674,3.35624 2.019704,16.88853 1.486039,9.0568 4.145727,23.58415 5.91041,32.283 1.764684,8.69885 4.223663,21.57766 5.464397,28.61958 1.24073,7.04193 2.915131,16.30563 3.720888,20.58602 0.805756,4.28038 1.830131,10.49384 2.276396,13.80769 0.44626,3.31385 1.34024,8.96245 1.986621,12.55245 0.646381,3.59 1.415203,8.89968 1.708503,11.7993 0.29329,2.89962 2.36246,15.43951 4.59815,27.86644 5.68041,31.57412 5.83468,32.31746 7.0859,34.1435 1.38053,2.01475 6.89581,4.66941 17.52189,8.43377 15.20598,5.38682 186.64439,61.9803 188.04212,62.07455 0.29045,0.0196 3.87866,-9.39757 7.97381,-20.92699 z"
   id="path69" /><path
   style="fill:#fdd2d8;fill-opacity:1;stroke:#000000;stroke-width:0.502098"
   d="m 113.25814,456.44434 c -0.60574,-0.64477 -1.41823,-2.22525 -1.80553,-3.51217 -1.2564,-4.17468 -8.41849,-44.10866 -10.49803,-58.53424 -3.753042,-26.03462 -7.952945,-50.32169 -14.847337,-85.85875 -3.81943,-19.6872 -7.776132,-42.38955 -8.31718,-47.72143 l -0.33342,-3.28577 24.536017,-7.43576 c 32.83641,-9.95122 37.33952,-11.41992 37.33952,-12.17839 0,-1.16866 -8.86758,-13.84393 -17.861,-25.5304 -20.03612,-26.03588 -26.323296,-35.01339 -26.324131,-37.58843 -4.52e-4,-1.39331 1.492598,-3.05481 12.929021,-14.38776 16.60598,-16.45572 31.18018,-30.29786 42.54701,-40.40983 4.96676,-4.41846 14.11728,-13.12087 20.33448,-19.33868 6.2172,-6.217806 16.83962,-16.296328 23.60539,-22.396709 6.76577,-6.100382 17.65615,-16.299498 24.20083,-22.6647 16.95855,-16.493469 28.06869,-26.344626 28.84075,-25.572561 0.14294,0.142935 1.26553,5.532946 2.49466,11.977801 1.22912,6.444855 4.50235,22.90215 7.27385,36.571767 21.5095,106.089412 34.08326,169.282292 38.8434,195.218192 l 2.70053,14.71397 -2.09274,1.89317 c -1.151,1.04125 -5.36893,4.79999 -9.37316,8.35277 -8.55904,7.59405 -20.08691,18.1858 -37.05685,34.04763 -6.74413,6.30376 -27.04114,24.89907 -45.10446,41.32291 -18.06332,16.42385 -38.0963,34.76442 -44.51774,40.75681 -11.81264,11.02339 -22.87273,21.22354 -38.06849,35.10858 l -8.34404,7.62431 z"
   id="path2" /></svg>
