<svg version="1.1" id="Layer_1" xmlns="http://www.w3.org/2000/svg" xmlns:xlink="http://www.w3.org/1999/xlink" x="0px" y="0px"
	 width="100%" viewBox="0 0 600 578" enable-background="new 0 0 600 578" xml:space="preserve">
<path fill="#000000" opacity="1.000000" stroke="none" 
	d="
M1.000000,215.000000 
	C1.000000,143.333359 1.000000,72.166710 1.000000,1.000048 
	C200.999924,1.000032 400.999847,1.000032 600.999817,1.000016 
	C600.999878,193.666519 600.999878,386.333038 600.999939,578.999634 
	C401.000183,578.999756 201.000397,578.999756 1.000297,578.999878 
	C1.000000,457.833344 1.000000,336.666656 1.000000,215.000000 
M422.497437,520.850952 
	C422.663239,520.569824 422.829010,520.288696 423.002441,520.002441 
	C423.002441,520.002441 423.006897,519.994568 423.610626,519.751770 
	C425.086395,518.172974 426.562164,516.594238 428.658539,514.752869 
	C434.383148,509.690918 440.195679,504.724457 445.815033,499.548218 
	C459.924194,486.551453 473.953033,473.467407 487.999115,460.402283 
	C492.909790,455.834595 497.692383,451.125977 502.682129,446.647339 
	C511.390411,438.830994 520.319824,431.259094 528.961731,423.371368 
	C539.471069,413.779205 549.782288,403.969971 560.172424,394.247467 
	C565.424927,389.332428 570.548157,384.271332 575.946411,379.522491 
	C579.668823,376.247955 582.192200,372.973480 580.060059,367.658142 
	C579.228760,365.585785 579.274475,363.153351 578.973816,360.877869 
	C577.253967,347.861572 575.580200,334.839142 573.833191,321.826508 
	C571.870178,307.204590 569.846008,292.590912 567.981689,277.152100 
	C567.678894,275.089508 567.376099,273.026947 567.015808,270.293793 
	C566.950439,269.852081 566.885132,269.410370 566.945496,268.118011 
	C566.943909,267.618530 567.000549,267.110962 566.932434,266.620728 
	C564.924255,252.161072 562.950806,237.696304 560.860657,223.248444 
	C560.072449,217.800201 559.009399,212.391754 558.015198,206.295090 
	C557.951538,205.853363 557.887878,205.411621 557.952759,204.119400 
	C557.620544,201.395874 557.356445,198.661926 556.942078,195.950958 
	C556.024780,189.949783 555.031982,183.960144 554.013794,177.294632 
	C553.948669,176.852509 553.883545,176.410385 553.945007,175.121796 
	C553.935120,174.292496 554.016113,173.450424 553.901794,172.635773 
	C551.926880,158.563141 550.001343,144.482925 547.906860,130.427948 
	C546.632874,121.878532 545.090027,113.369164 543.696960,104.116447 
	C538.803894,102.653572 533.878662,101.289154 529.024231,99.707802 
	C518.122498,96.156525 507.263336,92.474762 496.373291,88.887199 
	C474.269073,81.605270 452.172546,74.299263 430.040497,67.102745 
	C415.382904,62.336624 400.669037,57.743519 385.507019,52.485832 
	C384.099884,52.063633 382.685760,51.663311 381.286743,51.215748 
	C370.864136,47.881428 360.444550,44.537743 349.327148,40.900787 
	C333.194336,35.942554 317.061493,30.984320 300.555786,25.388470 
	C282.494934,19.616989 264.393707,13.966625 246.407700,7.970665 
	C242.859863,6.787926 240.570847,7.489334 238.031830,9.831948 
	C232.581604,14.860600 227.041855,19.801497 221.372391,24.580957 
	C214.241150,30.592747 206.943558,36.407230 199.092941,42.654419 
	C198.161652,43.320442 197.173401,43.920055 196.307632,44.662491 
	C184.437683,54.841385 172.583618,65.038803 160.727768,75.234123 
	C151.509399,83.161362 142.294006,91.092049 132.413834,99.258949 
	C130.870514,100.173004 129.153061,100.883636 127.810829,102.032616 
	C114.598244,113.342865 101.448006,124.725952 87.639496,136.349380 
	C76.092224,146.070099 64.544945,155.790817 52.371693,165.642395 
	C51.636002,166.313004 50.917339,167.003448 50.162056,167.651199 
	C39.191750,177.059464 28.216537,186.461990 17.053429,196.722946 
	C17.710045,200.754898 18.281059,204.802994 19.038111,208.816010 
	C22.307083,226.144379 25.691797,243.451126 28.910328,260.788757 
	C30.730574,270.594055 32.300266,280.445770 34.001038,290.273407 
	C36.062397,302.184662 38.142998,314.092590 40.090641,326.676636 
	C40.144081,327.128448 40.197525,327.580261 40.187733,328.523163 
	C40.366901,328.826569 40.628914,329.014465 41.009525,329.934570 
	C42.219021,337.003479 43.364578,344.084015 44.651779,351.138763 
	C47.079777,364.445862 49.528996,377.749634 52.085083,391.032562 
	C53.951633,400.732178 56.003544,410.396149 58.008541,420.869690 
	C58.087345,421.923035 58.166149,422.976379 58.190201,424.520660 
	C58.369892,424.822601 58.631699,425.009521 59.003914,425.908966 
	C59.087914,427.283112 59.171909,428.657257 59.196972,430.519012 
	C59.375561,430.818604 59.635201,431.005737 60.010826,431.910004 
	C61.438351,440.088928 63.269253,448.223694 64.171051,456.460175 
	C64.950714,463.581146 68.678444,466.951324 75.319374,468.119019 
	C77.048424,468.423004 78.653923,469.399384 80.333488,470.020081 
	C91.888100,474.290039 103.447311,478.547607 115.667526,483.140045 
	C120.842422,485.107269 125.993469,487.140167 131.196686,489.029388 
	C146.670792,494.647675 162.150772,500.250458 177.657059,505.779144 
	C188.405838,509.611542 199.201935,513.311340 210.372803,517.689026 
	C224.863876,523.122009 239.355286,528.554016 253.845947,533.988098 
	C275.566040,542.133179 297.231567,550.427612 319.024109,558.373962 
	C333.728699,563.735779 348.608978,568.616272 363.430969,573.652344 
	C363.835480,573.789795 364.473083,573.241211 365.636932,572.730774 
	C366.878815,571.233643 367.962769,569.562500 369.389038,568.268616 
	C376.889587,561.464600 384.476624,554.755920 392.623505,547.778625 
	C393.426636,547.101135 394.229767,546.423706 395.510864,545.805481 
	C395.820984,545.629944 395.976807,545.364014 396.007324,545.007324 
	C396.007324,545.007324 396.008087,544.978210 396.495636,544.851685 
	C396.656647,544.570496 396.817688,544.289368 397.007233,544.007507 
	C397.007233,544.007507 397.007904,543.978943 397.496552,543.850769 
	C397.661163,543.569580 397.825775,543.288452 398.002808,543.002441 
	C398.002808,543.002441 398.007172,542.990173 398.491760,542.847290 
	C398.658447,542.566589 398.825104,542.285828 399.001221,542.002441 
	C399.001221,542.002441 399.003723,541.992615 399.599976,541.762451 
	C400.741730,540.514343 401.883453,539.266296 402.998779,538.000000 
	C402.998779,538.000000 403.014954,538.028015 403.507568,537.869507 
	C403.683716,537.583679 403.859833,537.297913 404.625488,536.776978 
	C405.427948,536.100098 406.230408,535.423218 407.510834,534.805481 
	C407.821045,534.629944 407.976562,534.363892 408.007538,534.007446 
	C408.007538,534.007446 408.008026,533.977295 408.495667,533.851440 
	C408.656311,533.570251 408.816956,533.289062 409.007446,533.007690 
	C409.007446,533.007690 409.007690,532.977783 409.496887,532.850586 
	C409.664185,532.570068 409.831451,532.289551 410.001221,532.001526 
	C410.001221,532.001526 410.009247,531.998230 410.492188,531.848633 
	C410.659760,531.567871 410.827362,531.287170 411.001282,531.002014 
	C411.001282,531.002014 411.006104,530.994995 411.490295,530.847229 
	C411.659454,530.566711 411.828644,530.286133 412.001221,530.000000 
	C412.001221,530.000000 412.006042,529.997437 412.489655,529.847229 
	C412.658722,529.566589 412.827789,529.285889 413.001221,529.000000 
	C413.001221,529.000000 413.005280,528.996582 413.490570,528.846741 
	C413.666534,528.567688 413.842499,528.288635 414.503418,527.872192 
	C414.673553,527.594177 414.843658,527.316162 415.507660,526.874634 
	C415.685028,526.587524 415.862396,526.300354 416.628693,525.777771 
	C417.430084,525.100769 418.231476,524.423767 419.510864,523.805786 
	C419.821136,523.630310 419.976776,523.364319 420.007660,523.007446 
	C420.007660,523.007446 420.008514,522.977600 420.495911,522.851685 
	C420.657013,522.570740 420.818115,522.289856 421.007446,522.007812 
	C421.007446,522.007812 421.008759,521.979553 421.495911,521.851807 
	C421.657501,521.570862 421.819122,521.289917 422.007141,521.007263 
	C422.007141,521.007263 422.008881,520.980774 422.497437,520.850952 
z"/>
<path fill="#B1909B" opacity="1.000000" stroke="none" 
	d="
M419.032837,523.746826 
	C418.231476,524.423767 417.430084,525.100769 416.106750,526.002930 
	C415.394501,526.498169 415.204163,526.768127 415.013794,527.038147 
	C414.843658,527.316162 414.673553,527.594177 414.039581,528.045166 
	C413.298737,528.413879 413.108582,528.673401 413.005280,528.996582 
	C413.005280,528.996582 413.001221,529.000000 412.781738,529.109802 
	C412.291077,529.417542 412.105682,529.676819 412.006042,529.997437 
	C412.006042,529.997437 412.001221,530.000000 411.782166,530.109497 
	C411.291748,530.416138 411.106079,530.674805 411.006104,530.994995 
	C411.006104,530.994995 411.001282,531.002014 410.781311,531.111206 
	C410.290833,531.418335 410.106812,531.677612 410.009247,531.998230 
	C410.009247,531.998230 410.001221,532.001526 409.783783,532.108521 
	C409.295502,532.407654 409.109283,532.661682 409.007690,532.977783 
	C409.007690,532.977783 409.007446,533.007690 408.780273,533.112732 
	C408.288208,533.411194 408.106506,533.664368 408.008026,533.977295 
	C408.008026,533.977295 408.007538,534.007446 407.800110,534.080872 
	C407.345337,534.294189 407.158722,534.491516 407.032898,534.746338 
	C406.230408,535.423218 405.427948,536.100098 404.104736,537.000977 
	C403.301331,537.426758 403.111664,537.694458 403.014954,538.028015 
	C403.014954,538.028015 402.998779,538.000000 402.634186,538.008911 
	C401.180969,539.342712 400.092316,540.667664 399.003723,541.992615 
	C399.003723,541.992615 399.001221,542.002441 398.780701,542.110352 
	C398.290863,542.414551 398.106506,542.671875 398.007172,542.990173 
	C398.007172,542.990173 398.002808,543.002441 397.781921,543.109375 
	C397.292358,543.409363 397.108002,543.663574 397.007904,543.978943 
	C397.007904,543.978943 397.007233,544.007507 396.780457,544.112793 
	C396.288269,544.411499 396.106415,544.664856 396.008087,544.978210 
	C396.008087,544.978210 396.007324,545.007324 395.800293,545.080811 
	C395.345612,545.294006 395.158813,545.491272 395.032898,545.746216 
	C394.229767,546.423706 393.426636,547.101135 391.941162,547.892395 
	C389.786835,548.584412 387.332642,548.826965 387.001740,549.795227 
	C384.803192,556.228271 378.710571,553.564026 374.054138,556.348450 
	C374.521271,554.658630 374.540710,553.798584 374.952881,553.216736 
	C380.481049,545.412781 386.235718,537.763611 391.585724,529.840637 
	C397.069122,521.720154 402.638489,513.591370 407.240326,504.969849 
	C409.544098,500.653687 411.068970,496.188416 414.690887,492.479889 
	C417.796875,489.299652 419.605438,484.852234 422.121307,480.689880 
	C423.160950,479.605347 424.067047,478.796143 425.346893,477.983704 
	C426.479614,476.985016 427.238617,475.989624 428.148193,474.691833 
	C430.978638,471.718292 433.513733,468.880585 436.362854,466.404175 
	C450.214874,454.364288 464.257812,442.542267 478.023773,430.405640 
	C489.178986,420.570740 500.034882,410.396393 511.027649,400.377136 
	C517.019531,394.915894 523.020020,389.463959 529.324341,383.869232 
	C533.154114,380.042542 536.676147,376.354462 540.531982,372.660889 
	C541.098572,371.860077 541.671082,370.988617 541.512573,370.280853 
	C539.323242,360.505524 537.033386,350.752625 534.771729,340.608276 
	C524.391968,293.351501 514.008606,246.480698 503.818939,199.278275 
	C507.651459,194.802322 511.567902,190.862061 514.821838,186.434860 
	C516.684814,183.900070 518.573303,180.557007 518.528748,177.606888 
	C518.409485,169.713547 525.732605,161.184204 533.601990,161.455795 
	C534.440552,158.106735 532.936890,152.567825 539.521423,154.477829 
	C541.503906,150.037476 541.421204,144.616913 548.166931,142.722855 
	C547.658203,144.983353 547.803345,146.888809 546.921509,147.796860 
	C543.805115,151.005829 545.384460,155.316788 547.212219,156.577057 
	C552.406494,160.158752 550.364014,165.541351 551.973694,169.907639 
	C552.702942,171.885696 553.210327,173.945541 553.818420,175.968262 
	C553.883545,176.410385 553.948669,176.852509 553.772156,177.870285 
	C553.688232,180.551270 553.671631,182.687271 554.035706,184.756287 
	C555.223694,191.507324 556.550720,198.233902 557.824219,204.969894 
	C557.887878,205.411621 557.951538,205.853363 557.773438,206.870041 
	C557.880188,210.702789 558.152283,213.970917 558.591248,217.216476 
	C560.030884,227.861633 561.408325,238.517593 563.052795,249.131744 
	C564.082642,255.779037 565.549194,262.358673 566.819763,268.968658 
	C566.885132,269.410370 566.950439,269.852081 566.784668,270.842957 
	C566.985229,273.585938 567.416870,275.779785 567.848450,277.973633 
	C569.846008,292.590912 571.870178,307.204590 573.833191,321.826508 
	C575.580200,334.839142 577.253967,347.861572 578.973816,360.877869 
	C579.274475,363.153351 579.228760,365.585785 580.060059,367.658142 
	C582.192200,372.973480 579.668823,376.247955 575.946411,379.522491 
	C570.548157,384.271332 565.424927,389.332428 560.172424,394.247467 
	C549.782288,403.969971 539.471069,413.779205 528.961731,423.371368 
	C520.319824,431.259094 511.390411,438.830994 502.682129,446.647339 
	C497.692383,451.125977 492.909790,455.834595 487.999115,460.402283 
	C473.953033,473.467407 459.924194,486.551453 445.815033,499.548218 
	C440.195679,504.724457 434.383148,509.690918 427.972473,514.884216 
	C425.859863,516.675232 424.433380,518.334900 423.006897,519.994568 
	C423.006897,519.994568 423.002441,520.002441 422.783081,520.109375 
	C422.293884,520.409546 422.108948,520.664368 422.008881,520.980774 
	C422.008881,520.980774 422.007141,521.007263 421.780945,521.112793 
	C421.288910,521.411926 421.106903,521.665649 421.008759,521.979553 
	C421.008759,521.979553 421.007446,522.007812 420.780792,522.112915 
	C420.288696,522.411194 420.106842,522.664368 420.008514,522.977600 
	C420.008514,522.977600 420.007660,523.007446 419.800262,523.081055 
	C419.345245,523.294373 419.158569,523.491760 419.032837,523.746826 
M541.284912,162.530502 
	C541.396118,161.958527 541.507324,161.386551 541.618530,160.814590 
	C541.211792,160.809341 540.804993,160.804108 540.398254,160.798859 
	C540.495178,161.373581 540.592102,161.948303 541.284912,162.530502 
z"/>
<path fill="#FEF4FE" opacity="1.000000" stroke="none" 
	d="
M385.980377,53.072964 
	C400.669037,57.743519 415.382904,62.336624 430.040497,67.102745 
	C452.172546,74.299263 474.269073,81.605270 496.373291,88.887199 
	C507.263336,92.474762 518.122498,96.156525 529.024231,99.707802 
	C533.878662,101.289154 538.803894,102.653572 543.336426,104.428085 
	C541.521240,105.814255 539.969360,106.779945 538.626892,107.979935 
	C522.871643,122.062538 507.224915,136.267654 491.387726,150.257156 
	C481.304077,159.164322 470.939056,167.752579 460.720978,176.508102 
	C453.142731,183.001709 445.597900,189.534348 437.778259,195.819077 
	C439.814178,187.151291 441.937134,178.662338 444.440765,170.287186 
	C450.237061,150.897339 456.111481,131.529022 462.213440,112.233925 
	C463.424377,108.404907 461.938904,107.057083 458.813019,106.074287 
	C451.860840,103.888504 444.822296,101.930031 437.995575,99.402031 
	C421.954620,93.461914 405.988007,87.317261 390.049377,81.106331 
	C380.970642,77.568542 372.006134,73.737671 363.132263,69.710594 
	C364.953949,67.591202 366.374512,65.413383 368.362061,64.081985 
	C374.112640,60.229900 380.091278,56.718243 385.980377,53.072964 
z"/>
<path fill="#998C99" opacity="1.000000" stroke="none" 
	d="
M40.215275,326.001953 
	C38.142998,314.092590 36.062397,302.184662 34.001038,290.273407 
	C32.300266,280.445770 30.730574,270.594055 28.910328,260.788757 
	C25.691797,243.451126 22.307083,226.144379 19.038111,208.816010 
	C18.281059,204.802994 17.710045,200.754898 17.502028,196.368240 
	C24.652435,198.490967 31.304600,201.113815 38.064415,203.421310 
	C72.015678,215.010681 105.995071,226.517654 139.775116,238.360184 
	C133.716537,240.448166 127.850166,242.238647 121.977745,244.009094 
	C107.068878,248.503876 92.157295,252.989655 77.025719,257.545593 
	C79.139740,270.548096 81.203987,283.244415 82.899353,295.984253 
	C81.517960,297.018768 80.545876,298.055603 79.484947,298.991791 
	C76.840508,301.325348 73.986809,305.672577 71.523796,305.470612 
	C67.037926,305.102875 65.885567,307.291595 64.178596,310.097015 
	C62.766941,312.416992 61.054581,314.554047 59.521122,316.708008 
	C57.171108,316.071259 55.029686,315.490997 52.621635,314.838501 
	C52.170605,317.126495 51.832500,318.841583 51.462887,320.716553 
	C47.833355,320.978119 43.865749,320.349640 42.917709,325.252289 
	C42.838661,325.661072 41.153969,325.759399 40.215275,326.001953 
z"/>
<path fill="#B38B91" opacity="1.000000" stroke="none" 
	d="
M365.002014,573.012512 
	C364.473083,573.241211 363.835480,573.789795 363.430969,573.652344 
	C348.608978,568.616272 333.728699,563.735779 319.024109,558.373962 
	C297.231567,550.427612 275.566040,542.133179 253.845947,533.988098 
	C239.355286,528.554016 224.863876,523.122009 210.181305,516.969055 
	C209.918182,511.542664 213.241638,509.025909 216.112549,505.969482 
	C218.844818,503.060638 220.739761,499.365356 223.374451,496.052673 
	C227.830292,497.394501 231.914536,498.699493 236.264664,500.283997 
	C239.107391,501.109253 241.762833,501.417206 244.248459,502.238861 
	C261.733459,508.018890 279.179169,513.917664 296.646820,519.750488 
	C303.837799,522.151733 311.051941,524.483643 318.454590,526.912415 
	C321.413971,518.546326 324.222473,510.604034 327.032928,502.662384 
	C332.119141,488.290009 337.173645,473.906097 342.360962,459.570251 
	C342.740631,458.521057 344.085175,457.820953 345.034912,457.361603 
	C345.390472,459.047028 345.774780,460.316284 345.981110,461.613800 
	C347.869354,473.489105 349.700775,485.373474 351.599091,497.247131 
	C354.382355,514.656006 357.090393,532.078308 360.066589,549.454468 
	C361.420135,557.357056 363.339386,565.162842 365.002014,573.012512 
z"/>
<path fill="#9F8C97" opacity="1.000000" stroke="none" 
	d="
M40.152958,326.339294 
	C41.153969,325.759399 42.838661,325.661072 42.917709,325.252289 
	C43.865749,320.349640 47.833355,320.978119 51.462887,320.716553 
	C51.832500,318.841583 52.170605,317.126495 52.621635,314.838501 
	C55.029686,315.490997 57.171108,316.071259 59.521122,316.708008 
	C61.054581,314.554047 62.766941,312.416992 64.178596,310.097015 
	C65.885567,307.291595 67.037926,305.102875 71.523796,305.470612 
	C73.986809,305.672577 76.840508,301.325348 79.484947,298.991791 
	C80.545876,298.055603 81.517960,297.018768 83.123436,296.278625 
	C85.738152,306.713837 87.759911,316.898193 89.815521,327.510498 
	C91.946037,339.956329 94.042686,351.974182 96.105957,364.397888 
	C97.386124,372.535004 98.699677,380.266205 99.669785,388.050171 
	C97.815224,390.219299 96.299873,392.332703 94.794350,394.453094 
	C93.667114,396.040710 92.895119,398.355621 91.363708,399.085907 
	C87.766411,400.801483 83.825958,401.816559 79.992195,403.011993 
	C76.017311,404.251404 71.120453,404.327271 68.219086,406.788788 
	C64.048172,410.327393 61.317997,415.564117 57.972832,420.075989 
	C56.003544,410.396149 53.951633,400.732178 52.085083,391.032562 
	C49.528996,377.749634 47.079777,364.445862 44.651779,351.138763 
	C43.364578,344.084015 42.219021,337.003479 40.929024,329.299316 
	C40.718372,328.388123 40.519188,328.177460 40.250965,328.032074 
	C40.197525,327.580261 40.144081,327.128448 40.152958,326.339294 
z"/>
<path fill="#FDF6FD" opacity="1.000000" stroke="none" 
	d="
M139.964584,238.053574 
	C105.995071,226.517654 72.015678,215.010681 38.064415,203.421310 
	C31.304600,201.113815 24.652435,198.490967 17.596561,195.939713 
	C28.216537,186.461990 39.191750,177.059464 50.162056,167.651199 
	C50.917339,167.003448 51.636002,166.313004 52.703178,165.918823 
	C54.973881,169.732788 58.002773,170.013412 61.456600,169.006454 
	C65.887878,167.714493 70.295883,166.335678 74.755180,165.149384 
	C77.629303,164.384766 80.619789,164.049423 83.481117,163.247070 
	C86.616402,162.367889 89.623543,161.030167 92.760834,160.160294 
	C95.323799,159.449631 98.533707,159.887756 100.506149,158.482376 
	C104.417969,155.695129 108.380157,154.411728 112.898376,155.315857 
	C107.022850,161.154892 101.228912,166.625839 95.665001,172.321503 
	C94.868668,173.136703 94.523758,175.447830 95.095016,176.368591 
	C98.227234,181.417114 101.539047,186.376450 105.105766,191.128815 
	C114.632935,203.822983 124.321335,216.396149 133.996063,229.359940 
	C136.019180,232.486176 137.991882,235.269867 139.964584,238.053574 
z"/>
<path fill="#AD909D" opacity="1.000000" stroke="none" 
	d="
M438.038177,196.049606 
	C445.597900,189.534348 453.142731,183.001709 460.720978,176.508102 
	C470.939056,167.752579 481.304077,159.164322 491.387726,150.257156 
	C507.224915,136.267654 522.871643,122.062538 538.626892,107.979935 
	C539.969360,106.779945 541.521240,105.814255 543.321899,104.790771 
	C545.090027,113.369164 546.632874,121.878532 547.906860,130.427948 
	C550.001343,144.482925 551.926880,158.563141 553.901794,172.635773 
	C554.016113,173.450424 553.935120,174.292496 553.881714,175.545029 
	C553.210327,173.945541 552.702942,171.885696 551.973694,169.907639 
	C550.364014,165.541351 552.406494,160.158752 547.212219,156.577057 
	C545.384460,155.316788 543.805115,151.005829 546.921509,147.796860 
	C547.803345,146.888809 547.658203,144.983353 548.166931,142.722855 
	C541.421204,144.616913 541.503906,150.037476 539.521423,154.477829 
	C532.936890,152.567825 534.440552,158.106735 533.601990,161.455795 
	C525.732605,161.184204 518.409485,169.713547 518.528748,177.606888 
	C518.573303,180.557007 516.684814,183.900070 514.821838,186.434860 
	C511.567902,190.862061 507.651459,194.802322 503.640747,198.898651 
	C502.265289,193.708557 501.261749,188.566452 500.181091,183.029068 
	C489.362335,185.580566 478.464203,188.245834 467.519501,190.703735 
	C457.696899,192.909637 447.823120,194.887558 437.985229,196.981262 
	C437.998566,196.996475 438.029785,197.021988 438.013489,196.778732 
	C437.997162,196.535477 438.038177,196.049606 438.038177,196.049606 
z"/>
<path fill="#A48C96" opacity="1.000000" stroke="none" 
	d="
M57.990692,420.472839 
	C61.317997,415.564117 64.048172,410.327393 68.219086,406.788788 
	C71.120453,404.327271 76.017311,404.251404 79.992195,403.011993 
	C83.825958,401.816559 87.766411,400.801483 91.363708,399.085907 
	C92.895119,398.355621 93.667114,396.040710 94.794350,394.453094 
	C96.299873,392.332703 97.815224,390.219299 99.935806,388.360718 
	C100.744919,391.755432 100.654671,394.942871 101.191795,398.020844 
	C104.406837,416.445007 107.719727,434.852692 111.158363,453.236237 
	C111.461205,454.855286 112.903351,456.261230 114.000710,458.103241 
	C115.922363,459.286438 117.599609,460.300232 119.407997,460.947784 
	C125.246017,463.038147 131.132278,464.993774 136.814590,467.332458 
	C136.101135,468.046234 135.495560,468.834167 135.056732,468.750244 
	C129.331757,467.655548 127.211121,472.521698 123.847923,475.353119 
	C122.710945,476.310303 121.074524,477.980743 120.175484,477.699249 
	C114.853218,476.032715 115.175095,479.568787 115.005035,482.809143 
	C103.447311,478.547607 91.888100,474.290039 80.333488,470.020081 
	C78.653923,469.399384 77.048424,468.423004 75.319374,468.119019 
	C68.678444,466.951324 64.950714,463.581146 64.171051,456.460175 
	C63.269253,448.223694 61.438351,440.088928 59.930580,431.285095 
	C59.720402,430.386108 59.522263,430.176514 59.255905,430.031403 
	C59.171909,428.657257 59.087914,427.283112 58.925930,425.283752 
	C58.715675,424.383026 58.514679,424.173431 58.244953,424.029724 
	C58.166149,422.976379 58.087345,421.923035 57.990692,420.472839 
z"/>
<path fill="#AF8F9B" opacity="1.000000" stroke="none" 
	d="
M365.319458,572.871643 
	C363.339386,565.162842 361.420135,557.357056 360.066589,549.454468 
	C357.090393,532.078308 354.382355,514.656006 351.599091,497.247131 
	C349.700775,485.373474 347.869354,473.489105 345.981110,461.613800 
	C345.774780,460.316284 345.390472,459.047028 345.233582,457.134094 
	C345.822083,456.569580 346.494415,456.471741 346.676331,456.725464 
	C353.623718,466.416229 360.539032,476.130096 367.430511,485.860779 
	C373.313019,494.166687 379.161346,502.496765 385.322418,511.238403 
	C394.420135,503.512726 402.920624,496.215027 411.517792,489.033051 
	C414.896454,486.210541 418.491333,483.646820 421.987732,480.965210 
	C419.605438,484.852234 417.796875,489.299652 414.690887,492.479889 
	C411.068970,496.188416 409.544098,500.653687 407.240326,504.969849 
	C402.638489,513.591370 397.069122,521.720154 391.585724,529.840637 
	C386.235718,537.763611 380.481049,545.412781 374.952881,553.216736 
	C374.540710,553.798584 374.521271,554.658630 374.054138,556.348450 
	C378.710571,553.564026 384.803192,556.228271 387.001740,549.795227 
	C387.332642,548.826965 389.786835,548.584412 391.646240,548.010132 
	C384.476624,554.755920 376.889587,561.464600 369.389038,568.268616 
	C367.962769,569.562500 366.878815,571.233643 365.319458,572.871643 
z"/>
<path fill="#AB8B93" opacity="1.000000" stroke="none" 
	d="
M115.336281,482.974609 
	C115.175095,479.568787 114.853218,476.032715 120.175484,477.699249 
	C121.074524,477.980743 122.710945,476.310303 123.847923,475.353119 
	C127.211121,472.521698 129.331757,467.655548 135.056732,468.750244 
	C135.495560,468.834167 136.101135,468.046234 137.198761,467.340637 
	C149.841431,471.014801 161.914536,475.011963 174.223236,479.280151 
	C190.640167,485.039429 206.821518,490.527618 223.002869,496.015839 
	C220.739761,499.365356 218.844818,503.060638 216.112549,505.969482 
	C213.241638,509.025909 209.918182,511.542664 209.983337,516.659729 
	C199.201935,513.311340 188.405838,509.611542 177.657059,505.779144 
	C162.150772,500.250458 146.670792,494.647675 131.196686,489.029388 
	C125.993469,487.140167 120.842422,485.107269 115.336281,482.974609 
z"/>
<path fill="#E9F5FC" opacity="1.000000" stroke="none" 
	d="
M133.077301,99.021210 
	C142.294006,91.092049 151.509399,83.161362 160.727768,75.234123 
	C172.583618,65.038803 184.437683,54.841385 196.307632,44.662491 
	C197.173401,43.920055 198.161652,43.320442 199.557037,42.856873 
	C200.790543,43.583946 201.565170,44.571358 202.328552,44.562725 
	C211.550583,44.458435 220.770966,44.207062 229.846283,44.293388 
	C222.117218,52.047302 214.533646,59.501835 206.654388,67.110657 
	C196.919891,75.847397 187.481079,84.429848 177.704315,92.867462 
	C170.874084,93.664818 164.384094,94.623024 157.888977,95.545189 
	C149.620575,96.719116 141.348053,97.863876 133.077301,99.021210 
z"/>
<path fill="#DFF5FA" opacity="1.000000" stroke="none" 
	d="
M229.991776,43.993999 
	C220.770966,44.207062 211.550583,44.458435 202.328552,44.562725 
	C201.565170,44.571358 200.790543,43.583946 199.869446,42.683083 
	C206.943558,36.407230 214.241150,30.592747 221.372391,24.580957 
	C227.041855,19.801497 232.581604,14.860600 238.031830,9.831948 
	C240.570847,7.489334 242.859863,6.787926 246.407700,7.970665 
	C264.393707,13.966625 282.494934,19.616989 300.483337,25.954458 
	C298.951569,28.013275 297.744019,30.272860 295.984253,30.850586 
	C291.301056,32.388077 286.348969,33.084015 281.567108,34.353195 
	C279.302246,34.954330 277.182098,36.100601 274.610779,36.992661 
	C265.468597,34.341732 256.712067,31.698040 247.608856,29.080746 
	C241.505402,34.069427 235.748596,39.031715 229.991776,43.993999 
z"/>
<path fill="#F4F6FC" opacity="1.000000" stroke="none" 
	d="
M132.745575,99.140076 
	C141.348053,97.863876 149.620575,96.719116 157.888977,95.545189 
	C164.384094,94.623024 170.874084,93.664818 177.549728,93.164383 
	C173.143738,98.386299 168.554382,103.166466 163.669052,108.104645 
	C158.672318,112.581032 154.009750,116.942047 149.255753,121.201012 
	C146.613083,123.568497 143.817963,125.765778 140.704987,128.033417 
	C136.433182,129.267288 132.589447,130.665222 128.650589,131.701767 
	C124.986626,132.665970 121.078903,132.847733 117.543930,134.114609 
	C114.502701,135.204544 111.758163,136.853317 108.868340,134.252686 
	C106.147781,131.804382 103.847893,132.228012 100.968475,134.285507 
	C97.203613,136.975708 93.056885,139.426697 88.280075,136.088379 
	C101.448006,124.725952 114.598244,113.342865 127.810829,102.032616 
	C129.153061,100.883636 130.870514,100.173004 132.745575,99.140076 
z"/>
<path fill="#FAF8FF" opacity="1.000000" stroke="none" 
	d="
M87.959793,136.218872 
	C93.056885,139.426697 97.203613,136.975708 100.968475,134.285507 
	C103.847893,132.228012 106.147781,131.804382 108.868340,134.252686 
	C111.758163,136.853317 114.502701,135.204544 117.543930,134.114609 
	C121.078903,132.847733 124.986626,132.665970 128.650589,131.701767 
	C132.589447,130.665222 136.433182,129.267288 140.540466,128.325378 
	C131.526199,137.422348 122.289909,146.221024 113.053619,155.019714 
	C108.380157,154.411728 104.417969,155.695129 100.506149,158.482376 
	C98.533707,159.887756 95.323799,159.449631 92.760834,160.160294 
	C89.623543,161.030167 86.616402,162.367889 83.481117,163.247070 
	C80.619789,164.049423 77.629303,164.384766 74.755180,165.149384 
	C70.295883,166.335678 65.887878,167.714493 61.456600,169.006454 
	C58.002773,170.013412 54.973881,169.732788 53.016167,165.853394 
	C64.544945,155.790817 76.092224,146.070099 87.959793,136.218872 
z"/>
<path fill="#EAF7FD" opacity="1.000000" stroke="none" 
	d="
M274.996368,36.999893 
	C277.182098,36.100601 279.302246,34.954330 281.567108,34.353195 
	C286.348969,33.084015 291.301056,32.388077 295.984253,30.850586 
	C297.744019,30.272860 298.951569,28.013275 300.669800,26.273266 
	C317.061493,30.984320 333.194336,35.942554 349.820892,41.333755 
	C349.626984,42.965439 349.226471,44.786217 348.203491,45.258408 
	C342.939484,47.688068 337.429626,49.588303 332.184296,52.053623 
	C329.589478,53.273190 327.379303,55.311180 324.670288,56.843014 
	C321.899628,55.790924 319.453766,54.874691 316.772522,53.692848 
	C310.713806,51.132469 304.943176,48.689804 299.050842,46.588577 
	C294.114838,44.828392 289.036652,43.466969 283.848694,41.628181 
	C280.782745,39.884884 277.889557,38.442387 274.996368,36.999893 
z"/>
<path fill="#F4F6FD" opacity="1.000000" stroke="none" 
	d="
M324.995117,56.978870 
	C327.379303,55.311180 329.589478,53.273190 332.184296,52.053623 
	C337.429626,49.588303 342.939484,47.688068 348.203491,45.258408 
	C349.226471,44.786217 349.626984,42.965439 350.169312,41.481857 
	C360.444550,44.537743 370.864136,47.881428 381.286743,51.215748 
	C382.685760,51.663311 384.099884,52.063633 385.743713,52.779396 
	C380.091278,56.718243 374.112640,60.229900 368.362061,64.081985 
	C366.374512,65.413383 364.953949,67.591202 362.743256,69.692520 
	C361.263580,69.749352 360.292114,69.560654 359.369995,69.232994 
	C347.907532,65.160019 336.452240,61.066845 324.995117,56.978870 
z"/>
<path fill="#AD909D" opacity="1.000000" stroke="none" 
	d="
M566.882629,268.543335 
	C565.549194,262.358673 564.082642,255.779037 563.052795,249.131744 
	C561.408325,238.517593 560.030884,227.861633 558.591248,217.216476 
	C558.152283,213.970917 557.880188,210.702789 557.801636,207.205078 
	C559.009399,212.391754 560.072449,217.800201 560.860657,223.248444 
	C562.950806,237.696304 564.924255,252.161072 566.932434,266.620728 
	C567.000549,267.110962 566.943909,267.618530 566.882629,268.543335 
z"/>
<path fill="#AD909D" opacity="1.000000" stroke="none" 
	d="
M557.888489,204.544647 
	C556.550720,198.233902 555.223694,191.507324 554.035706,184.756287 
	C553.671631,182.687271 553.688232,180.551270 553.800232,178.205872 
	C555.031982,183.960144 556.024780,189.949783 556.942078,195.950958 
	C557.356445,198.661926 557.620544,201.395874 557.888489,204.544647 
z"/>
<path fill="#AF8F9B" opacity="1.000000" stroke="none" 
	d="
M423.308777,519.873169 
	C424.433380,518.334900 425.859863,516.675232 427.662170,515.015503 
	C426.562164,516.594238 425.086395,518.172974 423.308777,519.873169 
z"/>
<path fill="#AF8F9B" opacity="1.000000" stroke="none" 
	d="
M399.301819,541.877563 
	C400.092316,540.667664 401.180969,539.342712 402.647400,538.018066 
	C401.883453,539.266296 400.741730,540.514343 399.301819,541.877563 
z"/>
<path fill="#AD909D" opacity="1.000000" stroke="none" 
	d="
M567.915039,277.562866 
	C567.416870,275.779785 566.985229,273.585938 566.813477,271.178223 
	C567.376099,273.026947 567.678894,275.089508 567.915039,277.562866 
z"/>
<path fill="#AF8F9B" opacity="1.000000" stroke="none" 
	d="
M396.251862,544.914917 
	C396.106415,544.664856 396.288269,544.411499 396.766205,544.113098 
	C396.817688,544.289368 396.656647,544.570496 396.251862,544.914917 
z"/>
<path fill="#AF8F9B" opacity="1.000000" stroke="none" 
	d="
M395.271881,545.775879 
	C395.158813,545.491272 395.345612,545.294006 395.785797,545.080933 
	C395.976807,545.364014 395.820984,545.629944 395.271881,545.775879 
z"/>
<path fill="#998C99" opacity="1.000000" stroke="none" 
	d="
M40.219349,328.277618 
	C40.519188,328.177460 40.718372,328.388123 40.911148,328.875427 
	C40.628914,329.014465 40.366901,328.826569 40.219349,328.277618 
z"/>
<path fill="#AF8F9B" opacity="1.000000" stroke="none" 
	d="
M397.252228,543.914856 
	C397.108002,543.663574 397.292358,543.409363 397.775696,543.111816 
	C397.825775,543.288452 397.661163,543.569580 397.252228,543.914856 
z"/>
<path fill="#AF8F9B" opacity="1.000000" stroke="none" 
	d="
M398.249451,542.918701 
	C398.106506,542.671875 398.290863,542.414551 398.776001,542.111694 
	C398.825104,542.285828 398.658447,542.566589 398.249451,542.918701 
z"/>
<path fill="#AF8F9B" opacity="1.000000" stroke="none" 
	d="
M403.261261,537.948730 
	C403.111664,537.694458 403.301331,537.426758 403.809967,537.118530 
	C403.859833,537.297913 403.683716,537.583679 403.261261,537.948730 
z"/>
<path fill="#AF8F9B" opacity="1.000000" stroke="none" 
	d="
M407.271851,534.775879 
	C407.158722,534.491516 407.345337,534.294189 407.785095,534.080872 
	C407.976562,534.363892 407.821045,534.629944 407.271851,534.775879 
z"/>
<path fill="#AF8F9B" opacity="1.000000" stroke="none" 
	d="
M408.251831,533.914368 
	C408.106506,533.664368 408.288208,533.411194 408.765381,533.112793 
	C408.816956,533.289062 408.656311,533.570251 408.251831,533.914368 
z"/>
<path fill="#AF8F9B" opacity="1.000000" stroke="none" 
	d="
M409.252289,532.914185 
	C409.109283,532.661682 409.295502,532.407654 409.782532,532.112305 
	C409.831451,532.289551 409.664185,532.570068 409.252289,532.914185 
z"/>
<path fill="#AF8F9B" opacity="1.000000" stroke="none" 
	d="
M410.250732,531.923462 
	C410.106812,531.677612 410.290833,531.418335 410.778137,531.113403 
	C410.827362,531.287170 410.659760,531.567871 410.250732,531.923462 
z"/>
<path fill="#AF8F9B" opacity="1.000000" stroke="none" 
	d="
M411.248199,530.921143 
	C411.106079,530.674805 411.291748,530.416138 411.780457,530.112305 
	C411.828644,530.286133 411.659454,530.566711 411.248199,530.921143 
z"/>
<path fill="#AF8F9B" opacity="1.000000" stroke="none" 
	d="
M412.247864,529.922363 
	C412.105682,529.676819 412.291077,529.417542 412.779541,529.112427 
	C412.827789,529.285889 412.658722,529.566589 412.247864,529.922363 
z"/>
<path fill="#AF8F9B" opacity="1.000000" stroke="none" 
	d="
M413.247925,528.921631 
	C413.108582,528.673401 413.298737,528.413879 413.797119,528.113831 
	C413.842499,528.288635 413.666534,528.567688 413.247925,528.921631 
z"/>
<path fill="#AF8F9B" opacity="1.000000" stroke="none" 
	d="
M415.260742,526.956421 
	C415.204163,526.768127 415.394501,526.498169 415.812286,526.120728 
	C415.862396,526.300354 415.685028,526.587524 415.260742,526.956421 
z"/>
<path fill="#AF8F9B" opacity="1.000000" stroke="none" 
	d="
M419.271851,523.776306 
	C419.158569,523.491760 419.345245,523.294373 419.785339,523.081177 
	C419.976776,523.364319 419.821136,523.630310 419.271851,523.776306 
z"/>
<path fill="#AF8F9B" opacity="1.000000" stroke="none" 
	d="
M420.252197,522.914673 
	C420.106842,522.664368 420.288696,522.411194 420.766693,522.113525 
	C420.818115,522.289856 420.657013,522.570740 420.252197,522.914673 
z"/>
<path fill="#AF8F9B" opacity="1.000000" stroke="none" 
	d="
M421.252319,521.915649 
	C421.106903,521.665649 421.288910,521.411926 421.767761,521.113647 
	C421.819122,521.289917 421.657501,521.570862 421.252319,521.915649 
z"/>
<path fill="#AF8F9B" opacity="1.000000" stroke="none" 
	d="
M422.253174,520.915894 
	C422.108948,520.664368 422.293884,520.409546 422.779236,520.111938 
	C422.829010,520.288696 422.663239,520.569824 422.253174,520.915894 
z"/>
<path fill="#9F8C97" opacity="1.000000" stroke="none" 
	d="
M59.226440,430.275208 
	C59.522263,430.176514 59.720402,430.386108 59.913109,430.870300 
	C59.635201,431.005737 59.375561,430.818604 59.226440,430.275208 
z"/>
<path fill="#9F8C97" opacity="1.000000" stroke="none" 
	d="
M58.217575,424.275208 
	C58.514679,424.173431 58.715675,424.383026 58.911781,424.869965 
	C58.631699,425.009521 58.369892,424.822601 58.217575,424.275208 
z"/>
<path fill="#947E87" opacity="1.000000" stroke="none" 
	d="
M223.374451,496.052673 
	C206.821518,490.527618 190.640167,485.039429 174.497589,479.086670 
	C177.990341,474.138428 182.462585,470.743744 184.679047,464.878693 
	C186.051041,461.248199 189.222397,457.968109 190.029404,453.679291 
	C190.161346,452.978088 191.053757,452.451996 191.456360,451.763947 
	C192.995636,449.133606 194.597321,446.529541 195.956848,443.806366 
	C198.579117,438.553955 201.041946,433.222076 203.608475,427.941437 
	C203.813339,427.519928 204.264816,427.171204 204.676819,426.904907 
	C208.097260,424.694122 209.056931,421.560211 209.206085,417.559998 
	C209.276154,415.680359 211.140717,413.068359 212.886414,412.224457 
	C216.070343,410.685303 219.771378,410.215881 223.521713,409.230591 
	C223.761810,412.142822 225.757858,413.863464 229.553452,412.435486 
	C229.024963,415.034454 228.582596,417.209869 228.140244,419.385284 
	C228.710724,419.628479 229.281219,419.871643 229.851715,420.114838 
	C232.977615,415.582764 235.913666,410.902924 239.289856,406.565674 
	C241.963867,403.130463 244.878006,399.750488 248.224686,397.002625 
	C252.808426,393.239136 258.828979,390.868317 262.499725,386.457550 
	C265.728149,382.578247 267.916138,382.594635 271.424652,384.723206 
	C274.494110,386.585327 277.526733,386.464600 280.220154,384.161133 
	C283.060699,381.731781 285.325958,382.374603 288.160797,384.405243 
	C294.062897,388.632996 299.395691,387.023499 301.728668,380.092651 
	C303.159485,375.841980 304.944397,375.549255 308.677307,377.223328 
	C315.962799,380.490540 316.701141,379.839478 321.152374,372.997589 
	C323.133209,369.952942 325.872437,366.216125 328.982910,365.343384 
	C335.109497,363.624390 341.767212,363.684570 347.881744,366.491394 
	C351.189636,368.009888 354.004974,367.628021 357.282837,366.014679 
	C361.675812,363.852509 366.551331,362.692108 371.059265,360.732666 
	C373.103516,359.844025 374.799377,358.114807 376.587952,356.685211 
	C380.294434,353.722626 383.878754,350.598907 387.693878,347.786377 
	C388.632477,347.094452 390.264648,347.343292 391.578003,347.159637 
	C391.790985,347.560272 392.003967,347.960907 392.216949,348.361542 
	C391.443146,349.255890 390.691803,350.170898 389.891144,351.040466 
	C387.918610,353.182800 383.015869,355.017029 385.854218,358.162994 
	C388.763214,361.387207 392.245178,357.110199 394.007355,354.974548 
	C397.263000,351.028992 399.585510,350.992188 402.286469,354.939575 
	C402.978851,354.755432 403.465515,354.655914 403.932037,354.497192 
	C407.743378,353.200409 411.675629,349.431000 415.146027,355.231323 
	C415.374237,355.612640 417.571838,355.097351 418.686127,354.613770 
	C421.981995,353.183319 425.052826,351.017548 428.469086,350.127747 
	C434.936096,348.443329 439.189514,344.811340 441.542114,338.576965 
	C444.120392,339.382874 446.333801,340.031189 448.515289,340.773407 
	C460.674103,344.910095 472.825195,349.069550 485.266968,353.425598 
	C497.331635,357.859497 509.108185,362.089050 521.175171,366.545349 
	C527.709778,368.736877 533.953979,370.701630 540.198120,372.666382 
	C536.676147,376.354462 533.154114,380.042542 528.875610,383.866394 
	C521.852417,382.761139 515.339966,385.113220 511.661987,388.590759 
	C505.275330,394.629395 498.853668,392.914246 493.523102,390.189270 
	C487.744080,387.235077 485.008545,389.195007 481.640289,392.835510 
	C479.340576,395.321014 477.036865,396.252075 473.290619,394.870850 
	C466.948547,392.532532 460.334991,392.065430 454.554749,396.948029 
	C452.783691,398.444000 451.001434,399.934113 449.138153,401.310181 
	C448.253784,401.963379 446.449860,402.956268 446.277710,402.755096 
	C442.823334,398.719482 438.918243,401.700531 435.334381,402.076202 
	C427.495087,402.898010 419.695770,404.111969 411.891724,405.245453 
	C410.939178,405.383820 410.049683,405.993866 409.144531,406.414459 
	C404.492493,408.575867 399.594666,410.341675 395.260590,413.019165 
	C390.107910,416.202454 385.838379,411.318542 380.391296,412.222412 
	C374.903473,413.133026 370.488861,413.818085 366.607330,417.751221 
	C365.938202,418.429230 364.538727,418.354004 363.507172,418.714233 
	C361.893921,419.277466 359.752441,419.453094 358.798492,420.596802 
	C352.563873,428.071259 345.187469,429.800995 336.361420,425.776367 
	C333.976501,424.688904 331.723816,423.240417 328.627075,425.647369 
	C322.903595,430.096130 316.613129,433.826935 310.463623,437.705933 
	C309.280548,438.452209 307.347382,439.218414 306.296448,438.756256 
	C301.696136,436.733093 299.712158,439.849365 297.164825,442.561310 
	C293.463715,446.501740 289.504456,450.205200 285.569092,453.918365 
	C282.434204,456.876190 279.105408,459.628876 275.977936,462.594116 
	C270.249146,468.025970 264.684448,473.632568 258.903351,479.007141 
	C253.358215,484.162292 247.602859,489.090698 241.986862,494.170685 
	C239.921646,496.038788 237.990875,498.055542 235.998779,500.004486 
	C231.914536,498.699493 227.830292,497.394501 223.374451,496.052673 
M224.229279,426.743317 
	C224.835220,427.304230 225.441162,427.865112 226.047073,428.426025 
	C227.129608,427.004730 228.212128,425.583435 229.294662,424.162140 
	C228.818985,423.780304 228.343307,423.398438 227.867645,423.016602 
	C226.759430,424.051910 225.651215,425.087219 224.229279,426.743317 
z"/>
<path fill="#9A7D86" opacity="1.000000" stroke="none" 
	d="
M236.264679,500.283997 
	C237.990875,498.055542 239.921646,496.038788 241.986862,494.170685 
	C247.602859,489.090698 253.358215,484.162292 258.903351,479.007141 
	C264.684448,473.632568 270.249146,468.025970 275.977936,462.594116 
	C279.105408,459.628876 282.434204,456.876190 285.569092,453.918365 
	C289.504456,450.205200 293.463715,446.501740 297.164825,442.561310 
	C299.712158,439.849365 301.696136,436.733093 306.296448,438.756256 
	C307.347382,439.218414 309.280548,438.452209 310.463623,437.705933 
	C316.613129,433.826935 322.903595,430.096130 328.627075,425.647369 
	C331.723816,423.240417 333.976501,424.688904 336.361420,425.776367 
	C345.187469,429.800995 352.563873,428.071259 358.798492,420.596802 
	C359.752441,419.453094 361.893921,419.277466 363.507172,418.714233 
	C364.538727,418.354004 365.938202,418.429230 366.607330,417.751221 
	C370.488861,413.818085 374.903473,413.133026 380.391296,412.222412 
	C385.838379,411.318542 390.107910,416.202454 395.260590,413.019165 
	C399.594666,410.341675 404.492493,408.575867 409.144531,406.414459 
	C410.049683,405.993866 410.939178,405.383820 411.891724,405.245453 
	C419.695770,404.111969 427.495087,402.898010 435.334381,402.076202 
	C438.918243,401.700531 442.823334,398.719482 446.277710,402.755096 
	C446.449860,402.956268 448.253784,401.963379 449.138153,401.310181 
	C451.001434,399.934113 452.783691,398.444000 454.554749,396.948029 
	C460.334991,392.065430 466.948547,392.532532 473.290619,394.870850 
	C477.036865,396.252075 479.340576,395.321014 481.640289,392.835510 
	C485.008545,389.195007 487.744080,387.235077 493.523102,390.189270 
	C498.853668,392.914246 505.275330,394.629395 511.661987,388.590759 
	C515.339966,385.113220 521.852417,382.761139 528.567871,384.005005 
	C523.020020,389.463959 517.019531,394.915894 511.027649,400.377136 
	C500.034882,410.396393 489.178986,420.570740 478.023773,430.405640 
	C464.257812,442.542267 450.214874,454.364288 436.362854,466.404175 
	C433.513733,468.880585 430.978638,471.718292 427.867920,474.823944 
	C426.615723,476.167969 425.794464,477.077484 424.973145,477.987000 
	C424.067047,478.796143 423.160950,479.605347 422.121277,480.689880 
	C418.491333,483.646820 414.896454,486.210541 411.517792,489.033051 
	C402.920624,496.215027 394.420135,503.512726 385.322418,511.238403 
	C379.161346,502.496765 373.313019,494.166687 367.430511,485.860779 
	C360.539032,476.130096 353.623718,466.416229 346.676331,456.725464 
	C346.494415,456.471741 345.822083,456.569580 345.179749,456.731018 
	C344.085175,457.820953 342.740631,458.521057 342.360962,459.570251 
	C337.173645,473.906097 332.119141,488.290009 327.032928,502.662384 
	C324.222473,510.604034 321.413971,518.546326 318.454590,526.912415 
	C311.051941,524.483643 303.837799,522.151733 296.646820,519.750488 
	C279.179169,513.917664 261.733459,508.018890 244.248459,502.238861 
	C241.762833,501.417206 239.107391,501.109253 236.264679,500.283997 
M344.482635,454.596436 
	C344.482635,454.596436 344.415192,454.482758 344.482635,454.596436 
z"/>
<path fill="#FFD7ED" opacity="1.000000" stroke="none" 
	d="
M324.670288,56.843014 
	C336.452240,61.066845 347.907532,65.160019 359.369995,69.232994 
	C360.292114,69.560654 361.263580,69.749352 362.601135,70.020706 
	C372.006134,73.737671 380.970642,77.568542 390.049377,81.106331 
	C405.988007,87.317261 421.954620,93.461914 437.995575,99.402031 
	C444.822296,101.930031 451.860840,103.888504 458.813019,106.074287 
	C461.938904,107.057083 463.424377,108.404907 462.213440,112.233925 
	C456.111481,131.529022 450.237061,150.897339 444.440765,170.287186 
	C441.937134,178.662338 439.814178,187.151291 437.778259,195.819077 
	C438.038177,196.049606 437.997162,196.535477 437.854645,196.823792 
	C437.798706,197.063431 437.885315,197.014725 437.971893,196.966034 
	C447.823120,194.887558 457.696899,192.909637 467.519501,190.703735 
	C478.464203,188.245834 489.362335,185.580566 500.181091,183.029068 
	C501.261749,188.566452 502.265289,193.708557 503.447021,199.230286 
	C514.008606,246.480698 524.391968,293.351501 534.441040,340.563660 
	C524.016846,337.204224 522.624939,326.630981 517.719604,319.045197 
	C516.152893,316.622467 515.526917,312.654663 512.953125,310.614838 
	C506.741089,305.691467 502.225830,299.012329 500.127319,292.107452 
	C498.034760,285.222198 493.403351,281.440582 489.233063,276.738037 
	C488.350677,275.743011 486.694427,274.811859 486.649231,273.795471 
	C486.297241,265.879211 479.334320,262.819031 475.216949,257.689178 
	C474.406403,256.679321 473.085083,255.450882 473.188446,254.445480 
	C473.622620,250.221756 470.354218,248.407883 468.289764,245.693878 
	C463.454132,239.336670 457.506653,233.309448 454.682953,226.101288 
	C452.437164,220.368469 448.892242,216.837509 444.958832,212.883896 
	C441.049713,208.954758 437.477692,204.648758 434.105835,200.241760 
	C431.989014,197.475143 430.705322,194.083740 428.700531,191.215469 
	C426.358246,187.864487 422.551910,185.127975 421.376038,181.481476 
	C420.109924,177.554993 418.487457,174.804230 415.218933,172.389267 
	C412.502960,170.382492 408.952789,167.717361 408.452576,164.872574 
	C407.423584,159.020370 403.460205,156.254501 399.710602,152.751495 
	C395.368317,148.694778 390.289246,144.712082 387.826813,139.592514 
	C385.982208,135.757416 383.979431,132.522202 381.106995,129.616852 
	C377.476257,125.944496 373.719055,122.391914 370.204376,118.612839 
	C368.893555,117.203430 368.045746,115.337746 367.105225,113.615456 
	C365.593201,110.846664 364.740265,107.464584 362.614288,105.334160 
	C357.237213,99.945869 351.103668,95.315933 345.678406,89.970863 
	C342.701233,87.037712 340.429840,83.349640 338.057495,79.854469 
	C336.437988,77.468407 335.629517,74.411819 333.694397,72.384178 
	C329.231110,67.707527 324.202087,63.575344 319.627319,58.997662 
	C318.351196,57.720688 317.859497,55.659752 317.007935,53.958458 
	C319.453766,54.874691 321.899628,55.790924 324.670288,56.843014 
z"/>
<path fill="#FDD8F0" opacity="1.000000" stroke="none" 
	d="
M316.772522,53.692848 
	C317.859497,55.659752 318.351196,57.720688 319.627319,58.997662 
	C324.202087,63.575344 329.231110,67.707527 333.694397,72.384178 
	C335.629517,74.411819 336.437988,77.468407 338.057495,79.854469 
	C340.429840,83.349640 342.701233,87.037712 345.678406,89.970863 
	C351.103668,95.315933 357.237213,99.945869 362.614288,105.334160 
	C364.740265,107.464584 365.593201,110.846664 367.105225,113.615456 
	C368.045746,115.337746 368.893555,117.203430 370.204376,118.612839 
	C373.719055,122.391914 377.476257,125.944496 381.106995,129.616852 
	C383.979431,132.522202 385.982208,135.757416 387.826813,139.592514 
	C390.289246,144.712082 395.368317,148.694778 399.710602,152.751495 
	C403.460205,156.254501 407.423584,159.020370 408.452576,164.872574 
	C408.952789,167.717361 412.502960,170.382492 415.218933,172.389267 
	C418.487457,174.804230 420.109924,177.554993 421.376038,181.481476 
	C422.551910,185.127975 426.358246,187.864487 428.700531,191.215469 
	C430.705322,194.083740 431.989014,197.475143 434.105835,200.241760 
	C437.477692,204.648758 441.049713,208.954758 444.958832,212.883896 
	C448.892242,216.837509 452.437164,220.368469 454.682953,226.101288 
	C457.506653,233.309448 463.454132,239.336670 468.289764,245.693878 
	C470.354218,248.407883 473.622620,250.221756 473.188446,254.445480 
	C473.085083,255.450882 474.406403,256.679321 475.216949,257.689178 
	C479.334320,262.819031 486.297241,265.879211 486.649231,273.795471 
	C486.694427,274.811859 488.350677,275.743011 489.233063,276.738037 
	C493.403351,281.440582 498.034760,285.222198 500.127319,292.107452 
	C502.225830,299.012329 506.741089,305.691467 512.953125,310.614838 
	C515.526917,312.654663 516.152893,316.622467 517.719604,319.045197 
	C522.624939,326.630981 524.016846,337.204224 534.437378,340.949646 
	C537.033386,350.752625 539.323242,360.505524 541.512573,370.280853 
	C541.671082,370.988617 541.098572,371.860077 540.531982,372.660889 
	C533.953979,370.701630 527.709778,368.736877 521.206482,366.151855 
	C518.609314,361.433838 516.228027,357.359955 513.946960,353.230682 
	C512.104736,349.895721 510.498077,346.427094 508.579773,343.138611 
	C506.081116,338.855255 503.354858,334.705261 500.767303,330.473053 
	C495.973053,322.631622 491.370850,314.666870 486.373199,306.957977 
	C483.142853,301.975067 479.145813,297.492645 475.855988,292.544189 
	C469.579041,283.102600 463.816193,273.312103 457.363037,263.996857 
	C451.368622,255.343796 444.642365,247.201721 438.437927,238.689209 
	C430.061188,227.196320 421.920074,215.532028 413.595428,204.000824 
	C404.901062,191.957535 396.322662,179.821136 387.293365,168.031952 
	C379.764923,158.202362 371.720154,148.764038 363.793213,139.244720 
	C348.561066,120.952660 333.321808,102.665451 317.930878,84.507301 
	C313.028961,78.724060 306.454834,74.034088 302.776917,67.621620 
	C298.424744,60.033554 292.398285,54.337803 286.743317,48.080551 
	C285.315399,46.500538 284.901367,44.004223 284.021423,41.928986 
	C289.036652,43.466969 294.114838,44.828392 299.050842,46.588577 
	C304.943176,48.689804 310.713806,51.132469 316.772522,53.692848 
z"/>
<path fill="#AD909D" opacity="1.000000" stroke="none" 
	d="
M540.986938,162.526764 
	C540.592102,161.948303 540.495178,161.373581 540.398254,160.798859 
	C540.804993,160.804108 541.211792,160.809341 541.618530,160.814590 
	C541.507324,161.386551 541.396118,161.958527 540.986938,162.526764 
z"/>
<path fill="#AF8F9B" opacity="1.000000" stroke="none" 
	d="
M425.346924,477.983704 
	C425.794464,477.077484 426.615723,476.167969 427.717285,475.126343 
	C427.238617,475.989624 426.479614,476.985016 425.346924,477.983704 
z"/>
<path fill="#FDD2D8" opacity="1.000000" stroke="none" 
	d="
M163.965027,107.946632 
	C168.554382,103.166466 173.143738,98.386299 177.887680,93.309219 
	C187.481079,84.429848 196.919891,75.847397 206.929993,67.345123 
	C205.923538,71.561760 204.417282,75.727592 202.735092,79.821136 
	C201.997345,81.616425 201.331924,83.991936 199.888824,84.847160 
	C194.881348,87.814766 192.576050,94.646103 195.397507,99.692848 
	C195.993607,100.759140 196.539337,101.853607 197.298904,103.297462 
	C195.547043,103.493507 194.445480,103.616783 193.126984,103.764336 
	C197.298721,109.953354 196.689377,114.572906 191.118393,119.344231 
	C188.031326,121.988174 187.147812,124.732147 189.186005,128.474335 
	C193.677521,136.720963 192.797348,135.558899 186.722473,141.750443 
	C185.572372,142.922638 184.245377,143.921280 182.991180,144.631561 
	C182.340256,143.601791 181.698135,142.940475 181.056030,142.279160 
	C180.783737,142.777313 180.511459,143.275467 180.239166,143.773621 
	C181.159439,144.182419 182.079727,144.591217 182.992706,145.389496 
	C182.486435,150.516037 180.563904,154.307205 176.129059,156.598648 
	C175.325333,157.013916 174.255402,158.139053 174.328690,158.827972 
	C174.807816,163.332764 171.607254,165.628448 169.141586,168.521469 
	C166.608032,171.494125 167.319504,178.633545 169.971405,178.889114 
	C174.727753,179.347504 174.359406,181.701096 173.016708,185.085724 
	C171.494537,188.922745 170.350220,192.908401 168.995667,196.813507 
	C167.600845,200.834732 166.331818,204.913971 164.665955,208.822128 
	C163.390228,211.814957 160.605316,214.457291 160.223190,217.474792 
	C159.515549,223.063004 156.931656,227.279953 152.755814,230.388596 
	C149.989639,232.447784 150.343307,234.106735 150.800262,237.069427 
	C151.445969,241.255997 151.236618,245.834198 150.221329,249.956497 
	C148.687088,256.186005 146.090622,262.149689 144.089706,268.273468 
	C143.819397,269.100708 144.295532,270.227997 144.578949,271.170349 
	C145.852264,275.404297 144.130432,278.429352 141.150421,281.370361 
	C137.898392,284.579773 135.078400,288.232117 132.131836,291.743225 
	C131.062012,293.018005 130.170364,294.442291 128.476776,296.802795 
	C128.476776,293.700409 128.476776,292.072815 128.476776,290.153198 
	C122.771614,293.840515 122.717247,294.864899 128.132614,298.737640 
	C126.005287,300.698120 123.894547,302.482758 121.981606,304.458862 
	C120.539070,305.948975 118.781509,307.491882 118.153702,309.346283 
	C116.228249,315.033661 111.234749,317.186188 106.738945,319.814056 
	C103.090607,321.946503 99.115433,323.534973 95.231140,325.241638 
	C93.482590,326.009888 91.602234,326.478149 89.781670,327.082520 
	C87.759911,316.898193 85.738152,306.713837 83.492310,296.235138 
	C81.203987,283.244415 79.139740,270.548096 77.025719,257.545593 
	C92.157295,252.989655 107.068878,248.503876 121.977745,244.009094 
	C127.850166,242.238647 133.716537,240.448166 139.775116,238.360184 
	C137.991882,235.269867 136.019180,232.486176 134.354202,229.316452 
	C135.672745,227.558289 137.052597,226.318420 137.603546,224.781433 
	C138.338272,222.731812 138.069885,220.308258 138.870209,218.299423 
	C140.560974,214.055588 142.665756,209.976700 143.750839,207.651367 
	C142.164398,202.772827 141.047928,199.339493 140.184174,196.683304 
	C142.590988,195.158035 144.879364,194.501221 145.760025,193.011963 
	C149.514175,186.663589 155.666351,180.686234 150.294815,172.247803 
	C149.833954,171.523834 149.815308,170.167938 150.158142,169.340454 
	C152.167892,164.489563 154.522446,159.776428 156.409332,154.881393 
	C157.796890,151.281677 160.197235,147.118652 159.441437,143.827881 
	C157.298874,134.499268 157.251755,133.038101 165.321869,127.367195 
	C161.941376,123.247017 162.806473,119.165588 165.339462,114.680244 
	C166.189713,113.174599 164.495972,110.232285 163.965027,107.946632 
z"/>
<path fill="#F3D2DB" opacity="1.000000" stroke="none" 
	d="
M113.816338,457.766174 
	C112.903351,456.261230 111.461205,454.855286 111.158363,453.236237 
	C107.719727,434.852692 104.406837,416.445007 101.191795,398.020844 
	C100.654671,394.942871 100.744919,391.755432 100.279251,388.307983 
	C98.699677,380.266205 97.386124,372.535004 96.453873,364.349487 
	C97.325798,362.431641 97.712044,360.921326 98.339912,359.519257 
	C98.846916,358.387085 99.404610,356.850830 100.357597,356.421692 
	C103.815758,354.864563 107.453247,353.707275 111.015846,352.379761 
	C112.653900,351.769379 114.235970,350.969696 115.913544,350.513947 
	C118.210800,349.889862 120.599854,349.608063 122.905647,349.010162 
	C130.666183,346.997742 136.727631,339.470642 145.897003,341.932526 
	C146.447937,342.080414 147.251907,341.790894 147.776367,341.453430 
	C152.430283,338.458923 157.047684,335.407654 161.935455,332.202911 
	C166.721329,335.638031 170.357361,332.458344 173.929321,329.486298 
	C174.923218,328.659332 175.463226,327.286835 176.658295,325.494415 
	C174.557617,325.494415 173.516983,325.494415 173.684769,325.494415 
	C172.218185,321.623138 171.173645,318.300934 169.717209,315.170319 
	C168.052032,311.590973 167.015823,308.440979 170.982147,305.552765 
	C174.240784,303.179871 177.214767,300.416077 180.803116,297.417572 
	C179.862488,296.273407 178.348282,294.948517 177.574387,293.280182 
	C177.164673,292.396912 178.042236,290.916534 178.338638,289.705688 
	C179.741623,290.224670 181.144608,290.743622 182.210281,291.137817 
	C186.277496,289.004456 190.321609,286.779388 194.458664,284.743164 
	C198.408585,282.799072 199.020157,279.796143 195.947968,276.459930 
	C195.158722,275.602844 194.308426,274.801941 193.485687,273.975708 
	C191.449554,271.930908 192.014648,270.683807 194.170776,268.789215 
	C197.835068,265.569458 201.183441,261.889862 204.086838,257.975037 
	C204.811905,256.997406 203.715057,254.149460 202.755630,252.592438 
	C201.855774,251.132111 199.461105,250.509018 198.767227,249.028641 
	C198.039612,247.476303 197.776703,244.716980 198.683640,243.592285 
	C200.611130,241.201950 203.283829,239.303909 205.913483,237.611954 
	C210.781891,234.479584 211.123611,232.233658 206.845886,228.258652 
	C204.403488,225.989075 204.811768,224.234406 207.779663,223.065735 
	C213.193268,220.934006 214.271179,218.237717 211.538666,213.299942 
	C206.911880,204.939178 207.269943,200.893784 213.172836,194.313324 
	C215.742844,191.448318 216.192215,188.810059 212.298447,186.629227 
	C211.508423,186.186768 210.867783,185.477600 209.740784,184.546432 
	C211.443756,183.333633 213.091934,182.643738 214.008804,181.410248 
	C216.188660,178.477600 218.193192,175.381332 219.950104,172.176575 
	C221.875778,168.663986 222.947708,164.590942 225.280380,161.414825 
	C229.093338,156.223114 233.788391,151.684662 237.717270,146.568054 
	C238.498932,145.550079 237.509766,143.172318 237.337173,141.421600 
	C236.091675,142.179779 234.669968,142.753296 233.639435,143.736740 
	C231.813339,145.479385 230.224899,147.471039 228.537003,149.358490 
	C227.844299,148.918716 227.151581,148.478943 226.458862,148.039169 
	C227.355682,145.809418 227.968231,143.404739 229.209732,141.387085 
	C231.635513,137.444763 235.353622,134.041840 236.803589,129.820328 
	C238.571854,124.672112 241.501495,120.867699 245.160812,117.178139 
	C246.375549,115.953339 246.670822,113.816612 247.386444,112.096802 
	C245.779572,112.347755 244.177933,112.650429 242.562195,112.813530 
	C242.155106,112.854630 241.702911,112.449104 241.547363,112.376900 
	C242.051361,109.470177 243.507675,106.427071 242.764465,104.080635 
	C241.695724,100.706406 242.624130,98.883575 244.759781,96.632210 
	C247.350739,93.900902 250.384888,91.100128 251.649643,87.736252 
	C252.955521,84.262970 254.458618,82.719971 258.147034,83.360367 
	C259.875854,91.482674 261.443054,99.243317 263.163452,107.368797 
	C264.548492,114.038536 265.736908,120.352280 267.019836,126.646759 
	C271.664307,149.434677 276.340576,172.216125 281.013000,195.414246 
	C285.016663,216.111038 289.035736,236.388992 292.998077,256.678040 
	C295.058441,267.228241 297.018707,277.797974 298.793884,288.637573 
	C290.575775,295.925476 282.443176,302.777588 274.631378,309.977783 
	C259.962372,323.498230 245.596848,337.348663 230.887970,350.824860 
	C212.860291,367.341766 194.535507,383.534149 176.483658,400.025024 
	C165.690323,409.884979 155.253891,420.134735 144.509415,430.049316 
	C134.378967,439.397278 124.055107,448.535614 113.816338,457.766174 
z"/>
<path fill="#F9D2DA" opacity="1.000000" stroke="none" 
	d="
M257.985413,82.998703 
	C254.458618,82.719971 252.955521,84.262970 251.649643,87.736252 
	C250.384888,91.100128 247.350739,93.900902 244.759781,96.632210 
	C242.624130,98.883575 241.695724,100.706406 242.764465,104.080635 
	C243.507675,106.427071 242.051361,109.470177 241.547363,112.376900 
	C241.702911,112.449104 242.155106,112.854630 242.562195,112.813530 
	C244.177933,112.650429 245.779572,112.347755 247.386444,112.096802 
	C246.670822,113.816612 246.375549,115.953339 245.160812,117.178139 
	C241.501495,120.867699 238.571854,124.672112 236.803589,129.820328 
	C235.353622,134.041840 231.635513,137.444763 229.209732,141.387085 
	C227.968231,143.404739 227.355682,145.809418 226.458862,148.039169 
	C227.151581,148.478943 227.844299,148.918716 228.537003,149.358490 
	C230.224899,147.471039 231.813339,145.479385 233.639435,143.736740 
	C234.669968,142.753296 236.091675,142.179779 237.337173,141.421600 
	C237.509766,143.172318 238.498932,145.550079 237.717270,146.568054 
	C233.788391,151.684662 229.093338,156.223114 225.280380,161.414825 
	C222.947708,164.590942 221.875778,168.663986 219.950104,172.176575 
	C218.193192,175.381332 216.188660,178.477600 214.008804,181.410248 
	C213.091934,182.643738 211.443756,183.333633 209.740784,184.546432 
	C210.867783,185.477600 211.508423,186.186768 212.298447,186.629227 
	C216.192215,188.810059 215.742844,191.448318 213.172836,194.313324 
	C207.269943,200.893784 206.911880,204.939178 211.538666,213.299942 
	C214.271179,218.237717 213.193268,220.934006 207.779663,223.065735 
	C204.811768,224.234406 204.403488,225.989075 206.845886,228.258652 
	C211.123611,232.233658 210.781891,234.479584 205.913483,237.611954 
	C203.283829,239.303909 200.611130,241.201950 198.683640,243.592285 
	C197.776703,244.716980 198.039612,247.476303 198.767227,249.028641 
	C199.461105,250.509018 201.855774,251.132111 202.755630,252.592438 
	C203.715057,254.149460 204.811905,256.997406 204.086838,257.975037 
	C201.183441,261.889862 197.835068,265.569458 194.170776,268.789215 
	C192.014648,270.683807 191.449554,271.930908 193.485687,273.975708 
	C194.308426,274.801941 195.158722,275.602844 195.947968,276.459930 
	C199.020157,279.796143 198.408585,282.799072 194.458664,284.743164 
	C190.321609,286.779388 186.277496,289.004456 182.210281,291.137817 
	C181.144608,290.743622 179.741623,290.224670 178.338638,289.705688 
	C178.042236,290.916534 177.164673,292.396912 177.574387,293.280182 
	C178.348282,294.948517 179.862488,296.273407 180.803116,297.417572 
	C177.214767,300.416077 174.240784,303.179871 170.982147,305.552765 
	C167.015823,308.440979 168.052032,311.590973 169.717209,315.170319 
	C171.173645,318.300934 172.218185,321.623138 173.684769,325.494415 
	C173.516983,325.494415 174.557617,325.494415 176.658295,325.494415 
	C175.463226,327.286835 174.923218,328.659332 173.929321,329.486298 
	C170.357361,332.458344 166.721329,335.638031 161.935455,332.202911 
	C157.047684,335.407654 152.430283,338.458923 147.776367,341.453430 
	C147.251907,341.790894 146.447937,342.080414 145.897003,341.932526 
	C136.727631,339.470642 130.666183,346.997742 122.905647,349.010162 
	C120.599854,349.608063 118.210800,349.889862 115.913544,350.513947 
	C114.235970,350.969696 112.653900,351.769379 111.015846,352.379761 
	C107.453247,353.707275 103.815758,354.864563 100.357597,356.421692 
	C99.404610,356.850830 98.846916,358.387085 98.339912,359.519257 
	C97.712044,360.921326 97.325798,362.431641 96.487259,363.943604 
	C94.042686,351.974182 91.946037,339.956329 89.815529,327.510529 
	C91.602234,326.478149 93.482590,326.009888 95.231140,325.241638 
	C99.115433,323.534973 103.090607,321.946503 106.738945,319.814056 
	C111.234749,317.186188 116.228249,315.033661 118.153702,309.346283 
	C118.781509,307.491882 120.539070,305.948975 121.981606,304.458862 
	C123.894547,302.482758 126.005287,300.698120 128.132614,298.737640 
	C122.717247,294.864899 122.771614,293.840515 128.476776,290.153198 
	C128.476776,292.072815 128.476776,293.700409 128.476776,296.802795 
	C130.170364,294.442291 131.062012,293.018005 132.131836,291.743225 
	C135.078400,288.232117 137.898392,284.579773 141.150421,281.370361 
	C144.130432,278.429352 145.852264,275.404297 144.578949,271.170349 
	C144.295532,270.227997 143.819397,269.100708 144.089706,268.273468 
	C146.090622,262.149689 148.687088,256.186005 150.221329,249.956497 
	C151.236618,245.834198 151.445969,241.255997 150.800262,237.069427 
	C150.343307,234.106735 149.989639,232.447784 152.755814,230.388596 
	C156.931656,227.279953 159.515549,223.063004 160.223190,217.474792 
	C160.605316,214.457291 163.390228,211.814957 164.665955,208.822128 
	C166.331818,204.913971 167.600845,200.834732 168.995667,196.813507 
	C170.350220,192.908401 171.494537,188.922745 173.016708,185.085724 
	C174.359406,181.701096 174.727753,179.347504 169.971405,178.889114 
	C167.319504,178.633545 166.608032,171.494125 169.141586,168.521469 
	C171.607254,165.628448 174.807816,163.332764 174.328690,158.827972 
	C174.255402,158.139053 175.325333,157.013916 176.129059,156.598648 
	C180.563904,154.307205 182.486435,150.516037 182.992706,145.389496 
	C184.245377,143.921280 185.572372,142.922638 186.722473,141.750443 
	C192.797348,135.558899 193.677521,136.720963 189.186005,128.474335 
	C187.147812,124.732147 188.031326,121.988174 191.118393,119.344231 
	C196.689377,114.572906 197.298721,109.953354 193.126984,103.764336 
	C194.445480,103.616783 195.547043,103.493507 197.298904,103.297462 
	C196.539337,101.853607 195.993607,100.759140 195.397507,99.692848 
	C192.576050,94.646103 194.881348,87.814766 199.888824,84.847160 
	C201.331924,83.991936 201.997345,81.616425 202.735092,79.821136 
	C204.417282,75.727592 205.923538,71.561760 207.225677,67.190834 
	C214.533646,59.501835 222.117218,52.047302 229.846283,44.293388 
	C235.748596,39.031715 241.505402,34.069427 247.621246,29.486847 
	C248.325180,32.244877 248.670059,34.623203 249.058075,37.396179 
	C252.062607,52.860123 255.024017,67.929413 257.985413,82.998703 
z"/>
<path fill="#FFD2D8" opacity="1.000000" stroke="none" 
	d="
M163.669037,108.104645 
	C164.495972,110.232285 166.189713,113.174599 165.339462,114.680244 
	C162.806473,119.165588 161.941376,123.247017 165.321869,127.367195 
	C157.251755,133.038101 157.298874,134.499268 159.441437,143.827881 
	C160.197235,147.118652 157.796890,151.281677 156.409332,154.881393 
	C154.522446,159.776428 152.167892,164.489563 150.158142,169.340454 
	C149.815308,170.167938 149.833954,171.523834 150.294815,172.247803 
	C155.666351,180.686234 149.514175,186.663589 145.760025,193.011963 
	C144.879364,194.501221 142.590988,195.158035 140.184174,196.683304 
	C141.047928,199.339493 142.164398,202.772827 143.750839,207.651367 
	C142.665756,209.976700 140.560974,214.055588 138.870209,218.299423 
	C138.069885,220.308258 138.338272,222.731812 137.603546,224.781433 
	C137.052597,226.318420 135.672745,227.558289 134.303802,228.973923 
	C124.321335,216.396149 114.632935,203.822983 105.105766,191.128815 
	C101.539047,186.376450 98.227234,181.417114 95.095016,176.368591 
	C94.523758,175.447830 94.868668,173.136703 95.665001,172.321503 
	C101.228912,166.625839 107.022850,161.154892 112.898376,155.315857 
	C122.289909,146.221024 131.526199,137.422348 140.927017,128.331726 
	C143.817963,125.765778 146.613083,123.568497 149.255753,121.201012 
	C154.009750,116.942047 158.672318,112.581032 163.669037,108.104645 
z"/>
<path fill="#907E89" opacity="1.000000" stroke="none" 
	d="
M114.000710,458.103241 
	C124.055107,448.535614 134.378967,439.397278 144.509415,430.049316 
	C155.253891,420.134735 165.690323,409.884979 176.483658,400.025024 
	C194.535507,383.534149 212.860291,367.341766 230.887970,350.824860 
	C245.596848,337.348663 259.962372,323.498230 274.631378,309.977783 
	C282.443176,302.777588 290.575775,295.925476 299.179016,288.756653 
	C319.018433,295.055084 338.241730,301.515106 357.470367,307.959381 
	C357.931091,308.113800 358.450806,308.092255 359.204956,308.391632 
	C364.259552,310.453247 369.023224,312.356903 373.849945,314.084473 
	C392.225128,320.661224 410.620667,327.181152 429.333679,333.907623 
	C433.493317,335.549530 437.327911,337.006134 441.162506,338.462738 
	C439.189514,344.811340 434.936096,348.443329 428.469086,350.127747 
	C425.052826,351.017548 421.981995,353.183319 418.686127,354.613770 
	C417.571838,355.097351 415.374237,355.612640 415.146027,355.231323 
	C411.675629,349.431000 407.743378,353.200409 403.932037,354.497192 
	C403.465515,354.655914 402.978851,354.755432 402.286469,354.939575 
	C399.585510,350.992188 397.263000,351.028992 394.007355,354.974548 
	C392.245178,357.110199 388.763214,361.387207 385.854218,358.162994 
	C383.015869,355.017029 387.918610,353.182800 389.891144,351.040466 
	C390.691803,350.170898 391.443146,349.255890 392.216949,348.361542 
	C392.003967,347.960907 391.790985,347.560272 391.578003,347.159637 
	C390.264648,347.343292 388.632477,347.094452 387.693878,347.786377 
	C383.878754,350.598907 380.294434,353.722626 376.587952,356.685211 
	C374.799377,358.114807 373.103516,359.844025 371.059265,360.732666 
	C366.551331,362.692108 361.675812,363.852509 357.282837,366.014679 
	C354.004974,367.628021 351.189636,368.009888 347.881744,366.491394 
	C341.767212,363.684570 335.109497,363.624390 328.982910,365.343384 
	C325.872437,366.216125 323.133209,369.952942 321.152374,372.997589 
	C316.701141,379.839478 315.962799,380.490540 308.677307,377.223328 
	C304.944397,375.549255 303.159485,375.841980 301.728668,380.092651 
	C299.395691,387.023499 294.062897,388.632996 288.160797,384.405243 
	C285.325958,382.374603 283.060699,381.731781 280.220154,384.161133 
	C277.526733,386.464600 274.494110,386.585327 271.424652,384.723206 
	C267.916138,382.594635 265.728149,382.578247 262.499725,386.457550 
	C258.828979,390.868317 252.808426,393.239136 248.224686,397.002625 
	C244.878006,399.750488 241.963867,403.130463 239.289856,406.565674 
	C235.913666,410.902924 232.977615,415.582764 229.851715,420.114838 
	C229.281219,419.871643 228.710724,419.628479 228.140244,419.385284 
	C228.582596,417.209869 229.024963,415.034454 229.553452,412.435486 
	C225.757858,413.863464 223.761810,412.142822 223.521713,409.230591 
	C219.771378,410.215881 216.070343,410.685303 212.886414,412.224457 
	C211.140717,413.068359 209.276154,415.680359 209.206085,417.559998 
	C209.056931,421.560211 208.097260,424.694122 204.676819,426.904907 
	C204.264816,427.171204 203.813339,427.519928 203.608475,427.941437 
	C201.041946,433.222076 198.579117,438.553955 195.956848,443.806366 
	C194.597321,446.529541 192.995636,449.133606 191.456360,451.763947 
	C191.053757,452.451996 190.161346,452.978088 190.029404,453.679291 
	C189.222397,457.968109 186.051041,461.248199 184.679047,464.878693 
	C182.462585,470.743744 177.990341,474.138428 174.261993,478.815613 
	C161.914536,475.011963 149.841431,471.014801 137.384140,467.009521 
	C131.132278,464.993774 125.246017,463.038147 119.407997,460.947784 
	C117.599609,460.300232 115.922363,459.286438 114.000710,458.103241 
M307.292145,370.440979 
	C307.010895,370.709259 306.729614,370.977509 306.448364,371.245789 
	C306.559540,371.362244 306.761353,371.586029 306.768890,371.579620 
	C307.065552,371.329224 307.344543,371.057922 307.292145,370.440979 
z"/>
<path fill="#FAD8F1" opacity="1.000000" stroke="none" 
	d="
M249.014954,37.001526 
	C248.670059,34.623203 248.325180,32.244877 247.967896,29.460449 
	C256.712067,31.698040 265.468597,34.341732 274.610779,36.992661 
	C277.889557,38.442387 280.782745,39.884884 283.848694,41.628181 
	C284.901367,44.004223 285.315399,46.500538 286.743317,48.080551 
	C292.398285,54.337803 298.424744,60.033554 302.776917,67.621620 
	C306.454834,74.034088 313.028961,78.724060 317.930878,84.507301 
	C333.321808,102.665451 348.561066,120.952660 363.793213,139.244720 
	C371.720154,148.764038 379.764923,158.202362 387.293365,168.031952 
	C396.322662,179.821136 404.901062,191.957535 413.595428,204.000824 
	C421.920074,215.532028 430.061188,227.196320 438.437927,238.689209 
	C444.642365,247.201721 451.368622,255.343796 457.363037,263.996857 
	C463.816193,273.312103 469.579041,283.102600 475.855988,292.544189 
	C479.145813,297.492645 483.142853,301.975067 486.373199,306.957977 
	C491.370850,314.666870 495.973053,322.631622 500.767303,330.473053 
	C503.354858,334.705261 506.081116,338.855255 508.579773,343.138611 
	C510.498077,346.427094 512.104736,349.895721 513.946960,353.230682 
	C516.228027,357.359955 518.609314,361.433838 520.916016,365.925140 
	C509.108185,362.089050 497.331635,357.859497 485.307922,353.030518 
	C486.643433,349.260712 485.444885,347.087311 483.203064,344.510132 
	C478.836853,339.490845 471.133759,336.746002 471.503021,328.286926 
	C471.514252,328.029968 471.116882,327.764801 470.932800,327.488281 
	C466.214203,320.400085 462.426331,312.775940 455.843231,306.856598 
	C452.383667,303.745789 449.379486,298.813232 448.657013,294.304688 
	C447.741333,288.590820 444.071381,285.741577 440.709900,282.262054 
	C437.806793,279.256989 435.902039,276.083008 434.459106,271.913361 
	C432.389526,265.932739 428.233978,260.618683 424.634827,255.243790 
	C422.535583,252.108826 418.245850,249.696686 417.642426,246.456421 
	C416.320251,239.356140 411.332336,235.868912 406.619843,231.772064 
	C405.385986,230.699417 403.404205,229.394592 403.395294,228.184357 
	C403.340790,220.799011 396.760681,218.309921 393.082764,213.678696 
	C392.079834,212.415848 390.972992,211.208847 390.151093,209.834351 
	C388.261230,206.673904 386.982819,203.018829 384.608948,200.305908 
	C380.679077,195.814880 376.026459,191.962936 371.802277,187.718414 
	C370.669067,186.579758 369.193787,184.975937 369.226013,183.617691 
	C369.397034,176.409149 363.475250,173.576141 359.556335,169.278076 
	C358.268951,167.866119 357.125977,166.287567 356.126190,164.656906 
	C354.799683,162.493408 354.055573,159.862152 352.397766,158.033203 
	C347.483124,152.611069 340.474182,148.303696 337.570190,142.037567 
	C333.794220,133.889740 327.572662,128.570999 321.899200,122.437729 
	C318.655365,118.930969 314.586243,116.081528 314.557343,110.493935 
	C314.550873,109.245003 313.300446,107.710289 312.209290,106.805878 
	C304.195038,100.163055 297.634918,92.581764 291.665680,83.819756 
	C284.773712,73.703407 275.085297,65.383682 266.036682,56.896267 
	C262.196655,53.294407 258.899048,49.949768 256.854858,44.916359 
	C255.530502,41.655399 254.902023,36.311157 249.014954,37.001526 
z"/>
<path fill="#F4D8F3" opacity="1.000000" stroke="none" 
	d="
M249.058075,37.396179 
	C254.902023,36.311157 255.530502,41.655399 256.854858,44.916359 
	C258.899048,49.949768 262.196655,53.294407 266.036682,56.896267 
	C275.085297,65.383682 284.773712,73.703407 291.665680,83.819756 
	C297.634918,92.581764 304.195038,100.163055 312.209290,106.805878 
	C313.300446,107.710289 314.550873,109.245003 314.557343,110.493935 
	C314.586243,116.081528 318.655365,118.930969 321.899200,122.437729 
	C327.572662,128.570999 333.794220,133.889740 337.570190,142.037567 
	C340.474182,148.303696 347.483124,152.611069 352.397766,158.033203 
	C354.055573,159.862152 354.799683,162.493408 356.126190,164.656906 
	C357.125977,166.287567 358.268951,167.866119 359.556335,169.278076 
	C363.475250,173.576141 369.397034,176.409149 369.226013,183.617691 
	C369.193787,184.975937 370.669067,186.579758 371.802277,187.718414 
	C376.026459,191.962936 380.679077,195.814880 384.608948,200.305908 
	C386.982819,203.018829 388.261230,206.673904 390.151093,209.834351 
	C390.972992,211.208847 392.079834,212.415848 393.082764,213.678696 
	C396.760681,218.309921 403.340790,220.799011 403.395294,228.184357 
	C403.404205,229.394592 405.385986,230.699417 406.619843,231.772064 
	C411.332336,235.868912 416.320251,239.356140 417.642426,246.456421 
	C418.245850,249.696686 422.535583,252.108826 424.634827,255.243790 
	C428.233978,260.618683 432.389526,265.932739 434.459106,271.913361 
	C435.902039,276.083008 437.806793,279.256989 440.709900,282.262054 
	C444.071381,285.741577 447.741333,288.590820 448.657013,294.304688 
	C449.379486,298.813232 452.383667,303.745789 455.843231,306.856598 
	C462.426331,312.775940 466.214203,320.400085 470.932800,327.488281 
	C471.116882,327.764801 471.514252,328.029968 471.503021,328.286926 
	C471.133759,336.746002 478.836853,339.490845 483.203064,344.510132 
	C485.444885,347.087311 486.643433,349.260712 485.019867,352.826172 
	C472.825195,349.069550 460.674103,344.910095 448.515289,340.773407 
	C446.333801,340.031189 444.120392,339.382874 441.542114,338.576965 
	C437.327911,337.006134 433.493317,335.549530 429.331268,333.523926 
	C429.999634,329.530273 430.995422,326.105560 431.991211,322.680847 
	C431.607666,322.455139 431.224121,322.229401 430.840576,322.003662 
	C429.763947,322.882721 428.809204,324.178497 427.580566,324.537842 
	C425.958099,325.012421 423.054291,325.406494 422.602905,324.669861 
	C421.722443,323.233063 422.009521,320.975830 422.148010,319.082855 
	C422.190125,318.506714 423.743652,318.098328 423.878693,317.459534 
	C424.138123,316.232422 423.878479,314.895508 423.834167,313.604156 
	C422.897675,314.211334 421.775940,314.656860 421.070251,315.465485 
	C420.129669,316.543274 419.512634,317.903442 418.714294,319.211700 
	C413.638367,313.528442 416.170349,308.536957 419.343689,303.560272 
	C418.762665,303.309113 418.181641,303.057922 417.600616,302.806763 
	C416.108948,304.457123 414.617249,306.107513 413.194061,307.682098 
	C407.545074,303.109100 412.306976,298.202179 412.355652,293.264099 
	C410.711914,294.189667 409.899567,295.698761 408.637695,296.408142 
	C407.508850,297.042725 405.116943,297.436859 404.608551,296.828613 
	C402.131165,293.864502 399.972473,290.605988 397.944916,287.301971 
	C395.973816,284.089844 395.354187,280.943176 399.058899,278.182037 
	C399.798798,277.630554 399.600494,275.820221 399.834778,274.590363 
	C399.385193,274.423035 398.935608,274.255707 398.486023,274.088409 
	C397.060211,276.001801 395.634399,277.915222 394.208588,279.828613 
	C393.796600,279.700134 393.384644,279.571625 392.972656,279.443115 
	C392.972656,274.419769 392.972656,269.396393 392.972656,263.119598 
	C390.909271,265.651367 389.477142,267.408630 387.704498,269.583649 
	C381.849152,264.680176 379.016296,258.667999 377.404602,253.006210 
	C378.905579,250.191406 380.012726,248.115189 381.119873,246.038971 
	C380.633606,245.739548 380.147369,245.440140 379.661102,245.140717 
	C378.075684,246.632660 376.490265,248.124603 374.115631,250.359222 
	C373.723328,245.025406 373.402740,240.666336 373.156708,237.321106 
	C370.203552,236.931168 368.072052,236.649719 365.940521,236.368286 
	C366.441956,234.538712 367.032288,232.727020 367.405640,230.871689 
	C367.580322,230.003738 367.335693,229.051437 367.209656,226.940781 
	C365.303772,229.300919 364.263519,230.589081 363.223297,231.877243 
	C362.656036,231.853363 362.088776,231.829468 361.521515,231.805573 
	C361.080750,227.600311 360.640015,223.395035 360.291107,220.066055 
	C357.590057,219.931198 353.799103,220.329681 353.581482,219.624832 
	C352.818146,217.152756 353.285339,214.300720 353.285339,211.575272 
	C352.360718,211.789459 350.495972,212.221420 348.175873,212.758850 
	C347.785950,208.379547 347.425232,204.328186 347.131775,201.032379 
	C344.155670,201.032379 341.243256,201.938812 339.731781,200.867905 
	C334.524536,197.178497 342.890991,195.023331 341.008484,190.638153 
	C339.609039,191.771210 338.552551,192.933792 337.243011,193.595551 
	C336.067108,194.189774 333.812286,194.897079 333.411133,194.412918 
	C330.735596,191.184067 327.810486,187.907852 326.226654,184.120071 
	C325.211487,181.692245 326.351410,178.363281 326.534546,175.281494 
	C326.211212,175.363052 325.170013,175.380920 324.422058,175.858292 
	C321.742889,177.568298 319.307159,176.963608 318.173462,174.373398 
	C317.548126,172.944626 318.629913,170.763657 318.957672,168.924561 
	C319.157928,167.800903 319.387756,166.682526 319.868439,164.194809 
	C317.382538,166.563812 316.146301,167.741928 313.611877,170.157166 
	C313.023926,164.909317 312.596741,161.096664 312.118774,156.830658 
	C309.222443,158.625671 305.650452,160.696289 304.518341,156.186325 
	C303.883789,153.658463 305.850952,150.477524 306.992828,146.330917 
	C305.040955,147.845123 304.262512,148.850296 303.282440,149.118484 
	C301.672638,149.558975 299.932007,149.521484 298.246552,149.685547 
	C298.365997,147.684387 298.432648,145.677399 298.653046,143.687439 
	C298.693176,143.324966 299.650452,143.060150 299.685272,142.701736 
	C299.789978,141.624344 299.648102,140.522980 299.602417,139.430969 
	C298.726379,139.847382 297.669525,140.080170 297.016449,140.723099 
	C296.025940,141.698318 295.316010,142.958511 294.486877,144.097626 
	C294.048035,143.939606 293.609161,143.781570 293.170288,143.623535 
	C292.904816,139.522476 292.639343,135.421402 292.352478,130.989548 
	C289.227203,131.861847 285.302826,134.872360 284.206848,129.816742 
	C283.674438,127.360802 285.773895,124.334328 286.923157,120.830513 
	C285.335754,121.414108 284.290680,121.504517 283.686371,122.067810 
	C279.485535,125.983482 278.123718,125.516068 274.927917,120.650505 
	C271.828003,115.930916 270.191162,111.171028 271.984955,104.914558 
	C268.519348,105.721382 265.764801,106.362679 263.010223,107.003967 
	C261.443054,99.243317 259.875854,91.482674 258.147034,83.360367 
	C255.024017,67.929413 252.062607,52.860123 249.058075,37.396179 
z"/>
<path fill="#907E89" opacity="1.000000" stroke="none" 
	d="
M224.386139,426.432922 
	C225.651215,425.087219 226.759430,424.051910 227.867645,423.016602 
	C228.343307,423.398438 228.818985,423.780304 229.294662,424.162140 
	C228.212128,425.583435 227.129608,427.004730 226.047089,428.426025 
	C225.441162,427.865112 224.835220,427.304230 224.386139,426.432922 
z"/>
<path fill="#B38B91" opacity="1.000000" stroke="none" 
	d="
M344.448914,454.539612 
	C344.415192,454.482758 344.482635,454.596436 344.448914,454.539612 
z"/>
<path fill="#AD909D" opacity="1.000000" stroke="none" 
	d="
M437.985229,196.981262 
	C437.885315,197.014725 437.798706,197.063431 437.870972,197.067047 
	C438.029785,197.021988 437.998566,196.996475 437.985229,196.981262 
z"/>
<path fill="#F9D2DA" opacity="1.000000" stroke="none" 
	d="
M182.991180,144.631561 
	C182.079727,144.591217 181.159439,144.182419 180.239166,143.773621 
	C180.511459,143.275467 180.783737,142.777313 181.056030,142.279160 
	C181.698135,142.940475 182.340256,143.601791 182.991180,144.631561 
z"/>
<path fill="#EBD9F6" opacity="1.000000" stroke="none" 
	d="
M263.163452,107.368797 
	C265.764801,106.362679 268.519348,105.721382 271.984955,104.914558 
	C270.191162,111.171028 271.828003,115.930916 274.927917,120.650505 
	C278.123718,125.516068 279.485535,125.983482 283.686371,122.067810 
	C284.290680,121.504517 285.335754,121.414108 286.923157,120.830513 
	C285.773895,124.334328 283.674438,127.360802 284.206848,129.816742 
	C285.302826,134.872360 289.227203,131.861847 292.352478,130.989548 
	C292.639343,135.421402 292.904816,139.522476 293.170288,143.623535 
	C293.609161,143.781570 294.048035,143.939606 294.486877,144.097626 
	C295.316010,142.958511 296.025940,141.698318 297.016449,140.723099 
	C297.669525,140.080170 298.726379,139.847382 299.602417,139.430969 
	C299.648102,140.522980 299.789978,141.624344 299.685272,142.701736 
	C299.650452,143.060150 298.693176,143.324966 298.653046,143.687439 
	C298.432648,145.677399 298.365997,147.684387 298.246552,149.685547 
	C299.932007,149.521484 301.672638,149.558975 303.282440,149.118484 
	C304.262512,148.850296 305.040955,147.845123 306.992828,146.330917 
	C305.850952,150.477524 303.883789,153.658463 304.518341,156.186325 
	C305.650452,160.696289 309.222443,158.625671 312.118774,156.830658 
	C312.596741,161.096664 313.023926,164.909317 313.611877,170.157166 
	C316.146301,167.741928 317.382538,166.563812 319.868439,164.194809 
	C319.387756,166.682526 319.157928,167.800903 318.957672,168.924561 
	C318.629913,170.763657 317.548126,172.944626 318.173462,174.373398 
	C319.307159,176.963608 321.742889,177.568298 324.422058,175.858292 
	C325.170013,175.380920 326.211212,175.363052 326.534546,175.281494 
	C326.351410,178.363281 325.211487,181.692245 326.226654,184.120071 
	C327.810486,187.907852 330.735596,191.184067 333.411133,194.412918 
	C333.812286,194.897079 336.067108,194.189774 337.243011,193.595551 
	C338.552551,192.933792 339.609039,191.771210 341.008484,190.638153 
	C342.890991,195.023331 334.524536,197.178497 339.731781,200.867905 
	C341.243256,201.938812 344.155670,201.032379 347.131775,201.032379 
	C347.425232,204.328186 347.785950,208.379547 348.175873,212.758850 
	C350.495972,212.221420 352.360718,211.789459 353.285339,211.575272 
	C353.285339,214.300720 352.818146,217.152756 353.581482,219.624832 
	C353.799103,220.329681 357.590057,219.931198 360.291107,220.066055 
	C360.640015,223.395035 361.080750,227.600311 361.521515,231.805573 
	C362.088776,231.829468 362.656036,231.853363 363.223297,231.877243 
	C364.263519,230.589081 365.303772,229.300919 367.209656,226.940781 
	C367.335693,229.051437 367.580322,230.003738 367.405640,230.871689 
	C367.032288,232.727020 366.441956,234.538712 365.940521,236.368286 
	C368.072052,236.649719 370.203552,236.931168 373.156708,237.321106 
	C373.402740,240.666336 373.723328,245.025406 374.115631,250.359222 
	C376.490265,248.124603 378.075684,246.632660 379.661102,245.140717 
	C380.147369,245.440140 380.633606,245.739548 381.119873,246.038971 
	C380.012726,248.115189 378.905579,250.191406 377.404602,253.006210 
	C379.016296,258.667999 381.849152,264.680176 387.704498,269.583649 
	C389.477142,267.408630 390.909271,265.651367 392.972656,263.119598 
	C392.972656,269.396393 392.972656,274.419769 392.972656,279.443115 
	C393.384644,279.571625 393.796600,279.700134 394.208588,279.828613 
	C395.634399,277.915222 397.060211,276.001801 398.486023,274.088409 
	C398.935608,274.255707 399.385193,274.423035 399.834778,274.590363 
	C399.600494,275.820221 399.798798,277.630554 399.058899,278.182037 
	C395.354187,280.943176 395.973816,284.089844 397.944916,287.301971 
	C399.972473,290.605988 402.131165,293.864502 404.608551,296.828613 
	C405.116943,297.436859 407.508850,297.042725 408.637695,296.408142 
	C409.899567,295.698761 410.711914,294.189667 412.355652,293.264099 
	C412.306976,298.202179 407.545074,303.109100 413.194061,307.682098 
	C414.617249,306.107513 416.108948,304.457123 417.600616,302.806763 
	C418.181641,303.057922 418.762665,303.309113 419.343689,303.560272 
	C416.170349,308.536957 413.638367,313.528442 418.714294,319.211700 
	C419.512634,317.903442 420.129669,316.543274 421.070251,315.465485 
	C421.775940,314.656860 422.897675,314.211334 423.834167,313.604156 
	C423.878479,314.895508 424.138123,316.232422 423.878693,317.459534 
	C423.743652,318.098328 422.190125,318.506714 422.148010,319.082855 
	C422.009521,320.975830 421.722443,323.233063 422.602905,324.669861 
	C423.054291,325.406494 425.958099,325.012421 427.580566,324.537842 
	C428.809204,324.178497 429.763947,322.882721 430.840576,322.003662 
	C431.224121,322.229401 431.607666,322.455139 431.991211,322.680847 
	C430.995422,326.105560 429.999634,329.530273 429.006226,333.338623 
	C410.620667,327.181152 392.225128,320.661224 373.849945,314.084473 
	C369.023224,312.356903 364.259552,310.453247 359.222443,307.975952 
	C357.880432,304.920685 356.859955,302.480499 355.656830,300.133942 
	C354.926208,298.708954 353.822845,297.478577 353.047546,296.072266 
	C351.731079,293.684296 350.707123,291.122681 349.264862,288.818970 
	C345.987244,283.583618 341.079834,279.767487 338.482391,273.670715 
	C335.328705,266.268280 331.986084,258.466827 324.954834,253.310425 
	C323.312958,252.106339 322.351868,249.922455 321.202484,248.110153 
	C319.389343,245.251144 317.852539,242.203796 315.896027,239.451385 
	C311.045441,232.627655 305.989716,225.950150 301.086273,219.163422 
	C298.974884,216.241135 296.585876,213.398804 295.113159,210.160782 
	C292.062561,203.453476 287.337128,198.536942 281.004883,195.000000 
	C276.340576,172.216125 271.664307,149.434677 267.019836,126.646759 
	C265.736908,120.352280 264.548492,114.038536 263.163452,107.368797 
z"/>
<path fill="#E3D9F7" opacity="1.000000" stroke="none" 
	d="
M281.013000,195.414246 
	C287.337128,198.536942 292.062561,203.453476 295.113159,210.160782 
	C296.585876,213.398804 298.974884,216.241135 301.086273,219.163422 
	C305.989716,225.950150 311.045441,232.627655 315.896027,239.451385 
	C317.852539,242.203796 319.389343,245.251144 321.202484,248.110153 
	C322.351868,249.922455 323.312958,252.106339 324.954834,253.310425 
	C331.986084,258.466827 335.328705,266.268280 338.482391,273.670715 
	C341.079834,279.767487 345.987244,283.583618 349.264862,288.818970 
	C350.707123,291.122681 351.731079,293.684296 353.047546,296.072266 
	C353.822845,297.478577 354.926208,298.708954 355.656830,300.133942 
	C356.859955,302.480499 357.880432,304.920685 358.960480,307.737091 
	C358.450806,308.092255 357.931091,308.113800 357.470367,307.959381 
	C338.241730,301.515106 319.018433,295.055084 299.409302,288.477966 
	C297.018707,277.797974 295.058441,267.228241 292.998077,256.678040 
	C289.035736,236.388992 285.016663,216.111038 281.013000,195.414246 
z"/>
<path fill="#947E87" opacity="1.000000" stroke="none" 
	d="
M307.458984,370.615143 
	C307.344543,371.057922 307.065552,371.329224 306.768890,371.579620 
	C306.761353,371.586029 306.559540,371.362244 306.448364,371.245789 
	C306.729614,370.977509 307.010895,370.709259 307.458984,370.615143 
z"/>
</svg>