<?xml version="1.0" encoding="UTF-8" standalone="no"?>
<svg
   version="1.1"
   id="Layer_1"
   x="0px"
   y="0px"
   width="600"
   viewBox="0 0 600 707"
   enable-background="new 0 0 600 578"
   xml:space="preserve"
   sodipodi:docname="pf_text.svg"
   inkscape:version="1.3.2 (091e20ef0f, 2023-11-25, custom)"
   inkscape:export-filename="pf.svg"
   inkscape:export-xdpi="96"
   inkscape:export-ydpi="96"
   height="707"
   xmlns:inkscape="http://www.inkscape.org/namespaces/inkscape"
   xmlns:sodipodi="http://sodipodi.sourceforge.net/DTD/sodipodi-0.dtd"
   xmlns="http://www.w3.org/2000/svg"
   xmlns:svg="http://www.w3.org/2000/svg"><defs
   id="defs62" /><sodipodi:namedview
   id="namedview62"
   pagecolor="#ffffff"
   bordercolor="#000000"
   borderopacity="0.25"
   inkscape:showpageshadow="2"
   inkscape:pageopacity="0.0"
   inkscape:pagecheckerboard="0"
   inkscape:deskcolor="#d1d1d1"
   showgrid="false"
   inkscape:zoom="1.4142136"
   inkscape:cx="208.95005"
   inkscape:cy="357.79603"
   inkscape:window-width="1920"
   inkscape:window-height="1011"
   inkscape:window-x="0"
   inkscape:window-y="0"
   inkscape:window-maximized="1"
   inkscape:current-layer="Layer_1" />






























































<path
   style="fill:none;fill-opacity:1;stroke-width:0.502098;stroke:#000000;stroke-opacity:1"
   d="m 344.43918,566.9125 c -23.30718,-7.96884 -27.03808,-9.33676 -87.36504,-32.03269 -51.12229,-19.23296 -56.97815,-21.39103 -94.39441,-34.78709 -17.9578,-6.42939 -58.66905,-21.48803 -78.327277,-28.97239 -3.59,-1.3668 -7.763669,-2.82769 -9.274818,-3.24642 -7.781328,-2.15619 -9.617439,-4.62443 -11.112236,-14.93789 -0.523805,-3.61403 -1.647609,-10.07309 -2.497342,-14.35347 -0.849733,-4.28039 -1.730376,-8.91224 -1.956984,-10.29301 -0.803267,-4.89448 -1.150236,-6.72612 -4.803186,-25.35595 -5.857589,-29.87335 -11.663375,-61.61955 -17.308883,-94.64546 -6.241613,-36.51309 -7.976746,-46.20675 -13.301334,-74.31049 -6.606489,-34.86976 -6.948536,-36.96822 -6.141651,-37.67896 0.341883,-0.30115 2.881045,-2.58596 5.642584,-5.07735 8.505312,-7.67328 27.665461,-24.1818 36.904198,-31.79692 12.356756,-10.18517 34.668904,-29.01111 53.068219,-44.77645 8.61406,-7.3809 16.40913,-13.80322 17.32238,-14.27182 2.1783,-1.117715 7.42633,-5.500342 39.63001,-33.095017 14.82481,-12.703077 30.5276,-25.920806 34.89509,-29.372729 10.46866,-8.274097 17.9121,-14.496974 26.91152,-22.498635 8.19905,-7.2900272 8.68339,-7.627241 10.95491,-7.627241 0.87493,0 8.85432,2.355973 17.73196,5.235496 28.05981,9.101383 52.23008,16.849924 70.1167,22.478108 37.45605,11.785879 69.56783,22.21977 151.18859,49.124793 25.02333,8.24856 48.9734,16.053225 53.22236,17.343705 4.249,1.29047 7.77353,2.38501 7.83237,2.43229 0.58937,0.47382 10.18606,66.08664 10.18606,69.64239 0,1.1382 0.78127,7.06894 1.73616,13.17942 0.95484,6.11048 1.88236,12.69157 2.06106,14.62465 0.17875,1.93308 1.07082,8.14654 1.98243,13.80769 1.88478,11.70457 6.6397,46.36388 8.26599,60.25176 0.5983,5.10884 2.97468,23.52328 5.28087,40.92098 2.30618,17.39769 4.6689,35.47322 5.25038,40.16783 0.58153,4.69462 1.42586,9.83483 1.87634,11.42269 1.08348,3.81927 0.44542,5.97793 -2.73357,9.2479 -6.87568,7.0724 -48.70013,45.7532 -65.39379,60.47858 -6.76576,5.96804 -14.89975,13.32253 -18.07552,16.34329 -12.47442,11.86556 -48.90961,45.51767 -56.98812,52.63512 -4.69461,4.13609 -10.83212,9.66916 -13.63891,12.29563 -2.80678,2.62648 -8.08015,7.48673 -11.7186,10.80058 -3.63844,3.31385 -9.04326,8.28462 -12.0107,11.04615 -2.96745,2.76154 -10.11197,9.08798 -15.87673,14.05875 -5.76476,4.97077 -12.44598,11.01477 -14.84716,13.43112 -2.44694,2.46238 -4.77291,4.38185 -5.29209,4.36724 -0.50946,-0.0144 -9.06029,-2.80713 -19.00183,-6.20618 z M 325.8278,505.4871 c 7.40542,-20.84912 14.55004,-40.39412 16.03764,-43.87296 0.9436,-2.20667 3.18335,-4.95607 4.03736,-4.95607 0.68649,0 8.16347,10.11437 26.53884,35.9 6.69096,9.38924 12.50429,17.12772 12.91853,17.19661 0.41423,0.0689 3.60093,-2.19051 7.08156,-5.02096 18.22399,-14.81976 29.46195,-24.35871 35.34356,-30.00012 7.15029,-6.85829 14.61103,-13.58013 30.37908,-27.37044 24.30997,-21.26084 47.92999,-42.54857 65.77483,-59.2801 12.10035,-11.34543 15.74413,-15.08143 15.3427,-15.73095 -0.15068,-0.24385 0.0636,-0.57292 0.47624,-0.73127 0.51279,-0.19677 0.75029,-1.00762 0.75029,-2.5618 0,-1.25064 -4.73258,-23.68268 -10.5169,-49.84897 -5.78426,-26.1663 -14.04197,-63.61712 -18.35043,-83.22404 -12.12572,-55.18167 -11.31376,-51.96714 -13.12633,-51.96714 -0.68885,0 -7.6206,1.45297 -15.40388,3.22883 -20.65008,4.71159 -39.8973,8.85555 -42.63899,9.18027 -2.26593,0.26836 -2.39137,0.22026 -2.38986,-0.91643 0.003,-2.33945 4.43807,-18.26426 14.80662,-53.1668 9.76186,-32.86027 9.88562,-33.42307 7.66067,-34.83788 -0.62135,-0.39511 -7.23021,-2.91105 -14.68636,-5.59098 -20.30809,-7.299255 -51.75873,-19.139708 -69.28952,-26.085927 -8.56077,-3.392033 -20.64878,-7.917381 -26.86224,-10.056333 -6.21346,-2.138953 -17.28472,-6.146764 -24.6028,-8.906249 -7.31807,-2.759484 -19.51905,-7.328673 -27.11329,-10.153755 -7.59423,-2.825081 -15.50227,-5.882709 -17.57342,-6.794728 -4.91057,-2.162335 -13.21221,-4.953163 -24.02669,-8.077242 -8.17345,-2.361135 -8.78691,-2.468302 -9.91149,-1.731448 -4.26566,2.794967 -15.43997,12.871434 -27.31777,24.633879 -7.59423,7.52048 -16.62232,16.129196 -20.06242,19.130486 -10.89268,9.503243 -22.82811,20.551943 -25.49467,23.600571 -4.96705,5.678746 -17.64955,17.696966 -28.50236,27.009496 -4.93416,4.23388 -33.53632,31.69525 -43.30594,41.5787 -5.971168,6.04073 -7.154899,7.48473 -7.154899,8.72802 0,2.57546 8.610749,14.7104 29.345029,41.35533 9.05145,11.63171 15.65305,21.44561 14.92032,22.18046 -0.36999,0.37106 -17.67956,5.72571 -43.575246,13.47982 -9.423901,2.82187 -17.441351,5.32039 -17.816553,5.55228 -0.560613,0.34648 -0.200674,3.35624 2.019704,16.88853 1.486039,9.0568 4.145727,23.58415 5.91041,32.283 1.764684,8.69885 4.223663,21.57766 5.464397,28.61958 1.24073,7.04193 2.915131,16.30563 3.720888,20.58602 0.805756,4.28038 1.830131,10.49384 2.276396,13.80769 0.44626,3.31385 1.34024,8.96245 1.986621,12.55245 0.646381,3.59 1.415203,8.89968 1.708503,11.7993 0.29329,2.89962 2.36246,15.43951 4.59815,27.86644 5.68041,31.57412 5.83468,32.31746 7.0859,34.1435 1.38053,2.01475 6.89581,4.66941 17.52189,8.43377 15.20598,5.38682 186.64439,61.9803 188.04212,62.07455 0.29045,0.0196 3.87866,-9.39757 7.97381,-20.92699 z"
   id="path69" /><path
   style="font-weight:bold;font-size:120px;font-family:'UbuntuMono Nerd Font';-inkscape-font-specification:'UbuntuMono Nerd Font Bold';fill:none;stroke:#000000;stroke-opacity:1"
   d="M 121.86585,680.68329 H 75.185848 v -74.28 h 14.88 v 62.04 h 31.800002 z m 35.28,-40.32 q 1.32,-2.76 3,-6.96 1.8,-4.2 3.48,-8.88 1.8,-4.68 3.36,-9.48 1.68,-4.8 3,-8.64 h 15.24 q -2.28,6.12 -4.56,11.88 -2.28,5.76 -4.8,11.4 -2.52,5.64 -5.4,11.28 -2.88,5.52 -6.24,11.4 v 28.32 h -14.88 v -28.2 q -6.6,-11.64 -11.64,-22.68 -4.92,-11.16 -9.48,-23.4 h 15.84 q 2.76,8.64 6.12,17.64 3.36,8.88 6.96,16.32 z m 55.2,-34.8 q 6.36,0 11.52,1.44 5.16,1.44 8.88,4.44 3.72,3 5.64,7.68 2.04,4.56 2.04,10.8 0,6.48 -2.64,11.76 -2.64,5.28 -8.76,8.04 2.04,3.12 4.32,6.96 2.28,3.72 4.44,7.92 2.16,4.08 4.08,8.28 2.04,4.08 3.48,7.8 h -15.48 q -2.76,-7.2 -6.48,-13.8 -3.6,-6.72 -7.8,-13.56 h -7.68 v 27.36 h -14.76 v -73.2 q 2.16,-0.48 4.68,-0.84 2.64,-0.48 5.28,-0.6 2.64,-0.24 5.04,-0.36 2.4,-0.12 4.2,-0.12 z m 13.08,24.24 q 0,-5.88 -3.6,-8.64 -3.6,-2.76 -9.48,-2.76 -0.84,0 -2.04,0.12 -1.2,0 -2.4,0.24 v 22.32 h 3.24 q 7.56,0 10.92,-2.88 3.36,-3 3.36,-8.4 z m 34.8,12.84 h 32.88 v 14.52 h -32.88 z m 62.28,38.04 q 0.36,-7.68 2.52,-16.2 2.16,-8.64 5.16,-17.04 3.12,-8.4 6.72,-15.84 3.6,-7.56 6.84,-12.96 h -31.2 v -12.24 h 48.48 v 11.16 q -3.24,3.72 -7.08,10.44 -3.84,6.72 -7.32,15.24 -3.36,8.52 -6,18.24 -2.52,9.6 -3.12,19.2 z m 65.4,-12 q 0.6,0.12 1.32,0.12 0.72,0 1.32,0 5.04,0 8.4,-1.92 3.48,-1.92 5.52,-5.28 2.16,-3.36 3,-7.92 0.96,-4.68 0.96,-10.2 0,-4.8 -0.72,-9.36 -0.72,-4.56 -2.52,-8.04 -1.8,-3.48 -4.92,-5.52 -3.12,-2.16 -8.04,-2.16 -0.96,0 -2.16,0.12 -1.2,0 -2.16,0.24 z m 35.52,-25.2 q 0,10.32 -2.64,17.64 -2.52,7.2 -7.08,11.76 -4.56,4.56 -10.92,6.72 -6.24,2.04 -13.8,2.04 -3.96,0 -7.8,-0.48 -3.72,-0.36 -8.04,-1.32 v -72.48 q 5.04,-1.08 9.48,-1.44 4.44,-0.36 8.28,-0.36 7.32,0 13.32,2.16 6.12,2.16 10.32,6.84 4.2,4.56 6.48,11.76 2.4,7.08 2.4,17.16 z m 28.8,24.96 v -41.52 q -3.36,2.4 -7.68,4.32 -4.32,1.8 -7.32,2.88 l -4.8,-12.24 q 2.88,-1.08 6.24,-2.76 3.36,-1.68 6.72,-3.72 3.36,-2.04 6.36,-4.32 3,-2.28 5.16,-4.68 h 10.08 v 62.04 h 14.76 v 12.24 h -45.12 v -12.24 z m 42,12.24 v -80.76 l 14.76,-2.52 v 27.36 q 1.8,-0.6 4.32,-1.08 2.52,-0.6 4.44,-0.6 6.24,0 10.44,1.92 4.2,1.8 6.72,5.28 2.52,3.36 3.6,8.16 1.08,4.68 1.08,10.44 v 31.8 h -14.76 v -29.88 q 0,-7.92 -1.8,-11.4 -1.8,-3.48 -6.84,-3.48 -2.04,0 -4.08,0.48 -1.92,0.48 -3.12,0.84 v 43.44 z"
   id="text1"
   aria-label="LYR-7D1h" /><path
   style="fill:none;fill-opacity:1;stroke:#c564c5;stroke-opacity:1"
   d="m 310.5,523.50813 c -3.025,-1.00869 -43.3,-14.2938 -89.5,-29.52247 -95.17905,-31.37339 -102.44037,-33.92587 -106.53316,-37.44826 -2.83053,-2.43603 -3.12628,-3.53611 -7.40348,-27.5374 -2.45034,-13.75 -5.4093,-31.525 -6.57547,-39.5 -3.064612,-20.95777 -7.187095,-44.78378 -12.976835,-75 C 82.359608,287.61499 77.313577,258.34492 77.756864,257.91973 77.890589,257.79146 90.6,253.8514 106,249.16403 c 31.47144,-9.5791 33.5,-10.27312 33.5,-11.46122 0,-1.36452 -8.48321,-13.25358 -25.18151,-35.29141 -16.830891,-22.21282 -19.239986,-26.00802 -18.329725,-28.876 0.658455,-2.07461 33.935645,-34.311 59.761235,-57.8921 9.2125,-8.41185 16.75,-15.63435 16.75,-16.050002 0,-0.415654 6.4069,-6.569186 14.23756,-13.674516 C 194.56821,78.813452 207.95972,66.25 216.49647,58 c 8.53674,-8.25 18.84594,-17.859444 22.90932,-21.354321 6.94191,-5.97066 7.61781,-6.317569 11.19445,-5.74564 5.31417,0.849769 24.18922,7.418742 60.39976,21.020571 17.05,6.404522 40.225,15.094681 51.5,19.311464 11.275,4.216784 38.05,14.273244 59.5,22.347691 l 39,14.680815 -0.22657,2.91886 c -0.12461,1.60537 -2.05569,9.19674 -4.29128,16.86971 -14.11533,48.44641 -19.01194,66.05468 -18.74628,67.41185 0.40946,2.09186 1.63669,1.90654 33.67257,-5.08482 19.09793,-4.16784 27.50354,-6.57853 27.98154,-5.80511 1.39976,2.26485 40.11002,179.68086 40.11002,183.81624 0,2.3221 -1.12433,4.38142 -4.25,7.78431 -5.96222,6.49101 -35.62279,33.69607 -66.27405,60.78742 C 454.68918,449.58651 438.05,464.48763 432,470.07265 418.17901,482.83139 387.39949,508.5 385.92132,508.5 c -0.61008,0 -7.54123,-8.8875 -15.40255,-19.75 -22.36126,-30.89803 -23.41959,-32.25137 -25.01877,-31.99266 -2.27381,0.36784 -5.84562,8.64421 -16.50425,38.24266 -10.14209,28.16405 -11.10564,30.55086 -12.28093,30.42105 -0.39315,-0.0434 -3.18982,-0.90424 -6.21482,-1.91292 z"
   id="path45"
   sodipodi:nodetypes="sssssssssssssssssssscsssssssssssssss" /></svg>
