<?xml version="1.0" encoding="UTF-8" standalone="no"?>
<svg
   version="1.1"
   id="Layer_1"
   x="0px"
   y="0px"
   width="674.61182"
   viewBox="0 0 674.61182 563.36224"
   enable-background="new 0 0 600 578"
   xml:space="preserve"
   sodipodi:docname="pf_text.svg"
   inkscape:version="1.3.2 (091e20ef0f, 2023-11-25, custom)"
   inkscape:export-filename="pf.svg"
   inkscape:export-xdpi="96"
   inkscape:export-ydpi="96"
   height="563.36224"
   xmlns:inkscape="http://www.inkscape.org/namespaces/inkscape"
   xmlns:sodipodi="http://sodipodi.sourceforge.net/DTD/sodipodi-0.dtd"
   xmlns="http://www.w3.org/2000/svg"
   xmlns:svg="http://www.w3.org/2000/svg"><defs
   id="defs62" /><sodipodi:namedview
   id="namedview62"
   pagecolor="#ffffff"
   bordercolor="#000000"
   borderopacity="0.25"
   inkscape:showpageshadow="2"
   inkscape:pageopacity="0.0"
   inkscape:pagecheckerboard="0"
   inkscape:deskcolor="#d1d1d1"
   showgrid="false"
   inkscape:zoom="1.4142136"
   inkscape:cx="228.74904"
   inkscape:cy="229.8097"
   inkscape:window-width="1920"
   inkscape:window-height="1011"
   inkscape:window-x="0"
   inkscape:window-y="0"
   inkscape:window-maximized="1"
   inkscape:current-layer="Layer_1" />






























































<path
   style="fill:none;fill-opacity:1;stroke:#000000;stroke-width:0.502098;stroke-opacity:1"
   d="m 115.23079,327.0465 c 7.96884,-23.30718 9.33676,-27.03808 32.03269,-87.36504 19.23296,-51.12229 21.39103,-56.97815 34.78709,-94.39441 6.42939,-17.9578 21.48803,-58.669048 28.97239,-78.327268 1.3668,-3.59 2.82769,-7.76367 3.24642,-9.27482 2.15619,-7.78133 4.62443,-9.61744 14.93789,-11.11224 3.61403,-0.5238 10.07309,-1.64761 14.35347,-2.49734 4.28039,-0.84973 8.91224,-1.73038 10.29301,-1.95698 4.89448,-0.80327 6.72612,-1.15024 25.35595,-4.80319 29.87335,-5.857589 61.61955,-11.663375 94.64546,-17.308883 36.51309,-6.241613 46.20675,-7.976746 74.31049,-13.3013345 34.86976,-6.60648896 36.96822,-6.94853596 37.67896,-6.14165096 0.30115,0.341883 2.58596,2.88104496 5.07735,5.64258396 7.67328,8.5053125 24.1818,27.6654615 31.79692,36.9041945 10.18517,12.35676 29.01111,34.66891 44.77645,53.06822 7.3809,8.614058 13.80322,16.409128 14.27182,17.322378 1.11771,2.1783 5.50034,7.42633 33.09501,39.63001 12.70308,14.82481 25.92081,30.5276 29.37273,34.89509 8.2741,10.46866 14.49698,17.9121 22.49864,26.91152 7.29002,8.19905 7.62724,8.68339 7.62724,10.95491 0,0.87493 -2.35598,8.85432 -5.2355,17.73196 -9.10138,28.05981 -16.84992,52.23008 -22.47811,70.1167 -11.78588,37.45605 -22.21977,69.56783 -49.12479,151.18859 -8.24856,25.02333 -16.05322,48.9734 -17.3437,53.22236 -1.29047,4.249 -2.38501,7.77353 -2.43229,7.83237 -0.47382,0.58937 -66.08664,10.18606 -69.64239,10.18606 -1.1382,0 -7.06894,0.78127 -13.17942,1.73616 -6.11048,0.95484 -12.69157,1.88236 -14.62465,2.06106 -1.93308,0.17875 -8.14654,1.07082 -13.80769,1.98243 -11.70457,1.88478 -46.36388,6.6397 -60.25176,8.26599 -5.10884,0.5983 -23.52328,2.97468 -40.92098,5.28087 -17.39769,2.30618 -35.47322,4.6689 -40.16783,5.25038 -4.69462,0.58153 -9.83483,1.42586 -11.42269,1.87634 -3.81927,1.08348 -5.97793,0.44542 -9.2479,-2.73357 -7.0724,-6.87568 -45.7532,-48.70013 -60.47858,-65.39379 -5.96804,-6.76576 -13.32253,-14.89975 -16.34329,-18.07552 -11.86556,-12.47442 -45.51767,-48.90961 -52.63512,-56.98812 -4.13609,-4.69461 -9.66916,-10.83212 -12.29563,-13.63891 -2.62648,-2.80678 -7.48673,-8.08015 -10.80058,-11.7186 -3.31385,-3.63844 -8.28462,-9.04326 -11.04615,-12.0107 -2.76154,-2.96745 -9.08798,-10.11197 -14.05875,-15.87673 -4.97077,-5.76476 -11.01477,-12.44598 -13.43112,-14.84716 -2.46238,-2.44694 -4.38185,-4.77291 -4.36724,-5.29209 0.0144,-0.50946 2.80713,-9.06029 6.20618,-19.00183 z m 61.4254,-18.61138 c 20.84912,7.40542 40.39412,14.55004 43.87296,16.03764 2.20667,0.9436 4.95607,3.18335 4.95607,4.03736 0,0.68649 -10.11437,8.16347 -35.9,26.53884 -9.38924,6.69096 -17.12772,12.50429 -17.19661,12.91853 -0.0689,0.41423 2.19051,3.60093 5.02096,7.08156 14.81976,18.22399 24.35871,29.46195 30.00012,35.34356 6.85829,7.15029 13.58013,14.61103 27.37044,30.37908 21.26084,24.30997 42.54857,47.92999 59.2801,65.77483 11.34543,12.10035 15.08143,15.74413 15.73095,15.3427 0.24385,-0.15068 0.57292,0.0636 0.73127,0.47624 0.19677,0.51279 1.00762,0.75029 2.5618,0.75029 1.25064,0 23.68268,-4.73258 49.84897,-10.5169 26.1663,-5.78426 63.61712,-14.04197 83.22404,-18.35043 55.18167,-12.12572 51.96714,-11.31376 51.96714,-13.12633 0,-0.68885 -1.45297,-7.6206 -3.22883,-15.40388 -4.71159,-20.65008 -8.85555,-39.8973 -9.18027,-42.63899 -0.26836,-2.26593 -0.22026,-2.39137 0.91643,-2.38986 2.33945,0.003 18.26426,4.43807 53.1668,14.80662 32.86027,9.76186 33.42307,9.88562 34.83788,7.66067 0.39511,-0.62135 2.91105,-7.23021 5.59098,-14.68636 7.29925,-20.30809 19.1397,-51.75873 26.08592,-69.28952 3.39204,-8.56077 7.91738,-20.64878 10.05634,-26.86224 2.13895,-6.21346 6.14676,-17.28472 8.90624,-24.6028 2.75949,-7.31807 7.32868,-19.51905 10.15376,-27.11329 2.82508,-7.59423 5.88271,-15.50227 6.79473,-17.57342 2.16233,-4.91057 4.95316,-13.21221 8.07724,-24.02669 2.36113,-8.17345 2.4683,-8.78691 1.73145,-9.91149 -2.79497,-4.26566 -12.87144,-15.43997 -24.63388,-27.31777 -7.52048,-7.59423 -16.1292,-16.62232 -19.13049,-20.06242 -9.50324,-10.89268 -20.55194,-22.82811 -23.60057,-25.49467 -5.67874,-4.96705 -17.69696,-17.64955 -27.00949,-28.50236 -4.23388,-4.93416 -31.69525,-33.536318 -41.5787,-43.305938 -6.04073,-5.97116 -7.48473,-7.1549 -8.72802,-7.1549 -2.57546,0 -14.7104,8.61075 -41.35533,29.345028 -11.63171,9.05145 -21.44561,15.65305 -22.18046,14.92032 -0.37106,-0.36999 -5.72571,-17.67956 -13.47982,-43.575238 -2.82187,-9.4239 -5.32039,-17.44135 -5.55228,-17.81656 -0.34648,-0.56061 -3.35624,-0.20067 -16.88853,2.01971 -9.0568,1.48604 -23.58415,4.14573 -32.283,5.91041 -8.69885,1.76468 -21.57766,4.22366 -28.61958,5.4644 -7.04193,1.24073 -16.30563,2.91513 -20.58602,3.72088 -4.28038,0.80576 -10.49384,1.83013 -13.80769,2.2764 -3.31385,0.44626 -8.96245,1.34024 -12.55245,1.98662 -3.59,0.64638 -8.89968,1.4152 -11.7993,1.7085 -2.89962,0.29329 -15.43951,2.36246 -27.86644,4.59815 -31.57412,5.68041 -32.31746,5.83468 -34.1435,7.0859 -2.01475,1.38053 -4.66941,6.895808 -8.43377,17.521888 -5.38682,15.20598 -61.9803,186.64439 -62.07455,188.04212 -0.0196,0.29045 9.39757,3.87866 20.92699,7.97381 z"
   id="path69" /><path
   style="font-weight:bold;font-size:120px;font-family:'UbuntuMono Nerd Font';-inkscape-font-specification:'UbuntuMono Nerd Font Bold';fill:none;stroke:#000000;stroke-opacity:1"
   d="M 1.46,104.47317 V 57.793172 h 74.28 v 14.88 H 13.7 v 31.799998 z m 40.32,35.28 q 2.76,1.32 6.96,3 4.2,1.8 8.88,3.48 4.68,1.8 9.48,3.36 4.8,1.68 8.64,3 v 15.24 q -6.12,-2.28 -11.88,-4.56 -5.76,-2.28 -11.4,-4.8 -5.64,-2.52 -11.28,-5.4 -5.52,-2.88 -11.4,-6.24 H 1.46 v -14.88 h 28.2 q 11.64,-6.6 22.68,-11.64 11.16,-4.92 23.4,-9.48 v 15.84 q -8.64,2.76 -17.64,6.12 -8.88,3.36 -16.32,6.96 z m 34.8,55.2 q 0,6.36 -1.44,11.52 -1.44,5.16 -4.44,8.88 -3,3.72 -7.68,5.64 -4.56,2.04 -10.8,2.04 -6.48,0 -11.76,-2.64 -5.28,-2.64 -8.04,-8.76 -3.12,2.04 -6.96,4.32 -3.72,2.28 -7.92,4.44 -4.08,2.16 -8.28,4.08 -4.08,2.04 -7.8,3.48 v -15.48 q 7.2,-2.76 13.8,-6.48 6.72,-3.6 13.56,-7.8 v -7.68 H 1.46 v -14.76 h 73.2 q 0.48,2.16 0.84,4.68 0.48,2.64 0.6,5.28 0.24,2.64 0.36,5.04 0.12,2.4 0.12,4.2 z m -24.24,13.08 q 5.88,0 8.64,-3.6 2.76,-3.6 2.76,-9.48 0,-0.84 -0.12,-2.04 0,-1.2 -0.24,-2.4 H 41.06 v 3.24 q 0,7.56 2.88,10.92 3,3.36 8.4,3.36 z m -12.84,34.8 v 32.88 H 24.98 v -32.88 z m -38.04,62.28 q 7.68,0.36 16.2,2.52 8.64,2.16 17.04,5.16 8.4,3.12 15.84,6.72 7.56,3.6 12.96,6.84 v -31.2 h 12.24 v 48.48 H 64.58 q -3.72,-3.24 -10.44,-7.08 -6.72,-3.84 -15.24,-7.32 -8.52,-3.36 -18.24,-6 -9.6,-2.52 -19.2,-3.12 z m 12,65.4 q -0.12,0.6 -0.12,1.32 0,0.72 0,1.32 0,5.04 1.92,8.4 1.92,3.48 5.28,5.52 3.36,2.16 7.92,3 4.68,0.96 10.2,0.96 4.8,0 9.36,-0.72 4.56,-0.72 8.04,-2.52 3.48,-1.8 5.52,-4.92 2.16,-3.12 2.16,-8.04 0,-0.96 -0.12,-2.16 0,-1.2 -0.24,-2.16 z m 25.2,35.52 q -10.32,0 -17.64,-2.64 -7.2,-2.52 -11.76,-7.08 -4.56,-4.56 -6.72,-10.92 -2.04,-6.24 -2.04,-13.8 0,-3.96 0.48,-7.8 0.36,-3.72 1.32,-8.04 h 72.48 q 1.08,5.04 1.44,9.48 0.36,4.44 0.36,8.28 0,7.32 -2.16,13.32 -2.16,6.12 -6.84,10.32 -4.56,4.2 -11.76,6.48 -7.08,2.4 -17.16,2.4 z m -24.96,28.8 h 41.52 q -2.4,-3.36 -4.32,-7.68 -1.8,-4.32 -2.88,-7.32 l 12.24,-4.8 q 1.08,2.88 2.76,6.24 1.68,3.36 3.72,6.72 2.04,3.36 4.32,6.36 2.28,3 4.68,5.16 v 10.08 H 13.7 v 14.76 H 1.46 v -45.12 H 13.7 Z m -12.24,42 h 80.76 l 2.52,14.76 H 57.38 q 0.6,1.8 1.08,4.32 0.6,2.52 0.6,4.44 0,6.24 -1.92,10.44 -1.8,4.2 -5.28,6.72 -3.36,2.52 -8.16,3.6 -4.68,1.08 -10.44,1.08 H 1.46 v -14.76 h 29.88 q 7.92,0 11.4,-1.8 3.48,-1.8 3.48,-6.84 0,-2.04 -0.48,-4.08 -0.48,-1.92 -0.84,-3.12 H 1.46 Z"
   id="text1"
   aria-label="LYR-7D1h" /><path
   style="fill:none;fill-opacity:1;stroke:#c564c5;stroke-opacity:1"
   d="m 158.63516,293.10732 c 1.00869,-3.025 14.2938,-43.3 29.52247,-89.5 31.37339,-95.17905 33.92587,-102.44037 37.44826,-106.533158 2.43603,-2.83053 3.53611,-3.12628 27.5374,-7.40348 13.75,-2.45034 31.525,-5.4093 39.5,-6.57547 20.95777,-3.06461 44.78378,-7.18709 75,-12.97683 26.88501,-5.15145 56.15508,-10.19748 56.58027,-9.75419 0.12827,0.13372 4.06833,12.84313 8.7557,28.24313 9.5791,31.471438 10.27312,33.499998 11.46122,33.499998 1.36452,0 13.25358,-8.48321 35.29141,-25.181508 22.21282,-16.83089 26.00802,-19.23998 28.876,-18.32972 2.07461,0.65845 34.311,33.935638 57.8921,59.761228 8.41185,9.2125 15.63435,16.75 16.05,16.75 0.41565,0 6.56918,6.4069 13.67451,14.23756 7.10533,7.83065 19.66879,21.22216 27.91879,29.75891 8.25,8.53674 17.85944,18.84594 21.35432,22.90932 5.97066,6.94191 6.31757,7.61781 5.74564,11.19445 -0.84977,5.31417 -7.41875,24.18922 -21.02057,60.39976 -6.40453,17.05 -15.09469,40.225 -19.31147,51.5 -4.21678,11.275 -14.27324,38.05 -22.34769,59.5 l -14.68081,39 -2.91886,-0.22657 c -1.60537,-0.12461 -9.19674,-2.05569 -16.86971,-4.29128 -48.44641,-14.11533 -66.05468,-19.01194 -67.41185,-18.74628 -2.09186,0.40946 -1.90654,1.63669 5.08482,33.67257 4.16784,19.09793 6.57853,27.50354 5.80511,27.98154 -2.26485,1.39976 -179.68086,40.11002 -183.81624,40.11002 -2.3221,0 -4.38142,-1.12433 -7.78431,-4.25 -6.49101,-5.96222 -33.69607,-35.62279 -60.78742,-66.27405 -12.62747,-14.28677 -27.52859,-30.92595 -33.11361,-36.97595 -12.75874,-13.82099 -38.42735,-44.60051 -38.42735,-46.07868 0,-0.61008 8.8875,-7.54123 19.75,-15.40255 30.89803,-22.36126 32.25137,-23.41959 31.99266,-25.01877 -0.36784,-2.27381 -8.64421,-5.84562 -38.24266,-16.50425 -28.16405,-10.14209 -30.55086,-11.10564 -30.42105,-12.28093 0.0434,-0.39315 0.90424,-3.18982 1.91292,-6.21482 z"
   id="path45"
   sodipodi:nodetypes="sssssssssssssssssssscsssssssssssssss" /></svg>
